%TF.GenerationSoftware,KiCad,Pcbnew,5.1.10*%
%TF.CreationDate,2021-10-23T16:34:25+02:00*%
%TF.ProjectId,xmas-badge,786d6173-2d62-4616-9467-652e6b696361,rev?*%
%TF.SameCoordinates,Original*%
%TF.FileFunction,Legend,Bot*%
%TF.FilePolarity,Positive*%
%FSLAX46Y46*%
G04 Gerber Fmt 4.6, Leading zero omitted, Abs format (unit mm)*
G04 Created by KiCad (PCBNEW 5.1.10) date 2021-10-23 16:34:25*
%MOMM*%
%LPD*%
G01*
G04 APERTURE LIST*
%ADD10C,0.400000*%
%ADD11C,0.150000*%
%ADD12C,0.120000*%
%ADD13C,0.254000*%
G04 APERTURE END LIST*
D10*
X55309980Y-48637961D02*
X54833790Y-48637961D01*
X54595695Y-48733200D01*
X54357600Y-48923676D01*
X54238552Y-49304628D01*
X54238552Y-49971295D01*
X54357600Y-50352247D01*
X54595695Y-50542723D01*
X54833790Y-50637961D01*
X55309980Y-50637961D01*
X55548076Y-50542723D01*
X55786171Y-50352247D01*
X55905219Y-49971295D01*
X55905219Y-49304628D01*
X55786171Y-48923676D01*
X55548076Y-48733200D01*
X55309980Y-48637961D01*
X52333790Y-49590342D02*
X51976647Y-49685580D01*
X51857600Y-49780819D01*
X51738552Y-49971295D01*
X51738552Y-50257009D01*
X51857600Y-50447485D01*
X51976647Y-50542723D01*
X52214742Y-50637961D01*
X53167123Y-50637961D01*
X53167123Y-48637961D01*
X52333790Y-48637961D01*
X52095695Y-48733200D01*
X51976647Y-48828438D01*
X51857600Y-49018914D01*
X51857600Y-49209390D01*
X51976647Y-49399866D01*
X52095695Y-49495104D01*
X52333790Y-49590342D01*
X53167123Y-49590342D01*
X50667123Y-49590342D02*
X49833790Y-49590342D01*
X49476647Y-50637961D02*
X50667123Y-50637961D01*
X50667123Y-48637961D01*
X49476647Y-48637961D01*
X46976647Y-50637961D02*
X47809980Y-49685580D01*
X48405219Y-50637961D02*
X48405219Y-48637961D01*
X47452838Y-48637961D01*
X47214742Y-48733200D01*
X47095695Y-48828438D01*
X46976647Y-49018914D01*
X46976647Y-49304628D01*
X47095695Y-49495104D01*
X47214742Y-49590342D01*
X47452838Y-49685580D01*
X48405219Y-49685580D01*
X44714742Y-50637961D02*
X45905219Y-50637961D01*
X45905219Y-48637961D01*
X44000457Y-50066533D02*
X42809980Y-50066533D01*
X44238552Y-50637961D02*
X43405219Y-48637961D01*
X42571885Y-50637961D01*
X40905219Y-49590342D02*
X40548076Y-49685580D01*
X40429028Y-49780819D01*
X40309980Y-49971295D01*
X40309980Y-50257009D01*
X40429028Y-50447485D01*
X40548076Y-50542723D01*
X40786171Y-50637961D01*
X41738552Y-50637961D01*
X41738552Y-48637961D01*
X40905219Y-48637961D01*
X40667123Y-48733200D01*
X40548076Y-48828438D01*
X40429028Y-49018914D01*
X40429028Y-49209390D01*
X40548076Y-49399866D01*
X40667123Y-49495104D01*
X40905219Y-49590342D01*
X41738552Y-49590342D01*
D11*
X68722916Y-51658369D02*
X69343048Y-52178721D01*
X69446613Y-52203461D01*
X69513700Y-52197591D01*
X69611396Y-52155244D01*
X69703223Y-52045809D01*
X69727963Y-51942243D01*
X69197134Y-52056286D02*
X69294830Y-52013938D01*
X69417266Y-51868025D01*
X69442006Y-51764459D01*
X69436136Y-51697372D01*
X69393789Y-51599676D01*
X69174919Y-51416022D01*
X69071353Y-51391282D01*
X69004266Y-51397152D01*
X68906570Y-51439500D01*
X68784134Y-51585413D01*
X68759395Y-51688978D01*
X68927523Y-52451678D02*
X68416827Y-52023152D01*
X68161479Y-51808890D02*
X68228566Y-51803021D01*
X68234435Y-51870108D01*
X68167348Y-51875977D01*
X68161479Y-51808890D01*
X68234435Y-51870108D01*
X68202564Y-52278501D02*
X67957693Y-52570327D01*
X67855389Y-52173673D02*
X68511999Y-52724634D01*
X68554347Y-52822330D01*
X68529607Y-52925895D01*
X68468389Y-52998852D01*
X68254127Y-53254200D02*
X67488082Y-52611413D01*
X67978646Y-53582505D02*
X67577385Y-53245807D01*
X67535037Y-53148111D01*
X67559777Y-53044545D01*
X67651604Y-52935110D01*
X67749300Y-52892762D01*
X67816387Y-52886893D01*
X66886380Y-53847068D02*
X67397077Y-54275593D01*
X67161861Y-53518763D02*
X67563122Y-53855461D01*
X67605470Y-53953157D01*
X67580730Y-54056723D01*
X67488903Y-54166158D01*
X67391207Y-54208506D01*
X67324120Y-54214375D01*
X67090987Y-54640376D02*
X66324943Y-53997588D01*
X66616769Y-54242460D02*
X66519073Y-54284807D01*
X66396637Y-54430721D01*
X66371898Y-54534286D01*
X66377767Y-54601373D01*
X66420115Y-54699070D01*
X66638985Y-54882723D01*
X66742550Y-54907463D01*
X66809637Y-54901593D01*
X66907334Y-54859246D01*
X67029769Y-54713333D01*
X67054509Y-54609767D01*
X66436461Y-55272246D02*
X66442330Y-55339333D01*
X66509417Y-55333464D01*
X66503548Y-55266377D01*
X66436461Y-55272246D01*
X66509417Y-55333464D01*
X65891369Y-55995943D02*
X65989066Y-55953595D01*
X66111501Y-55807682D01*
X66136241Y-55704116D01*
X66130372Y-55637029D01*
X66088024Y-55539333D01*
X65869154Y-55355679D01*
X65765588Y-55330940D01*
X65698501Y-55336809D01*
X65600805Y-55379157D01*
X65478369Y-55525070D01*
X65453630Y-55628635D01*
X65560541Y-56464291D02*
X65585280Y-56360726D01*
X65579411Y-56293638D01*
X65537063Y-56195942D01*
X65318193Y-56012289D01*
X65214628Y-55987549D01*
X65147540Y-55993419D01*
X65049844Y-56035766D01*
X64958017Y-56145201D01*
X64933278Y-56248767D01*
X64939147Y-56315854D01*
X64981495Y-56413550D01*
X65200365Y-56597204D01*
X65303930Y-56621943D01*
X65371018Y-56616074D01*
X65468714Y-56573726D01*
X65560541Y-56464291D01*
X65070798Y-57047944D02*
X64560101Y-56619419D01*
X64633058Y-56680637D02*
X64565971Y-56686506D01*
X64468275Y-56728854D01*
X64376448Y-56838289D01*
X64351708Y-56941854D01*
X64394056Y-57039551D01*
X64795317Y-57376249D01*
X64394056Y-57039551D02*
X64290490Y-57014811D01*
X64192794Y-57057159D01*
X64100967Y-57166594D01*
X64076228Y-57270159D01*
X64118575Y-57367855D01*
X64519837Y-57704554D01*
X62952091Y-57943115D02*
X64487966Y-58112947D01*
X63448524Y-58981294D02*
X63473264Y-58877729D01*
X63467394Y-58810642D01*
X63425047Y-58712945D01*
X63206177Y-58529292D01*
X63102611Y-58504552D01*
X63035524Y-58510422D01*
X62937828Y-58552769D01*
X62846001Y-58662204D01*
X62821261Y-58765770D01*
X62827131Y-58832857D01*
X62869479Y-58930553D01*
X63088348Y-59114207D01*
X63191914Y-59138946D01*
X63259001Y-59133077D01*
X63356697Y-59090729D01*
X63448524Y-58981294D01*
X62958781Y-59564947D02*
X62192737Y-58922160D01*
X62484563Y-59167031D02*
X62386867Y-59209379D01*
X62264431Y-59355292D01*
X62239692Y-59458858D01*
X62245561Y-59525945D01*
X62287909Y-59623641D01*
X62506779Y-59807295D01*
X62610344Y-59832034D01*
X62677431Y-59826165D01*
X62775128Y-59783817D01*
X62897563Y-59637904D01*
X62922303Y-59534338D01*
X62095862Y-60519253D02*
X62193558Y-60476905D01*
X62315994Y-60330992D01*
X62340733Y-60227426D01*
X62298385Y-60129730D01*
X62006559Y-59884859D01*
X61902993Y-59860119D01*
X61805297Y-59902467D01*
X61682862Y-60048380D01*
X61658122Y-60151945D01*
X61700470Y-60249642D01*
X61773426Y-60310860D01*
X62152472Y-60007294D01*
X61826251Y-60914645D02*
X61315554Y-60486120D01*
X61461468Y-60608555D02*
X61357902Y-60583816D01*
X61290815Y-60589685D01*
X61193119Y-60632033D01*
X61131901Y-60704989D01*
X61336508Y-61498298D02*
X61361247Y-61394732D01*
X61318900Y-61297036D01*
X60662290Y-60746075D01*
X60816156Y-62118429D02*
X60414894Y-61781731D01*
X60372547Y-61684034D01*
X60397286Y-61580469D01*
X60519722Y-61434556D01*
X60617418Y-61392208D01*
X60779677Y-62087820D02*
X60877374Y-62045472D01*
X61030418Y-61863081D01*
X61055158Y-61759515D01*
X61012810Y-61661819D01*
X60939854Y-61600601D01*
X60836288Y-61575862D01*
X60738592Y-61618209D01*
X60585547Y-61800601D01*
X60487851Y-61842948D01*
X60510066Y-62483212D02*
X59744022Y-61840424D01*
X60035848Y-62085296D02*
X59938152Y-62127643D01*
X59815717Y-62273557D01*
X59790977Y-62377122D01*
X59796846Y-62444209D01*
X59839194Y-62541906D01*
X60058064Y-62725559D01*
X60161629Y-62750299D01*
X60228717Y-62744429D01*
X60326413Y-62702082D01*
X60448849Y-62556168D01*
X60473588Y-62452603D01*
X58666840Y-63050078D02*
X60202715Y-63219909D01*
X59316318Y-63905866D02*
X58468923Y-63878602D01*
X58805622Y-63477341D02*
X58979620Y-64307127D01*
X58734748Y-64598954D02*
X58224052Y-64170429D01*
X58297009Y-64231646D02*
X58229921Y-64237516D01*
X58132225Y-64279864D01*
X58040398Y-64389298D01*
X58015659Y-64492864D01*
X58058007Y-64590560D01*
X58459268Y-64927258D01*
X58058007Y-64590560D02*
X57954441Y-64565821D01*
X57856745Y-64608168D01*
X57764918Y-64717603D01*
X57740178Y-64821169D01*
X57782526Y-64918865D01*
X58183787Y-65255563D01*
X57602218Y-65948651D02*
X57200956Y-65611953D01*
X57158609Y-65514257D01*
X57183348Y-65410691D01*
X57305784Y-65264778D01*
X57403480Y-65222430D01*
X57565739Y-65918042D02*
X57663436Y-65875694D01*
X57816480Y-65693303D01*
X57841220Y-65589737D01*
X57798872Y-65492041D01*
X57725916Y-65430823D01*
X57622350Y-65406084D01*
X57524654Y-65448431D01*
X57371609Y-65630823D01*
X57273913Y-65673171D01*
X57290259Y-66246347D02*
X57265519Y-66349912D01*
X57143084Y-66495826D01*
X57045388Y-66538173D01*
X56941822Y-66513434D01*
X56905344Y-66482825D01*
X56862996Y-66385129D01*
X56887736Y-66281563D01*
X56979562Y-66172128D01*
X57004302Y-66068563D01*
X56961954Y-65970866D01*
X56925476Y-65940258D01*
X56821910Y-65915518D01*
X56724214Y-65957866D01*
X56632387Y-66067301D01*
X56607648Y-66170866D01*
X56483950Y-66688694D02*
X55994207Y-67272347D01*
X55979944Y-67882001D02*
X55213900Y-67239214D01*
X55505726Y-67484085D02*
X55408030Y-67526433D01*
X55285594Y-67672346D01*
X55260855Y-67775912D01*
X55266724Y-67842999D01*
X55309072Y-67940695D01*
X55527942Y-68124349D01*
X55631507Y-68149088D01*
X55698594Y-68143219D01*
X55796291Y-68100871D01*
X55918726Y-67954958D01*
X55943466Y-67851392D01*
X55122894Y-68903394D02*
X54721633Y-68566696D01*
X54679285Y-68468999D01*
X54704025Y-68365434D01*
X54826460Y-68219521D01*
X54924157Y-68177173D01*
X55086416Y-68872785D02*
X55184112Y-68830437D01*
X55337157Y-68648046D01*
X55361896Y-68544480D01*
X55319549Y-68446784D01*
X55246592Y-68385566D01*
X55143026Y-68360827D01*
X55045330Y-68403174D01*
X54892286Y-68585566D01*
X54794589Y-68627913D01*
X54541324Y-69596482D02*
X53775280Y-68953694D01*
X54504846Y-69565873D02*
X54602542Y-69523525D01*
X54724978Y-69377612D01*
X54749718Y-69274046D01*
X54743848Y-69206959D01*
X54701500Y-69109263D01*
X54482631Y-68925609D01*
X54379065Y-68900870D01*
X54311978Y-68906739D01*
X54214282Y-68949087D01*
X54091846Y-69095000D01*
X54067106Y-69198566D01*
X53449058Y-69861044D02*
X54069190Y-70381396D01*
X54172755Y-70406136D01*
X54239842Y-70400267D01*
X54337539Y-70357919D01*
X54429365Y-70248484D01*
X54454105Y-70144918D01*
X53923276Y-70258961D02*
X54020973Y-70216613D01*
X54143408Y-70070700D01*
X54168148Y-69967134D01*
X54162278Y-69900047D01*
X54119931Y-69802351D01*
X53901061Y-69618697D01*
X53797495Y-69593958D01*
X53730408Y-69599827D01*
X53632712Y-69642175D01*
X53510276Y-69788088D01*
X53485537Y-69891653D01*
X53372316Y-70915570D02*
X53470012Y-70873222D01*
X53592447Y-70727309D01*
X53617187Y-70623744D01*
X53574839Y-70526048D01*
X53283013Y-70281176D01*
X53179447Y-70256436D01*
X53081751Y-70298784D01*
X52959315Y-70444697D01*
X52934576Y-70548263D01*
X52976924Y-70645959D01*
X53049880Y-70707177D01*
X53428926Y-70403612D01*
X54052076Y-52650380D02*
X54052076Y-51650380D01*
X53480647Y-52650380D02*
X53909219Y-52078952D01*
X53480647Y-51650380D02*
X54052076Y-52221809D01*
X52623504Y-52650380D02*
X52623504Y-52126571D01*
X52671123Y-52031333D01*
X52766361Y-51983714D01*
X52956838Y-51983714D01*
X53052076Y-52031333D01*
X52623504Y-52602761D02*
X52718742Y-52650380D01*
X52956838Y-52650380D01*
X53052076Y-52602761D01*
X53099695Y-52507523D01*
X53099695Y-52412285D01*
X53052076Y-52317047D01*
X52956838Y-52269428D01*
X52718742Y-52269428D01*
X52623504Y-52221809D01*
X52147314Y-52650380D02*
X52147314Y-51983714D01*
X52147314Y-52174190D02*
X52099695Y-52078952D01*
X52052076Y-52031333D01*
X51956838Y-51983714D01*
X51861600Y-51983714D01*
X51385409Y-52650380D02*
X51480647Y-52602761D01*
X51528266Y-52507523D01*
X51528266Y-51650380D01*
X51004457Y-52650380D02*
X51004457Y-51650380D01*
X50575885Y-52650380D02*
X50575885Y-52126571D01*
X50623504Y-52031333D01*
X50718742Y-51983714D01*
X50861600Y-51983714D01*
X50956838Y-52031333D01*
X51004457Y-52078952D01*
X49718742Y-52602761D02*
X49813980Y-52650380D01*
X50004457Y-52650380D01*
X50099695Y-52602761D01*
X50147314Y-52507523D01*
X50147314Y-52126571D01*
X50099695Y-52031333D01*
X50004457Y-51983714D01*
X49813980Y-51983714D01*
X49718742Y-52031333D01*
X49671123Y-52126571D01*
X49671123Y-52221809D01*
X50147314Y-52317047D01*
X49242552Y-52650380D02*
X49242552Y-51983714D01*
X49242552Y-51650380D02*
X49290171Y-51698000D01*
X49242552Y-51745619D01*
X49194933Y-51698000D01*
X49242552Y-51650380D01*
X49242552Y-51745619D01*
X48766361Y-51983714D02*
X48766361Y-52650380D01*
X48766361Y-52078952D02*
X48718742Y-52031333D01*
X48623504Y-51983714D01*
X48480647Y-51983714D01*
X48385409Y-52031333D01*
X48337790Y-52126571D01*
X48337790Y-52650380D01*
X47956838Y-51983714D02*
X47433028Y-51983714D01*
X47956838Y-52650380D01*
X47433028Y-52650380D01*
X45956838Y-52126571D02*
X46290171Y-52126571D01*
X46290171Y-52650380D02*
X46290171Y-51650380D01*
X45813980Y-51650380D01*
X45433028Y-52650380D02*
X45433028Y-51983714D01*
X45433028Y-52174190D02*
X45385409Y-52078952D01*
X45337790Y-52031333D01*
X45242552Y-51983714D01*
X45147314Y-51983714D01*
X44385409Y-52650380D02*
X44385409Y-52126571D01*
X44433028Y-52031333D01*
X44528266Y-51983714D01*
X44718742Y-51983714D01*
X44813980Y-52031333D01*
X44385409Y-52602761D02*
X44480647Y-52650380D01*
X44718742Y-52650380D01*
X44813980Y-52602761D01*
X44861599Y-52507523D01*
X44861599Y-52412285D01*
X44813980Y-52317047D01*
X44718742Y-52269428D01*
X44480647Y-52269428D01*
X44385409Y-52221809D01*
X43909219Y-51983714D02*
X43909219Y-52650380D01*
X43909219Y-52078952D02*
X43861599Y-52031333D01*
X43766361Y-51983714D01*
X43623504Y-51983714D01*
X43528266Y-52031333D01*
X43480647Y-52126571D01*
X43480647Y-52650380D01*
X43004457Y-52650380D02*
X43004457Y-51650380D01*
X42909219Y-52269428D02*
X42623504Y-52650380D01*
X42623504Y-51983714D02*
X43004457Y-52364666D01*
X55885409Y-54014666D02*
X55409219Y-54014666D01*
X55980647Y-54300380D02*
X55647314Y-53300380D01*
X55313980Y-54300380D01*
X54837790Y-54300380D02*
X54933028Y-54252761D01*
X54980647Y-54157523D01*
X54980647Y-53300380D01*
X54075885Y-54252761D02*
X54171123Y-54300380D01*
X54361600Y-54300380D01*
X54456838Y-54252761D01*
X54504457Y-54157523D01*
X54504457Y-53776571D01*
X54456838Y-53681333D01*
X54361600Y-53633714D01*
X54171123Y-53633714D01*
X54075885Y-53681333D01*
X54028266Y-53776571D01*
X54028266Y-53871809D01*
X54504457Y-53967047D01*
X53694933Y-54300380D02*
X53171123Y-53633714D01*
X53694933Y-53633714D02*
X53171123Y-54300380D01*
X52361600Y-54300380D02*
X52361600Y-53776571D01*
X52409219Y-53681333D01*
X52504457Y-53633714D01*
X52694933Y-53633714D01*
X52790171Y-53681333D01*
X52361600Y-54252761D02*
X52456838Y-54300380D01*
X52694933Y-54300380D01*
X52790171Y-54252761D01*
X52837790Y-54157523D01*
X52837790Y-54062285D01*
X52790171Y-53967047D01*
X52694933Y-53919428D01*
X52456838Y-53919428D01*
X52361600Y-53871809D01*
X51885409Y-53633714D02*
X51885409Y-54300380D01*
X51885409Y-53728952D02*
X51837790Y-53681333D01*
X51742552Y-53633714D01*
X51599695Y-53633714D01*
X51504457Y-53681333D01*
X51456838Y-53776571D01*
X51456838Y-54300380D01*
X50552076Y-54300380D02*
X50552076Y-53300380D01*
X50552076Y-54252761D02*
X50647314Y-54300380D01*
X50837790Y-54300380D01*
X50933028Y-54252761D01*
X50980647Y-54205142D01*
X51028266Y-54109904D01*
X51028266Y-53824190D01*
X50980647Y-53728952D01*
X50933028Y-53681333D01*
X50837790Y-53633714D01*
X50647314Y-53633714D01*
X50552076Y-53681333D01*
X49694933Y-54252761D02*
X49790171Y-54300380D01*
X49980647Y-54300380D01*
X50075885Y-54252761D01*
X50123504Y-54157523D01*
X50123504Y-53776571D01*
X50075885Y-53681333D01*
X49980647Y-53633714D01*
X49790171Y-53633714D01*
X49694933Y-53681333D01*
X49647314Y-53776571D01*
X49647314Y-53871809D01*
X50123504Y-53967047D01*
X49218742Y-54300380D02*
X49218742Y-53633714D01*
X49218742Y-53824190D02*
X49171123Y-53728952D01*
X49123504Y-53681333D01*
X49028266Y-53633714D01*
X48933028Y-53633714D01*
X47837790Y-54300380D02*
X47837790Y-53300380D01*
X47266361Y-54300380D02*
X47694933Y-53728952D01*
X47266361Y-53300380D02*
X47837790Y-53871809D01*
X46409219Y-53633714D02*
X46409219Y-54300380D01*
X46837790Y-53633714D02*
X46837790Y-54157523D01*
X46790171Y-54252761D01*
X46694933Y-54300380D01*
X46552076Y-54300380D01*
X46456838Y-54252761D01*
X46409219Y-54205142D01*
X46075885Y-53633714D02*
X45694933Y-53633714D01*
X45933028Y-53300380D02*
X45933028Y-54157523D01*
X45885409Y-54252761D01*
X45790171Y-54300380D01*
X45694933Y-54300380D01*
X45409219Y-54252761D02*
X45313980Y-54300380D01*
X45123504Y-54300380D01*
X45028266Y-54252761D01*
X44980647Y-54157523D01*
X44980647Y-54109904D01*
X45028266Y-54014666D01*
X45123504Y-53967047D01*
X45266361Y-53967047D01*
X45361600Y-53919428D01*
X45409219Y-53824190D01*
X45409219Y-53776571D01*
X45361600Y-53681333D01*
X45266361Y-53633714D01*
X45123504Y-53633714D01*
X45028266Y-53681333D01*
X44123504Y-54252761D02*
X44218742Y-54300380D01*
X44409219Y-54300380D01*
X44504457Y-54252761D01*
X44552076Y-54205142D01*
X44599695Y-54109904D01*
X44599695Y-53824190D01*
X44552076Y-53728952D01*
X44504457Y-53681333D01*
X44409219Y-53633714D01*
X44218742Y-53633714D01*
X44123504Y-53681333D01*
X43694933Y-54300380D02*
X43694933Y-53300380D01*
X43266361Y-54300380D02*
X43266361Y-53776571D01*
X43313980Y-53681333D01*
X43409219Y-53633714D01*
X43552076Y-53633714D01*
X43647314Y-53681333D01*
X43694933Y-53728952D01*
X42409219Y-54252761D02*
X42504457Y-54300380D01*
X42694933Y-54300380D01*
X42790171Y-54252761D01*
X42837790Y-54157523D01*
X42837790Y-53776571D01*
X42790171Y-53681333D01*
X42694933Y-53633714D01*
X42504457Y-53633714D01*
X42409219Y-53681333D01*
X42361600Y-53776571D01*
X42361600Y-53871809D01*
X42837790Y-53967047D01*
X41933028Y-54300380D02*
X41933028Y-53633714D01*
X41933028Y-53824190D02*
X41885409Y-53728952D01*
X41837790Y-53681333D01*
X41742552Y-53633714D01*
X41647314Y-53633714D01*
X40885409Y-54300380D02*
X40885409Y-53776571D01*
X40933028Y-53681333D01*
X41028266Y-53633714D01*
X41218742Y-53633714D01*
X41313980Y-53681333D01*
X40885409Y-54252761D02*
X40980647Y-54300380D01*
X41218742Y-54300380D01*
X41313980Y-54252761D01*
X41361600Y-54157523D01*
X41361600Y-54062285D01*
X41313980Y-53967047D01*
X41218742Y-53919428D01*
X40980647Y-53919428D01*
X40885409Y-53871809D01*
X53099695Y-54950380D02*
X52909219Y-54950380D01*
X52813980Y-54998000D01*
X52718742Y-55093238D01*
X52671123Y-55283714D01*
X52671123Y-55617047D01*
X52718742Y-55807523D01*
X52813980Y-55902761D01*
X52909219Y-55950380D01*
X53099695Y-55950380D01*
X53194933Y-55902761D01*
X53290171Y-55807523D01*
X53337790Y-55617047D01*
X53337790Y-55283714D01*
X53290171Y-55093238D01*
X53194933Y-54998000D01*
X53099695Y-54950380D01*
X51813980Y-55902761D02*
X51909219Y-55950380D01*
X52099695Y-55950380D01*
X52194933Y-55902761D01*
X52242552Y-55855142D01*
X52290171Y-55759904D01*
X52290171Y-55474190D01*
X52242552Y-55378952D01*
X52194933Y-55331333D01*
X52099695Y-55283714D01*
X51909219Y-55283714D01*
X51813980Y-55331333D01*
X51528266Y-55283714D02*
X51147314Y-55283714D01*
X51385409Y-54950380D02*
X51385409Y-55807523D01*
X51337790Y-55902761D01*
X51242552Y-55950380D01*
X51147314Y-55950380D01*
X50671123Y-55950380D02*
X50766361Y-55902761D01*
X50813980Y-55855142D01*
X50861600Y-55759904D01*
X50861600Y-55474190D01*
X50813980Y-55378952D01*
X50766361Y-55331333D01*
X50671123Y-55283714D01*
X50528266Y-55283714D01*
X50433028Y-55331333D01*
X50385409Y-55378952D01*
X50337790Y-55474190D01*
X50337790Y-55759904D01*
X50385409Y-55855142D01*
X50433028Y-55902761D01*
X50528266Y-55950380D01*
X50671123Y-55950380D01*
X49909219Y-55950380D02*
X49909219Y-54950380D01*
X49909219Y-55331333D02*
X49813980Y-55283714D01*
X49623504Y-55283714D01*
X49528266Y-55331333D01*
X49480647Y-55378952D01*
X49433028Y-55474190D01*
X49433028Y-55759904D01*
X49480647Y-55855142D01*
X49528266Y-55902761D01*
X49623504Y-55950380D01*
X49813980Y-55950380D01*
X49909219Y-55902761D01*
X48623504Y-55902761D02*
X48718742Y-55950380D01*
X48909219Y-55950380D01*
X49004457Y-55902761D01*
X49052076Y-55807523D01*
X49052076Y-55426571D01*
X49004457Y-55331333D01*
X48909219Y-55283714D01*
X48718742Y-55283714D01*
X48623504Y-55331333D01*
X48575885Y-55426571D01*
X48575885Y-55521809D01*
X49052076Y-55617047D01*
X48147314Y-55950380D02*
X48147314Y-55283714D01*
X48147314Y-55474190D02*
X48099695Y-55378952D01*
X48052076Y-55331333D01*
X47956838Y-55283714D01*
X47861600Y-55283714D01*
X46813980Y-55045619D02*
X46766361Y-54998000D01*
X46671123Y-54950380D01*
X46433028Y-54950380D01*
X46337790Y-54998000D01*
X46290171Y-55045619D01*
X46242552Y-55140857D01*
X46242552Y-55236095D01*
X46290171Y-55378952D01*
X46861600Y-55950380D01*
X46242552Y-55950380D01*
X45623504Y-54950380D02*
X45528266Y-54950380D01*
X45433028Y-54998000D01*
X45385409Y-55045619D01*
X45337790Y-55140857D01*
X45290171Y-55331333D01*
X45290171Y-55569428D01*
X45337790Y-55759904D01*
X45385409Y-55855142D01*
X45433028Y-55902761D01*
X45528266Y-55950380D01*
X45623504Y-55950380D01*
X45718742Y-55902761D01*
X45766361Y-55855142D01*
X45813980Y-55759904D01*
X45861600Y-55569428D01*
X45861600Y-55331333D01*
X45813980Y-55140857D01*
X45766361Y-55045619D01*
X45718742Y-54998000D01*
X45623504Y-54950380D01*
X44909219Y-55045619D02*
X44861600Y-54998000D01*
X44766361Y-54950380D01*
X44528266Y-54950380D01*
X44433028Y-54998000D01*
X44385409Y-55045619D01*
X44337790Y-55140857D01*
X44337790Y-55236095D01*
X44385409Y-55378952D01*
X44956838Y-55950380D01*
X44337790Y-55950380D01*
X43385409Y-55950380D02*
X43956838Y-55950380D01*
X43671123Y-55950380D02*
X43671123Y-54950380D01*
X43766361Y-55093238D01*
X43861600Y-55188476D01*
X43956838Y-55236095D01*
X47955200Y-39065200D02*
X47955200Y-37947600D01*
X42722800Y-39065200D02*
X47955200Y-39065200D01*
X40640000Y-36220400D02*
X42722800Y-39065200D01*
X52979390Y-40000228D02*
X52217485Y-40000228D01*
X52598438Y-40381180D02*
X52598438Y-39619276D01*
X50979390Y-40381180D02*
X50979390Y-39381180D01*
X50598438Y-39381180D01*
X50503200Y-39428800D01*
X50455580Y-39476419D01*
X50407961Y-39571657D01*
X50407961Y-39714514D01*
X50455580Y-39809752D01*
X50503200Y-39857371D01*
X50598438Y-39904990D01*
X50979390Y-39904990D01*
X49836533Y-40381180D02*
X49931771Y-40333561D01*
X49979390Y-40285942D01*
X50027009Y-40190704D01*
X50027009Y-39904990D01*
X49979390Y-39809752D01*
X49931771Y-39762133D01*
X49836533Y-39714514D01*
X49693676Y-39714514D01*
X49598438Y-39762133D01*
X49550819Y-39809752D01*
X49503200Y-39904990D01*
X49503200Y-40190704D01*
X49550819Y-40285942D01*
X49598438Y-40333561D01*
X49693676Y-40381180D01*
X49836533Y-40381180D01*
X48931771Y-40381180D02*
X49027009Y-40333561D01*
X49074628Y-40238323D01*
X49074628Y-39381180D01*
X40182800Y-36068000D02*
X40640000Y-36220400D01*
X47188190Y-38425428D02*
X46426285Y-38425428D01*
X45188190Y-38806380D02*
X45188190Y-37806380D01*
X44807238Y-37806380D01*
X44712000Y-37854000D01*
X44664380Y-37901619D01*
X44616761Y-37996857D01*
X44616761Y-38139714D01*
X44664380Y-38234952D01*
X44712000Y-38282571D01*
X44807238Y-38330190D01*
X45188190Y-38330190D01*
X44045333Y-38806380D02*
X44140571Y-38758761D01*
X44188190Y-38711142D01*
X44235809Y-38615904D01*
X44235809Y-38330190D01*
X44188190Y-38234952D01*
X44140571Y-38187333D01*
X44045333Y-38139714D01*
X43902476Y-38139714D01*
X43807238Y-38187333D01*
X43759619Y-38234952D01*
X43712000Y-38330190D01*
X43712000Y-38615904D01*
X43759619Y-38711142D01*
X43807238Y-38758761D01*
X43902476Y-38806380D01*
X44045333Y-38806380D01*
X43140571Y-38806380D02*
X43235809Y-38758761D01*
X43283428Y-38663523D01*
X43283428Y-37806380D01*
X55829200Y-35255200D02*
X55829200Y-35306000D01*
X52984400Y-40640000D02*
X55829200Y-35255200D01*
X45516800Y-40640000D02*
X52984400Y-40640000D01*
X45516800Y-42519600D02*
X45516800Y-40640000D01*
X52171600Y-43891200D02*
X55778400Y-42824400D01*
X54914800Y-40386000D02*
X56489600Y-39878000D01*
X56083200Y-43789600D02*
X54914800Y-40386000D01*
X58978800Y-51866800D02*
X60655200Y-51308000D01*
X57912000Y-48869600D02*
X58978800Y-51866800D01*
X59486800Y-38557200D02*
X60248800Y-38303200D01*
X63804800Y-50596800D02*
X64617600Y-50342800D01*
X62433200Y-52882800D02*
X62382400Y-52628800D01*
X53136800Y-65633600D02*
X51155600Y-65633600D01*
X53492400Y-65278000D02*
X53136800Y-65633600D01*
X46685200Y-62534800D02*
X46685200Y-64465200D01*
X35915600Y-51816000D02*
X46685200Y-62534800D01*
X39065200Y-64414400D02*
X44958000Y-65582800D01*
X40284400Y-62738000D02*
X38912800Y-63449200D01*
X38100000Y-58978800D02*
X40284400Y-62738000D01*
X33832800Y-52070000D02*
X35306000Y-54457600D01*
X32562800Y-52730400D02*
X33832800Y-52070000D01*
X30683200Y-50749200D02*
X30734000Y-51968400D01*
X40182800Y-36068000D02*
X39776400Y-37084000D01*
X36017200Y-34645600D02*
X40182800Y-36068000D01*
X35712400Y-35560000D02*
X36017200Y-34645600D01*
D12*
%TO.C,D1*%
X45344400Y-67178600D02*
X45344400Y-64088600D01*
X50404400Y-65633600D02*
G75*
G03*
X50404400Y-65633600I-2500000J0D01*
G01*
X50894400Y-65633138D02*
G75*
G02*
X45344400Y-67178430I-2990000J-462D01*
G01*
X50894400Y-65634062D02*
G75*
G03*
X45344400Y-64088770I-2990000J462D01*
G01*
%TO.C,R1*%
X32524943Y-48464102D02*
X32975996Y-48628272D01*
X32975996Y-48628272D02*
X36444080Y-39099789D01*
X36444080Y-39099789D02*
X35993027Y-38935619D01*
X29818628Y-47479084D02*
X29367576Y-47314915D01*
X29367576Y-47314915D02*
X32835660Y-37786432D01*
X32835660Y-37786432D02*
X33286713Y-37950601D01*
%TO.C,R2*%
X36461687Y-49882598D02*
X36912740Y-50046768D01*
X36912740Y-50046768D02*
X40380824Y-40518285D01*
X40380824Y-40518285D02*
X39929771Y-40354115D01*
X33755372Y-48897580D02*
X33304320Y-48733411D01*
X33304320Y-48733411D02*
X36772404Y-39204928D01*
X36772404Y-39204928D02*
X37223457Y-39369097D01*
%TO.C,R3*%
X30117631Y-55510113D02*
X30533323Y-55270113D01*
X35187631Y-64291610D02*
X30117631Y-55510113D01*
X35603323Y-64051610D02*
X35187631Y-64291610D01*
X33443169Y-53590113D02*
X33027477Y-53830113D01*
X38513169Y-62371610D02*
X33443169Y-53590113D01*
X38097477Y-62611610D02*
X38513169Y-62371610D01*
%TO.C,R4*%
X56570720Y-40979389D02*
X57021773Y-40815219D01*
X60038804Y-50507872D02*
X56570720Y-40979389D01*
X60489857Y-50343702D02*
X60038804Y-50507872D01*
X60179140Y-39666032D02*
X59728087Y-39830201D01*
X63647224Y-49194515D02*
X60179140Y-39666032D01*
X63196172Y-49358684D02*
X63647224Y-49194515D01*
%TO.C,R5*%
X67107772Y-47987084D02*
X67558824Y-47822915D01*
X67558824Y-47822915D02*
X64090740Y-38294432D01*
X64090740Y-38294432D02*
X63639687Y-38458601D01*
X64401457Y-48972102D02*
X63950404Y-49136272D01*
X63950404Y-49136272D02*
X60482320Y-39607789D01*
X60482320Y-39607789D02*
X60933373Y-39443619D01*
%TO.C,R6*%
X60479829Y-54127220D02*
X60847531Y-54435758D01*
X53961963Y-61894911D02*
X60479829Y-54127220D01*
X54329664Y-62203449D02*
X53961963Y-61894911D01*
X63421440Y-56595525D02*
X63053739Y-56286987D01*
X56903573Y-64363215D02*
X63421440Y-56595525D01*
X56535872Y-64054677D02*
X56903573Y-64363215D01*
%TO.C,S1*%
X43129200Y-45897800D02*
X53086000Y-45897800D01*
X53086000Y-45897800D02*
X53086000Y-41960800D01*
X53086000Y-41960800D02*
X43129200Y-41960800D01*
X43129200Y-41960800D02*
X43103800Y-45897800D01*
D13*
%TO.C,U1*%
X50965100Y-36855400D02*
X52870100Y-36855400D01*
X43345100Y-36855400D02*
X45250100Y-36855400D01*
X54584359Y-29576282D02*
X54830259Y-29576282D01*
X54575581Y-35354859D02*
X54830259Y-35354859D01*
X54830259Y-35321081D02*
X54830259Y-35354859D01*
X54830259Y-29576282D02*
X54830259Y-29610060D01*
X41639619Y-29576282D02*
X41384950Y-29576282D01*
X41639619Y-35354859D02*
X41384950Y-35354859D01*
X41384950Y-35321081D02*
X41384950Y-35354859D01*
X41384950Y-29576282D02*
X41384950Y-29610060D01*
X52942118Y-37032231D02*
X52950900Y-37041018D01*
X52933331Y-37023450D02*
X52942118Y-37032231D01*
X52924550Y-37005890D02*
X52933331Y-37023450D01*
X52898209Y-36988318D02*
X52924550Y-37005890D01*
X52880640Y-36953200D02*
X52898209Y-36988318D01*
X52845509Y-36918068D02*
X52880640Y-36953200D01*
X52819168Y-36882940D02*
X52845509Y-36918068D01*
X52784040Y-36847809D02*
X52819168Y-36882940D01*
X54733650Y-35539290D02*
X54742431Y-35548068D01*
X54724868Y-35530509D02*
X54733650Y-35539290D01*
X54716090Y-35512940D02*
X54724868Y-35530509D01*
X54689740Y-35495381D02*
X54716090Y-35512940D01*
X54672181Y-35460250D02*
X54689740Y-35495381D01*
X54637050Y-35425118D02*
X54672181Y-35460250D01*
X54610700Y-35389990D02*
X54637050Y-35425118D01*
X54575581Y-35354859D02*
X54610700Y-35389990D01*
X54742431Y-35548068D02*
X52950900Y-37041018D01*
X41481550Y-35539290D02*
X41472769Y-35548068D01*
X41490332Y-35530509D02*
X41481550Y-35539290D01*
X41507891Y-35512940D02*
X41490332Y-35530509D01*
X41525460Y-35495381D02*
X41507891Y-35512940D01*
X41551800Y-35460250D02*
X41525460Y-35495381D01*
X41578150Y-35425118D02*
X41551800Y-35460250D01*
X41604500Y-35389990D02*
X41578150Y-35425118D01*
X41639619Y-35354859D02*
X41604500Y-35389990D01*
X43273082Y-37032231D02*
X43264300Y-37041018D01*
X43281869Y-37023450D02*
X43273082Y-37032231D01*
X43299432Y-37005890D02*
X43281869Y-37023450D01*
X43316991Y-36988318D02*
X43299432Y-37005890D01*
X43343341Y-36953200D02*
X43316991Y-36988318D01*
X43369691Y-36918068D02*
X43343341Y-36953200D01*
X43396032Y-36882940D02*
X43369691Y-36918068D01*
X43431160Y-36847809D02*
X43396032Y-36882940D01*
X41472769Y-35548068D02*
X43264300Y-37041018D01*
X53302181Y-28320450D02*
X53442690Y-28452182D01*
X53144100Y-28197500D02*
X53302181Y-28320450D01*
X52986031Y-28083332D02*
X53144100Y-28197500D01*
X52827950Y-27986732D02*
X52986031Y-28083332D01*
X52652309Y-27890119D02*
X52827950Y-27986732D01*
X52476668Y-27811091D02*
X52652309Y-27890119D01*
X52292250Y-27740832D02*
X52476668Y-27811091D01*
X52107818Y-27688141D02*
X52292250Y-27740832D01*
X51914618Y-27644232D02*
X52107818Y-27688141D01*
X51730190Y-27617882D02*
X51914618Y-27644232D01*
X51536990Y-27591541D02*
X51730190Y-27617882D01*
X50992500Y-27591541D02*
X51536990Y-27591541D01*
X53442690Y-28452182D02*
X54584359Y-29576282D01*
X54575581Y-35354859D02*
X52784040Y-36847809D01*
X43431160Y-36847809D02*
X41639619Y-35354859D01*
X41639619Y-29576282D02*
X42772510Y-28452182D01*
X44485010Y-27617882D02*
X44678210Y-27591541D01*
X44300582Y-27644232D02*
X44485010Y-27617882D01*
X44107382Y-27688141D02*
X44300582Y-27644232D01*
X43922960Y-27740832D02*
X44107382Y-27688141D01*
X43738532Y-27811091D02*
X43922960Y-27740832D01*
X43562891Y-27890119D02*
X43738532Y-27811091D01*
X43387250Y-27986732D02*
X43562891Y-27890119D01*
X43229169Y-28083332D02*
X43387250Y-27986732D01*
X43071100Y-28197500D02*
X43229169Y-28083332D01*
X42913019Y-28320450D02*
X43071100Y-28197500D01*
X42772510Y-28452182D02*
X42913019Y-28320450D01*
X45600332Y-27644232D02*
X45784750Y-27688141D01*
X45407119Y-27609100D02*
X45600332Y-27644232D01*
X45222700Y-27591541D02*
X45407119Y-27609100D01*
X44678210Y-27591541D02*
X45222700Y-27591541D01*
X50808081Y-27609100D02*
X50992500Y-27591541D01*
X50614868Y-27644232D02*
X50808081Y-27609100D01*
X50430450Y-27688141D02*
X50614868Y-27644232D01*
%TO.C,D1*%
D11*
X48642495Y-70045980D02*
X48642495Y-69045980D01*
X48404400Y-69045980D01*
X48261542Y-69093600D01*
X48166304Y-69188838D01*
X48118685Y-69284076D01*
X48071066Y-69474552D01*
X48071066Y-69617409D01*
X48118685Y-69807885D01*
X48166304Y-69903123D01*
X48261542Y-69998361D01*
X48404400Y-70045980D01*
X48642495Y-70045980D01*
X47118685Y-70045980D02*
X47690114Y-70045980D01*
X47404400Y-70045980D02*
X47404400Y-69045980D01*
X47499638Y-69188838D01*
X47594876Y-69284076D01*
X47690114Y-69331695D01*
%TO.C,R1*%
X30758902Y-42212907D02*
X30425436Y-41736810D01*
X30954342Y-41675940D02*
X30014649Y-41333920D01*
X29884356Y-41691898D01*
X29896530Y-41797679D01*
X29924990Y-41858713D01*
X29998198Y-41936034D01*
X30132440Y-41984894D01*
X30238221Y-41972720D01*
X30299255Y-41944260D01*
X30376576Y-41871052D01*
X30506869Y-41513074D01*
X30433168Y-43107853D02*
X30628609Y-42570886D01*
X30530888Y-42839369D02*
X29591196Y-42497349D01*
X29758011Y-42456715D01*
X29880079Y-42399793D01*
X29957399Y-42326586D01*
%TO.C,R2*%
X39953702Y-45565707D02*
X39620236Y-45089610D01*
X40149142Y-45028740D02*
X39209449Y-44686720D01*
X39079156Y-45044698D01*
X39091330Y-45150479D01*
X39119790Y-45211513D01*
X39192998Y-45288834D01*
X39327240Y-45337694D01*
X39433021Y-45325520D01*
X39494055Y-45297060D01*
X39571376Y-45223852D01*
X39701669Y-44865874D01*
X38973210Y-45614239D02*
X38912176Y-45642699D01*
X38834856Y-45715907D01*
X38753423Y-45939644D01*
X38765596Y-46045425D01*
X38794057Y-46106459D01*
X38867265Y-46183779D01*
X38956759Y-46216353D01*
X39107288Y-46220465D01*
X39839695Y-45878938D01*
X39627968Y-46460653D01*
%TO.C,R3*%
X31492359Y-60619328D02*
X32071419Y-60669907D01*
X31778074Y-61114199D02*
X32644099Y-60614199D01*
X32453623Y-60284285D01*
X32364765Y-60225616D01*
X32299716Y-60208186D01*
X32193428Y-60214566D01*
X32069710Y-60285994D01*
X32011041Y-60374853D01*
X31993611Y-60439901D01*
X31999991Y-60546190D01*
X32190467Y-60876104D01*
X32191718Y-59830652D02*
X31882194Y-59294541D01*
X31718947Y-59773693D01*
X31647518Y-59649975D01*
X31558660Y-59591306D01*
X31493611Y-59573876D01*
X31387323Y-59580256D01*
X31181126Y-59699303D01*
X31122457Y-59788162D01*
X31105027Y-59853211D01*
X31111407Y-59959499D01*
X31254264Y-60206934D01*
X31343123Y-60265604D01*
X31408171Y-60283033D01*
%TO.C,R4*%
X58458304Y-49688938D02*
X59019783Y-49839302D01*
X58653744Y-50225906D02*
X59593437Y-49883885D01*
X59463143Y-49525907D01*
X59385823Y-49452699D01*
X59324789Y-49424239D01*
X59219007Y-49412065D01*
X59084766Y-49460925D01*
X59011558Y-49538246D01*
X58983097Y-49599279D01*
X58970923Y-49705061D01*
X59101217Y-50063039D01*
X58791605Y-48655474D02*
X58165144Y-48883488D01*
X59231017Y-48748917D02*
X58641241Y-49216953D01*
X58429515Y-48635239D01*
%TO.C,R5*%
X66281504Y-42830938D02*
X66842983Y-42981302D01*
X66476944Y-43367906D02*
X67416637Y-43025885D01*
X67286343Y-42667907D01*
X67209023Y-42594699D01*
X67147989Y-42566239D01*
X67042207Y-42554065D01*
X66907966Y-42602925D01*
X66834758Y-42680246D01*
X66806297Y-42741279D01*
X66794123Y-42847061D01*
X66924417Y-43205039D01*
X66911750Y-41638720D02*
X67074616Y-42086193D01*
X66643430Y-42293807D01*
X66671891Y-42232773D01*
X66684065Y-42126992D01*
X66602632Y-41903255D01*
X66525311Y-41830047D01*
X66464277Y-41801587D01*
X66358496Y-41789413D01*
X66134759Y-41870846D01*
X66061552Y-41948167D01*
X66033091Y-42009201D01*
X66020917Y-42114982D01*
X66102350Y-42338718D01*
X66179671Y-42411926D01*
X66240705Y-42440387D01*
%TO.C,R6*%
X56994075Y-57567110D02*
X56843554Y-57005673D01*
X57361382Y-57129371D02*
X56595337Y-56486583D01*
X56350466Y-56778409D01*
X56325726Y-56881975D01*
X56331596Y-56949062D01*
X56373943Y-57046758D01*
X56483378Y-57138585D01*
X56586944Y-57163325D01*
X56654031Y-57157455D01*
X56751727Y-57115108D01*
X56996599Y-56823281D01*
X55677069Y-57580932D02*
X55799505Y-57435019D01*
X55897201Y-57392671D01*
X55964289Y-57386802D01*
X56134941Y-57405672D01*
X56311464Y-57491630D01*
X56603290Y-57736501D01*
X56645638Y-57834197D01*
X56651507Y-57901284D01*
X56626767Y-58004850D01*
X56504332Y-58150763D01*
X56406636Y-58193111D01*
X56339548Y-58198980D01*
X56235983Y-58174241D01*
X56053591Y-58021196D01*
X56011244Y-57923500D01*
X56005374Y-57856413D01*
X56030114Y-57752847D01*
X56152549Y-57606934D01*
X56250246Y-57564586D01*
X56317333Y-57558717D01*
X56420898Y-57583456D01*
%TO.C,S1*%
X52882704Y-47089961D02*
X52739847Y-47137580D01*
X52501752Y-47137580D01*
X52406514Y-47089961D01*
X52358895Y-47042342D01*
X52311276Y-46947104D01*
X52311276Y-46851866D01*
X52358895Y-46756628D01*
X52406514Y-46709009D01*
X52501752Y-46661390D01*
X52692228Y-46613771D01*
X52787466Y-46566152D01*
X52835085Y-46518533D01*
X52882704Y-46423295D01*
X52882704Y-46328057D01*
X52835085Y-46232819D01*
X52787466Y-46185200D01*
X52692228Y-46137580D01*
X52454133Y-46137580D01*
X52311276Y-46185200D01*
X51358895Y-47137580D02*
X51930323Y-47137580D01*
X51644609Y-47137580D02*
X51644609Y-46137580D01*
X51739847Y-46280438D01*
X51835085Y-46375676D01*
X51930323Y-46423295D01*
%TO.C, *%
%TD*%
M02*
