%TF.GenerationSoftware,KiCad,Pcbnew,5.1.10*%
%TF.CreationDate,2021-10-23T16:34:25+02:00*%
%TF.ProjectId,xmas-badge,786d6173-2d62-4616-9467-652e6b696361,rev?*%
%TF.SameCoordinates,Original*%
%TF.FileFunction,Copper,L1,Top*%
%TF.FilePolarity,Positive*%
%FSLAX46Y46*%
G04 Gerber Fmt 4.6, Leading zero omitted, Abs format (unit mm)*
G04 Created by KiCad (PCBNEW 5.1.10) date 2021-10-23 16:34:25*
%MOMM*%
%LPD*%
G01*
G04 APERTURE LIST*
%TA.AperFunction,EtchedComponent*%
%ADD10C,0.010000*%
%TD*%
%TA.AperFunction,ComponentPad*%
%ADD11R,1.800000X1.800000*%
%TD*%
%TA.AperFunction,ComponentPad*%
%ADD12C,1.800000*%
%TD*%
%TA.AperFunction,ComponentPad*%
%ADD13C,2.400000*%
%TD*%
%TA.AperFunction,ComponentPad*%
%ADD14C,2.000000*%
%TD*%
%TA.AperFunction,ComponentPad*%
%ADD15C,0.100000*%
%TD*%
G04 APERTURE END LIST*
D10*
%TO.C,G\u002A\u002A\u002A*%
G36*
X51545095Y-46595901D02*
G01*
X51544851Y-46599059D01*
X51544172Y-46603183D01*
X51544554Y-46606357D01*
X51544692Y-46606530D01*
X51542812Y-46627790D01*
X51535909Y-46687531D01*
X51524431Y-46782261D01*
X51508829Y-46908482D01*
X51489550Y-47062700D01*
X51467044Y-47241419D01*
X51441761Y-47441144D01*
X51414151Y-47658379D01*
X51384661Y-47889630D01*
X51353742Y-48131401D01*
X51321842Y-48380196D01*
X51289412Y-48632521D01*
X51256900Y-48884879D01*
X51224756Y-49133776D01*
X51193429Y-49375715D01*
X51163368Y-49607203D01*
X51135022Y-49824743D01*
X51108841Y-50024840D01*
X51085275Y-50203998D01*
X51064772Y-50358723D01*
X51047781Y-50485519D01*
X51034753Y-50580891D01*
X51026136Y-50641343D01*
X51025617Y-50644787D01*
X51019582Y-50662447D01*
X51003856Y-50679730D01*
X50973544Y-50698867D01*
X50923752Y-50722088D01*
X50849587Y-50751625D01*
X50746152Y-50789709D01*
X50608556Y-50838571D01*
X50573517Y-50850882D01*
X50443301Y-50896206D01*
X50325854Y-50936378D01*
X50227269Y-50969371D01*
X50153641Y-50993157D01*
X50111065Y-51005709D01*
X50103659Y-51007153D01*
X50088693Y-50994849D01*
X50096415Y-50953126D01*
X50097693Y-50949225D01*
X50114437Y-50896782D01*
X50140938Y-50810978D01*
X50176049Y-50695679D01*
X50218626Y-50554750D01*
X50267525Y-50392057D01*
X50321599Y-50211466D01*
X50379703Y-50016841D01*
X50440694Y-49812049D01*
X50503424Y-49600954D01*
X50566751Y-49387423D01*
X50629527Y-49175320D01*
X50690609Y-48968512D01*
X50748850Y-48770864D01*
X50803107Y-48586241D01*
X50852234Y-48418510D01*
X50895085Y-48271534D01*
X50930517Y-48149180D01*
X50957383Y-48055314D01*
X50974538Y-47993801D01*
X50980838Y-47968506D01*
X50980808Y-47968086D01*
X50969716Y-47984904D01*
X50940218Y-48036183D01*
X50893880Y-48119056D01*
X50832268Y-48230656D01*
X50756946Y-48368119D01*
X50669482Y-48528577D01*
X50571441Y-48709166D01*
X50464388Y-48907018D01*
X50349890Y-49119268D01*
X50229512Y-49343050D01*
X50222664Y-49355799D01*
X50101883Y-49580405D01*
X49986824Y-49793847D01*
X49879062Y-49993234D01*
X49780173Y-50175675D01*
X49691733Y-50338280D01*
X49615316Y-50478158D01*
X49552500Y-50592419D01*
X49504859Y-50678171D01*
X49473969Y-50732523D01*
X49461406Y-50752586D01*
X49461289Y-50752638D01*
X49449233Y-50734644D01*
X49421672Y-50683725D01*
X49381304Y-50605176D01*
X49330824Y-50504294D01*
X49272928Y-50386374D01*
X49235683Y-50309502D01*
X49021638Y-49865572D01*
X50271182Y-48240461D01*
X50481014Y-47967544D01*
X50511658Y-47927683D01*
X50986267Y-47927683D01*
X50996850Y-47938267D01*
X51007433Y-47927683D01*
X50996850Y-47917100D01*
X50986267Y-47927683D01*
X50511658Y-47927683D01*
X50666514Y-47726254D01*
X50829176Y-47514675D01*
X50970493Y-47330890D01*
X51091959Y-47172984D01*
X51195068Y-47039039D01*
X51281313Y-46927140D01*
X51352188Y-46835370D01*
X51409186Y-46761813D01*
X51453801Y-46704552D01*
X51487528Y-46661671D01*
X51511858Y-46631255D01*
X51528286Y-46611386D01*
X51538306Y-46600148D01*
X51543411Y-46595625D01*
X51545095Y-46595901D01*
G37*
X51545095Y-46595901D02*
X51544851Y-46599059D01*
X51544172Y-46603183D01*
X51544554Y-46606357D01*
X51544692Y-46606530D01*
X51542812Y-46627790D01*
X51535909Y-46687531D01*
X51524431Y-46782261D01*
X51508829Y-46908482D01*
X51489550Y-47062700D01*
X51467044Y-47241419D01*
X51441761Y-47441144D01*
X51414151Y-47658379D01*
X51384661Y-47889630D01*
X51353742Y-48131401D01*
X51321842Y-48380196D01*
X51289412Y-48632521D01*
X51256900Y-48884879D01*
X51224756Y-49133776D01*
X51193429Y-49375715D01*
X51163368Y-49607203D01*
X51135022Y-49824743D01*
X51108841Y-50024840D01*
X51085275Y-50203998D01*
X51064772Y-50358723D01*
X51047781Y-50485519D01*
X51034753Y-50580891D01*
X51026136Y-50641343D01*
X51025617Y-50644787D01*
X51019582Y-50662447D01*
X51003856Y-50679730D01*
X50973544Y-50698867D01*
X50923752Y-50722088D01*
X50849587Y-50751625D01*
X50746152Y-50789709D01*
X50608556Y-50838571D01*
X50573517Y-50850882D01*
X50443301Y-50896206D01*
X50325854Y-50936378D01*
X50227269Y-50969371D01*
X50153641Y-50993157D01*
X50111065Y-51005709D01*
X50103659Y-51007153D01*
X50088693Y-50994849D01*
X50096415Y-50953126D01*
X50097693Y-50949225D01*
X50114437Y-50896782D01*
X50140938Y-50810978D01*
X50176049Y-50695679D01*
X50218626Y-50554750D01*
X50267525Y-50392057D01*
X50321599Y-50211466D01*
X50379703Y-50016841D01*
X50440694Y-49812049D01*
X50503424Y-49600954D01*
X50566751Y-49387423D01*
X50629527Y-49175320D01*
X50690609Y-48968512D01*
X50748850Y-48770864D01*
X50803107Y-48586241D01*
X50852234Y-48418510D01*
X50895085Y-48271534D01*
X50930517Y-48149180D01*
X50957383Y-48055314D01*
X50974538Y-47993801D01*
X50980838Y-47968506D01*
X50980808Y-47968086D01*
X50969716Y-47984904D01*
X50940218Y-48036183D01*
X50893880Y-48119056D01*
X50832268Y-48230656D01*
X50756946Y-48368119D01*
X50669482Y-48528577D01*
X50571441Y-48709166D01*
X50464388Y-48907018D01*
X50349890Y-49119268D01*
X50229512Y-49343050D01*
X50222664Y-49355799D01*
X50101883Y-49580405D01*
X49986824Y-49793847D01*
X49879062Y-49993234D01*
X49780173Y-50175675D01*
X49691733Y-50338280D01*
X49615316Y-50478158D01*
X49552500Y-50592419D01*
X49504859Y-50678171D01*
X49473969Y-50732523D01*
X49461406Y-50752586D01*
X49461289Y-50752638D01*
X49449233Y-50734644D01*
X49421672Y-50683725D01*
X49381304Y-50605176D01*
X49330824Y-50504294D01*
X49272928Y-50386374D01*
X49235683Y-50309502D01*
X49021638Y-49865572D01*
X50271182Y-48240461D01*
X50481014Y-47967544D01*
X50511658Y-47927683D01*
X50986267Y-47927683D01*
X50996850Y-47938267D01*
X51007433Y-47927683D01*
X50996850Y-47917100D01*
X50986267Y-47927683D01*
X50511658Y-47927683D01*
X50666514Y-47726254D01*
X50829176Y-47514675D01*
X50970493Y-47330890D01*
X51091959Y-47172984D01*
X51195068Y-47039039D01*
X51281313Y-46927140D01*
X51352188Y-46835370D01*
X51409186Y-46761813D01*
X51453801Y-46704552D01*
X51487528Y-46661671D01*
X51511858Y-46631255D01*
X51528286Y-46611386D01*
X51538306Y-46600148D01*
X51543411Y-46595625D01*
X51545095Y-46595901D01*
G36*
X44570297Y-46634370D02*
G01*
X44607231Y-46679253D01*
X44665663Y-46752143D01*
X44743442Y-46850263D01*
X44838415Y-46970836D01*
X44948431Y-47111087D01*
X45071337Y-47268237D01*
X45204980Y-47439511D01*
X45347210Y-47622131D01*
X45495874Y-47813321D01*
X45648819Y-48010304D01*
X45803893Y-48210304D01*
X45958945Y-48410543D01*
X46111821Y-48608244D01*
X46260371Y-48800632D01*
X46402441Y-48984929D01*
X46535880Y-49158358D01*
X46658535Y-49318144D01*
X46768255Y-49461508D01*
X46862887Y-49585675D01*
X46940279Y-49687867D01*
X46998278Y-49765308D01*
X47034733Y-49815221D01*
X47045321Y-49830723D01*
X47052723Y-49848242D01*
X47053390Y-49871833D01*
X47045421Y-49906479D01*
X47026912Y-49957162D01*
X46995959Y-50028862D01*
X46950660Y-50126564D01*
X46889111Y-50255248D01*
X46860622Y-50314225D01*
X46799838Y-50439116D01*
X46745090Y-50550198D01*
X46699060Y-50642144D01*
X46664431Y-50709626D01*
X46643883Y-50747319D01*
X46639491Y-50753433D01*
X46628320Y-50735268D01*
X46598673Y-50682688D01*
X46552116Y-50598567D01*
X46490214Y-50485777D01*
X46414534Y-50347193D01*
X46326642Y-50185689D01*
X46228103Y-50004136D01*
X46120484Y-49805410D01*
X46005351Y-49592383D01*
X45884270Y-49367928D01*
X45872750Y-49346553D01*
X45751279Y-49121366D01*
X45635659Y-48907483D01*
X45527449Y-48707760D01*
X45428208Y-48525055D01*
X45339497Y-48362223D01*
X45262873Y-48222121D01*
X45199897Y-48107605D01*
X45152128Y-48021531D01*
X45121125Y-47966757D01*
X45108446Y-47946138D01*
X45108249Y-47946062D01*
X45113151Y-47966852D01*
X45129337Y-48025022D01*
X45155878Y-48117416D01*
X45191843Y-48240881D01*
X45236305Y-48392262D01*
X45288332Y-48568406D01*
X45346997Y-48766157D01*
X45411369Y-48982362D01*
X45480520Y-49213867D01*
X45553519Y-49457518D01*
X45556980Y-49469050D01*
X45630249Y-49713348D01*
X45699867Y-49945747D01*
X45764889Y-50163079D01*
X45824372Y-50362175D01*
X45877372Y-50539869D01*
X45922944Y-50692992D01*
X45960146Y-50818378D01*
X45988034Y-50912858D01*
X46005662Y-50973264D01*
X46012089Y-50996430D01*
X46012100Y-50996541D01*
X46007491Y-51003523D01*
X45990724Y-51004230D01*
X45957389Y-50997355D01*
X45903078Y-50981587D01*
X45823380Y-50955619D01*
X45713885Y-50918142D01*
X45570184Y-50867846D01*
X45525888Y-50852231D01*
X45383431Y-50801715D01*
X45275832Y-50762575D01*
X45197941Y-50732342D01*
X45144612Y-50708546D01*
X45110696Y-50688718D01*
X45091045Y-50670388D01*
X45080512Y-50651087D01*
X45076003Y-50636421D01*
X45070528Y-50605189D01*
X45060301Y-50536198D01*
X45045779Y-50432985D01*
X45027420Y-50299087D01*
X45005680Y-50138039D01*
X44981016Y-49953379D01*
X44953886Y-49748643D01*
X44924746Y-49527367D01*
X44894053Y-49293087D01*
X44862265Y-49049340D01*
X44829838Y-48799662D01*
X44797229Y-48547590D01*
X44764895Y-48296659D01*
X44733294Y-48050407D01*
X44714911Y-47906517D01*
X45080767Y-47906517D01*
X45091350Y-47917100D01*
X45101933Y-47906517D01*
X45091350Y-47895933D01*
X45080767Y-47906517D01*
X44714911Y-47906517D01*
X44702882Y-47812370D01*
X44674116Y-47586084D01*
X44647453Y-47375085D01*
X44623351Y-47182910D01*
X44602266Y-47013096D01*
X44584654Y-46869178D01*
X44570974Y-46754693D01*
X44561683Y-46673177D01*
X44557236Y-46628167D01*
X44557015Y-46620271D01*
X44570297Y-46634370D01*
G37*
X44570297Y-46634370D02*
X44607231Y-46679253D01*
X44665663Y-46752143D01*
X44743442Y-46850263D01*
X44838415Y-46970836D01*
X44948431Y-47111087D01*
X45071337Y-47268237D01*
X45204980Y-47439511D01*
X45347210Y-47622131D01*
X45495874Y-47813321D01*
X45648819Y-48010304D01*
X45803893Y-48210304D01*
X45958945Y-48410543D01*
X46111821Y-48608244D01*
X46260371Y-48800632D01*
X46402441Y-48984929D01*
X46535880Y-49158358D01*
X46658535Y-49318144D01*
X46768255Y-49461508D01*
X46862887Y-49585675D01*
X46940279Y-49687867D01*
X46998278Y-49765308D01*
X47034733Y-49815221D01*
X47045321Y-49830723D01*
X47052723Y-49848242D01*
X47053390Y-49871833D01*
X47045421Y-49906479D01*
X47026912Y-49957162D01*
X46995959Y-50028862D01*
X46950660Y-50126564D01*
X46889111Y-50255248D01*
X46860622Y-50314225D01*
X46799838Y-50439116D01*
X46745090Y-50550198D01*
X46699060Y-50642144D01*
X46664431Y-50709626D01*
X46643883Y-50747319D01*
X46639491Y-50753433D01*
X46628320Y-50735268D01*
X46598673Y-50682688D01*
X46552116Y-50598567D01*
X46490214Y-50485777D01*
X46414534Y-50347193D01*
X46326642Y-50185689D01*
X46228103Y-50004136D01*
X46120484Y-49805410D01*
X46005351Y-49592383D01*
X45884270Y-49367928D01*
X45872750Y-49346553D01*
X45751279Y-49121366D01*
X45635659Y-48907483D01*
X45527449Y-48707760D01*
X45428208Y-48525055D01*
X45339497Y-48362223D01*
X45262873Y-48222121D01*
X45199897Y-48107605D01*
X45152128Y-48021531D01*
X45121125Y-47966757D01*
X45108446Y-47946138D01*
X45108249Y-47946062D01*
X45113151Y-47966852D01*
X45129337Y-48025022D01*
X45155878Y-48117416D01*
X45191843Y-48240881D01*
X45236305Y-48392262D01*
X45288332Y-48568406D01*
X45346997Y-48766157D01*
X45411369Y-48982362D01*
X45480520Y-49213867D01*
X45553519Y-49457518D01*
X45556980Y-49469050D01*
X45630249Y-49713348D01*
X45699867Y-49945747D01*
X45764889Y-50163079D01*
X45824372Y-50362175D01*
X45877372Y-50539869D01*
X45922944Y-50692992D01*
X45960146Y-50818378D01*
X45988034Y-50912858D01*
X46005662Y-50973264D01*
X46012089Y-50996430D01*
X46012100Y-50996541D01*
X46007491Y-51003523D01*
X45990724Y-51004230D01*
X45957389Y-50997355D01*
X45903078Y-50981587D01*
X45823380Y-50955619D01*
X45713885Y-50918142D01*
X45570184Y-50867846D01*
X45525888Y-50852231D01*
X45383431Y-50801715D01*
X45275832Y-50762575D01*
X45197941Y-50732342D01*
X45144612Y-50708546D01*
X45110696Y-50688718D01*
X45091045Y-50670388D01*
X45080512Y-50651087D01*
X45076003Y-50636421D01*
X45070528Y-50605189D01*
X45060301Y-50536198D01*
X45045779Y-50432985D01*
X45027420Y-50299087D01*
X45005680Y-50138039D01*
X44981016Y-49953379D01*
X44953886Y-49748643D01*
X44924746Y-49527367D01*
X44894053Y-49293087D01*
X44862265Y-49049340D01*
X44829838Y-48799662D01*
X44797229Y-48547590D01*
X44764895Y-48296659D01*
X44733294Y-48050407D01*
X44714911Y-47906517D01*
X45080767Y-47906517D01*
X45091350Y-47917100D01*
X45101933Y-47906517D01*
X45091350Y-47895933D01*
X45080767Y-47906517D01*
X44714911Y-47906517D01*
X44702882Y-47812370D01*
X44674116Y-47586084D01*
X44647453Y-47375085D01*
X44623351Y-47182910D01*
X44602266Y-47013096D01*
X44584654Y-46869178D01*
X44570974Y-46754693D01*
X44561683Y-46673177D01*
X44557236Y-46628167D01*
X44557015Y-46620271D01*
X44570297Y-46634370D01*
G36*
X49836211Y-50647495D02*
G01*
X49827364Y-50710911D01*
X49812218Y-50806271D01*
X49791660Y-50928767D01*
X49766578Y-51073593D01*
X49737858Y-51235943D01*
X49706390Y-51411009D01*
X49673060Y-51593986D01*
X49638756Y-51780067D01*
X49604366Y-51964444D01*
X49570778Y-52142313D01*
X49538878Y-52308866D01*
X49509554Y-52459296D01*
X49483695Y-52588797D01*
X49462187Y-52692563D01*
X49445918Y-52765788D01*
X49435777Y-52803663D01*
X49434089Y-52807377D01*
X49404803Y-52846050D01*
X49354507Y-52909738D01*
X49286805Y-52994065D01*
X49205302Y-53094660D01*
X49113601Y-53207151D01*
X49015308Y-53327164D01*
X48914026Y-53450328D01*
X48813359Y-53572268D01*
X48716914Y-53688614D01*
X48628293Y-53794991D01*
X48551100Y-53887028D01*
X48488942Y-53960352D01*
X48445421Y-54010590D01*
X48424142Y-54033370D01*
X48422759Y-54034267D01*
X48414390Y-54016032D01*
X48415480Y-53971524D01*
X48416269Y-53965475D01*
X48420629Y-53928646D01*
X48428650Y-53855062D01*
X48439770Y-53750092D01*
X48453430Y-53619104D01*
X48469070Y-53467465D01*
X48486127Y-53300543D01*
X48500636Y-53157451D01*
X48518422Y-52984511D01*
X48535461Y-52824652D01*
X48551178Y-52682830D01*
X48564999Y-52564006D01*
X48576349Y-52473137D01*
X48584653Y-52415182D01*
X48588919Y-52395451D01*
X48617311Y-52350849D01*
X48665073Y-52279262D01*
X48729458Y-52184596D01*
X48807718Y-52070752D01*
X48897106Y-51941635D01*
X48994874Y-51801149D01*
X49098276Y-51653197D01*
X49204563Y-51501683D01*
X49310988Y-51350511D01*
X49414804Y-51203585D01*
X49513264Y-51064808D01*
X49603620Y-50938084D01*
X49683124Y-50827317D01*
X49749030Y-50736410D01*
X49798590Y-50669268D01*
X49829056Y-50629794D01*
X49837870Y-50620827D01*
X49836211Y-50647495D01*
G37*
X49836211Y-50647495D02*
X49827364Y-50710911D01*
X49812218Y-50806271D01*
X49791660Y-50928767D01*
X49766578Y-51073593D01*
X49737858Y-51235943D01*
X49706390Y-51411009D01*
X49673060Y-51593986D01*
X49638756Y-51780067D01*
X49604366Y-51964444D01*
X49570778Y-52142313D01*
X49538878Y-52308866D01*
X49509554Y-52459296D01*
X49483695Y-52588797D01*
X49462187Y-52692563D01*
X49445918Y-52765788D01*
X49435777Y-52803663D01*
X49434089Y-52807377D01*
X49404803Y-52846050D01*
X49354507Y-52909738D01*
X49286805Y-52994065D01*
X49205302Y-53094660D01*
X49113601Y-53207151D01*
X49015308Y-53327164D01*
X48914026Y-53450328D01*
X48813359Y-53572268D01*
X48716914Y-53688614D01*
X48628293Y-53794991D01*
X48551100Y-53887028D01*
X48488942Y-53960352D01*
X48445421Y-54010590D01*
X48424142Y-54033370D01*
X48422759Y-54034267D01*
X48414390Y-54016032D01*
X48415480Y-53971524D01*
X48416269Y-53965475D01*
X48420629Y-53928646D01*
X48428650Y-53855062D01*
X48439770Y-53750092D01*
X48453430Y-53619104D01*
X48469070Y-53467465D01*
X48486127Y-53300543D01*
X48500636Y-53157451D01*
X48518422Y-52984511D01*
X48535461Y-52824652D01*
X48551178Y-52682830D01*
X48564999Y-52564006D01*
X48576349Y-52473137D01*
X48584653Y-52415182D01*
X48588919Y-52395451D01*
X48617311Y-52350849D01*
X48665073Y-52279262D01*
X48729458Y-52184596D01*
X48807718Y-52070752D01*
X48897106Y-51941635D01*
X48994874Y-51801149D01*
X49098276Y-51653197D01*
X49204563Y-51501683D01*
X49310988Y-51350511D01*
X49414804Y-51203585D01*
X49513264Y-51064808D01*
X49603620Y-50938084D01*
X49683124Y-50827317D01*
X49749030Y-50736410D01*
X49798590Y-50669268D01*
X49829056Y-50629794D01*
X49837870Y-50620827D01*
X49836211Y-50647495D01*
G36*
X46276683Y-50610524D02*
G01*
X46283126Y-50618425D01*
X46297722Y-50639761D01*
X46334078Y-50692528D01*
X46389860Y-50773348D01*
X46462732Y-50878844D01*
X46550362Y-51005637D01*
X46650415Y-51150351D01*
X46760557Y-51309607D01*
X46878455Y-51480029D01*
X46910810Y-51526790D01*
X47523771Y-52412639D01*
X47603430Y-53186411D01*
X47625149Y-53397501D01*
X47642832Y-53570300D01*
X47656773Y-53708630D01*
X47667266Y-53816311D01*
X47674604Y-53897165D01*
X47679079Y-53955012D01*
X47680985Y-53993675D01*
X47680616Y-54016973D01*
X47678264Y-54028728D01*
X47674224Y-54032760D01*
X47668787Y-54032892D01*
X47668392Y-54032856D01*
X47651965Y-54016632D01*
X47612018Y-53971013D01*
X47551552Y-53899603D01*
X47473564Y-53806003D01*
X47381054Y-53693818D01*
X47277023Y-53566649D01*
X47164468Y-53428100D01*
X47147851Y-53407567D01*
X46643185Y-52783688D01*
X46445887Y-51699769D01*
X46408166Y-51491336D01*
X46373183Y-51295699D01*
X46341609Y-51116768D01*
X46314112Y-50958451D01*
X46291363Y-50824659D01*
X46274031Y-50719301D01*
X46262786Y-50646285D01*
X46258298Y-50609523D01*
X46258495Y-50605879D01*
X46276683Y-50610524D01*
G37*
X46276683Y-50610524D02*
X46283126Y-50618425D01*
X46297722Y-50639761D01*
X46334078Y-50692528D01*
X46389860Y-50773348D01*
X46462732Y-50878844D01*
X46550362Y-51005637D01*
X46650415Y-51150351D01*
X46760557Y-51309607D01*
X46878455Y-51480029D01*
X46910810Y-51526790D01*
X47523771Y-52412639D01*
X47603430Y-53186411D01*
X47625149Y-53397501D01*
X47642832Y-53570300D01*
X47656773Y-53708630D01*
X47667266Y-53816311D01*
X47674604Y-53897165D01*
X47679079Y-53955012D01*
X47680985Y-53993675D01*
X47680616Y-54016973D01*
X47678264Y-54028728D01*
X47674224Y-54032760D01*
X47668787Y-54032892D01*
X47668392Y-54032856D01*
X47651965Y-54016632D01*
X47612018Y-53971013D01*
X47551552Y-53899603D01*
X47473564Y-53806003D01*
X47381054Y-53693818D01*
X47277023Y-53566649D01*
X47164468Y-53428100D01*
X47147851Y-53407567D01*
X46643185Y-52783688D01*
X46445887Y-51699769D01*
X46408166Y-51491336D01*
X46373183Y-51295699D01*
X46341609Y-51116768D01*
X46314112Y-50958451D01*
X46291363Y-50824659D01*
X46274031Y-50719301D01*
X46262786Y-50646285D01*
X46258298Y-50609523D01*
X46258495Y-50605879D01*
X46276683Y-50610524D01*
G36*
X56481006Y-51554504D02*
G01*
X56480357Y-51555597D01*
X56460113Y-51574271D01*
X56409086Y-51616197D01*
X56330105Y-51679212D01*
X56225996Y-51761156D01*
X56099587Y-51859867D01*
X55953704Y-51973185D01*
X55791175Y-52098946D01*
X55614828Y-52234991D01*
X55427489Y-52379157D01*
X55231986Y-52529283D01*
X55031146Y-52683209D01*
X54827795Y-52838771D01*
X54624762Y-52993810D01*
X54424874Y-53146164D01*
X54230958Y-53293671D01*
X54045840Y-53434170D01*
X53872349Y-53565500D01*
X53713311Y-53685498D01*
X53571554Y-53792005D01*
X53449904Y-53882858D01*
X53351190Y-53955896D01*
X53278238Y-54008958D01*
X53233876Y-54039881D01*
X53221142Y-54047239D01*
X53189781Y-54039919D01*
X53126779Y-54016205D01*
X53038300Y-53978744D01*
X52930511Y-53930187D01*
X52809576Y-53873183D01*
X52758975Y-53848645D01*
X52637383Y-53788702D01*
X52529743Y-53734672D01*
X52441498Y-53689368D01*
X52378090Y-53655601D01*
X52344960Y-53636182D01*
X52341377Y-53632902D01*
X52359624Y-53621302D01*
X52412309Y-53591256D01*
X52496565Y-53544331D01*
X52609523Y-53482092D01*
X52748317Y-53406106D01*
X52910079Y-53317936D01*
X53091942Y-53219150D01*
X53291038Y-53111313D01*
X53504501Y-52995990D01*
X53729462Y-52874747D01*
X53757759Y-52859517D01*
X53983756Y-52737805D01*
X54198500Y-52621982D01*
X54399138Y-52513595D01*
X54582817Y-52414194D01*
X54746684Y-52325328D01*
X54887886Y-52248548D01*
X55003571Y-52185401D01*
X55090885Y-52137438D01*
X55146977Y-52106208D01*
X55168991Y-52093260D01*
X55169203Y-52093001D01*
X55148723Y-52098211D01*
X55090831Y-52114693D01*
X54998655Y-52141522D01*
X54875320Y-52177771D01*
X54723954Y-52222514D01*
X54547682Y-52274825D01*
X54349632Y-52333777D01*
X54132928Y-52398444D01*
X53900698Y-52467900D01*
X53656069Y-52541218D01*
X53625821Y-52550294D01*
X53305594Y-52646045D01*
X53021402Y-52730293D01*
X52773792Y-52802884D01*
X52563314Y-52863664D01*
X52390515Y-52912476D01*
X52255944Y-52949166D01*
X52160151Y-52973578D01*
X52103682Y-52985558D01*
X52086933Y-52985509D01*
X52093681Y-52957996D01*
X52112261Y-52898170D01*
X52140183Y-52813175D01*
X52174953Y-52710156D01*
X52214079Y-52596260D01*
X52255070Y-52478630D01*
X52295432Y-52364412D01*
X52332674Y-52260751D01*
X52364303Y-52174793D01*
X52387827Y-52113683D01*
X52400753Y-52084565D01*
X52401578Y-52083445D01*
X52424053Y-52078760D01*
X52439388Y-52076350D01*
X55198433Y-52076350D01*
X55209017Y-52086933D01*
X55219600Y-52076350D01*
X55209017Y-52065767D01*
X55198433Y-52076350D01*
X52439388Y-52076350D01*
X52485597Y-52069088D01*
X52583287Y-52054825D01*
X52714203Y-52036369D01*
X52875423Y-52014117D01*
X53064027Y-51988464D01*
X53277092Y-51959808D01*
X53511698Y-51928545D01*
X53764923Y-51895071D01*
X54033845Y-51859785D01*
X54315545Y-51823081D01*
X54394100Y-51812891D01*
X54679999Y-51775795D01*
X54954789Y-51740053D01*
X55215457Y-51706063D01*
X55458987Y-51674221D01*
X55682365Y-51644925D01*
X55882577Y-51618571D01*
X56056608Y-51595557D01*
X56201444Y-51576279D01*
X56314071Y-51561134D01*
X56391474Y-51550520D01*
X56430639Y-51544833D01*
X56434040Y-51544240D01*
X56476020Y-51540630D01*
X56481006Y-51554504D01*
G37*
X56481006Y-51554504D02*
X56480357Y-51555597D01*
X56460113Y-51574271D01*
X56409086Y-51616197D01*
X56330105Y-51679212D01*
X56225996Y-51761156D01*
X56099587Y-51859867D01*
X55953704Y-51973185D01*
X55791175Y-52098946D01*
X55614828Y-52234991D01*
X55427489Y-52379157D01*
X55231986Y-52529283D01*
X55031146Y-52683209D01*
X54827795Y-52838771D01*
X54624762Y-52993810D01*
X54424874Y-53146164D01*
X54230958Y-53293671D01*
X54045840Y-53434170D01*
X53872349Y-53565500D01*
X53713311Y-53685498D01*
X53571554Y-53792005D01*
X53449904Y-53882858D01*
X53351190Y-53955896D01*
X53278238Y-54008958D01*
X53233876Y-54039881D01*
X53221142Y-54047239D01*
X53189781Y-54039919D01*
X53126779Y-54016205D01*
X53038300Y-53978744D01*
X52930511Y-53930187D01*
X52809576Y-53873183D01*
X52758975Y-53848645D01*
X52637383Y-53788702D01*
X52529743Y-53734672D01*
X52441498Y-53689368D01*
X52378090Y-53655601D01*
X52344960Y-53636182D01*
X52341377Y-53632902D01*
X52359624Y-53621302D01*
X52412309Y-53591256D01*
X52496565Y-53544331D01*
X52609523Y-53482092D01*
X52748317Y-53406106D01*
X52910079Y-53317936D01*
X53091942Y-53219150D01*
X53291038Y-53111313D01*
X53504501Y-52995990D01*
X53729462Y-52874747D01*
X53757759Y-52859517D01*
X53983756Y-52737805D01*
X54198500Y-52621982D01*
X54399138Y-52513595D01*
X54582817Y-52414194D01*
X54746684Y-52325328D01*
X54887886Y-52248548D01*
X55003571Y-52185401D01*
X55090885Y-52137438D01*
X55146977Y-52106208D01*
X55168991Y-52093260D01*
X55169203Y-52093001D01*
X55148723Y-52098211D01*
X55090831Y-52114693D01*
X54998655Y-52141522D01*
X54875320Y-52177771D01*
X54723954Y-52222514D01*
X54547682Y-52274825D01*
X54349632Y-52333777D01*
X54132928Y-52398444D01*
X53900698Y-52467900D01*
X53656069Y-52541218D01*
X53625821Y-52550294D01*
X53305594Y-52646045D01*
X53021402Y-52730293D01*
X52773792Y-52802884D01*
X52563314Y-52863664D01*
X52390515Y-52912476D01*
X52255944Y-52949166D01*
X52160151Y-52973578D01*
X52103682Y-52985558D01*
X52086933Y-52985509D01*
X52093681Y-52957996D01*
X52112261Y-52898170D01*
X52140183Y-52813175D01*
X52174953Y-52710156D01*
X52214079Y-52596260D01*
X52255070Y-52478630D01*
X52295432Y-52364412D01*
X52332674Y-52260751D01*
X52364303Y-52174793D01*
X52387827Y-52113683D01*
X52400753Y-52084565D01*
X52401578Y-52083445D01*
X52424053Y-52078760D01*
X52439388Y-52076350D01*
X55198433Y-52076350D01*
X55209017Y-52086933D01*
X55219600Y-52076350D01*
X55209017Y-52065767D01*
X55198433Y-52076350D01*
X52439388Y-52076350D01*
X52485597Y-52069088D01*
X52583287Y-52054825D01*
X52714203Y-52036369D01*
X52875423Y-52014117D01*
X53064027Y-51988464D01*
X53277092Y-51959808D01*
X53511698Y-51928545D01*
X53764923Y-51895071D01*
X54033845Y-51859785D01*
X54315545Y-51823081D01*
X54394100Y-51812891D01*
X54679999Y-51775795D01*
X54954789Y-51740053D01*
X55215457Y-51706063D01*
X55458987Y-51674221D01*
X55682365Y-51644925D01*
X55882577Y-51618571D01*
X56056608Y-51595557D01*
X56201444Y-51576279D01*
X56314071Y-51561134D01*
X56391474Y-51550520D01*
X56430639Y-51544833D01*
X56434040Y-51544240D01*
X56476020Y-51540630D01*
X56481006Y-51554504D01*
G36*
X39675467Y-51544486D02*
G01*
X39703669Y-51548716D01*
X39769993Y-51557859D01*
X39870883Y-51571452D01*
X40002782Y-51589032D01*
X40162135Y-51610137D01*
X40345387Y-51634304D01*
X40548981Y-51661069D01*
X40769362Y-51689970D01*
X41002974Y-51720544D01*
X41246262Y-51752328D01*
X41495669Y-51784859D01*
X41747641Y-51817675D01*
X41998621Y-51850311D01*
X42245053Y-51882307D01*
X42483383Y-51913197D01*
X42710053Y-51942521D01*
X42921509Y-51969814D01*
X43114195Y-51994614D01*
X43284555Y-52016458D01*
X43429033Y-52034883D01*
X43544074Y-52049427D01*
X43626122Y-52059626D01*
X43671621Y-52065017D01*
X43679680Y-52065767D01*
X43692092Y-52084846D01*
X43715799Y-52138216D01*
X43748511Y-52220071D01*
X43787937Y-52324608D01*
X43831787Y-52446021D01*
X43848790Y-52494392D01*
X43893924Y-52623539D01*
X43935078Y-52740932D01*
X43969953Y-52840044D01*
X43996249Y-52914344D01*
X44011670Y-52957306D01*
X44013949Y-52963415D01*
X44019698Y-52990658D01*
X44000199Y-52996650D01*
X43967777Y-52991397D01*
X43937678Y-52983383D01*
X43870421Y-52964183D01*
X43769389Y-52934799D01*
X43637968Y-52896231D01*
X43479540Y-52849479D01*
X43297490Y-52795543D01*
X43095201Y-52735424D01*
X42876057Y-52670123D01*
X42643442Y-52600638D01*
X42448528Y-52542293D01*
X42209222Y-52470749D01*
X41981914Y-52403094D01*
X41769829Y-52340270D01*
X41576194Y-52283219D01*
X41404234Y-52232880D01*
X41257174Y-52190196D01*
X41138239Y-52156107D01*
X41050656Y-52131555D01*
X40997648Y-52117480D01*
X40982192Y-52114453D01*
X40998911Y-52125648D01*
X41050068Y-52155274D01*
X41132790Y-52201754D01*
X41244205Y-52263515D01*
X41381442Y-52338982D01*
X41541629Y-52426582D01*
X41721893Y-52524738D01*
X41919364Y-52631878D01*
X42131170Y-52746426D01*
X42354437Y-52866809D01*
X42360305Y-52869968D01*
X42584110Y-52990649D01*
X42796728Y-53105681D01*
X42995259Y-53213471D01*
X43176809Y-53312428D01*
X43338480Y-53400963D01*
X43477375Y-53477484D01*
X43590597Y-53540399D01*
X43675250Y-53588119D01*
X43728437Y-53619053D01*
X43747260Y-53631609D01*
X43747267Y-53631657D01*
X43729147Y-53644964D01*
X43679175Y-53672832D01*
X43603931Y-53712075D01*
X43509995Y-53759505D01*
X43403948Y-53811933D01*
X43292369Y-53866172D01*
X43181839Y-53919034D01*
X43078937Y-53967332D01*
X42990246Y-54007878D01*
X42922343Y-54037483D01*
X42881811Y-54052961D01*
X42874460Y-54054480D01*
X42854214Y-54041695D01*
X42802810Y-54004798D01*
X42722586Y-53945561D01*
X42615882Y-53865759D01*
X42485037Y-53767163D01*
X42332390Y-53651547D01*
X42160280Y-53520684D01*
X41971046Y-53376347D01*
X41767027Y-53220309D01*
X41550562Y-53054343D01*
X41323990Y-52880222D01*
X41239017Y-52814818D01*
X41009552Y-52637961D01*
X40789705Y-52468200D01*
X40581787Y-52307336D01*
X40388109Y-52157172D01*
X40311353Y-52097517D01*
X40932100Y-52097517D01*
X40942683Y-52108100D01*
X40953267Y-52097517D01*
X40942683Y-52086933D01*
X40932100Y-52097517D01*
X40311353Y-52097517D01*
X40210982Y-52019510D01*
X40052717Y-51896152D01*
X39915625Y-51788901D01*
X39802018Y-51699560D01*
X39714206Y-51629931D01*
X39654500Y-51581816D01*
X39625212Y-51557017D01*
X39622550Y-51554121D01*
X39633766Y-51541190D01*
X39675467Y-51544486D01*
G37*
X39675467Y-51544486D02*
X39703669Y-51548716D01*
X39769993Y-51557859D01*
X39870883Y-51571452D01*
X40002782Y-51589032D01*
X40162135Y-51610137D01*
X40345387Y-51634304D01*
X40548981Y-51661069D01*
X40769362Y-51689970D01*
X41002974Y-51720544D01*
X41246262Y-51752328D01*
X41495669Y-51784859D01*
X41747641Y-51817675D01*
X41998621Y-51850311D01*
X42245053Y-51882307D01*
X42483383Y-51913197D01*
X42710053Y-51942521D01*
X42921509Y-51969814D01*
X43114195Y-51994614D01*
X43284555Y-52016458D01*
X43429033Y-52034883D01*
X43544074Y-52049427D01*
X43626122Y-52059626D01*
X43671621Y-52065017D01*
X43679680Y-52065767D01*
X43692092Y-52084846D01*
X43715799Y-52138216D01*
X43748511Y-52220071D01*
X43787937Y-52324608D01*
X43831787Y-52446021D01*
X43848790Y-52494392D01*
X43893924Y-52623539D01*
X43935078Y-52740932D01*
X43969953Y-52840044D01*
X43996249Y-52914344D01*
X44011670Y-52957306D01*
X44013949Y-52963415D01*
X44019698Y-52990658D01*
X44000199Y-52996650D01*
X43967777Y-52991397D01*
X43937678Y-52983383D01*
X43870421Y-52964183D01*
X43769389Y-52934799D01*
X43637968Y-52896231D01*
X43479540Y-52849479D01*
X43297490Y-52795543D01*
X43095201Y-52735424D01*
X42876057Y-52670123D01*
X42643442Y-52600638D01*
X42448528Y-52542293D01*
X42209222Y-52470749D01*
X41981914Y-52403094D01*
X41769829Y-52340270D01*
X41576194Y-52283219D01*
X41404234Y-52232880D01*
X41257174Y-52190196D01*
X41138239Y-52156107D01*
X41050656Y-52131555D01*
X40997648Y-52117480D01*
X40982192Y-52114453D01*
X40998911Y-52125648D01*
X41050068Y-52155274D01*
X41132790Y-52201754D01*
X41244205Y-52263515D01*
X41381442Y-52338982D01*
X41541629Y-52426582D01*
X41721893Y-52524738D01*
X41919364Y-52631878D01*
X42131170Y-52746426D01*
X42354437Y-52866809D01*
X42360305Y-52869968D01*
X42584110Y-52990649D01*
X42796728Y-53105681D01*
X42995259Y-53213471D01*
X43176809Y-53312428D01*
X43338480Y-53400963D01*
X43477375Y-53477484D01*
X43590597Y-53540399D01*
X43675250Y-53588119D01*
X43728437Y-53619053D01*
X43747260Y-53631609D01*
X43747267Y-53631657D01*
X43729147Y-53644964D01*
X43679175Y-53672832D01*
X43603931Y-53712075D01*
X43509995Y-53759505D01*
X43403948Y-53811933D01*
X43292369Y-53866172D01*
X43181839Y-53919034D01*
X43078937Y-53967332D01*
X42990246Y-54007878D01*
X42922343Y-54037483D01*
X42881811Y-54052961D01*
X42874460Y-54054480D01*
X42854214Y-54041695D01*
X42802810Y-54004798D01*
X42722586Y-53945561D01*
X42615882Y-53865759D01*
X42485037Y-53767163D01*
X42332390Y-53651547D01*
X42160280Y-53520684D01*
X41971046Y-53376347D01*
X41767027Y-53220309D01*
X41550562Y-53054343D01*
X41323990Y-52880222D01*
X41239017Y-52814818D01*
X41009552Y-52637961D01*
X40789705Y-52468200D01*
X40581787Y-52307336D01*
X40388109Y-52157172D01*
X40311353Y-52097517D01*
X40932100Y-52097517D01*
X40942683Y-52108100D01*
X40953267Y-52097517D01*
X40942683Y-52086933D01*
X40932100Y-52097517D01*
X40311353Y-52097517D01*
X40210982Y-52019510D01*
X40052717Y-51896152D01*
X39915625Y-51788901D01*
X39802018Y-51699560D01*
X39714206Y-51629931D01*
X39654500Y-51581816D01*
X39625212Y-51557017D01*
X39622550Y-51554121D01*
X39633766Y-51541190D01*
X39675467Y-51544486D01*
G36*
X52381503Y-53136511D02*
G01*
X52384943Y-53137909D01*
X52388607Y-53138556D01*
X52389795Y-53140369D01*
X52385809Y-53145264D01*
X52373950Y-53155158D01*
X52351521Y-53171967D01*
X52315821Y-53197608D01*
X52264153Y-53233997D01*
X52193817Y-53283051D01*
X52102116Y-53346686D01*
X51986350Y-53426817D01*
X51843822Y-53525363D01*
X51671831Y-53644239D01*
X51473100Y-53781615D01*
X50573517Y-54403562D01*
X49811517Y-54482751D01*
X49633864Y-54501056D01*
X49467422Y-54517909D01*
X49317402Y-54532802D01*
X49189017Y-54545232D01*
X49087478Y-54554693D01*
X49017998Y-54560680D01*
X48986772Y-54562686D01*
X48945940Y-54560590D01*
X48941400Y-54549450D01*
X48955022Y-54535049D01*
X48977621Y-54516044D01*
X49029080Y-54473712D01*
X49105342Y-54411350D01*
X49202353Y-54332252D01*
X49316058Y-54239716D01*
X49442401Y-54137036D01*
X49577327Y-54027509D01*
X49716782Y-53914430D01*
X49856709Y-53801096D01*
X49993055Y-53690802D01*
X50111963Y-53594753D01*
X50132260Y-53578781D01*
X50152957Y-53564696D01*
X50177658Y-53551670D01*
X50209968Y-53538878D01*
X50253490Y-53525493D01*
X50311829Y-53510689D01*
X50388590Y-53493640D01*
X50487376Y-53473519D01*
X50611792Y-53449499D01*
X50765443Y-53420756D01*
X50951932Y-53386461D01*
X51174864Y-53345790D01*
X51286713Y-53325427D01*
X51495307Y-53287651D01*
X51691072Y-53252571D01*
X51870105Y-53220861D01*
X52028507Y-53193193D01*
X52162378Y-53170241D01*
X52267816Y-53152677D01*
X52340922Y-53141176D01*
X52377794Y-53136409D01*
X52381503Y-53136511D01*
G37*
X52381503Y-53136511D02*
X52384943Y-53137909D01*
X52388607Y-53138556D01*
X52389795Y-53140369D01*
X52385809Y-53145264D01*
X52373950Y-53155158D01*
X52351521Y-53171967D01*
X52315821Y-53197608D01*
X52264153Y-53233997D01*
X52193817Y-53283051D01*
X52102116Y-53346686D01*
X51986350Y-53426817D01*
X51843822Y-53525363D01*
X51671831Y-53644239D01*
X51473100Y-53781615D01*
X50573517Y-54403562D01*
X49811517Y-54482751D01*
X49633864Y-54501056D01*
X49467422Y-54517909D01*
X49317402Y-54532802D01*
X49189017Y-54545232D01*
X49087478Y-54554693D01*
X49017998Y-54560680D01*
X48986772Y-54562686D01*
X48945940Y-54560590D01*
X48941400Y-54549450D01*
X48955022Y-54535049D01*
X48977621Y-54516044D01*
X49029080Y-54473712D01*
X49105342Y-54411350D01*
X49202353Y-54332252D01*
X49316058Y-54239716D01*
X49442401Y-54137036D01*
X49577327Y-54027509D01*
X49716782Y-53914430D01*
X49856709Y-53801096D01*
X49993055Y-53690802D01*
X50111963Y-53594753D01*
X50132260Y-53578781D01*
X50152957Y-53564696D01*
X50177658Y-53551670D01*
X50209968Y-53538878D01*
X50253490Y-53525493D01*
X50311829Y-53510689D01*
X50388590Y-53493640D01*
X50487376Y-53473519D01*
X50611792Y-53449499D01*
X50765443Y-53420756D01*
X50951932Y-53386461D01*
X51174864Y-53345790D01*
X51286713Y-53325427D01*
X51495307Y-53287651D01*
X51691072Y-53252571D01*
X51870105Y-53220861D01*
X52028507Y-53193193D01*
X52162378Y-53170241D01*
X52267816Y-53152677D01*
X52340922Y-53141176D01*
X52377794Y-53136409D01*
X52381503Y-53136511D01*
G36*
X43731583Y-53135445D02*
G01*
X43790903Y-53144741D01*
X43884103Y-53160334D01*
X44007304Y-53181548D01*
X44156628Y-53207706D01*
X44328196Y-53238132D01*
X44518131Y-53272150D01*
X44722554Y-53309082D01*
X44810980Y-53325151D01*
X45904848Y-53524270D01*
X46482349Y-53993526D01*
X46619283Y-54105009D01*
X46747623Y-54209907D01*
X46863187Y-54304770D01*
X46961795Y-54386150D01*
X47039266Y-54450599D01*
X47091419Y-54494668D01*
X47112285Y-54513107D01*
X47164721Y-54563433D01*
X47080535Y-54560828D01*
X47039906Y-54558034D01*
X46962710Y-54551279D01*
X46854476Y-54541101D01*
X46720732Y-54528038D01*
X46567005Y-54512629D01*
X46398823Y-54495410D01*
X46262136Y-54481172D01*
X46066963Y-54460627D01*
X45909260Y-54443683D01*
X45784392Y-54429548D01*
X45687726Y-54417431D01*
X45614625Y-54406539D01*
X45560456Y-54396081D01*
X45520585Y-54385264D01*
X45490375Y-54373297D01*
X45465194Y-54359387D01*
X45440406Y-54342742D01*
X45436636Y-54340102D01*
X45400765Y-54315113D01*
X45333986Y-54268761D01*
X45240217Y-54203760D01*
X45123373Y-54122820D01*
X44987370Y-54028654D01*
X44836122Y-53923973D01*
X44673546Y-53811488D01*
X44524141Y-53708148D01*
X44358955Y-53593662D01*
X44205167Y-53486600D01*
X44066138Y-53389336D01*
X43945230Y-53304244D01*
X43845805Y-53233700D01*
X43771226Y-53180078D01*
X43724855Y-53145753D01*
X43710022Y-53133123D01*
X43731583Y-53135445D01*
G37*
X43731583Y-53135445D02*
X43790903Y-53144741D01*
X43884103Y-53160334D01*
X44007304Y-53181548D01*
X44156628Y-53207706D01*
X44328196Y-53238132D01*
X44518131Y-53272150D01*
X44722554Y-53309082D01*
X44810980Y-53325151D01*
X45904848Y-53524270D01*
X46482349Y-53993526D01*
X46619283Y-54105009D01*
X46747623Y-54209907D01*
X46863187Y-54304770D01*
X46961795Y-54386150D01*
X47039266Y-54450599D01*
X47091419Y-54494668D01*
X47112285Y-54513107D01*
X47164721Y-54563433D01*
X47080535Y-54560828D01*
X47039906Y-54558034D01*
X46962710Y-54551279D01*
X46854476Y-54541101D01*
X46720732Y-54528038D01*
X46567005Y-54512629D01*
X46398823Y-54495410D01*
X46262136Y-54481172D01*
X46066963Y-54460627D01*
X45909260Y-54443683D01*
X45784392Y-54429548D01*
X45687726Y-54417431D01*
X45614625Y-54406539D01*
X45560456Y-54396081D01*
X45520585Y-54385264D01*
X45490375Y-54373297D01*
X45465194Y-54359387D01*
X45440406Y-54342742D01*
X45436636Y-54340102D01*
X45400765Y-54315113D01*
X45333986Y-54268761D01*
X45240217Y-54203760D01*
X45123373Y-54122820D01*
X44987370Y-54028654D01*
X44836122Y-53923973D01*
X44673546Y-53811488D01*
X44524141Y-53708148D01*
X44358955Y-53593662D01*
X44205167Y-53486600D01*
X44066138Y-53389336D01*
X43945230Y-53304244D01*
X43845805Y-53233700D01*
X43771226Y-53180078D01*
X43724855Y-53145753D01*
X43710022Y-53133123D01*
X43731583Y-53135445D01*
G36*
X49012423Y-55301873D02*
G01*
X49081749Y-55306775D01*
X49177935Y-55315107D01*
X49304423Y-55327126D01*
X49464655Y-55343091D01*
X49662073Y-55363261D01*
X49757667Y-55373128D01*
X50571652Y-55457315D01*
X51461584Y-56072028D01*
X51634808Y-56191757D01*
X51797678Y-56304474D01*
X51946830Y-56407843D01*
X52078900Y-56499524D01*
X52190527Y-56577181D01*
X52278346Y-56638476D01*
X52338995Y-56681072D01*
X52369111Y-56702630D01*
X52371625Y-56704588D01*
X52377120Y-56712810D01*
X52369586Y-56717547D01*
X52346186Y-56718359D01*
X52304080Y-56714806D01*
X52240431Y-56706448D01*
X52152398Y-56692845D01*
X52037145Y-56673556D01*
X51891832Y-56648142D01*
X51713621Y-56616163D01*
X51499674Y-56577177D01*
X51247151Y-56530747D01*
X51230401Y-56527657D01*
X50193953Y-56336465D01*
X49568818Y-55827497D01*
X49428772Y-55713477D01*
X49299208Y-55607993D01*
X49183754Y-55513999D01*
X49086038Y-55434449D01*
X49009688Y-55372296D01*
X48958333Y-55330494D01*
X48935601Y-55311996D01*
X48934864Y-55311398D01*
X48931176Y-55305164D01*
X48940578Y-55301326D01*
X48966513Y-55300143D01*
X49012423Y-55301873D01*
G37*
X49012423Y-55301873D02*
X49081749Y-55306775D01*
X49177935Y-55315107D01*
X49304423Y-55327126D01*
X49464655Y-55343091D01*
X49662073Y-55363261D01*
X49757667Y-55373128D01*
X50571652Y-55457315D01*
X51461584Y-56072028D01*
X51634808Y-56191757D01*
X51797678Y-56304474D01*
X51946830Y-56407843D01*
X52078900Y-56499524D01*
X52190527Y-56577181D01*
X52278346Y-56638476D01*
X52338995Y-56681072D01*
X52369111Y-56702630D01*
X52371625Y-56704588D01*
X52377120Y-56712810D01*
X52369586Y-56717547D01*
X52346186Y-56718359D01*
X52304080Y-56714806D01*
X52240431Y-56706448D01*
X52152398Y-56692845D01*
X52037145Y-56673556D01*
X51891832Y-56648142D01*
X51713621Y-56616163D01*
X51499674Y-56577177D01*
X51247151Y-56530747D01*
X51230401Y-56527657D01*
X50193953Y-56336465D01*
X49568818Y-55827497D01*
X49428772Y-55713477D01*
X49299208Y-55607993D01*
X49183754Y-55513999D01*
X49086038Y-55434449D01*
X49009688Y-55372296D01*
X48958333Y-55330494D01*
X48935601Y-55311996D01*
X48934864Y-55311398D01*
X48931176Y-55305164D01*
X48940578Y-55301326D01*
X48966513Y-55300143D01*
X49012423Y-55301873D01*
G36*
X47152237Y-55303713D02*
G01*
X47155100Y-55305007D01*
X47139390Y-55319969D01*
X47095154Y-55358046D01*
X47026733Y-55415673D01*
X46938468Y-55489284D01*
X46834701Y-55575314D01*
X46719772Y-55670196D01*
X46598024Y-55770366D01*
X46473796Y-55872258D01*
X46351431Y-55972306D01*
X46235269Y-56066945D01*
X46129651Y-56152610D01*
X46038920Y-56225734D01*
X45967415Y-56282752D01*
X45919478Y-56320100D01*
X45915856Y-56322834D01*
X45891907Y-56329349D01*
X45831084Y-56342424D01*
X45738186Y-56361171D01*
X45618013Y-56384703D01*
X45475363Y-56412134D01*
X45315036Y-56442574D01*
X45141831Y-56475137D01*
X44960548Y-56508937D01*
X44775984Y-56543084D01*
X44592940Y-56576693D01*
X44416215Y-56608875D01*
X44250607Y-56638743D01*
X44100917Y-56665410D01*
X43971943Y-56687989D01*
X43868484Y-56705592D01*
X43795340Y-56717331D01*
X43757309Y-56722320D01*
X43754671Y-56722433D01*
X43731559Y-56714948D01*
X43737742Y-56702591D01*
X43758614Y-56686993D01*
X43810951Y-56649697D01*
X43891381Y-56593058D01*
X43996531Y-56519432D01*
X44123029Y-56431173D01*
X44267505Y-56330637D01*
X44426586Y-56220180D01*
X44596900Y-56102156D01*
X44642609Y-56070519D01*
X45527368Y-55458290D01*
X45891442Y-55420971D01*
X46033540Y-55406391D01*
X46202890Y-55388993D01*
X46384634Y-55370304D01*
X46563913Y-55351851D01*
X46705308Y-55337284D01*
X46837764Y-55324256D01*
X46954778Y-55313948D01*
X47050256Y-55306797D01*
X47118106Y-55303239D01*
X47152237Y-55303713D01*
G37*
X47152237Y-55303713D02*
X47155100Y-55305007D01*
X47139390Y-55319969D01*
X47095154Y-55358046D01*
X47026733Y-55415673D01*
X46938468Y-55489284D01*
X46834701Y-55575314D01*
X46719772Y-55670196D01*
X46598024Y-55770366D01*
X46473796Y-55872258D01*
X46351431Y-55972306D01*
X46235269Y-56066945D01*
X46129651Y-56152610D01*
X46038920Y-56225734D01*
X45967415Y-56282752D01*
X45919478Y-56320100D01*
X45915856Y-56322834D01*
X45891907Y-56329349D01*
X45831084Y-56342424D01*
X45738186Y-56361171D01*
X45618013Y-56384703D01*
X45475363Y-56412134D01*
X45315036Y-56442574D01*
X45141831Y-56475137D01*
X44960548Y-56508937D01*
X44775984Y-56543084D01*
X44592940Y-56576693D01*
X44416215Y-56608875D01*
X44250607Y-56638743D01*
X44100917Y-56665410D01*
X43971943Y-56687989D01*
X43868484Y-56705592D01*
X43795340Y-56717331D01*
X43757309Y-56722320D01*
X43754671Y-56722433D01*
X43731559Y-56714948D01*
X43737742Y-56702591D01*
X43758614Y-56686993D01*
X43810951Y-56649697D01*
X43891381Y-56593058D01*
X43996531Y-56519432D01*
X44123029Y-56431173D01*
X44267505Y-56330637D01*
X44426586Y-56220180D01*
X44596900Y-56102156D01*
X44642609Y-56070519D01*
X45527368Y-55458290D01*
X45891442Y-55420971D01*
X46033540Y-55406391D01*
X46202890Y-55388993D01*
X46384634Y-55370304D01*
X46563913Y-55351851D01*
X46705308Y-55337284D01*
X46837764Y-55324256D01*
X46954778Y-55313948D01*
X47050256Y-55306797D01*
X47118106Y-55303239D01*
X47152237Y-55303713D01*
G36*
X53258040Y-56044522D02*
G01*
X53281871Y-56061796D01*
X53336326Y-56102702D01*
X53418524Y-56165025D01*
X53525586Y-56246552D01*
X53654633Y-56345070D01*
X53802783Y-56458365D01*
X53967158Y-56584223D01*
X54144877Y-56720433D01*
X54333062Y-56864779D01*
X54528831Y-57015049D01*
X54729306Y-57169029D01*
X54931607Y-57324505D01*
X55132853Y-57479265D01*
X55330166Y-57631094D01*
X55520664Y-57777780D01*
X55701470Y-57917109D01*
X55869702Y-58046868D01*
X56022480Y-58164842D01*
X56156927Y-58268819D01*
X56270160Y-58356586D01*
X56359301Y-58425928D01*
X56421470Y-58474632D01*
X56453787Y-58500486D01*
X56457262Y-58503484D01*
X56485112Y-58531864D01*
X56479256Y-58540923D01*
X56446679Y-58540579D01*
X56418503Y-58537554D01*
X56351360Y-58529380D01*
X56248253Y-58516444D01*
X56112185Y-58499135D01*
X55946158Y-58477839D01*
X55753174Y-58452944D01*
X55536237Y-58424838D01*
X55298350Y-58393908D01*
X55042514Y-58360543D01*
X54771733Y-58325128D01*
X54489010Y-58288053D01*
X54423734Y-58279479D01*
X54139245Y-58242018D01*
X53866403Y-58205928D01*
X53608171Y-58171610D01*
X53367512Y-58139466D01*
X53147387Y-58109897D01*
X52950760Y-58083303D01*
X52780593Y-58060086D01*
X52639848Y-58040646D01*
X52531487Y-58025385D01*
X52458473Y-58014704D01*
X52423769Y-58009004D01*
X52421477Y-58008425D01*
X52417874Y-58003017D01*
X55177267Y-58003017D01*
X55187850Y-58013600D01*
X55198433Y-58003017D01*
X55187850Y-57992433D01*
X55177267Y-58003017D01*
X52417874Y-58003017D01*
X52406772Y-57986359D01*
X52381587Y-57931402D01*
X52348398Y-57850465D01*
X52309681Y-57750462D01*
X52267912Y-57638303D01*
X52225565Y-57520902D01*
X52185116Y-57405171D01*
X52149042Y-57298022D01*
X52119817Y-57206368D01*
X52099918Y-57137120D01*
X52091820Y-57097191D01*
X52092750Y-57090561D01*
X52114375Y-57094639D01*
X52173361Y-57110045D01*
X52266541Y-57135860D01*
X52390754Y-57171165D01*
X52542834Y-57215043D01*
X52719617Y-57266575D01*
X52917940Y-57324843D01*
X53134638Y-57388930D01*
X53366547Y-57457916D01*
X53610505Y-57530883D01*
X53623950Y-57534916D01*
X53868335Y-57608125D01*
X54100715Y-57677540D01*
X54317940Y-57742230D01*
X54516860Y-57801268D01*
X54694325Y-57853725D01*
X54847184Y-57898672D01*
X54972287Y-57935179D01*
X55066483Y-57962319D01*
X55126623Y-57979163D01*
X55149557Y-57984781D01*
X55149677Y-57984745D01*
X55132512Y-57973995D01*
X55080944Y-57944800D01*
X54997868Y-57898741D01*
X54886180Y-57837394D01*
X54748775Y-57762339D01*
X54588550Y-57675155D01*
X54408399Y-57577418D01*
X54211219Y-57470709D01*
X53999905Y-57356606D01*
X53785372Y-57241003D01*
X53561730Y-57120539D01*
X53348332Y-57005452D01*
X53148207Y-56897384D01*
X52964385Y-56797978D01*
X52799894Y-56708876D01*
X52657764Y-56631721D01*
X52541025Y-56568154D01*
X52452706Y-56519820D01*
X52395837Y-56488359D01*
X52373843Y-56475694D01*
X52363745Y-56465403D01*
X52365802Y-56452821D01*
X52384029Y-56435529D01*
X52422444Y-56411108D01*
X52485061Y-56377139D01*
X52575897Y-56331202D01*
X52698968Y-56270878D01*
X52775379Y-56233824D01*
X52919788Y-56164423D01*
X53031169Y-56112270D01*
X53114272Y-56075503D01*
X53173843Y-56052258D01*
X53214631Y-56040674D01*
X53241384Y-56038890D01*
X53258040Y-56044522D01*
G37*
X53258040Y-56044522D02*
X53281871Y-56061796D01*
X53336326Y-56102702D01*
X53418524Y-56165025D01*
X53525586Y-56246552D01*
X53654633Y-56345070D01*
X53802783Y-56458365D01*
X53967158Y-56584223D01*
X54144877Y-56720433D01*
X54333062Y-56864779D01*
X54528831Y-57015049D01*
X54729306Y-57169029D01*
X54931607Y-57324505D01*
X55132853Y-57479265D01*
X55330166Y-57631094D01*
X55520664Y-57777780D01*
X55701470Y-57917109D01*
X55869702Y-58046868D01*
X56022480Y-58164842D01*
X56156927Y-58268819D01*
X56270160Y-58356586D01*
X56359301Y-58425928D01*
X56421470Y-58474632D01*
X56453787Y-58500486D01*
X56457262Y-58503484D01*
X56485112Y-58531864D01*
X56479256Y-58540923D01*
X56446679Y-58540579D01*
X56418503Y-58537554D01*
X56351360Y-58529380D01*
X56248253Y-58516444D01*
X56112185Y-58499135D01*
X55946158Y-58477839D01*
X55753174Y-58452944D01*
X55536237Y-58424838D01*
X55298350Y-58393908D01*
X55042514Y-58360543D01*
X54771733Y-58325128D01*
X54489010Y-58288053D01*
X54423734Y-58279479D01*
X54139245Y-58242018D01*
X53866403Y-58205928D01*
X53608171Y-58171610D01*
X53367512Y-58139466D01*
X53147387Y-58109897D01*
X52950760Y-58083303D01*
X52780593Y-58060086D01*
X52639848Y-58040646D01*
X52531487Y-58025385D01*
X52458473Y-58014704D01*
X52423769Y-58009004D01*
X52421477Y-58008425D01*
X52417874Y-58003017D01*
X55177267Y-58003017D01*
X55187850Y-58013600D01*
X55198433Y-58003017D01*
X55187850Y-57992433D01*
X55177267Y-58003017D01*
X52417874Y-58003017D01*
X52406772Y-57986359D01*
X52381587Y-57931402D01*
X52348398Y-57850465D01*
X52309681Y-57750462D01*
X52267912Y-57638303D01*
X52225565Y-57520902D01*
X52185116Y-57405171D01*
X52149042Y-57298022D01*
X52119817Y-57206368D01*
X52099918Y-57137120D01*
X52091820Y-57097191D01*
X52092750Y-57090561D01*
X52114375Y-57094639D01*
X52173361Y-57110045D01*
X52266541Y-57135860D01*
X52390754Y-57171165D01*
X52542834Y-57215043D01*
X52719617Y-57266575D01*
X52917940Y-57324843D01*
X53134638Y-57388930D01*
X53366547Y-57457916D01*
X53610505Y-57530883D01*
X53623950Y-57534916D01*
X53868335Y-57608125D01*
X54100715Y-57677540D01*
X54317940Y-57742230D01*
X54516860Y-57801268D01*
X54694325Y-57853725D01*
X54847184Y-57898672D01*
X54972287Y-57935179D01*
X55066483Y-57962319D01*
X55126623Y-57979163D01*
X55149557Y-57984781D01*
X55149677Y-57984745D01*
X55132512Y-57973995D01*
X55080944Y-57944800D01*
X54997868Y-57898741D01*
X54886180Y-57837394D01*
X54748775Y-57762339D01*
X54588550Y-57675155D01*
X54408399Y-57577418D01*
X54211219Y-57470709D01*
X53999905Y-57356606D01*
X53785372Y-57241003D01*
X53561730Y-57120539D01*
X53348332Y-57005452D01*
X53148207Y-56897384D01*
X52964385Y-56797978D01*
X52799894Y-56708876D01*
X52657764Y-56631721D01*
X52541025Y-56568154D01*
X52452706Y-56519820D01*
X52395837Y-56488359D01*
X52373843Y-56475694D01*
X52363745Y-56465403D01*
X52365802Y-56452821D01*
X52384029Y-56435529D01*
X52422444Y-56411108D01*
X52485061Y-56377139D01*
X52575897Y-56331202D01*
X52698968Y-56270878D01*
X52775379Y-56233824D01*
X52919788Y-56164423D01*
X53031169Y-56112270D01*
X53114272Y-56075503D01*
X53173843Y-56052258D01*
X53214631Y-56040674D01*
X53241384Y-56038890D01*
X53258040Y-56044522D01*
G36*
X42871450Y-56039583D02*
G01*
X42927812Y-56058798D01*
X43008185Y-56090912D01*
X43106060Y-56132876D01*
X43214927Y-56181643D01*
X43328275Y-56234163D01*
X43439595Y-56287389D01*
X43542376Y-56338271D01*
X43630109Y-56383762D01*
X43696283Y-56420814D01*
X43734388Y-56446377D01*
X43740970Y-56455572D01*
X43721741Y-56468479D01*
X43668104Y-56499792D01*
X43582959Y-56547914D01*
X43469211Y-56611250D01*
X43329759Y-56688205D01*
X43167506Y-56777182D01*
X42985354Y-56876587D01*
X42786206Y-56984822D01*
X42572961Y-57100293D01*
X42348524Y-57221404D01*
X42335574Y-57228379D01*
X42110997Y-57349443D01*
X41897703Y-57464635D01*
X41698560Y-57572391D01*
X41516438Y-57671150D01*
X41354202Y-57759350D01*
X41214723Y-57835430D01*
X41100867Y-57897828D01*
X41015504Y-57944982D01*
X40961500Y-57975329D01*
X40941724Y-57987309D01*
X40941694Y-57987418D01*
X40962272Y-57982394D01*
X41020255Y-57966118D01*
X41112503Y-57939514D01*
X41235877Y-57903508D01*
X41387238Y-57859025D01*
X41563446Y-57806991D01*
X41761363Y-57748329D01*
X41977847Y-57683966D01*
X42209762Y-57614827D01*
X42453966Y-57541837D01*
X42475352Y-57535436D01*
X42720570Y-57462193D01*
X42953867Y-57392818D01*
X43172092Y-57328227D01*
X43372096Y-57269340D01*
X43550729Y-57217075D01*
X43704840Y-57172348D01*
X43831279Y-57136078D01*
X43926896Y-57109184D01*
X43988541Y-57092582D01*
X44013063Y-57087191D01*
X44013333Y-57087277D01*
X44008865Y-57108327D01*
X43992511Y-57162370D01*
X43966635Y-57242536D01*
X43933603Y-57341955D01*
X43895780Y-57453758D01*
X43855531Y-57571075D01*
X43815222Y-57687036D01*
X43777217Y-57794772D01*
X43743883Y-57887414D01*
X43717583Y-57958091D01*
X43700684Y-57999934D01*
X43696274Y-58008147D01*
X43675030Y-58011640D01*
X43615299Y-58020137D01*
X43520576Y-58033178D01*
X43394355Y-58050303D01*
X43240128Y-58071053D01*
X43061390Y-58094968D01*
X42861634Y-58121589D01*
X42644353Y-58150454D01*
X42413041Y-58181106D01*
X42171192Y-58213083D01*
X41922299Y-58245927D01*
X41669855Y-58279177D01*
X41417354Y-58312373D01*
X41168290Y-58345057D01*
X40926156Y-58376767D01*
X40694446Y-58407045D01*
X40476653Y-58435431D01*
X40276270Y-58461464D01*
X40096792Y-58484686D01*
X39941712Y-58504635D01*
X39814523Y-58520854D01*
X39718718Y-58532881D01*
X39657793Y-58540257D01*
X39635642Y-58542540D01*
X39620997Y-58527650D01*
X39621040Y-58526892D01*
X39637481Y-58512789D01*
X39684690Y-58475047D01*
X39759872Y-58415824D01*
X39860231Y-58337280D01*
X39982972Y-58241573D01*
X40125298Y-58130863D01*
X40284415Y-58007309D01*
X40289949Y-58003017D01*
X40889767Y-58003017D01*
X40900350Y-58013600D01*
X40910933Y-58003017D01*
X40900350Y-57992433D01*
X40889767Y-58003017D01*
X40289949Y-58003017D01*
X40457527Y-57873070D01*
X40641839Y-57730305D01*
X40834555Y-57581174D01*
X41032878Y-57427836D01*
X41234015Y-57272450D01*
X41435170Y-57117175D01*
X41633546Y-56964171D01*
X41826348Y-56815595D01*
X42010782Y-56673609D01*
X42184050Y-56540371D01*
X42343359Y-56418039D01*
X42485911Y-56308774D01*
X42608913Y-56214734D01*
X42709568Y-56138079D01*
X42785080Y-56080968D01*
X42832655Y-56045560D01*
X42845611Y-56036315D01*
X42871450Y-56039583D01*
G37*
X42871450Y-56039583D02*
X42927812Y-56058798D01*
X43008185Y-56090912D01*
X43106060Y-56132876D01*
X43214927Y-56181643D01*
X43328275Y-56234163D01*
X43439595Y-56287389D01*
X43542376Y-56338271D01*
X43630109Y-56383762D01*
X43696283Y-56420814D01*
X43734388Y-56446377D01*
X43740970Y-56455572D01*
X43721741Y-56468479D01*
X43668104Y-56499792D01*
X43582959Y-56547914D01*
X43469211Y-56611250D01*
X43329759Y-56688205D01*
X43167506Y-56777182D01*
X42985354Y-56876587D01*
X42786206Y-56984822D01*
X42572961Y-57100293D01*
X42348524Y-57221404D01*
X42335574Y-57228379D01*
X42110997Y-57349443D01*
X41897703Y-57464635D01*
X41698560Y-57572391D01*
X41516438Y-57671150D01*
X41354202Y-57759350D01*
X41214723Y-57835430D01*
X41100867Y-57897828D01*
X41015504Y-57944982D01*
X40961500Y-57975329D01*
X40941724Y-57987309D01*
X40941694Y-57987418D01*
X40962272Y-57982394D01*
X41020255Y-57966118D01*
X41112503Y-57939514D01*
X41235877Y-57903508D01*
X41387238Y-57859025D01*
X41563446Y-57806991D01*
X41761363Y-57748329D01*
X41977847Y-57683966D01*
X42209762Y-57614827D01*
X42453966Y-57541837D01*
X42475352Y-57535436D01*
X42720570Y-57462193D01*
X42953867Y-57392818D01*
X43172092Y-57328227D01*
X43372096Y-57269340D01*
X43550729Y-57217075D01*
X43704840Y-57172348D01*
X43831279Y-57136078D01*
X43926896Y-57109184D01*
X43988541Y-57092582D01*
X44013063Y-57087191D01*
X44013333Y-57087277D01*
X44008865Y-57108327D01*
X43992511Y-57162370D01*
X43966635Y-57242536D01*
X43933603Y-57341955D01*
X43895780Y-57453758D01*
X43855531Y-57571075D01*
X43815222Y-57687036D01*
X43777217Y-57794772D01*
X43743883Y-57887414D01*
X43717583Y-57958091D01*
X43700684Y-57999934D01*
X43696274Y-58008147D01*
X43675030Y-58011640D01*
X43615299Y-58020137D01*
X43520576Y-58033178D01*
X43394355Y-58050303D01*
X43240128Y-58071053D01*
X43061390Y-58094968D01*
X42861634Y-58121589D01*
X42644353Y-58150454D01*
X42413041Y-58181106D01*
X42171192Y-58213083D01*
X41922299Y-58245927D01*
X41669855Y-58279177D01*
X41417354Y-58312373D01*
X41168290Y-58345057D01*
X40926156Y-58376767D01*
X40694446Y-58407045D01*
X40476653Y-58435431D01*
X40276270Y-58461464D01*
X40096792Y-58484686D01*
X39941712Y-58504635D01*
X39814523Y-58520854D01*
X39718718Y-58532881D01*
X39657793Y-58540257D01*
X39635642Y-58542540D01*
X39620997Y-58527650D01*
X39621040Y-58526892D01*
X39637481Y-58512789D01*
X39684690Y-58475047D01*
X39759872Y-58415824D01*
X39860231Y-58337280D01*
X39982972Y-58241573D01*
X40125298Y-58130863D01*
X40284415Y-58007309D01*
X40289949Y-58003017D01*
X40889767Y-58003017D01*
X40900350Y-58013600D01*
X40910933Y-58003017D01*
X40900350Y-57992433D01*
X40889767Y-58003017D01*
X40289949Y-58003017D01*
X40457527Y-57873070D01*
X40641839Y-57730305D01*
X40834555Y-57581174D01*
X41032878Y-57427836D01*
X41234015Y-57272450D01*
X41435170Y-57117175D01*
X41633546Y-56964171D01*
X41826348Y-56815595D01*
X42010782Y-56673609D01*
X42184050Y-56540371D01*
X42343359Y-56418039D01*
X42485911Y-56308774D01*
X42608913Y-56214734D01*
X42709568Y-56138079D01*
X42785080Y-56080968D01*
X42832655Y-56045560D01*
X42845611Y-56036315D01*
X42871450Y-56039583D01*
G36*
X48422562Y-55821281D02*
G01*
X48440331Y-55840158D01*
X48481709Y-55888222D01*
X48543632Y-55961789D01*
X48623033Y-56057174D01*
X48716847Y-56170694D01*
X48822009Y-56298663D01*
X48935454Y-56437398D01*
X48949516Y-56454641D01*
X49455141Y-57074819D01*
X49651285Y-58146509D01*
X49689077Y-58354266D01*
X49724170Y-58549658D01*
X49755879Y-58728688D01*
X49783516Y-58887357D01*
X49806393Y-59021665D01*
X49823825Y-59127615D01*
X49835124Y-59201208D01*
X49839604Y-59238445D01*
X49839489Y-59242016D01*
X49826331Y-59229762D01*
X49791477Y-59185728D01*
X49737179Y-59113044D01*
X49665689Y-59014839D01*
X49579258Y-58894242D01*
X49480139Y-58754382D01*
X49370583Y-58598389D01*
X49252841Y-58429392D01*
X49203981Y-58358886D01*
X48576412Y-57451937D01*
X48500614Y-56700894D01*
X48482635Y-56524020D01*
X48465515Y-56357984D01*
X48449821Y-56208118D01*
X48436122Y-56079757D01*
X48424987Y-55978238D01*
X48416983Y-55908894D01*
X48413025Y-55878975D01*
X48409705Y-55831613D01*
X48420685Y-55820281D01*
X48422562Y-55821281D01*
G37*
X48422562Y-55821281D02*
X48440331Y-55840158D01*
X48481709Y-55888222D01*
X48543632Y-55961789D01*
X48623033Y-56057174D01*
X48716847Y-56170694D01*
X48822009Y-56298663D01*
X48935454Y-56437398D01*
X48949516Y-56454641D01*
X49455141Y-57074819D01*
X49651285Y-58146509D01*
X49689077Y-58354266D01*
X49724170Y-58549658D01*
X49755879Y-58728688D01*
X49783516Y-58887357D01*
X49806393Y-59021665D01*
X49823825Y-59127615D01*
X49835124Y-59201208D01*
X49839604Y-59238445D01*
X49839489Y-59242016D01*
X49826331Y-59229762D01*
X49791477Y-59185728D01*
X49737179Y-59113044D01*
X49665689Y-59014839D01*
X49579258Y-58894242D01*
X49480139Y-58754382D01*
X49370583Y-58598389D01*
X49252841Y-58429392D01*
X49203981Y-58358886D01*
X48576412Y-57451937D01*
X48500614Y-56700894D01*
X48482635Y-56524020D01*
X48465515Y-56357984D01*
X48449821Y-56208118D01*
X48436122Y-56079757D01*
X48424987Y-55978238D01*
X48416983Y-55908894D01*
X48413025Y-55878975D01*
X48409705Y-55831613D01*
X48420685Y-55820281D01*
X48422562Y-55821281D01*
G36*
X47679218Y-55848149D02*
G01*
X47678352Y-55877318D01*
X47673466Y-55943659D01*
X47665012Y-56042247D01*
X47653445Y-56168156D01*
X47639216Y-56316461D01*
X47622778Y-56482239D01*
X47604586Y-56660564D01*
X47603660Y-56669517D01*
X47522567Y-57452683D01*
X46899625Y-58356520D01*
X46753051Y-58568868D01*
X46628664Y-58748312D01*
X46524906Y-58896995D01*
X46440219Y-59017061D01*
X46373047Y-59110654D01*
X46321832Y-59179917D01*
X46285017Y-59226995D01*
X46261044Y-59254030D01*
X46248357Y-59263166D01*
X46245344Y-59257142D01*
X46250924Y-59215255D01*
X46263495Y-59138595D01*
X46282145Y-59031913D01*
X46305960Y-58899962D01*
X46334026Y-58747495D01*
X46365429Y-58579264D01*
X46399256Y-58400022D01*
X46434594Y-58214522D01*
X46470529Y-58027516D01*
X46506147Y-57843757D01*
X46540535Y-57667997D01*
X46572779Y-57504990D01*
X46601966Y-57359487D01*
X46627183Y-57236241D01*
X46647514Y-57140005D01*
X46662048Y-57075532D01*
X46669871Y-57047575D01*
X46670164Y-57047078D01*
X46690085Y-57021514D01*
X46733548Y-56967129D01*
X46797336Y-56887902D01*
X46878232Y-56787816D01*
X46973020Y-56670850D01*
X47078480Y-56540986D01*
X47186850Y-56407787D01*
X47328947Y-56234481D01*
X47447496Y-56092452D01*
X47542094Y-55982158D01*
X47612337Y-55904057D01*
X47657822Y-55858608D01*
X47678146Y-55846269D01*
X47679218Y-55848149D01*
G37*
X47679218Y-55848149D02*
X47678352Y-55877318D01*
X47673466Y-55943659D01*
X47665012Y-56042247D01*
X47653445Y-56168156D01*
X47639216Y-56316461D01*
X47622778Y-56482239D01*
X47604586Y-56660564D01*
X47603660Y-56669517D01*
X47522567Y-57452683D01*
X46899625Y-58356520D01*
X46753051Y-58568868D01*
X46628664Y-58748312D01*
X46524906Y-58896995D01*
X46440219Y-59017061D01*
X46373047Y-59110654D01*
X46321832Y-59179917D01*
X46285017Y-59226995D01*
X46261044Y-59254030D01*
X46248357Y-59263166D01*
X46245344Y-59257142D01*
X46250924Y-59215255D01*
X46263495Y-59138595D01*
X46282145Y-59031913D01*
X46305960Y-58899962D01*
X46334026Y-58747495D01*
X46365429Y-58579264D01*
X46399256Y-58400022D01*
X46434594Y-58214522D01*
X46470529Y-58027516D01*
X46506147Y-57843757D01*
X46540535Y-57667997D01*
X46572779Y-57504990D01*
X46601966Y-57359487D01*
X46627183Y-57236241D01*
X46647514Y-57140005D01*
X46662048Y-57075532D01*
X46669871Y-57047575D01*
X46670164Y-57047078D01*
X46690085Y-57021514D01*
X46733548Y-56967129D01*
X46797336Y-56887902D01*
X46878232Y-56787816D01*
X46973020Y-56670850D01*
X47078480Y-56540986D01*
X47186850Y-56407787D01*
X47328947Y-56234481D01*
X47447496Y-56092452D01*
X47542094Y-55982158D01*
X47612337Y-55904057D01*
X47657822Y-55858608D01*
X47678146Y-55846269D01*
X47679218Y-55848149D01*
G36*
X50108832Y-59079486D02*
G01*
X50164136Y-59096357D01*
X50248014Y-59123690D01*
X50354812Y-59159621D01*
X50478875Y-59202286D01*
X50557574Y-59229756D01*
X51020366Y-59392148D01*
X51280265Y-61396332D01*
X51317551Y-61683431D01*
X51353448Y-61958994D01*
X51387564Y-62220071D01*
X51419511Y-62463716D01*
X51448897Y-62686981D01*
X51475333Y-62886918D01*
X51498429Y-63060580D01*
X51517795Y-63205019D01*
X51533040Y-63317287D01*
X51543775Y-63394436D01*
X51549609Y-63433520D01*
X51550392Y-63437558D01*
X51551078Y-63468376D01*
X51543114Y-63474600D01*
X51528002Y-63458185D01*
X51488914Y-63410464D01*
X51427634Y-63333725D01*
X51345946Y-63230255D01*
X51245635Y-63102342D01*
X51128485Y-62952274D01*
X50996280Y-62782338D01*
X50850804Y-62594821D01*
X50693842Y-62392011D01*
X50527179Y-62176195D01*
X50508289Y-62151683D01*
X50986267Y-62151683D01*
X50996850Y-62162267D01*
X51007433Y-62151683D01*
X50996850Y-62141100D01*
X50986267Y-62151683D01*
X50508289Y-62151683D01*
X50352598Y-61949662D01*
X50276979Y-61851401D01*
X50099802Y-61620763D01*
X49930252Y-61399446D01*
X49770081Y-61189773D01*
X49621041Y-60994063D01*
X49484882Y-60814637D01*
X49363358Y-60653814D01*
X49258219Y-60513917D01*
X49171217Y-60397265D01*
X49104104Y-60306178D01*
X49058632Y-60242978D01*
X49036552Y-60209984D01*
X49034675Y-60205693D01*
X49045312Y-60180800D01*
X49071604Y-60123534D01*
X49110846Y-60039664D01*
X49160330Y-59934960D01*
X49217348Y-59815191D01*
X49246342Y-59754580D01*
X49315725Y-59611215D01*
X49369832Y-59503095D01*
X49410619Y-59426801D01*
X49440045Y-59378913D01*
X49460069Y-59356011D01*
X49472648Y-59354674D01*
X49474281Y-59356472D01*
X49487788Y-59379678D01*
X49519716Y-59437169D01*
X49568438Y-59525949D01*
X49632324Y-59643017D01*
X49709747Y-59785376D01*
X49799076Y-59950028D01*
X49898685Y-60133974D01*
X50006944Y-60334216D01*
X50122224Y-60547756D01*
X50235074Y-60757073D01*
X50354791Y-60978873D01*
X50468636Y-61189020D01*
X50575035Y-61384654D01*
X50672412Y-61562917D01*
X50759192Y-61720950D01*
X50833801Y-61855892D01*
X50894664Y-61964886D01*
X50940206Y-62045072D01*
X50968851Y-62093590D01*
X50979008Y-62107681D01*
X50973984Y-62084736D01*
X50957642Y-62024474D01*
X50930922Y-61930100D01*
X50894762Y-61804819D01*
X50850103Y-61651834D01*
X50797883Y-61474349D01*
X50739042Y-61275568D01*
X50674519Y-61058696D01*
X50605253Y-60826936D01*
X50532742Y-60585350D01*
X50459774Y-60342338D01*
X50390641Y-60111308D01*
X50326277Y-59895431D01*
X50267618Y-59697878D01*
X50215597Y-59521820D01*
X50171147Y-59370428D01*
X50135205Y-59246873D01*
X50108703Y-59154326D01*
X50092575Y-59095958D01*
X50087757Y-59074941D01*
X50087758Y-59074940D01*
X50108832Y-59079486D01*
G37*
X50108832Y-59079486D02*
X50164136Y-59096357D01*
X50248014Y-59123690D01*
X50354812Y-59159621D01*
X50478875Y-59202286D01*
X50557574Y-59229756D01*
X51020366Y-59392148D01*
X51280265Y-61396332D01*
X51317551Y-61683431D01*
X51353448Y-61958994D01*
X51387564Y-62220071D01*
X51419511Y-62463716D01*
X51448897Y-62686981D01*
X51475333Y-62886918D01*
X51498429Y-63060580D01*
X51517795Y-63205019D01*
X51533040Y-63317287D01*
X51543775Y-63394436D01*
X51549609Y-63433520D01*
X51550392Y-63437558D01*
X51551078Y-63468376D01*
X51543114Y-63474600D01*
X51528002Y-63458185D01*
X51488914Y-63410464D01*
X51427634Y-63333725D01*
X51345946Y-63230255D01*
X51245635Y-63102342D01*
X51128485Y-62952274D01*
X50996280Y-62782338D01*
X50850804Y-62594821D01*
X50693842Y-62392011D01*
X50527179Y-62176195D01*
X50508289Y-62151683D01*
X50986267Y-62151683D01*
X50996850Y-62162267D01*
X51007433Y-62151683D01*
X50996850Y-62141100D01*
X50986267Y-62151683D01*
X50508289Y-62151683D01*
X50352598Y-61949662D01*
X50276979Y-61851401D01*
X50099802Y-61620763D01*
X49930252Y-61399446D01*
X49770081Y-61189773D01*
X49621041Y-60994063D01*
X49484882Y-60814637D01*
X49363358Y-60653814D01*
X49258219Y-60513917D01*
X49171217Y-60397265D01*
X49104104Y-60306178D01*
X49058632Y-60242978D01*
X49036552Y-60209984D01*
X49034675Y-60205693D01*
X49045312Y-60180800D01*
X49071604Y-60123534D01*
X49110846Y-60039664D01*
X49160330Y-59934960D01*
X49217348Y-59815191D01*
X49246342Y-59754580D01*
X49315725Y-59611215D01*
X49369832Y-59503095D01*
X49410619Y-59426801D01*
X49440045Y-59378913D01*
X49460069Y-59356011D01*
X49472648Y-59354674D01*
X49474281Y-59356472D01*
X49487788Y-59379678D01*
X49519716Y-59437169D01*
X49568438Y-59525949D01*
X49632324Y-59643017D01*
X49709747Y-59785376D01*
X49799076Y-59950028D01*
X49898685Y-60133974D01*
X50006944Y-60334216D01*
X50122224Y-60547756D01*
X50235074Y-60757073D01*
X50354791Y-60978873D01*
X50468636Y-61189020D01*
X50575035Y-61384654D01*
X50672412Y-61562917D01*
X50759192Y-61720950D01*
X50833801Y-61855892D01*
X50894664Y-61964886D01*
X50940206Y-62045072D01*
X50968851Y-62093590D01*
X50979008Y-62107681D01*
X50973984Y-62084736D01*
X50957642Y-62024474D01*
X50930922Y-61930100D01*
X50894762Y-61804819D01*
X50850103Y-61651834D01*
X50797883Y-61474349D01*
X50739042Y-61275568D01*
X50674519Y-61058696D01*
X50605253Y-60826936D01*
X50532742Y-60585350D01*
X50459774Y-60342338D01*
X50390641Y-60111308D01*
X50326277Y-59895431D01*
X50267618Y-59697878D01*
X50215597Y-59521820D01*
X50171147Y-59370428D01*
X50135205Y-59246873D01*
X50108703Y-59154326D01*
X50092575Y-59095958D01*
X50087757Y-59074941D01*
X50087758Y-59074940D01*
X50108832Y-59079486D01*
G36*
X46001859Y-59101501D02*
G01*
X45986069Y-59160085D01*
X45959898Y-59252883D01*
X45924269Y-59376737D01*
X45880105Y-59528489D01*
X45828330Y-59704982D01*
X45769865Y-59903058D01*
X45705636Y-60119560D01*
X45636563Y-60351329D01*
X45563572Y-60595209D01*
X45559450Y-60608950D01*
X45486247Y-60853351D01*
X45416857Y-61085764D01*
X45352206Y-61303036D01*
X45293222Y-61502015D01*
X45240832Y-61679550D01*
X45195964Y-61832488D01*
X45159546Y-61957677D01*
X45132504Y-62051966D01*
X45115767Y-62112202D01*
X45110261Y-62135234D01*
X45110304Y-62135360D01*
X45121173Y-62118319D01*
X45150474Y-62066896D01*
X45196612Y-61984004D01*
X45257996Y-61872560D01*
X45333034Y-61735477D01*
X45420133Y-61575673D01*
X45517700Y-61396061D01*
X45624144Y-61199557D01*
X45737871Y-60989077D01*
X45843997Y-60792221D01*
X45963889Y-60569684D01*
X46078599Y-60356936D01*
X46186443Y-60157089D01*
X46285739Y-59973252D01*
X46374804Y-59808538D01*
X46451954Y-59666055D01*
X46515508Y-59548914D01*
X46563781Y-59460227D01*
X46595092Y-59403103D01*
X46607042Y-59381807D01*
X46643128Y-59321265D01*
X46848073Y-59741641D01*
X46908153Y-59866466D01*
X46961547Y-59980444D01*
X47005500Y-60077438D01*
X47037253Y-60151313D01*
X47054050Y-60195933D01*
X47055975Y-60204350D01*
X47043601Y-60228462D01*
X47006022Y-60284656D01*
X46944158Y-60371704D01*
X46858927Y-60488376D01*
X46751248Y-60633444D01*
X46622040Y-60805678D01*
X46472222Y-61003849D01*
X46302714Y-61226728D01*
X46114433Y-61473086D01*
X45908299Y-61741694D01*
X45845294Y-61823600D01*
X45669735Y-62051602D01*
X45500954Y-62270594D01*
X45340808Y-62478175D01*
X45191157Y-62671945D01*
X45053862Y-62849503D01*
X44930780Y-63008450D01*
X44823771Y-63146383D01*
X44734695Y-63260903D01*
X44665410Y-63349609D01*
X44617776Y-63410101D01*
X44593653Y-63439977D01*
X44591629Y-63442262D01*
X44562524Y-63467458D01*
X44552317Y-63459699D01*
X44552052Y-63452845D01*
X44554900Y-63422581D01*
X44562840Y-63354579D01*
X44575408Y-63252342D01*
X44592142Y-63119370D01*
X44612579Y-62959163D01*
X44636255Y-62775223D01*
X44662709Y-62571049D01*
X44691476Y-62350142D01*
X44714661Y-62172850D01*
X45080767Y-62172850D01*
X45091350Y-62183433D01*
X45101933Y-62172850D01*
X45091350Y-62162267D01*
X45080767Y-62172850D01*
X44714661Y-62172850D01*
X44722095Y-62116004D01*
X44754101Y-61872134D01*
X44787033Y-61622034D01*
X44820428Y-61369204D01*
X44853821Y-61117145D01*
X44886751Y-60869356D01*
X44918755Y-60629340D01*
X44949369Y-60400597D01*
X44978132Y-60186627D01*
X45004579Y-59990931D01*
X45028247Y-59817010D01*
X45048675Y-59668364D01*
X45065399Y-59548494D01*
X45077957Y-59460900D01*
X45085884Y-59409084D01*
X45088545Y-59395766D01*
X45112366Y-59384413D01*
X45168671Y-59362498D01*
X45250570Y-59332388D01*
X45351173Y-59296452D01*
X45463589Y-59257058D01*
X45580927Y-59216575D01*
X45696297Y-59177372D01*
X45802808Y-59141817D01*
X45893570Y-59112278D01*
X45961692Y-59091124D01*
X46000283Y-59080724D01*
X46006344Y-59080289D01*
X46001859Y-59101501D01*
G37*
X46001859Y-59101501D02*
X45986069Y-59160085D01*
X45959898Y-59252883D01*
X45924269Y-59376737D01*
X45880105Y-59528489D01*
X45828330Y-59704982D01*
X45769865Y-59903058D01*
X45705636Y-60119560D01*
X45636563Y-60351329D01*
X45563572Y-60595209D01*
X45559450Y-60608950D01*
X45486247Y-60853351D01*
X45416857Y-61085764D01*
X45352206Y-61303036D01*
X45293222Y-61502015D01*
X45240832Y-61679550D01*
X45195964Y-61832488D01*
X45159546Y-61957677D01*
X45132504Y-62051966D01*
X45115767Y-62112202D01*
X45110261Y-62135234D01*
X45110304Y-62135360D01*
X45121173Y-62118319D01*
X45150474Y-62066896D01*
X45196612Y-61984004D01*
X45257996Y-61872560D01*
X45333034Y-61735477D01*
X45420133Y-61575673D01*
X45517700Y-61396061D01*
X45624144Y-61199557D01*
X45737871Y-60989077D01*
X45843997Y-60792221D01*
X45963889Y-60569684D01*
X46078599Y-60356936D01*
X46186443Y-60157089D01*
X46285739Y-59973252D01*
X46374804Y-59808538D01*
X46451954Y-59666055D01*
X46515508Y-59548914D01*
X46563781Y-59460227D01*
X46595092Y-59403103D01*
X46607042Y-59381807D01*
X46643128Y-59321265D01*
X46848073Y-59741641D01*
X46908153Y-59866466D01*
X46961547Y-59980444D01*
X47005500Y-60077438D01*
X47037253Y-60151313D01*
X47054050Y-60195933D01*
X47055975Y-60204350D01*
X47043601Y-60228462D01*
X47006022Y-60284656D01*
X46944158Y-60371704D01*
X46858927Y-60488376D01*
X46751248Y-60633444D01*
X46622040Y-60805678D01*
X46472222Y-61003849D01*
X46302714Y-61226728D01*
X46114433Y-61473086D01*
X45908299Y-61741694D01*
X45845294Y-61823600D01*
X45669735Y-62051602D01*
X45500954Y-62270594D01*
X45340808Y-62478175D01*
X45191157Y-62671945D01*
X45053862Y-62849503D01*
X44930780Y-63008450D01*
X44823771Y-63146383D01*
X44734695Y-63260903D01*
X44665410Y-63349609D01*
X44617776Y-63410101D01*
X44593653Y-63439977D01*
X44591629Y-63442262D01*
X44562524Y-63467458D01*
X44552317Y-63459699D01*
X44552052Y-63452845D01*
X44554900Y-63422581D01*
X44562840Y-63354579D01*
X44575408Y-63252342D01*
X44592142Y-63119370D01*
X44612579Y-62959163D01*
X44636255Y-62775223D01*
X44662709Y-62571049D01*
X44691476Y-62350142D01*
X44714661Y-62172850D01*
X45080767Y-62172850D01*
X45091350Y-62183433D01*
X45101933Y-62172850D01*
X45091350Y-62162267D01*
X45080767Y-62172850D01*
X44714661Y-62172850D01*
X44722095Y-62116004D01*
X44754101Y-61872134D01*
X44787033Y-61622034D01*
X44820428Y-61369204D01*
X44853821Y-61117145D01*
X44886751Y-60869356D01*
X44918755Y-60629340D01*
X44949369Y-60400597D01*
X44978132Y-60186627D01*
X45004579Y-59990931D01*
X45028247Y-59817010D01*
X45048675Y-59668364D01*
X45065399Y-59548494D01*
X45077957Y-59460900D01*
X45085884Y-59409084D01*
X45088545Y-59395766D01*
X45112366Y-59384413D01*
X45168671Y-59362498D01*
X45250570Y-59332388D01*
X45351173Y-59296452D01*
X45463589Y-59257058D01*
X45580927Y-59216575D01*
X45696297Y-59177372D01*
X45802808Y-59141817D01*
X45893570Y-59112278D01*
X45961692Y-59091124D01*
X46000283Y-59080724D01*
X46006344Y-59080289D01*
X46001859Y-59101501D01*
G36*
X48061977Y-45814207D02*
G01*
X48066493Y-45844530D01*
X48068978Y-45878897D01*
X48075338Y-45949145D01*
X48084966Y-46049059D01*
X48097251Y-46172424D01*
X48111586Y-46313027D01*
X48125405Y-46446017D01*
X48183091Y-46996350D01*
X48260231Y-46860141D01*
X48288013Y-46812669D01*
X48314920Y-46773402D01*
X48346644Y-46737537D01*
X48388875Y-46700267D01*
X48447305Y-46656789D01*
X48527625Y-46602297D01*
X48635525Y-46531987D01*
X48692147Y-46495483D01*
X48800649Y-46426331D01*
X48896663Y-46366501D01*
X48974701Y-46319301D01*
X49029280Y-46288035D01*
X49054914Y-46276009D01*
X49056044Y-46276155D01*
X49047954Y-46295886D01*
X49020086Y-46345643D01*
X48975723Y-46419948D01*
X48918146Y-46513325D01*
X48850639Y-46620300D01*
X48836210Y-46642883D01*
X48607255Y-47000490D01*
X48410582Y-47104253D01*
X48318709Y-47154479D01*
X48259401Y-47191993D01*
X48226609Y-47221429D01*
X48214283Y-47247422D01*
X48213671Y-47255084D01*
X48215663Y-47284192D01*
X48221314Y-47349086D01*
X48230005Y-47443437D01*
X48241113Y-47560916D01*
X48254019Y-47695192D01*
X48268100Y-47839937D01*
X48282735Y-47988821D01*
X48297305Y-48135514D01*
X48311186Y-48273686D01*
X48323758Y-48397008D01*
X48334400Y-48499150D01*
X48342492Y-48573783D01*
X48346147Y-48605017D01*
X48357637Y-48608875D01*
X48386099Y-48574578D01*
X48431187Y-48502601D01*
X48467645Y-48438712D01*
X48583850Y-48230075D01*
X49229433Y-47812776D01*
X49377062Y-47717872D01*
X49513168Y-47631379D01*
X49633768Y-47555753D01*
X49734879Y-47493447D01*
X49812517Y-47446915D01*
X49862700Y-47418613D01*
X49881444Y-47410994D01*
X49881452Y-47411012D01*
X49871852Y-47431748D01*
X49841691Y-47483900D01*
X49793492Y-47563398D01*
X49729778Y-47666173D01*
X49653072Y-47788154D01*
X49565897Y-47925271D01*
X49472502Y-48070776D01*
X49057116Y-48715006D01*
X48730525Y-48889534D01*
X48612882Y-48952708D01*
X48527527Y-48999951D01*
X48469303Y-49035080D01*
X48433053Y-49061913D01*
X48413622Y-49084269D01*
X48405852Y-49105965D01*
X48404587Y-49130820D01*
X48404588Y-49130873D01*
X48406918Y-49169163D01*
X48413159Y-49243337D01*
X48422723Y-49347183D01*
X48435022Y-49474493D01*
X48449468Y-49619055D01*
X48465473Y-49774659D01*
X48465987Y-49779587D01*
X48526733Y-50361491D01*
X48296656Y-52614813D01*
X48265632Y-52919119D01*
X48235925Y-53211417D01*
X48207807Y-53488975D01*
X48181551Y-53749061D01*
X48157430Y-53988941D01*
X48135716Y-54205884D01*
X48116682Y-54397155D01*
X48100602Y-54560024D01*
X48087747Y-54691757D01*
X48078391Y-54789621D01*
X48072806Y-54850885D01*
X48071266Y-54872815D01*
X48071276Y-54872831D01*
X48084993Y-54857412D01*
X48123700Y-54811275D01*
X48185663Y-54736535D01*
X48269148Y-54635309D01*
X48372423Y-54509709D01*
X48493751Y-54361851D01*
X48631401Y-54193850D01*
X48783637Y-54007820D01*
X48948726Y-53805877D01*
X49124934Y-53590135D01*
X49310528Y-53362708D01*
X49503772Y-53125712D01*
X49510788Y-53117105D01*
X50945604Y-51356683D01*
X51441814Y-50954517D01*
X51566071Y-50853125D01*
X51678969Y-50759689D01*
X51776468Y-50677656D01*
X51854527Y-50610476D01*
X51909107Y-50561595D01*
X51936167Y-50534463D01*
X51938396Y-50530644D01*
X51932753Y-50504032D01*
X51916894Y-50444037D01*
X51892807Y-50357813D01*
X51862481Y-50252513D01*
X51836752Y-50165034D01*
X51734738Y-49821130D01*
X51888752Y-49107240D01*
X51933021Y-48902105D01*
X51969235Y-48734602D01*
X51998263Y-48600979D01*
X52020973Y-48497485D01*
X52038233Y-48420368D01*
X52050910Y-48365878D01*
X52059873Y-48330264D01*
X52065990Y-48309774D01*
X52070128Y-48300657D01*
X52073155Y-48299161D01*
X52075324Y-48300894D01*
X52081357Y-48322645D01*
X52095237Y-48381145D01*
X52115926Y-48471752D01*
X52142385Y-48589826D01*
X52173572Y-48730726D01*
X52208448Y-48889810D01*
X52245974Y-49062436D01*
X52246885Y-49066644D01*
X52410947Y-49824605D01*
X52345281Y-50039637D01*
X52318830Y-50127969D01*
X52298372Y-50199610D01*
X52286280Y-50246028D01*
X52284184Y-50259240D01*
X52301061Y-50247480D01*
X52346898Y-50211998D01*
X52417868Y-50155848D01*
X52510146Y-50082086D01*
X52619904Y-49993769D01*
X52743316Y-49893950D01*
X52840029Y-49815414D01*
X53391304Y-49367017D01*
X53332155Y-49165933D01*
X53306603Y-49074484D01*
X53286519Y-48993891D01*
X53274659Y-48935681D01*
X53272636Y-48917018D01*
X53276906Y-48879961D01*
X53288793Y-48810267D01*
X53306495Y-48716567D01*
X53328213Y-48607497D01*
X53352146Y-48491691D01*
X53376495Y-48377782D01*
X53399458Y-48274406D01*
X53419235Y-48190195D01*
X53434027Y-48133784D01*
X53439200Y-48118183D01*
X53453393Y-48087894D01*
X53462400Y-48096787D01*
X53469011Y-48118183D01*
X53481579Y-48167172D01*
X53499497Y-48245387D01*
X53521055Y-48344451D01*
X53544545Y-48455984D01*
X53568258Y-48571611D01*
X53590485Y-48682952D01*
X53609517Y-48781630D01*
X53623646Y-48859268D01*
X53631164Y-48907487D01*
X53631938Y-48917018D01*
X53625812Y-48961904D01*
X53610025Y-49030939D01*
X53591148Y-49098452D01*
X53572228Y-49168860D01*
X53567270Y-49208121D01*
X53575435Y-49213053D01*
X53601367Y-49192474D01*
X53654571Y-49149675D01*
X53729491Y-49089163D01*
X53820571Y-49015450D01*
X53922256Y-48933043D01*
X54028989Y-48846453D01*
X54135215Y-48760187D01*
X54235379Y-48678755D01*
X54323924Y-48606667D01*
X54395295Y-48548431D01*
X54443936Y-48508556D01*
X54463021Y-48492674D01*
X54498072Y-48465681D01*
X54507353Y-48467474D01*
X54490487Y-48498593D01*
X54447100Y-48559580D01*
X54376816Y-48650975D01*
X54279258Y-48773319D01*
X54200439Y-48870433D01*
X54106710Y-48985403D01*
X54018409Y-49093878D01*
X53940234Y-49190072D01*
X53876884Y-49268200D01*
X53833060Y-49322476D01*
X53819088Y-49339932D01*
X53756535Y-49418680D01*
X53858359Y-49387325D01*
X53927899Y-49366287D01*
X53987154Y-49348991D01*
X54005803Y-49343827D01*
X54037970Y-49344309D01*
X54101025Y-49352416D01*
X54187867Y-49366674D01*
X54291396Y-49385608D01*
X54404510Y-49407744D01*
X54520109Y-49431608D01*
X54631091Y-49455726D01*
X54730354Y-49478625D01*
X54810799Y-49498829D01*
X54865324Y-49514865D01*
X54886828Y-49525258D01*
X54886430Y-49526634D01*
X54861651Y-49535120D01*
X54801959Y-49550608D01*
X54713900Y-49571549D01*
X54604021Y-49596394D01*
X54478870Y-49623593D01*
X54457600Y-49628116D01*
X54044850Y-49715620D01*
X53843767Y-49652679D01*
X53757352Y-49626012D01*
X53686612Y-49604895D01*
X53640890Y-49592079D01*
X53629069Y-49589503D01*
X53612670Y-49605207D01*
X53573244Y-49649636D01*
X53514353Y-49718574D01*
X53439560Y-49807804D01*
X53352426Y-49913108D01*
X53256513Y-50030269D01*
X53249357Y-50039058D01*
X53147545Y-50163995D01*
X53049541Y-50283982D01*
X52960004Y-50393336D01*
X52883590Y-50486377D01*
X52824956Y-50557424D01*
X52790909Y-50598257D01*
X52698560Y-50707664D01*
X53156700Y-50569958D01*
X53900727Y-50730487D01*
X54072293Y-50767786D01*
X54230627Y-50802750D01*
X54370995Y-50834293D01*
X54488662Y-50861328D01*
X54578895Y-50882768D01*
X54636959Y-50897524D01*
X54658015Y-50904368D01*
X54659947Y-50908596D01*
X54655087Y-50913471D01*
X54639904Y-50919827D01*
X54610870Y-50928497D01*
X54564457Y-50940312D01*
X54497134Y-50956106D01*
X54405373Y-50976712D01*
X54285646Y-51002961D01*
X54134422Y-51035688D01*
X53948174Y-51075724D01*
X53769683Y-51113983D01*
X53155850Y-51245472D01*
X52796789Y-51137807D01*
X52680402Y-51103986D01*
X52578460Y-51076412D01*
X52497653Y-51056728D01*
X52444671Y-51046576D01*
X52426373Y-51046837D01*
X52410582Y-51066842D01*
X52371352Y-51115429D01*
X52312070Y-51188434D01*
X52236127Y-51281694D01*
X52146910Y-51391043D01*
X52047807Y-51512318D01*
X52009328Y-51559358D01*
X51603640Y-52055183D01*
X49847636Y-53483933D01*
X49610543Y-53676882D01*
X49382918Y-53862205D01*
X49166885Y-54038170D01*
X48964565Y-54203044D01*
X48778080Y-54355097D01*
X48609553Y-54492596D01*
X48461104Y-54613809D01*
X48334857Y-54717003D01*
X48232933Y-54800448D01*
X48157455Y-54862411D01*
X48110544Y-54901160D01*
X48094322Y-54914963D01*
X48094324Y-54914971D01*
X48115293Y-54913159D01*
X48175637Y-54907277D01*
X48272621Y-54897605D01*
X48403508Y-54884420D01*
X48565565Y-54868003D01*
X48756057Y-54848630D01*
X48972248Y-54826581D01*
X49211404Y-54802135D01*
X49470788Y-54775569D01*
X49747668Y-54747162D01*
X50039306Y-54717194D01*
X50340683Y-54686177D01*
X52584350Y-54455095D01*
X53239867Y-54519438D01*
X53402042Y-54534832D01*
X53550579Y-54547924D01*
X53680272Y-54558335D01*
X53785912Y-54565686D01*
X53862292Y-54569596D01*
X53904203Y-54569687D01*
X53910501Y-54568316D01*
X53925097Y-54545320D01*
X53955926Y-54491455D01*
X53999362Y-54413238D01*
X54051773Y-54317184D01*
X54093871Y-54239073D01*
X54262123Y-53925296D01*
X54914684Y-53504492D01*
X55063362Y-53408996D01*
X55200617Y-53321565D01*
X55322458Y-53244685D01*
X55424898Y-53180842D01*
X55503946Y-53132521D01*
X55555613Y-53102208D01*
X55575910Y-53092389D01*
X55576002Y-53092447D01*
X55566922Y-53111574D01*
X55537231Y-53162189D01*
X55489419Y-53240302D01*
X55425978Y-53341925D01*
X55349397Y-53463071D01*
X55262166Y-53599752D01*
X55166776Y-53747979D01*
X55163568Y-53752944D01*
X54742376Y-54404683D01*
X54547593Y-54509275D01*
X54468386Y-54553050D01*
X54406495Y-54589646D01*
X54369243Y-54614579D01*
X54361923Y-54622978D01*
X54384062Y-54627082D01*
X54442187Y-54634683D01*
X54530292Y-54645153D01*
X54642373Y-54657860D01*
X54772424Y-54672177D01*
X54914441Y-54687474D01*
X55062418Y-54703121D01*
X55210352Y-54718489D01*
X55352238Y-54732949D01*
X55482069Y-54745871D01*
X55593842Y-54756626D01*
X55681552Y-54764585D01*
X55739194Y-54769117D01*
X55760762Y-54769596D01*
X55771965Y-54750016D01*
X55798750Y-54701012D01*
X55836802Y-54630525D01*
X55871289Y-54566187D01*
X55977300Y-54367858D01*
X56333992Y-54137775D01*
X56443433Y-54067679D01*
X56540945Y-54006170D01*
X56620902Y-53956719D01*
X56677677Y-53922798D01*
X56705646Y-53907879D01*
X56707209Y-53907479D01*
X56710853Y-53910358D01*
X56707816Y-53921688D01*
X56695778Y-53945272D01*
X56672418Y-53984913D01*
X56635414Y-54044414D01*
X56582446Y-54127576D01*
X56511194Y-54238202D01*
X56419335Y-54380095D01*
X56409174Y-54395769D01*
X56343473Y-54495763D01*
X56293133Y-54567257D01*
X56251236Y-54617742D01*
X56210861Y-54654712D01*
X56165088Y-54685661D01*
X56115954Y-54713269D01*
X55981632Y-54785683D01*
X56050408Y-54799409D01*
X56091405Y-54805445D01*
X56167312Y-54814592D01*
X56270885Y-54826058D01*
X56394880Y-54839049D01*
X56532055Y-54852773D01*
X56584850Y-54857893D01*
X56767901Y-54875729D01*
X56912426Y-54890421D01*
X57022078Y-54902436D01*
X57100513Y-54912238D01*
X57151382Y-54920292D01*
X57178339Y-54927063D01*
X57185039Y-54933018D01*
X57184207Y-54934215D01*
X57161800Y-54938410D01*
X57102834Y-54946040D01*
X57012886Y-54956480D01*
X56897534Y-54969102D01*
X56762356Y-54983280D01*
X56615836Y-54998097D01*
X56465139Y-55013322D01*
X56327436Y-55027711D01*
X56208611Y-55040609D01*
X56114546Y-55051365D01*
X56051123Y-55059326D01*
X56024577Y-55063716D01*
X56024037Y-55078121D01*
X56058552Y-55107059D01*
X56123074Y-55146709D01*
X56168903Y-55173661D01*
X56207444Y-55200752D01*
X56243508Y-55233685D01*
X56281908Y-55278166D01*
X56327457Y-55339898D01*
X56384966Y-55424587D01*
X56459248Y-55537938D01*
X56479822Y-55569601D01*
X56548830Y-55677348D01*
X56608194Y-55772847D01*
X56654610Y-55850548D01*
X56684776Y-55904900D01*
X56695388Y-55930351D01*
X56695077Y-55931345D01*
X56674511Y-55924071D01*
X56624125Y-55896829D01*
X56549475Y-55852905D01*
X56456119Y-55795580D01*
X56349612Y-55728139D01*
X56331927Y-55716762D01*
X55980668Y-55490289D01*
X55873474Y-55291444D01*
X55828416Y-55210084D01*
X55789908Y-55144666D01*
X55762658Y-55102939D01*
X55752231Y-55091821D01*
X55721408Y-55093355D01*
X55656096Y-55098820D01*
X55562258Y-55107582D01*
X55445855Y-55119010D01*
X55312849Y-55132470D01*
X55169200Y-55147329D01*
X55020872Y-55162956D01*
X54873824Y-55178718D01*
X54734020Y-55193981D01*
X54607419Y-55208113D01*
X54499983Y-55220482D01*
X54417675Y-55230454D01*
X54366456Y-55237398D01*
X54351815Y-55240448D01*
X54369336Y-55254210D01*
X54416659Y-55282870D01*
X54485991Y-55321866D01*
X54548034Y-55355304D01*
X54744204Y-55459259D01*
X55164591Y-56112768D01*
X55259970Y-56261570D01*
X55347333Y-56398890D01*
X55424196Y-56520745D01*
X55488075Y-56623153D01*
X55536487Y-56702129D01*
X55566946Y-56753690D01*
X55576969Y-56773854D01*
X55576914Y-56773948D01*
X55557261Y-56765411D01*
X55507204Y-56736433D01*
X55431519Y-56690127D01*
X55334978Y-56629601D01*
X55222357Y-56557969D01*
X55098429Y-56478340D01*
X54967967Y-56393825D01*
X54835747Y-56307537D01*
X54706543Y-56222584D01*
X54585128Y-56142080D01*
X54476276Y-56069134D01*
X54384762Y-56006857D01*
X54315359Y-55958362D01*
X54272842Y-55926757D01*
X54262286Y-55917276D01*
X54239733Y-55883098D01*
X54202178Y-55819215D01*
X54154091Y-55733513D01*
X54099944Y-55633876D01*
X54074875Y-55586752D01*
X54020619Y-55486758D01*
X53971162Y-55400579D01*
X53930632Y-55335037D01*
X53903153Y-55296952D01*
X53895571Y-55290328D01*
X53867975Y-55289665D01*
X53803794Y-55293108D01*
X53708527Y-55300207D01*
X53587676Y-55310510D01*
X53446743Y-55323566D01*
X53291229Y-55338924D01*
X53244780Y-55343683D01*
X52622445Y-55407958D01*
X50370509Y-55177765D01*
X50066271Y-55146726D01*
X49774020Y-55117028D01*
X49496491Y-55088943D01*
X49236420Y-55062743D01*
X48996542Y-55038698D01*
X48779593Y-55017080D01*
X48588308Y-54998162D01*
X48425422Y-54982214D01*
X48293672Y-54969509D01*
X48195792Y-54960317D01*
X48134518Y-54954911D01*
X48112585Y-54953562D01*
X48112572Y-54953572D01*
X48127814Y-54967464D01*
X48173777Y-55006332D01*
X48248342Y-55068436D01*
X48349391Y-55152037D01*
X48474806Y-55255395D01*
X48622469Y-55376771D01*
X48790260Y-55514425D01*
X48976062Y-55666618D01*
X49177756Y-55831611D01*
X49393224Y-56007663D01*
X49620347Y-56193036D01*
X49857008Y-56385990D01*
X49858627Y-56387310D01*
X51610683Y-57815047D01*
X52015511Y-58310322D01*
X52117696Y-58434654D01*
X52211987Y-58548079D01*
X52294890Y-58646497D01*
X52362910Y-58725806D01*
X52412554Y-58781906D01*
X52440327Y-58810694D01*
X52444321Y-58813590D01*
X52471870Y-58810508D01*
X52532428Y-58796816D01*
X52618562Y-58774412D01*
X52722838Y-58745194D01*
X52793272Y-58724509D01*
X52907007Y-58691324D01*
X53009062Y-58663020D01*
X53091413Y-58641710D01*
X53146036Y-58629507D01*
X53161958Y-58627433D01*
X53193921Y-58631829D01*
X53261201Y-58644163D01*
X53357797Y-58663149D01*
X53477709Y-58687505D01*
X53614938Y-58715948D01*
X53763483Y-58747193D01*
X53917343Y-58779958D01*
X54070519Y-58812958D01*
X54217011Y-58844911D01*
X54350817Y-58874532D01*
X54465938Y-58900538D01*
X54556375Y-58921646D01*
X54616125Y-58936572D01*
X54637517Y-58943075D01*
X54664871Y-58957255D01*
X54655456Y-58966637D01*
X54626933Y-58974369D01*
X54564078Y-58989142D01*
X54471474Y-59009909D01*
X54354958Y-59035444D01*
X54220366Y-59064521D01*
X54073536Y-59095912D01*
X53920302Y-59128392D01*
X53766501Y-59160735D01*
X53617971Y-59191713D01*
X53480547Y-59220101D01*
X53360065Y-59244671D01*
X53262362Y-59264199D01*
X53193275Y-59277456D01*
X53158639Y-59283217D01*
X53156462Y-59283364D01*
X53118252Y-59277145D01*
X53051106Y-59260645D01*
X52966317Y-59236769D01*
X52916553Y-59221640D01*
X52833953Y-59197120D01*
X52769774Y-59180496D01*
X52732251Y-59173758D01*
X52726053Y-59175614D01*
X52740522Y-59195170D01*
X52778603Y-59243537D01*
X52837111Y-59316753D01*
X52912861Y-59410858D01*
X53002666Y-59521890D01*
X53103342Y-59645888D01*
X53174257Y-59732980D01*
X53615997Y-60274884D01*
X53714007Y-60244679D01*
X53791388Y-60221638D01*
X53884017Y-60195161D01*
X53939641Y-60179771D01*
X54067265Y-60145068D01*
X54478579Y-60233869D01*
X54604684Y-60261419D01*
X54716019Y-60286359D01*
X54806191Y-60307207D01*
X54868805Y-60322480D01*
X54897467Y-60330693D01*
X54898494Y-60331272D01*
X54900941Y-60334710D01*
X54897671Y-60338446D01*
X54883823Y-60343666D01*
X54854536Y-60351557D01*
X54804950Y-60363309D01*
X54730206Y-60380109D01*
X54625444Y-60403145D01*
X54485802Y-60433604D01*
X54430508Y-60445645D01*
X54054165Y-60527599D01*
X53924152Y-60487135D01*
X53854949Y-60467092D01*
X53802526Y-60454681D01*
X53779634Y-60452510D01*
X53788712Y-60469686D01*
X53821530Y-60515320D01*
X53874852Y-60585244D01*
X53945442Y-60675290D01*
X54030064Y-60781291D01*
X54125482Y-60899078D01*
X54143825Y-60921542D01*
X54241145Y-61041277D01*
X54328558Y-61150170D01*
X54402769Y-61244009D01*
X54460485Y-61318582D01*
X54498413Y-61369677D01*
X54513260Y-61393081D01*
X54513238Y-61394018D01*
X54495146Y-61383555D01*
X54448602Y-61349418D01*
X54377796Y-61294884D01*
X54286919Y-61223231D01*
X54180162Y-61137739D01*
X54061717Y-61041686D01*
X54036277Y-61020911D01*
X53916542Y-60923651D01*
X53808136Y-60836824D01*
X53715139Y-60763598D01*
X53641629Y-60707140D01*
X53591687Y-60670620D01*
X53569390Y-60657205D01*
X53568600Y-60657675D01*
X53574501Y-60686691D01*
X53589853Y-60742952D01*
X53607962Y-60803299D01*
X53647324Y-60929770D01*
X53557523Y-61345985D01*
X53529693Y-61473073D01*
X53504271Y-61585598D01*
X53482769Y-61677156D01*
X53466697Y-61741342D01*
X53457566Y-61771751D01*
X53456728Y-61773194D01*
X53446804Y-61760770D01*
X53432707Y-61717196D01*
X53421821Y-61671602D01*
X53408657Y-61609838D01*
X53388957Y-61517679D01*
X53365072Y-61406117D01*
X53339357Y-61286147D01*
X53330868Y-61246574D01*
X53263827Y-60934131D01*
X53392361Y-60496209D01*
X52842537Y-60048070D01*
X52711724Y-59941801D01*
X52591646Y-59844926D01*
X52486147Y-59760493D01*
X52399068Y-59691550D01*
X52334252Y-59641145D01*
X52295542Y-59612326D01*
X52285984Y-59606660D01*
X52288879Y-59628394D01*
X52301964Y-59681918D01*
X52322995Y-59758553D01*
X52343121Y-59827619D01*
X52406988Y-60041849D01*
X52245640Y-60789406D01*
X52208374Y-60961165D01*
X52173642Y-61119525D01*
X52142501Y-61259799D01*
X52116006Y-61377298D01*
X52095215Y-61467335D01*
X52081185Y-61525222D01*
X52075029Y-61546226D01*
X52059171Y-61546669D01*
X52053377Y-61524662D01*
X52039801Y-61465928D01*
X52019473Y-61375142D01*
X51993426Y-61256984D01*
X51962689Y-61116130D01*
X51928295Y-60957258D01*
X51891878Y-60787864D01*
X51731181Y-60037878D01*
X51834974Y-59693737D01*
X51869237Y-59579040D01*
X51898733Y-59478224D01*
X51921440Y-59398362D01*
X51935338Y-59346532D01*
X51938767Y-59330237D01*
X51922951Y-59312546D01*
X51878167Y-59271701D01*
X51808411Y-59211109D01*
X51717678Y-59134178D01*
X51609963Y-59044315D01*
X51489262Y-58944929D01*
X51436058Y-58901493D01*
X50933350Y-58492108D01*
X49506169Y-56739632D01*
X49313246Y-56502853D01*
X49127895Y-56275595D01*
X48951853Y-56059977D01*
X48786860Y-55858117D01*
X48634653Y-55672136D01*
X48496972Y-55504152D01*
X48375554Y-55356285D01*
X48272139Y-55230654D01*
X48188464Y-55129378D01*
X48126269Y-55054577D01*
X48087291Y-55008370D01*
X48073270Y-54992876D01*
X48073264Y-54992880D01*
X48074590Y-55014267D01*
X48079960Y-55075033D01*
X48089102Y-55172443D01*
X48101747Y-55303763D01*
X48117623Y-55466260D01*
X48136459Y-55657199D01*
X48157985Y-55873845D01*
X48181931Y-56113466D01*
X48208024Y-56373326D01*
X48235995Y-56650691D01*
X48265572Y-56942827D01*
X48296486Y-57247001D01*
X48297018Y-57252227D01*
X48526497Y-59505850D01*
X48465688Y-60087933D01*
X48449655Y-60243587D01*
X48435190Y-60388195D01*
X48422876Y-60515593D01*
X48413296Y-60619614D01*
X48407033Y-60694094D01*
X48404668Y-60732867D01*
X48404663Y-60733517D01*
X48406499Y-60757462D01*
X48415625Y-60779017D01*
X48437199Y-60801957D01*
X48476380Y-60830056D01*
X48538324Y-60867088D01*
X48628191Y-60916829D01*
X48730576Y-60972023D01*
X49056705Y-61147029D01*
X49473822Y-61793089D01*
X49568875Y-61941043D01*
X49655738Y-62077660D01*
X49731924Y-62198919D01*
X49794944Y-62300798D01*
X49842313Y-62379277D01*
X49871542Y-62430333D01*
X49880143Y-62449945D01*
X49880143Y-62449946D01*
X49860528Y-62441359D01*
X49809475Y-62412158D01*
X49731018Y-62364836D01*
X49629189Y-62301885D01*
X49508022Y-62225798D01*
X49371548Y-62139068D01*
X49226598Y-62045991D01*
X48583850Y-61631240D01*
X48351174Y-61209298D01*
X48282510Y-61870991D01*
X48265682Y-62036597D01*
X48250673Y-62190975D01*
X48237982Y-62328459D01*
X48228107Y-62443383D01*
X48221545Y-62530084D01*
X48218795Y-62582895D01*
X48218931Y-62594056D01*
X48225442Y-62624567D01*
X48243960Y-62651752D01*
X48281445Y-62681438D01*
X48344855Y-62719450D01*
X48413209Y-62756713D01*
X48602401Y-62857997D01*
X48831251Y-63211360D01*
X48901264Y-63320367D01*
X48962623Y-63417622D01*
X49011831Y-63497440D01*
X49045390Y-63554134D01*
X49059804Y-63582017D01*
X49060100Y-63583427D01*
X49059054Y-63589041D01*
X49053177Y-63590100D01*
X49038362Y-63584149D01*
X49010503Y-63568733D01*
X48965491Y-63541397D01*
X48899219Y-63499685D01*
X48807582Y-63441143D01*
X48686470Y-63363313D01*
X48615600Y-63317701D01*
X48506607Y-63246834D01*
X48427251Y-63192686D01*
X48371155Y-63149727D01*
X48331939Y-63112428D01*
X48303226Y-63075262D01*
X48278635Y-63032698D01*
X48272067Y-63019941D01*
X48238470Y-62957499D01*
X48210342Y-62911778D01*
X48196495Y-62895130D01*
X48189884Y-62912383D01*
X48180072Y-62966571D01*
X48167749Y-63052477D01*
X48153606Y-63164883D01*
X48138332Y-63298570D01*
X48122618Y-63448319D01*
X48120429Y-63470203D01*
X48105007Y-63622905D01*
X48090570Y-63761328D01*
X48077723Y-63880029D01*
X48067070Y-63973567D01*
X48059217Y-64036500D01*
X48054766Y-64063387D01*
X48054491Y-64063931D01*
X48046341Y-64051007D01*
X48036305Y-64009297D01*
X48034765Y-64000638D01*
X48029067Y-63958219D01*
X48020213Y-63881301D01*
X48009023Y-63777532D01*
X47996319Y-63654557D01*
X47982922Y-63520024D01*
X47980558Y-63495767D01*
X47966961Y-63357270D01*
X47953845Y-63226411D01*
X47942069Y-63111542D01*
X47932489Y-63021016D01*
X47925964Y-62963183D01*
X47925380Y-62958463D01*
X47912345Y-62855076D01*
X47832771Y-62997744D01*
X47804653Y-63046936D01*
X47778279Y-63087005D01*
X47747987Y-63122777D01*
X47708112Y-63159075D01*
X47652993Y-63200724D01*
X47576965Y-63252548D01*
X47474367Y-63319371D01*
X47396280Y-63369582D01*
X47287428Y-63438811D01*
X47191117Y-63498801D01*
X47112813Y-63546252D01*
X47057980Y-63577864D01*
X47032082Y-63590336D01*
X47030861Y-63590250D01*
X47039137Y-63570707D01*
X47067162Y-63521107D01*
X47111649Y-63446909D01*
X47169313Y-63353573D01*
X47236867Y-63246560D01*
X47251783Y-63223204D01*
X47481205Y-62864660D01*
X47688854Y-62753526D01*
X47896502Y-62642393D01*
X47884698Y-62545205D01*
X47879479Y-62498896D01*
X47870669Y-62416953D01*
X47858948Y-62305858D01*
X47844996Y-62172095D01*
X47829491Y-62022146D01*
X47813113Y-61862493D01*
X47811614Y-61847813D01*
X47795561Y-61693170D01*
X47780472Y-61552690D01*
X47766967Y-61431760D01*
X47755665Y-61335764D01*
X47747185Y-61270089D01*
X47742145Y-61240119D01*
X47741622Y-61238900D01*
X47728798Y-61252596D01*
X47701081Y-61296464D01*
X47662978Y-61363053D01*
X47632163Y-61419901D01*
X47585964Y-61503491D01*
X47543227Y-61574803D01*
X47509951Y-61624116D01*
X47496715Y-61639368D01*
X47469700Y-61658756D01*
X47412533Y-61697173D01*
X47330305Y-61751354D01*
X47228108Y-61818031D01*
X47111031Y-61893938D01*
X46984165Y-61975808D01*
X46852602Y-62060374D01*
X46721433Y-62144370D01*
X46595747Y-62224528D01*
X46480637Y-62297582D01*
X46381192Y-62360265D01*
X46302504Y-62409310D01*
X46249663Y-62441450D01*
X46228474Y-62453200D01*
X46218471Y-62457455D01*
X46210943Y-62459944D01*
X46207824Y-62457450D01*
X46211048Y-62446755D01*
X46222547Y-62424644D01*
X46244254Y-62387900D01*
X46278104Y-62333306D01*
X46326029Y-62257646D01*
X46389962Y-62157703D01*
X46471837Y-62030260D01*
X46573587Y-61872101D01*
X46636517Y-61774283D01*
X47038683Y-61149061D01*
X47361438Y-60976369D01*
X47467476Y-60919080D01*
X47559954Y-60868064D01*
X47632607Y-60826866D01*
X47679166Y-60799027D01*
X47693446Y-60788705D01*
X47693706Y-60764675D01*
X47690019Y-60703793D01*
X47682828Y-60611312D01*
X47672574Y-60492484D01*
X47659701Y-60352563D01*
X47644650Y-60196802D01*
X47637914Y-60129208D01*
X47573130Y-59484683D01*
X47799091Y-57275502D01*
X47829883Y-56973546D01*
X47859314Y-56683140D01*
X47887111Y-56407093D01*
X47912999Y-56148212D01*
X47936702Y-55909307D01*
X47957946Y-55693185D01*
X47976457Y-55502656D01*
X47991959Y-55340526D01*
X48004179Y-55209606D01*
X48012840Y-55112703D01*
X48017669Y-55052625D01*
X48018528Y-55032443D01*
X48004450Y-55043445D01*
X47965096Y-55085822D01*
X47901776Y-55158004D01*
X47815799Y-55258424D01*
X47708477Y-55385512D01*
X47581120Y-55537701D01*
X47435038Y-55713421D01*
X47271541Y-55911103D01*
X47091940Y-56129179D01*
X46897545Y-56366081D01*
X46689666Y-56620239D01*
X46579863Y-56754791D01*
X45147722Y-58511017D01*
X44666435Y-58902600D01*
X44543477Y-59002552D01*
X44430894Y-59093897D01*
X44332948Y-59173192D01*
X44253901Y-59236993D01*
X44198014Y-59281856D01*
X44169547Y-59304339D01*
X44167132Y-59306114D01*
X44167113Y-59329224D01*
X44178146Y-59386032D01*
X44198610Y-59469844D01*
X44226884Y-59573965D01*
X44257114Y-59677663D01*
X44365113Y-60037282D01*
X44203497Y-60786661D01*
X44166215Y-60958636D01*
X44131466Y-61117215D01*
X44100304Y-61257716D01*
X44073783Y-61375457D01*
X44052959Y-61465756D01*
X44038885Y-61523931D01*
X44032656Y-61545266D01*
X44028103Y-61547579D01*
X44022981Y-61542878D01*
X44016386Y-61527407D01*
X44007416Y-61497410D01*
X43995169Y-61449132D01*
X43978742Y-61378818D01*
X43957233Y-61282712D01*
X43929738Y-61157059D01*
X43895356Y-60998102D01*
X43853184Y-60802087D01*
X43845825Y-60767832D01*
X43689505Y-60040148D01*
X43826495Y-59584386D01*
X43305339Y-60008113D01*
X43175971Y-60113457D01*
X43055848Y-60211579D01*
X42949279Y-60298937D01*
X42860572Y-60371986D01*
X42794034Y-60427186D01*
X42753973Y-60460993D01*
X42745342Y-60468649D01*
X42728575Y-60486976D01*
X42720508Y-60508148D01*
X42721986Y-60540686D01*
X42733853Y-60593111D01*
X42756955Y-60673943D01*
X42770049Y-60717874D01*
X42833597Y-60930289D01*
X42750748Y-61318736D01*
X42723632Y-61443837D01*
X42698390Y-61556524D01*
X42676723Y-61649491D01*
X42660335Y-61715431D01*
X42651070Y-61746707D01*
X42641741Y-61740670D01*
X42626372Y-61699827D01*
X42606459Y-61631028D01*
X42583494Y-61541125D01*
X42558971Y-61436968D01*
X42534384Y-61325409D01*
X42511227Y-61213298D01*
X42490993Y-61107487D01*
X42475175Y-61014827D01*
X42465269Y-60942168D01*
X42462767Y-60896363D01*
X42463875Y-60888096D01*
X42477815Y-60838794D01*
X42498199Y-60770177D01*
X42508158Y-60737526D01*
X42539514Y-60635702D01*
X42460765Y-60698409D01*
X42421899Y-60729682D01*
X42356037Y-60783038D01*
X42268965Y-60853773D01*
X42166468Y-60937185D01*
X42054334Y-61028570D01*
X41991410Y-61079904D01*
X41848706Y-61195393D01*
X41737254Y-61283375D01*
X41656474Y-61344250D01*
X41605788Y-61378421D01*
X41584616Y-61386288D01*
X41592380Y-61368255D01*
X41613220Y-61342188D01*
X41634217Y-61316791D01*
X41677342Y-61264043D01*
X41738089Y-61189494D01*
X41811952Y-61098698D01*
X41894424Y-60997207D01*
X41981000Y-60890573D01*
X42067172Y-60784348D01*
X42148435Y-60684084D01*
X42220282Y-60595335D01*
X42278207Y-60523652D01*
X42317703Y-60474587D01*
X42333219Y-60455072D01*
X42324200Y-60448993D01*
X42282797Y-60455126D01*
X42216748Y-60472170D01*
X42197728Y-60477850D01*
X42043350Y-60525072D01*
X41635985Y-60437124D01*
X41510216Y-60409514D01*
X41398985Y-60384225D01*
X41308791Y-60362806D01*
X41246137Y-60346807D01*
X41217522Y-60337777D01*
X41216617Y-60337173D01*
X41230712Y-60326876D01*
X41286219Y-60309464D01*
X41382834Y-60285010D01*
X41520252Y-60253590D01*
X41698168Y-60215278D01*
X41813277Y-60191274D01*
X42048871Y-60142608D01*
X42484059Y-60275506D01*
X42520450Y-60229345D01*
X42542610Y-60201778D01*
X42587916Y-60145844D01*
X42652760Y-60065983D01*
X42733532Y-59966636D01*
X42826625Y-59852242D01*
X42928428Y-59727241D01*
X42970635Y-59675444D01*
X43072634Y-59549980D01*
X43165215Y-59435506D01*
X43245194Y-59336007D01*
X43309387Y-59255468D01*
X43354609Y-59197875D01*
X43377675Y-59167211D01*
X43379965Y-59163243D01*
X43359231Y-59167201D01*
X43306570Y-59181375D01*
X43230476Y-59203395D01*
X43158875Y-59224934D01*
X42942247Y-59291088D01*
X42217632Y-59135653D01*
X42046831Y-59098840D01*
X41887959Y-59064263D01*
X41746073Y-59033050D01*
X41626232Y-59006325D01*
X41533491Y-58985217D01*
X41472909Y-58970849D01*
X41450683Y-58964855D01*
X41423678Y-58952717D01*
X41433613Y-58943785D01*
X41461267Y-58936212D01*
X41522286Y-58921734D01*
X41613462Y-58901203D01*
X41728932Y-58875848D01*
X41862833Y-58846899D01*
X42009304Y-58815587D01*
X42162483Y-58783141D01*
X42316507Y-58750792D01*
X42465515Y-58719770D01*
X42603645Y-58691304D01*
X42725035Y-58666626D01*
X42823822Y-58646965D01*
X42894144Y-58633551D01*
X42930140Y-58627615D01*
X42932725Y-58627433D01*
X42968107Y-58633377D01*
X43036040Y-58649816D01*
X43128655Y-58674664D01*
X43238080Y-58705835D01*
X43319235Y-58729926D01*
X43658893Y-58832419D01*
X44477517Y-57825477D01*
X46238204Y-56390573D01*
X46475533Y-56197093D01*
X46703380Y-56011213D01*
X46919630Y-55834669D01*
X47122167Y-55669192D01*
X47308876Y-55516515D01*
X47477640Y-55378371D01*
X47626345Y-55256493D01*
X47752874Y-55152614D01*
X47855113Y-55068467D01*
X47930945Y-55005784D01*
X47966410Y-54976183D01*
X48022933Y-54976183D01*
X48033517Y-54986767D01*
X48044100Y-54976183D01*
X48033517Y-54965600D01*
X48022933Y-54976183D01*
X47966410Y-54976183D01*
X47978254Y-54966298D01*
X47994926Y-54951743D01*
X47994928Y-54951705D01*
X47973782Y-54953274D01*
X47913256Y-54958887D01*
X47816080Y-54968270D01*
X47684986Y-54981151D01*
X47522705Y-54997254D01*
X47331969Y-55016307D01*
X47115509Y-55038036D01*
X46876057Y-55062167D01*
X46616344Y-55088428D01*
X46339102Y-55116544D01*
X46047062Y-55146241D01*
X45742956Y-55177247D01*
X45737639Y-55177790D01*
X43484314Y-55407839D01*
X42882632Y-55345469D01*
X42725372Y-55329340D01*
X42580033Y-55314759D01*
X42452469Y-55302289D01*
X42348531Y-55292490D01*
X42274074Y-55285924D01*
X42234950Y-55283154D01*
X42232412Y-55283100D01*
X42211819Y-55288239D01*
X42188769Y-55306895D01*
X42159926Y-55343924D01*
X42121950Y-55404183D01*
X42071503Y-55492529D01*
X42005764Y-55612863D01*
X41827655Y-55942627D01*
X41174342Y-56363356D01*
X41025587Y-56458828D01*
X40888317Y-56546303D01*
X40766513Y-56623292D01*
X40664157Y-56687306D01*
X40585229Y-56735855D01*
X40533712Y-56766449D01*
X40513586Y-56776600D01*
X40513494Y-56776550D01*
X40521181Y-56756118D01*
X40549659Y-56705448D01*
X40595823Y-56629243D01*
X40656568Y-56532210D01*
X40728791Y-56419054D01*
X40809387Y-56294481D01*
X40895250Y-56163195D01*
X40983278Y-56029902D01*
X41070364Y-55899307D01*
X41153405Y-55776117D01*
X41229296Y-55665035D01*
X41294932Y-55570769D01*
X41347209Y-55498022D01*
X41383022Y-55451500D01*
X41397767Y-55436309D01*
X41440897Y-55412415D01*
X41508425Y-55375148D01*
X41587644Y-55331518D01*
X41609433Y-55319532D01*
X41768183Y-55232233D01*
X41112017Y-55163687D01*
X40946909Y-55146611D01*
X40792878Y-55131005D01*
X40655649Y-55117425D01*
X40540949Y-55106425D01*
X40454507Y-55098561D01*
X40402049Y-55094388D01*
X40391587Y-55093871D01*
X40361577Y-55095887D01*
X40336555Y-55107714D01*
X40310852Y-55135981D01*
X40278798Y-55187319D01*
X40234723Y-55268355D01*
X40222410Y-55291662D01*
X40171419Y-55385238D01*
X40130185Y-55450360D01*
X40090624Y-55496967D01*
X40044653Y-55534995D01*
X40000922Y-55563982D01*
X39937229Y-55604335D01*
X39849488Y-55660364D01*
X39749177Y-55724720D01*
X39647773Y-55790056D01*
X39645785Y-55791341D01*
X39557475Y-55847139D01*
X39482293Y-55892291D01*
X39427055Y-55922879D01*
X39398578Y-55934983D01*
X39396436Y-55934658D01*
X39404034Y-55914425D01*
X39431522Y-55864296D01*
X39475614Y-55789800D01*
X39533023Y-55696468D01*
X39600462Y-55589828D01*
X39612694Y-55570765D01*
X39691255Y-55449196D01*
X39751885Y-55357852D01*
X39799245Y-55291159D01*
X39837997Y-55243540D01*
X39872800Y-55209421D01*
X39908315Y-55183224D01*
X39949202Y-55159375D01*
X39962585Y-55152179D01*
X40025117Y-55116911D01*
X40069359Y-55088255D01*
X40085433Y-55072868D01*
X40065331Y-55066966D01*
X40008916Y-55057888D01*
X39922028Y-55046376D01*
X39810507Y-55033176D01*
X39680191Y-55019029D01*
X39593308Y-55010188D01*
X39403196Y-54991270D01*
X39251120Y-54975978D01*
X39132986Y-54963831D01*
X39044695Y-54954347D01*
X38982153Y-54947042D01*
X38941261Y-54941437D01*
X38917925Y-54937047D01*
X38908048Y-54933391D01*
X38907533Y-54929987D01*
X38907957Y-54929520D01*
X38930510Y-54925132D01*
X38989731Y-54917187D01*
X39080165Y-54906317D01*
X39196355Y-54893156D01*
X39332845Y-54878336D01*
X39484177Y-54862488D01*
X39502511Y-54860605D01*
X39655290Y-54844637D01*
X39793924Y-54829552D01*
X39912943Y-54815993D01*
X40006875Y-54804603D01*
X40070251Y-54796026D01*
X40097600Y-54790906D01*
X40098188Y-54790567D01*
X40085980Y-54776792D01*
X40044471Y-54749827D01*
X39982316Y-54715233D01*
X39975110Y-54711470D01*
X39929214Y-54686917D01*
X39891525Y-54663107D01*
X39857358Y-54634525D01*
X39822026Y-54595657D01*
X39780843Y-54540988D01*
X39729122Y-54465004D01*
X39662176Y-54362189D01*
X39612079Y-54284279D01*
X39542766Y-54175185D01*
X39482768Y-54078547D01*
X39435365Y-53999835D01*
X39403838Y-53944520D01*
X39391470Y-53918072D01*
X39391602Y-53916709D01*
X39411416Y-53924728D01*
X39461202Y-53952599D01*
X39535480Y-53997032D01*
X39628775Y-54054736D01*
X39735609Y-54122422D01*
X39757856Y-54136699D01*
X40114650Y-54366150D01*
X40213761Y-54550994D01*
X40257953Y-54631795D01*
X40296296Y-54698952D01*
X40323482Y-54743321D01*
X40332288Y-54755254D01*
X40356581Y-54757284D01*
X40416850Y-54755216D01*
X40506998Y-54749629D01*
X40620926Y-54741103D01*
X40752537Y-54730218D01*
X40895732Y-54717552D01*
X41044415Y-54703686D01*
X41192487Y-54689199D01*
X41333850Y-54674670D01*
X41462406Y-54660680D01*
X41572058Y-54647806D01*
X41656707Y-54636630D01*
X41710257Y-54627731D01*
X41726504Y-54622752D01*
X41714182Y-54608544D01*
X41671403Y-54579593D01*
X41605377Y-54540483D01*
X41544157Y-54506822D01*
X41349716Y-54402988D01*
X40928433Y-53750241D01*
X40832837Y-53601581D01*
X40745277Y-53464373D01*
X40668243Y-53342598D01*
X40604227Y-53240241D01*
X40555717Y-53161284D01*
X40525206Y-53109710D01*
X40515182Y-53089502D01*
X40515236Y-53089408D01*
X40534214Y-53098636D01*
X40584707Y-53128447D01*
X40662737Y-53176355D01*
X40764327Y-53239871D01*
X40885498Y-53316507D01*
X41022272Y-53403775D01*
X41170670Y-53499188D01*
X41177503Y-53503598D01*
X41831683Y-53925873D01*
X42009323Y-54257564D01*
X42186962Y-54589254D01*
X42284489Y-54577360D01*
X42331794Y-54572069D01*
X42414423Y-54563338D01*
X42525570Y-54551864D01*
X42658429Y-54538346D01*
X42806193Y-54523481D01*
X42942933Y-54509860D01*
X43503850Y-54454254D01*
X45694600Y-54677661D01*
X45996007Y-54708413D01*
X46286337Y-54738067D01*
X46562720Y-54766327D01*
X46822285Y-54792898D01*
X47062162Y-54817486D01*
X47279481Y-54839796D01*
X47471370Y-54859532D01*
X47634961Y-54876400D01*
X47767381Y-54890104D01*
X47865762Y-54900351D01*
X47927231Y-54906845D01*
X47948022Y-54909156D01*
X48010695Y-54917245D01*
X47944251Y-54862047D01*
X47918909Y-54841252D01*
X47863019Y-54795572D01*
X47778853Y-54726859D01*
X47668684Y-54636967D01*
X47534784Y-54527747D01*
X47379426Y-54401055D01*
X47204882Y-54258741D01*
X47013423Y-54102660D01*
X46807324Y-53934664D01*
X46588855Y-53756607D01*
X46360289Y-53570340D01*
X46177661Y-53421523D01*
X44477517Y-52036197D01*
X43659641Y-51031515D01*
X43560579Y-51061410D01*
X43501275Y-51079257D01*
X43413346Y-51105657D01*
X43308724Y-51137031D01*
X43200924Y-51169323D01*
X42940332Y-51247342D01*
X42216674Y-51092113D01*
X42046008Y-51055347D01*
X41887288Y-51020853D01*
X41745571Y-50989755D01*
X41625915Y-50963173D01*
X41533378Y-50942231D01*
X41473018Y-50928051D01*
X41451031Y-50922237D01*
X41420910Y-50909981D01*
X41430782Y-50901327D01*
X41451031Y-50895045D01*
X41492163Y-50884561D01*
X41566866Y-50867311D01*
X41669230Y-50844537D01*
X41793350Y-50817480D01*
X41933316Y-50787383D01*
X42083221Y-50755487D01*
X42237157Y-50723033D01*
X42389217Y-50691264D01*
X42533493Y-50661420D01*
X42664076Y-50634745D01*
X42775061Y-50612478D01*
X42860537Y-50595863D01*
X42914599Y-50586141D01*
X42930449Y-50584100D01*
X42970637Y-50590031D01*
X43039884Y-50605988D01*
X43126887Y-50629222D01*
X43184042Y-50645848D01*
X43267147Y-50669090D01*
X43330436Y-50683471D01*
X43366450Y-50687514D01*
X43371088Y-50682890D01*
X43353484Y-50660716D01*
X43313239Y-50610624D01*
X43254291Y-50537485D01*
X43180584Y-50446169D01*
X43096057Y-50341549D01*
X43004652Y-50228495D01*
X42910310Y-50111878D01*
X42816972Y-49996568D01*
X42728579Y-49887438D01*
X42649073Y-49789357D01*
X42582393Y-49707196D01*
X42532483Y-49645828D01*
X42503281Y-49610121D01*
X42497710Y-49603450D01*
X42472371Y-49601981D01*
X42415741Y-49611657D01*
X42336823Y-49630643D01*
X42264972Y-49650917D01*
X42047594Y-49715950D01*
X41627524Y-49626150D01*
X41500646Y-49598471D01*
X41389136Y-49573083D01*
X41299158Y-49551476D01*
X41236877Y-49535142D01*
X41208459Y-49525574D01*
X41207361Y-49524484D01*
X41227030Y-49516690D01*
X41281994Y-49501776D01*
X41366101Y-49481234D01*
X41473197Y-49456554D01*
X41597130Y-49429226D01*
X41628404Y-49422501D01*
X42049542Y-49332383D01*
X42184029Y-49373925D01*
X42253083Y-49394004D01*
X42304086Y-49406480D01*
X42325784Y-49408669D01*
X42314832Y-49391208D01*
X42280291Y-49345286D01*
X42225488Y-49275117D01*
X42153751Y-49184911D01*
X42068409Y-49078884D01*
X41972790Y-48961246D01*
X41958549Y-48943817D01*
X41861824Y-48824740D01*
X41775086Y-48716468D01*
X41701638Y-48623246D01*
X41644784Y-48549320D01*
X41607827Y-48498934D01*
X41594071Y-48476332D01*
X41594188Y-48475623D01*
X41612511Y-48485855D01*
X41659314Y-48519758D01*
X41730408Y-48574074D01*
X41821606Y-48645549D01*
X41928720Y-48730929D01*
X42047561Y-48826957D01*
X42075756Y-48849917D01*
X42195388Y-48946812D01*
X42303103Y-49032782D01*
X42394958Y-49104781D01*
X42467009Y-49159767D01*
X42515313Y-49194693D01*
X42535925Y-49206515D01*
X42536264Y-49205435D01*
X42524779Y-49170466D01*
X42506212Y-49109500D01*
X42489363Y-49052167D01*
X42453382Y-48927817D01*
X42542900Y-48507125D01*
X42570500Y-48380148D01*
X42595868Y-48268552D01*
X42617511Y-48178497D01*
X42633938Y-48116142D01*
X42643655Y-48087645D01*
X42644801Y-48086527D01*
X42652760Y-48106254D01*
X42667801Y-48161252D01*
X42688422Y-48245341D01*
X42713118Y-48352339D01*
X42740386Y-48476065D01*
X42746507Y-48504569D01*
X42835830Y-48922517D01*
X42770509Y-49141554D01*
X42741742Y-49241395D01*
X42725441Y-49308733D01*
X42720480Y-49351159D01*
X42725732Y-49376263D01*
X42734102Y-49386896D01*
X42772957Y-49420529D01*
X42836346Y-49473393D01*
X42919539Y-49541701D01*
X43017807Y-49621667D01*
X43126423Y-49709505D01*
X43240658Y-49801426D01*
X43355782Y-49893646D01*
X43467067Y-49982376D01*
X43569785Y-50063831D01*
X43659206Y-50134222D01*
X43730603Y-50189765D01*
X43779247Y-50226672D01*
X43800408Y-50241156D01*
X43800898Y-50241190D01*
X43798677Y-50218768D01*
X43786085Y-50164899D01*
X43765359Y-50088548D01*
X43747735Y-50028270D01*
X43686294Y-49823627D01*
X43846509Y-49076738D01*
X43883686Y-48904712D01*
X43918555Y-48745826D01*
X43950033Y-48604823D01*
X43977040Y-48486445D01*
X43998493Y-48395437D01*
X44013311Y-48336541D01*
X44020296Y-48314607D01*
X44027612Y-48331036D01*
X44042540Y-48384462D01*
X44064029Y-48470447D01*
X44091030Y-48584551D01*
X44122496Y-48722332D01*
X44157378Y-48879352D01*
X44194625Y-49051170D01*
X44197804Y-49066024D01*
X44361740Y-49832683D01*
X44265770Y-50150183D01*
X44231987Y-50261869D01*
X44201956Y-50361008D01*
X44178071Y-50439702D01*
X44162729Y-50490053D01*
X44158830Y-50502710D01*
X44165188Y-50521263D01*
X44193074Y-50554699D01*
X44244651Y-50604977D01*
X44322083Y-50674053D01*
X44427532Y-50763886D01*
X44563162Y-50876432D01*
X44654596Y-50951327D01*
X45161332Y-51364918D01*
X46586841Y-53114786D01*
X46785903Y-53358772D01*
X46975850Y-53590858D01*
X47155067Y-53809107D01*
X47321939Y-54011582D01*
X47474851Y-54196346D01*
X47612187Y-54361463D01*
X47732333Y-54504995D01*
X47833674Y-54625005D01*
X47914595Y-54719557D01*
X47973480Y-54786714D01*
X48008715Y-54824538D01*
X48018859Y-54832199D01*
X48017631Y-54807105D01*
X48012324Y-54742708D01*
X48003213Y-54641816D01*
X47990573Y-54507234D01*
X47974678Y-54341770D01*
X47955805Y-54148229D01*
X47934227Y-53929418D01*
X47910221Y-53688145D01*
X47884062Y-53427214D01*
X47856024Y-53149433D01*
X47826382Y-52857608D01*
X47799187Y-52591380D01*
X47573006Y-50383017D01*
X47639120Y-49726850D01*
X47654909Y-49565107D01*
X47668352Y-49417436D01*
X47679058Y-49288950D01*
X47686641Y-49184763D01*
X47690710Y-49109989D01*
X47690878Y-49069741D01*
X47689458Y-49064187D01*
X47666522Y-49052331D01*
X47612898Y-49023572D01*
X47535003Y-48981383D01*
X47439257Y-48929237D01*
X47357014Y-48884270D01*
X47040345Y-48710850D01*
X46618992Y-48058927D01*
X46523342Y-47910393D01*
X46435739Y-47773306D01*
X46358676Y-47651648D01*
X46294647Y-47549403D01*
X46246146Y-47470554D01*
X46215666Y-47419083D01*
X46205702Y-47398975D01*
X46205754Y-47398891D01*
X46224749Y-47408094D01*
X46275278Y-47437849D01*
X46353358Y-47485672D01*
X46455007Y-47549078D01*
X46576240Y-47625581D01*
X46713077Y-47712696D01*
X46861534Y-47807939D01*
X46867891Y-47812033D01*
X47521914Y-48233290D01*
X47628618Y-48434195D01*
X47672545Y-48515034D01*
X47709143Y-48578884D01*
X47734092Y-48618431D01*
X47742813Y-48627608D01*
X47747050Y-48605188D01*
X47754650Y-48546646D01*
X47765002Y-48458005D01*
X47777495Y-48345290D01*
X47791518Y-48214526D01*
X47806458Y-48071735D01*
X47821706Y-47922942D01*
X47836649Y-47774171D01*
X47850677Y-47631447D01*
X47863177Y-47500793D01*
X47873539Y-47388233D01*
X47881151Y-47299792D01*
X47885402Y-47241493D01*
X47885718Y-47219410D01*
X47865138Y-47205408D01*
X47815123Y-47176484D01*
X47743806Y-47137232D01*
X47680863Y-47103589D01*
X47483183Y-46999161D01*
X47253180Y-46642147D01*
X47183816Y-46533231D01*
X47123864Y-46436693D01*
X47076605Y-46358016D01*
X47045320Y-46302685D01*
X47033288Y-46276187D01*
X47033482Y-46274829D01*
X47053540Y-46282616D01*
X47103515Y-46310332D01*
X47177922Y-46354690D01*
X47271276Y-46412406D01*
X47378093Y-46480196D01*
X47400422Y-46494566D01*
X47521636Y-46572982D01*
X47612880Y-46633340D01*
X47679781Y-46680495D01*
X47727964Y-46719302D01*
X47763057Y-46754617D01*
X47790686Y-46791293D01*
X47816476Y-46834186D01*
X47836750Y-46871062D01*
X47873538Y-46934871D01*
X47901609Y-46976353D01*
X47916333Y-46988928D01*
X47917470Y-46985767D01*
X47920685Y-46936829D01*
X47927807Y-46857055D01*
X47938093Y-46753014D01*
X47950801Y-46631273D01*
X47965186Y-46498402D01*
X47980505Y-46360970D01*
X47996016Y-46225545D01*
X48010975Y-46098695D01*
X48024638Y-45986990D01*
X48036263Y-45896998D01*
X48045106Y-45835288D01*
X48050424Y-45808428D01*
X48050748Y-45807896D01*
X48061977Y-45814207D01*
G37*
X48061977Y-45814207D02*
X48066493Y-45844530D01*
X48068978Y-45878897D01*
X48075338Y-45949145D01*
X48084966Y-46049059D01*
X48097251Y-46172424D01*
X48111586Y-46313027D01*
X48125405Y-46446017D01*
X48183091Y-46996350D01*
X48260231Y-46860141D01*
X48288013Y-46812669D01*
X48314920Y-46773402D01*
X48346644Y-46737537D01*
X48388875Y-46700267D01*
X48447305Y-46656789D01*
X48527625Y-46602297D01*
X48635525Y-46531987D01*
X48692147Y-46495483D01*
X48800649Y-46426331D01*
X48896663Y-46366501D01*
X48974701Y-46319301D01*
X49029280Y-46288035D01*
X49054914Y-46276009D01*
X49056044Y-46276155D01*
X49047954Y-46295886D01*
X49020086Y-46345643D01*
X48975723Y-46419948D01*
X48918146Y-46513325D01*
X48850639Y-46620300D01*
X48836210Y-46642883D01*
X48607255Y-47000490D01*
X48410582Y-47104253D01*
X48318709Y-47154479D01*
X48259401Y-47191993D01*
X48226609Y-47221429D01*
X48214283Y-47247422D01*
X48213671Y-47255084D01*
X48215663Y-47284192D01*
X48221314Y-47349086D01*
X48230005Y-47443437D01*
X48241113Y-47560916D01*
X48254019Y-47695192D01*
X48268100Y-47839937D01*
X48282735Y-47988821D01*
X48297305Y-48135514D01*
X48311186Y-48273686D01*
X48323758Y-48397008D01*
X48334400Y-48499150D01*
X48342492Y-48573783D01*
X48346147Y-48605017D01*
X48357637Y-48608875D01*
X48386099Y-48574578D01*
X48431187Y-48502601D01*
X48467645Y-48438712D01*
X48583850Y-48230075D01*
X49229433Y-47812776D01*
X49377062Y-47717872D01*
X49513168Y-47631379D01*
X49633768Y-47555753D01*
X49734879Y-47493447D01*
X49812517Y-47446915D01*
X49862700Y-47418613D01*
X49881444Y-47410994D01*
X49881452Y-47411012D01*
X49871852Y-47431748D01*
X49841691Y-47483900D01*
X49793492Y-47563398D01*
X49729778Y-47666173D01*
X49653072Y-47788154D01*
X49565897Y-47925271D01*
X49472502Y-48070776D01*
X49057116Y-48715006D01*
X48730525Y-48889534D01*
X48612882Y-48952708D01*
X48527527Y-48999951D01*
X48469303Y-49035080D01*
X48433053Y-49061913D01*
X48413622Y-49084269D01*
X48405852Y-49105965D01*
X48404587Y-49130820D01*
X48404588Y-49130873D01*
X48406918Y-49169163D01*
X48413159Y-49243337D01*
X48422723Y-49347183D01*
X48435022Y-49474493D01*
X48449468Y-49619055D01*
X48465473Y-49774659D01*
X48465987Y-49779587D01*
X48526733Y-50361491D01*
X48296656Y-52614813D01*
X48265632Y-52919119D01*
X48235925Y-53211417D01*
X48207807Y-53488975D01*
X48181551Y-53749061D01*
X48157430Y-53988941D01*
X48135716Y-54205884D01*
X48116682Y-54397155D01*
X48100602Y-54560024D01*
X48087747Y-54691757D01*
X48078391Y-54789621D01*
X48072806Y-54850885D01*
X48071266Y-54872815D01*
X48071276Y-54872831D01*
X48084993Y-54857412D01*
X48123700Y-54811275D01*
X48185663Y-54736535D01*
X48269148Y-54635309D01*
X48372423Y-54509709D01*
X48493751Y-54361851D01*
X48631401Y-54193850D01*
X48783637Y-54007820D01*
X48948726Y-53805877D01*
X49124934Y-53590135D01*
X49310528Y-53362708D01*
X49503772Y-53125712D01*
X49510788Y-53117105D01*
X50945604Y-51356683D01*
X51441814Y-50954517D01*
X51566071Y-50853125D01*
X51678969Y-50759689D01*
X51776468Y-50677656D01*
X51854527Y-50610476D01*
X51909107Y-50561595D01*
X51936167Y-50534463D01*
X51938396Y-50530644D01*
X51932753Y-50504032D01*
X51916894Y-50444037D01*
X51892807Y-50357813D01*
X51862481Y-50252513D01*
X51836752Y-50165034D01*
X51734738Y-49821130D01*
X51888752Y-49107240D01*
X51933021Y-48902105D01*
X51969235Y-48734602D01*
X51998263Y-48600979D01*
X52020973Y-48497485D01*
X52038233Y-48420368D01*
X52050910Y-48365878D01*
X52059873Y-48330264D01*
X52065990Y-48309774D01*
X52070128Y-48300657D01*
X52073155Y-48299161D01*
X52075324Y-48300894D01*
X52081357Y-48322645D01*
X52095237Y-48381145D01*
X52115926Y-48471752D01*
X52142385Y-48589826D01*
X52173572Y-48730726D01*
X52208448Y-48889810D01*
X52245974Y-49062436D01*
X52246885Y-49066644D01*
X52410947Y-49824605D01*
X52345281Y-50039637D01*
X52318830Y-50127969D01*
X52298372Y-50199610D01*
X52286280Y-50246028D01*
X52284184Y-50259240D01*
X52301061Y-50247480D01*
X52346898Y-50211998D01*
X52417868Y-50155848D01*
X52510146Y-50082086D01*
X52619904Y-49993769D01*
X52743316Y-49893950D01*
X52840029Y-49815414D01*
X53391304Y-49367017D01*
X53332155Y-49165933D01*
X53306603Y-49074484D01*
X53286519Y-48993891D01*
X53274659Y-48935681D01*
X53272636Y-48917018D01*
X53276906Y-48879961D01*
X53288793Y-48810267D01*
X53306495Y-48716567D01*
X53328213Y-48607497D01*
X53352146Y-48491691D01*
X53376495Y-48377782D01*
X53399458Y-48274406D01*
X53419235Y-48190195D01*
X53434027Y-48133784D01*
X53439200Y-48118183D01*
X53453393Y-48087894D01*
X53462400Y-48096787D01*
X53469011Y-48118183D01*
X53481579Y-48167172D01*
X53499497Y-48245387D01*
X53521055Y-48344451D01*
X53544545Y-48455984D01*
X53568258Y-48571611D01*
X53590485Y-48682952D01*
X53609517Y-48781630D01*
X53623646Y-48859268D01*
X53631164Y-48907487D01*
X53631938Y-48917018D01*
X53625812Y-48961904D01*
X53610025Y-49030939D01*
X53591148Y-49098452D01*
X53572228Y-49168860D01*
X53567270Y-49208121D01*
X53575435Y-49213053D01*
X53601367Y-49192474D01*
X53654571Y-49149675D01*
X53729491Y-49089163D01*
X53820571Y-49015450D01*
X53922256Y-48933043D01*
X54028989Y-48846453D01*
X54135215Y-48760187D01*
X54235379Y-48678755D01*
X54323924Y-48606667D01*
X54395295Y-48548431D01*
X54443936Y-48508556D01*
X54463021Y-48492674D01*
X54498072Y-48465681D01*
X54507353Y-48467474D01*
X54490487Y-48498593D01*
X54447100Y-48559580D01*
X54376816Y-48650975D01*
X54279258Y-48773319D01*
X54200439Y-48870433D01*
X54106710Y-48985403D01*
X54018409Y-49093878D01*
X53940234Y-49190072D01*
X53876884Y-49268200D01*
X53833060Y-49322476D01*
X53819088Y-49339932D01*
X53756535Y-49418680D01*
X53858359Y-49387325D01*
X53927899Y-49366287D01*
X53987154Y-49348991D01*
X54005803Y-49343827D01*
X54037970Y-49344309D01*
X54101025Y-49352416D01*
X54187867Y-49366674D01*
X54291396Y-49385608D01*
X54404510Y-49407744D01*
X54520109Y-49431608D01*
X54631091Y-49455726D01*
X54730354Y-49478625D01*
X54810799Y-49498829D01*
X54865324Y-49514865D01*
X54886828Y-49525258D01*
X54886430Y-49526634D01*
X54861651Y-49535120D01*
X54801959Y-49550608D01*
X54713900Y-49571549D01*
X54604021Y-49596394D01*
X54478870Y-49623593D01*
X54457600Y-49628116D01*
X54044850Y-49715620D01*
X53843767Y-49652679D01*
X53757352Y-49626012D01*
X53686612Y-49604895D01*
X53640890Y-49592079D01*
X53629069Y-49589503D01*
X53612670Y-49605207D01*
X53573244Y-49649636D01*
X53514353Y-49718574D01*
X53439560Y-49807804D01*
X53352426Y-49913108D01*
X53256513Y-50030269D01*
X53249357Y-50039058D01*
X53147545Y-50163995D01*
X53049541Y-50283982D01*
X52960004Y-50393336D01*
X52883590Y-50486377D01*
X52824956Y-50557424D01*
X52790909Y-50598257D01*
X52698560Y-50707664D01*
X53156700Y-50569958D01*
X53900727Y-50730487D01*
X54072293Y-50767786D01*
X54230627Y-50802750D01*
X54370995Y-50834293D01*
X54488662Y-50861328D01*
X54578895Y-50882768D01*
X54636959Y-50897524D01*
X54658015Y-50904368D01*
X54659947Y-50908596D01*
X54655087Y-50913471D01*
X54639904Y-50919827D01*
X54610870Y-50928497D01*
X54564457Y-50940312D01*
X54497134Y-50956106D01*
X54405373Y-50976712D01*
X54285646Y-51002961D01*
X54134422Y-51035688D01*
X53948174Y-51075724D01*
X53769683Y-51113983D01*
X53155850Y-51245472D01*
X52796789Y-51137807D01*
X52680402Y-51103986D01*
X52578460Y-51076412D01*
X52497653Y-51056728D01*
X52444671Y-51046576D01*
X52426373Y-51046837D01*
X52410582Y-51066842D01*
X52371352Y-51115429D01*
X52312070Y-51188434D01*
X52236127Y-51281694D01*
X52146910Y-51391043D01*
X52047807Y-51512318D01*
X52009328Y-51559358D01*
X51603640Y-52055183D01*
X49847636Y-53483933D01*
X49610543Y-53676882D01*
X49382918Y-53862205D01*
X49166885Y-54038170D01*
X48964565Y-54203044D01*
X48778080Y-54355097D01*
X48609553Y-54492596D01*
X48461104Y-54613809D01*
X48334857Y-54717003D01*
X48232933Y-54800448D01*
X48157455Y-54862411D01*
X48110544Y-54901160D01*
X48094322Y-54914963D01*
X48094324Y-54914971D01*
X48115293Y-54913159D01*
X48175637Y-54907277D01*
X48272621Y-54897605D01*
X48403508Y-54884420D01*
X48565565Y-54868003D01*
X48756057Y-54848630D01*
X48972248Y-54826581D01*
X49211404Y-54802135D01*
X49470788Y-54775569D01*
X49747668Y-54747162D01*
X50039306Y-54717194D01*
X50340683Y-54686177D01*
X52584350Y-54455095D01*
X53239867Y-54519438D01*
X53402042Y-54534832D01*
X53550579Y-54547924D01*
X53680272Y-54558335D01*
X53785912Y-54565686D01*
X53862292Y-54569596D01*
X53904203Y-54569687D01*
X53910501Y-54568316D01*
X53925097Y-54545320D01*
X53955926Y-54491455D01*
X53999362Y-54413238D01*
X54051773Y-54317184D01*
X54093871Y-54239073D01*
X54262123Y-53925296D01*
X54914684Y-53504492D01*
X55063362Y-53408996D01*
X55200617Y-53321565D01*
X55322458Y-53244685D01*
X55424898Y-53180842D01*
X55503946Y-53132521D01*
X55555613Y-53102208D01*
X55575910Y-53092389D01*
X55576002Y-53092447D01*
X55566922Y-53111574D01*
X55537231Y-53162189D01*
X55489419Y-53240302D01*
X55425978Y-53341925D01*
X55349397Y-53463071D01*
X55262166Y-53599752D01*
X55166776Y-53747979D01*
X55163568Y-53752944D01*
X54742376Y-54404683D01*
X54547593Y-54509275D01*
X54468386Y-54553050D01*
X54406495Y-54589646D01*
X54369243Y-54614579D01*
X54361923Y-54622978D01*
X54384062Y-54627082D01*
X54442187Y-54634683D01*
X54530292Y-54645153D01*
X54642373Y-54657860D01*
X54772424Y-54672177D01*
X54914441Y-54687474D01*
X55062418Y-54703121D01*
X55210352Y-54718489D01*
X55352238Y-54732949D01*
X55482069Y-54745871D01*
X55593842Y-54756626D01*
X55681552Y-54764585D01*
X55739194Y-54769117D01*
X55760762Y-54769596D01*
X55771965Y-54750016D01*
X55798750Y-54701012D01*
X55836802Y-54630525D01*
X55871289Y-54566187D01*
X55977300Y-54367858D01*
X56333992Y-54137775D01*
X56443433Y-54067679D01*
X56540945Y-54006170D01*
X56620902Y-53956719D01*
X56677677Y-53922798D01*
X56705646Y-53907879D01*
X56707209Y-53907479D01*
X56710853Y-53910358D01*
X56707816Y-53921688D01*
X56695778Y-53945272D01*
X56672418Y-53984913D01*
X56635414Y-54044414D01*
X56582446Y-54127576D01*
X56511194Y-54238202D01*
X56419335Y-54380095D01*
X56409174Y-54395769D01*
X56343473Y-54495763D01*
X56293133Y-54567257D01*
X56251236Y-54617742D01*
X56210861Y-54654712D01*
X56165088Y-54685661D01*
X56115954Y-54713269D01*
X55981632Y-54785683D01*
X56050408Y-54799409D01*
X56091405Y-54805445D01*
X56167312Y-54814592D01*
X56270885Y-54826058D01*
X56394880Y-54839049D01*
X56532055Y-54852773D01*
X56584850Y-54857893D01*
X56767901Y-54875729D01*
X56912426Y-54890421D01*
X57022078Y-54902436D01*
X57100513Y-54912238D01*
X57151382Y-54920292D01*
X57178339Y-54927063D01*
X57185039Y-54933018D01*
X57184207Y-54934215D01*
X57161800Y-54938410D01*
X57102834Y-54946040D01*
X57012886Y-54956480D01*
X56897534Y-54969102D01*
X56762356Y-54983280D01*
X56615836Y-54998097D01*
X56465139Y-55013322D01*
X56327436Y-55027711D01*
X56208611Y-55040609D01*
X56114546Y-55051365D01*
X56051123Y-55059326D01*
X56024577Y-55063716D01*
X56024037Y-55078121D01*
X56058552Y-55107059D01*
X56123074Y-55146709D01*
X56168903Y-55173661D01*
X56207444Y-55200752D01*
X56243508Y-55233685D01*
X56281908Y-55278166D01*
X56327457Y-55339898D01*
X56384966Y-55424587D01*
X56459248Y-55537938D01*
X56479822Y-55569601D01*
X56548830Y-55677348D01*
X56608194Y-55772847D01*
X56654610Y-55850548D01*
X56684776Y-55904900D01*
X56695388Y-55930351D01*
X56695077Y-55931345D01*
X56674511Y-55924071D01*
X56624125Y-55896829D01*
X56549475Y-55852905D01*
X56456119Y-55795580D01*
X56349612Y-55728139D01*
X56331927Y-55716762D01*
X55980668Y-55490289D01*
X55873474Y-55291444D01*
X55828416Y-55210084D01*
X55789908Y-55144666D01*
X55762658Y-55102939D01*
X55752231Y-55091821D01*
X55721408Y-55093355D01*
X55656096Y-55098820D01*
X55562258Y-55107582D01*
X55445855Y-55119010D01*
X55312849Y-55132470D01*
X55169200Y-55147329D01*
X55020872Y-55162956D01*
X54873824Y-55178718D01*
X54734020Y-55193981D01*
X54607419Y-55208113D01*
X54499983Y-55220482D01*
X54417675Y-55230454D01*
X54366456Y-55237398D01*
X54351815Y-55240448D01*
X54369336Y-55254210D01*
X54416659Y-55282870D01*
X54485991Y-55321866D01*
X54548034Y-55355304D01*
X54744204Y-55459259D01*
X55164591Y-56112768D01*
X55259970Y-56261570D01*
X55347333Y-56398890D01*
X55424196Y-56520745D01*
X55488075Y-56623153D01*
X55536487Y-56702129D01*
X55566946Y-56753690D01*
X55576969Y-56773854D01*
X55576914Y-56773948D01*
X55557261Y-56765411D01*
X55507204Y-56736433D01*
X55431519Y-56690127D01*
X55334978Y-56629601D01*
X55222357Y-56557969D01*
X55098429Y-56478340D01*
X54967967Y-56393825D01*
X54835747Y-56307537D01*
X54706543Y-56222584D01*
X54585128Y-56142080D01*
X54476276Y-56069134D01*
X54384762Y-56006857D01*
X54315359Y-55958362D01*
X54272842Y-55926757D01*
X54262286Y-55917276D01*
X54239733Y-55883098D01*
X54202178Y-55819215D01*
X54154091Y-55733513D01*
X54099944Y-55633876D01*
X54074875Y-55586752D01*
X54020619Y-55486758D01*
X53971162Y-55400579D01*
X53930632Y-55335037D01*
X53903153Y-55296952D01*
X53895571Y-55290328D01*
X53867975Y-55289665D01*
X53803794Y-55293108D01*
X53708527Y-55300207D01*
X53587676Y-55310510D01*
X53446743Y-55323566D01*
X53291229Y-55338924D01*
X53244780Y-55343683D01*
X52622445Y-55407958D01*
X50370509Y-55177765D01*
X50066271Y-55146726D01*
X49774020Y-55117028D01*
X49496491Y-55088943D01*
X49236420Y-55062743D01*
X48996542Y-55038698D01*
X48779593Y-55017080D01*
X48588308Y-54998162D01*
X48425422Y-54982214D01*
X48293672Y-54969509D01*
X48195792Y-54960317D01*
X48134518Y-54954911D01*
X48112585Y-54953562D01*
X48112572Y-54953572D01*
X48127814Y-54967464D01*
X48173777Y-55006332D01*
X48248342Y-55068436D01*
X48349391Y-55152037D01*
X48474806Y-55255395D01*
X48622469Y-55376771D01*
X48790260Y-55514425D01*
X48976062Y-55666618D01*
X49177756Y-55831611D01*
X49393224Y-56007663D01*
X49620347Y-56193036D01*
X49857008Y-56385990D01*
X49858627Y-56387310D01*
X51610683Y-57815047D01*
X52015511Y-58310322D01*
X52117696Y-58434654D01*
X52211987Y-58548079D01*
X52294890Y-58646497D01*
X52362910Y-58725806D01*
X52412554Y-58781906D01*
X52440327Y-58810694D01*
X52444321Y-58813590D01*
X52471870Y-58810508D01*
X52532428Y-58796816D01*
X52618562Y-58774412D01*
X52722838Y-58745194D01*
X52793272Y-58724509D01*
X52907007Y-58691324D01*
X53009062Y-58663020D01*
X53091413Y-58641710D01*
X53146036Y-58629507D01*
X53161958Y-58627433D01*
X53193921Y-58631829D01*
X53261201Y-58644163D01*
X53357797Y-58663149D01*
X53477709Y-58687505D01*
X53614938Y-58715948D01*
X53763483Y-58747193D01*
X53917343Y-58779958D01*
X54070519Y-58812958D01*
X54217011Y-58844911D01*
X54350817Y-58874532D01*
X54465938Y-58900538D01*
X54556375Y-58921646D01*
X54616125Y-58936572D01*
X54637517Y-58943075D01*
X54664871Y-58957255D01*
X54655456Y-58966637D01*
X54626933Y-58974369D01*
X54564078Y-58989142D01*
X54471474Y-59009909D01*
X54354958Y-59035444D01*
X54220366Y-59064521D01*
X54073536Y-59095912D01*
X53920302Y-59128392D01*
X53766501Y-59160735D01*
X53617971Y-59191713D01*
X53480547Y-59220101D01*
X53360065Y-59244671D01*
X53262362Y-59264199D01*
X53193275Y-59277456D01*
X53158639Y-59283217D01*
X53156462Y-59283364D01*
X53118252Y-59277145D01*
X53051106Y-59260645D01*
X52966317Y-59236769D01*
X52916553Y-59221640D01*
X52833953Y-59197120D01*
X52769774Y-59180496D01*
X52732251Y-59173758D01*
X52726053Y-59175614D01*
X52740522Y-59195170D01*
X52778603Y-59243537D01*
X52837111Y-59316753D01*
X52912861Y-59410858D01*
X53002666Y-59521890D01*
X53103342Y-59645888D01*
X53174257Y-59732980D01*
X53615997Y-60274884D01*
X53714007Y-60244679D01*
X53791388Y-60221638D01*
X53884017Y-60195161D01*
X53939641Y-60179771D01*
X54067265Y-60145068D01*
X54478579Y-60233869D01*
X54604684Y-60261419D01*
X54716019Y-60286359D01*
X54806191Y-60307207D01*
X54868805Y-60322480D01*
X54897467Y-60330693D01*
X54898494Y-60331272D01*
X54900941Y-60334710D01*
X54897671Y-60338446D01*
X54883823Y-60343666D01*
X54854536Y-60351557D01*
X54804950Y-60363309D01*
X54730206Y-60380109D01*
X54625444Y-60403145D01*
X54485802Y-60433604D01*
X54430508Y-60445645D01*
X54054165Y-60527599D01*
X53924152Y-60487135D01*
X53854949Y-60467092D01*
X53802526Y-60454681D01*
X53779634Y-60452510D01*
X53788712Y-60469686D01*
X53821530Y-60515320D01*
X53874852Y-60585244D01*
X53945442Y-60675290D01*
X54030064Y-60781291D01*
X54125482Y-60899078D01*
X54143825Y-60921542D01*
X54241145Y-61041277D01*
X54328558Y-61150170D01*
X54402769Y-61244009D01*
X54460485Y-61318582D01*
X54498413Y-61369677D01*
X54513260Y-61393081D01*
X54513238Y-61394018D01*
X54495146Y-61383555D01*
X54448602Y-61349418D01*
X54377796Y-61294884D01*
X54286919Y-61223231D01*
X54180162Y-61137739D01*
X54061717Y-61041686D01*
X54036277Y-61020911D01*
X53916542Y-60923651D01*
X53808136Y-60836824D01*
X53715139Y-60763598D01*
X53641629Y-60707140D01*
X53591687Y-60670620D01*
X53569390Y-60657205D01*
X53568600Y-60657675D01*
X53574501Y-60686691D01*
X53589853Y-60742952D01*
X53607962Y-60803299D01*
X53647324Y-60929770D01*
X53557523Y-61345985D01*
X53529693Y-61473073D01*
X53504271Y-61585598D01*
X53482769Y-61677156D01*
X53466697Y-61741342D01*
X53457566Y-61771751D01*
X53456728Y-61773194D01*
X53446804Y-61760770D01*
X53432707Y-61717196D01*
X53421821Y-61671602D01*
X53408657Y-61609838D01*
X53388957Y-61517679D01*
X53365072Y-61406117D01*
X53339357Y-61286147D01*
X53330868Y-61246574D01*
X53263827Y-60934131D01*
X53392361Y-60496209D01*
X52842537Y-60048070D01*
X52711724Y-59941801D01*
X52591646Y-59844926D01*
X52486147Y-59760493D01*
X52399068Y-59691550D01*
X52334252Y-59641145D01*
X52295542Y-59612326D01*
X52285984Y-59606660D01*
X52288879Y-59628394D01*
X52301964Y-59681918D01*
X52322995Y-59758553D01*
X52343121Y-59827619D01*
X52406988Y-60041849D01*
X52245640Y-60789406D01*
X52208374Y-60961165D01*
X52173642Y-61119525D01*
X52142501Y-61259799D01*
X52116006Y-61377298D01*
X52095215Y-61467335D01*
X52081185Y-61525222D01*
X52075029Y-61546226D01*
X52059171Y-61546669D01*
X52053377Y-61524662D01*
X52039801Y-61465928D01*
X52019473Y-61375142D01*
X51993426Y-61256984D01*
X51962689Y-61116130D01*
X51928295Y-60957258D01*
X51891878Y-60787864D01*
X51731181Y-60037878D01*
X51834974Y-59693737D01*
X51869237Y-59579040D01*
X51898733Y-59478224D01*
X51921440Y-59398362D01*
X51935338Y-59346532D01*
X51938767Y-59330237D01*
X51922951Y-59312546D01*
X51878167Y-59271701D01*
X51808411Y-59211109D01*
X51717678Y-59134178D01*
X51609963Y-59044315D01*
X51489262Y-58944929D01*
X51436058Y-58901493D01*
X50933350Y-58492108D01*
X49506169Y-56739632D01*
X49313246Y-56502853D01*
X49127895Y-56275595D01*
X48951853Y-56059977D01*
X48786860Y-55858117D01*
X48634653Y-55672136D01*
X48496972Y-55504152D01*
X48375554Y-55356285D01*
X48272139Y-55230654D01*
X48188464Y-55129378D01*
X48126269Y-55054577D01*
X48087291Y-55008370D01*
X48073270Y-54992876D01*
X48073264Y-54992880D01*
X48074590Y-55014267D01*
X48079960Y-55075033D01*
X48089102Y-55172443D01*
X48101747Y-55303763D01*
X48117623Y-55466260D01*
X48136459Y-55657199D01*
X48157985Y-55873845D01*
X48181931Y-56113466D01*
X48208024Y-56373326D01*
X48235995Y-56650691D01*
X48265572Y-56942827D01*
X48296486Y-57247001D01*
X48297018Y-57252227D01*
X48526497Y-59505850D01*
X48465688Y-60087933D01*
X48449655Y-60243587D01*
X48435190Y-60388195D01*
X48422876Y-60515593D01*
X48413296Y-60619614D01*
X48407033Y-60694094D01*
X48404668Y-60732867D01*
X48404663Y-60733517D01*
X48406499Y-60757462D01*
X48415625Y-60779017D01*
X48437199Y-60801957D01*
X48476380Y-60830056D01*
X48538324Y-60867088D01*
X48628191Y-60916829D01*
X48730576Y-60972023D01*
X49056705Y-61147029D01*
X49473822Y-61793089D01*
X49568875Y-61941043D01*
X49655738Y-62077660D01*
X49731924Y-62198919D01*
X49794944Y-62300798D01*
X49842313Y-62379277D01*
X49871542Y-62430333D01*
X49880143Y-62449945D01*
X49880143Y-62449946D01*
X49860528Y-62441359D01*
X49809475Y-62412158D01*
X49731018Y-62364836D01*
X49629189Y-62301885D01*
X49508022Y-62225798D01*
X49371548Y-62139068D01*
X49226598Y-62045991D01*
X48583850Y-61631240D01*
X48351174Y-61209298D01*
X48282510Y-61870991D01*
X48265682Y-62036597D01*
X48250673Y-62190975D01*
X48237982Y-62328459D01*
X48228107Y-62443383D01*
X48221545Y-62530084D01*
X48218795Y-62582895D01*
X48218931Y-62594056D01*
X48225442Y-62624567D01*
X48243960Y-62651752D01*
X48281445Y-62681438D01*
X48344855Y-62719450D01*
X48413209Y-62756713D01*
X48602401Y-62857997D01*
X48831251Y-63211360D01*
X48901264Y-63320367D01*
X48962623Y-63417622D01*
X49011831Y-63497440D01*
X49045390Y-63554134D01*
X49059804Y-63582017D01*
X49060100Y-63583427D01*
X49059054Y-63589041D01*
X49053177Y-63590100D01*
X49038362Y-63584149D01*
X49010503Y-63568733D01*
X48965491Y-63541397D01*
X48899219Y-63499685D01*
X48807582Y-63441143D01*
X48686470Y-63363313D01*
X48615600Y-63317701D01*
X48506607Y-63246834D01*
X48427251Y-63192686D01*
X48371155Y-63149727D01*
X48331939Y-63112428D01*
X48303226Y-63075262D01*
X48278635Y-63032698D01*
X48272067Y-63019941D01*
X48238470Y-62957499D01*
X48210342Y-62911778D01*
X48196495Y-62895130D01*
X48189884Y-62912383D01*
X48180072Y-62966571D01*
X48167749Y-63052477D01*
X48153606Y-63164883D01*
X48138332Y-63298570D01*
X48122618Y-63448319D01*
X48120429Y-63470203D01*
X48105007Y-63622905D01*
X48090570Y-63761328D01*
X48077723Y-63880029D01*
X48067070Y-63973567D01*
X48059217Y-64036500D01*
X48054766Y-64063387D01*
X48054491Y-64063931D01*
X48046341Y-64051007D01*
X48036305Y-64009297D01*
X48034765Y-64000638D01*
X48029067Y-63958219D01*
X48020213Y-63881301D01*
X48009023Y-63777532D01*
X47996319Y-63654557D01*
X47982922Y-63520024D01*
X47980558Y-63495767D01*
X47966961Y-63357270D01*
X47953845Y-63226411D01*
X47942069Y-63111542D01*
X47932489Y-63021016D01*
X47925964Y-62963183D01*
X47925380Y-62958463D01*
X47912345Y-62855076D01*
X47832771Y-62997744D01*
X47804653Y-63046936D01*
X47778279Y-63087005D01*
X47747987Y-63122777D01*
X47708112Y-63159075D01*
X47652993Y-63200724D01*
X47576965Y-63252548D01*
X47474367Y-63319371D01*
X47396280Y-63369582D01*
X47287428Y-63438811D01*
X47191117Y-63498801D01*
X47112813Y-63546252D01*
X47057980Y-63577864D01*
X47032082Y-63590336D01*
X47030861Y-63590250D01*
X47039137Y-63570707D01*
X47067162Y-63521107D01*
X47111649Y-63446909D01*
X47169313Y-63353573D01*
X47236867Y-63246560D01*
X47251783Y-63223204D01*
X47481205Y-62864660D01*
X47688854Y-62753526D01*
X47896502Y-62642393D01*
X47884698Y-62545205D01*
X47879479Y-62498896D01*
X47870669Y-62416953D01*
X47858948Y-62305858D01*
X47844996Y-62172095D01*
X47829491Y-62022146D01*
X47813113Y-61862493D01*
X47811614Y-61847813D01*
X47795561Y-61693170D01*
X47780472Y-61552690D01*
X47766967Y-61431760D01*
X47755665Y-61335764D01*
X47747185Y-61270089D01*
X47742145Y-61240119D01*
X47741622Y-61238900D01*
X47728798Y-61252596D01*
X47701081Y-61296464D01*
X47662978Y-61363053D01*
X47632163Y-61419901D01*
X47585964Y-61503491D01*
X47543227Y-61574803D01*
X47509951Y-61624116D01*
X47496715Y-61639368D01*
X47469700Y-61658756D01*
X47412533Y-61697173D01*
X47330305Y-61751354D01*
X47228108Y-61818031D01*
X47111031Y-61893938D01*
X46984165Y-61975808D01*
X46852602Y-62060374D01*
X46721433Y-62144370D01*
X46595747Y-62224528D01*
X46480637Y-62297582D01*
X46381192Y-62360265D01*
X46302504Y-62409310D01*
X46249663Y-62441450D01*
X46228474Y-62453200D01*
X46218471Y-62457455D01*
X46210943Y-62459944D01*
X46207824Y-62457450D01*
X46211048Y-62446755D01*
X46222547Y-62424644D01*
X46244254Y-62387900D01*
X46278104Y-62333306D01*
X46326029Y-62257646D01*
X46389962Y-62157703D01*
X46471837Y-62030260D01*
X46573587Y-61872101D01*
X46636517Y-61774283D01*
X47038683Y-61149061D01*
X47361438Y-60976369D01*
X47467476Y-60919080D01*
X47559954Y-60868064D01*
X47632607Y-60826866D01*
X47679166Y-60799027D01*
X47693446Y-60788705D01*
X47693706Y-60764675D01*
X47690019Y-60703793D01*
X47682828Y-60611312D01*
X47672574Y-60492484D01*
X47659701Y-60352563D01*
X47644650Y-60196802D01*
X47637914Y-60129208D01*
X47573130Y-59484683D01*
X47799091Y-57275502D01*
X47829883Y-56973546D01*
X47859314Y-56683140D01*
X47887111Y-56407093D01*
X47912999Y-56148212D01*
X47936702Y-55909307D01*
X47957946Y-55693185D01*
X47976457Y-55502656D01*
X47991959Y-55340526D01*
X48004179Y-55209606D01*
X48012840Y-55112703D01*
X48017669Y-55052625D01*
X48018528Y-55032443D01*
X48004450Y-55043445D01*
X47965096Y-55085822D01*
X47901776Y-55158004D01*
X47815799Y-55258424D01*
X47708477Y-55385512D01*
X47581120Y-55537701D01*
X47435038Y-55713421D01*
X47271541Y-55911103D01*
X47091940Y-56129179D01*
X46897545Y-56366081D01*
X46689666Y-56620239D01*
X46579863Y-56754791D01*
X45147722Y-58511017D01*
X44666435Y-58902600D01*
X44543477Y-59002552D01*
X44430894Y-59093897D01*
X44332948Y-59173192D01*
X44253901Y-59236993D01*
X44198014Y-59281856D01*
X44169547Y-59304339D01*
X44167132Y-59306114D01*
X44167113Y-59329224D01*
X44178146Y-59386032D01*
X44198610Y-59469844D01*
X44226884Y-59573965D01*
X44257114Y-59677663D01*
X44365113Y-60037282D01*
X44203497Y-60786661D01*
X44166215Y-60958636D01*
X44131466Y-61117215D01*
X44100304Y-61257716D01*
X44073783Y-61375457D01*
X44052959Y-61465756D01*
X44038885Y-61523931D01*
X44032656Y-61545266D01*
X44028103Y-61547579D01*
X44022981Y-61542878D01*
X44016386Y-61527407D01*
X44007416Y-61497410D01*
X43995169Y-61449132D01*
X43978742Y-61378818D01*
X43957233Y-61282712D01*
X43929738Y-61157059D01*
X43895356Y-60998102D01*
X43853184Y-60802087D01*
X43845825Y-60767832D01*
X43689505Y-60040148D01*
X43826495Y-59584386D01*
X43305339Y-60008113D01*
X43175971Y-60113457D01*
X43055848Y-60211579D01*
X42949279Y-60298937D01*
X42860572Y-60371986D01*
X42794034Y-60427186D01*
X42753973Y-60460993D01*
X42745342Y-60468649D01*
X42728575Y-60486976D01*
X42720508Y-60508148D01*
X42721986Y-60540686D01*
X42733853Y-60593111D01*
X42756955Y-60673943D01*
X42770049Y-60717874D01*
X42833597Y-60930289D01*
X42750748Y-61318736D01*
X42723632Y-61443837D01*
X42698390Y-61556524D01*
X42676723Y-61649491D01*
X42660335Y-61715431D01*
X42651070Y-61746707D01*
X42641741Y-61740670D01*
X42626372Y-61699827D01*
X42606459Y-61631028D01*
X42583494Y-61541125D01*
X42558971Y-61436968D01*
X42534384Y-61325409D01*
X42511227Y-61213298D01*
X42490993Y-61107487D01*
X42475175Y-61014827D01*
X42465269Y-60942168D01*
X42462767Y-60896363D01*
X42463875Y-60888096D01*
X42477815Y-60838794D01*
X42498199Y-60770177D01*
X42508158Y-60737526D01*
X42539514Y-60635702D01*
X42460765Y-60698409D01*
X42421899Y-60729682D01*
X42356037Y-60783038D01*
X42268965Y-60853773D01*
X42166468Y-60937185D01*
X42054334Y-61028570D01*
X41991410Y-61079904D01*
X41848706Y-61195393D01*
X41737254Y-61283375D01*
X41656474Y-61344250D01*
X41605788Y-61378421D01*
X41584616Y-61386288D01*
X41592380Y-61368255D01*
X41613220Y-61342188D01*
X41634217Y-61316791D01*
X41677342Y-61264043D01*
X41738089Y-61189494D01*
X41811952Y-61098698D01*
X41894424Y-60997207D01*
X41981000Y-60890573D01*
X42067172Y-60784348D01*
X42148435Y-60684084D01*
X42220282Y-60595335D01*
X42278207Y-60523652D01*
X42317703Y-60474587D01*
X42333219Y-60455072D01*
X42324200Y-60448993D01*
X42282797Y-60455126D01*
X42216748Y-60472170D01*
X42197728Y-60477850D01*
X42043350Y-60525072D01*
X41635985Y-60437124D01*
X41510216Y-60409514D01*
X41398985Y-60384225D01*
X41308791Y-60362806D01*
X41246137Y-60346807D01*
X41217522Y-60337777D01*
X41216617Y-60337173D01*
X41230712Y-60326876D01*
X41286219Y-60309464D01*
X41382834Y-60285010D01*
X41520252Y-60253590D01*
X41698168Y-60215278D01*
X41813277Y-60191274D01*
X42048871Y-60142608D01*
X42484059Y-60275506D01*
X42520450Y-60229345D01*
X42542610Y-60201778D01*
X42587916Y-60145844D01*
X42652760Y-60065983D01*
X42733532Y-59966636D01*
X42826625Y-59852242D01*
X42928428Y-59727241D01*
X42970635Y-59675444D01*
X43072634Y-59549980D01*
X43165215Y-59435506D01*
X43245194Y-59336007D01*
X43309387Y-59255468D01*
X43354609Y-59197875D01*
X43377675Y-59167211D01*
X43379965Y-59163243D01*
X43359231Y-59167201D01*
X43306570Y-59181375D01*
X43230476Y-59203395D01*
X43158875Y-59224934D01*
X42942247Y-59291088D01*
X42217632Y-59135653D01*
X42046831Y-59098840D01*
X41887959Y-59064263D01*
X41746073Y-59033050D01*
X41626232Y-59006325D01*
X41533491Y-58985217D01*
X41472909Y-58970849D01*
X41450683Y-58964855D01*
X41423678Y-58952717D01*
X41433613Y-58943785D01*
X41461267Y-58936212D01*
X41522286Y-58921734D01*
X41613462Y-58901203D01*
X41728932Y-58875848D01*
X41862833Y-58846899D01*
X42009304Y-58815587D01*
X42162483Y-58783141D01*
X42316507Y-58750792D01*
X42465515Y-58719770D01*
X42603645Y-58691304D01*
X42725035Y-58666626D01*
X42823822Y-58646965D01*
X42894144Y-58633551D01*
X42930140Y-58627615D01*
X42932725Y-58627433D01*
X42968107Y-58633377D01*
X43036040Y-58649816D01*
X43128655Y-58674664D01*
X43238080Y-58705835D01*
X43319235Y-58729926D01*
X43658893Y-58832419D01*
X44477517Y-57825477D01*
X46238204Y-56390573D01*
X46475533Y-56197093D01*
X46703380Y-56011213D01*
X46919630Y-55834669D01*
X47122167Y-55669192D01*
X47308876Y-55516515D01*
X47477640Y-55378371D01*
X47626345Y-55256493D01*
X47752874Y-55152614D01*
X47855113Y-55068467D01*
X47930945Y-55005784D01*
X47966410Y-54976183D01*
X48022933Y-54976183D01*
X48033517Y-54986767D01*
X48044100Y-54976183D01*
X48033517Y-54965600D01*
X48022933Y-54976183D01*
X47966410Y-54976183D01*
X47978254Y-54966298D01*
X47994926Y-54951743D01*
X47994928Y-54951705D01*
X47973782Y-54953274D01*
X47913256Y-54958887D01*
X47816080Y-54968270D01*
X47684986Y-54981151D01*
X47522705Y-54997254D01*
X47331969Y-55016307D01*
X47115509Y-55038036D01*
X46876057Y-55062167D01*
X46616344Y-55088428D01*
X46339102Y-55116544D01*
X46047062Y-55146241D01*
X45742956Y-55177247D01*
X45737639Y-55177790D01*
X43484314Y-55407839D01*
X42882632Y-55345469D01*
X42725372Y-55329340D01*
X42580033Y-55314759D01*
X42452469Y-55302289D01*
X42348531Y-55292490D01*
X42274074Y-55285924D01*
X42234950Y-55283154D01*
X42232412Y-55283100D01*
X42211819Y-55288239D01*
X42188769Y-55306895D01*
X42159926Y-55343924D01*
X42121950Y-55404183D01*
X42071503Y-55492529D01*
X42005764Y-55612863D01*
X41827655Y-55942627D01*
X41174342Y-56363356D01*
X41025587Y-56458828D01*
X40888317Y-56546303D01*
X40766513Y-56623292D01*
X40664157Y-56687306D01*
X40585229Y-56735855D01*
X40533712Y-56766449D01*
X40513586Y-56776600D01*
X40513494Y-56776550D01*
X40521181Y-56756118D01*
X40549659Y-56705448D01*
X40595823Y-56629243D01*
X40656568Y-56532210D01*
X40728791Y-56419054D01*
X40809387Y-56294481D01*
X40895250Y-56163195D01*
X40983278Y-56029902D01*
X41070364Y-55899307D01*
X41153405Y-55776117D01*
X41229296Y-55665035D01*
X41294932Y-55570769D01*
X41347209Y-55498022D01*
X41383022Y-55451500D01*
X41397767Y-55436309D01*
X41440897Y-55412415D01*
X41508425Y-55375148D01*
X41587644Y-55331518D01*
X41609433Y-55319532D01*
X41768183Y-55232233D01*
X41112017Y-55163687D01*
X40946909Y-55146611D01*
X40792878Y-55131005D01*
X40655649Y-55117425D01*
X40540949Y-55106425D01*
X40454507Y-55098561D01*
X40402049Y-55094388D01*
X40391587Y-55093871D01*
X40361577Y-55095887D01*
X40336555Y-55107714D01*
X40310852Y-55135981D01*
X40278798Y-55187319D01*
X40234723Y-55268355D01*
X40222410Y-55291662D01*
X40171419Y-55385238D01*
X40130185Y-55450360D01*
X40090624Y-55496967D01*
X40044653Y-55534995D01*
X40000922Y-55563982D01*
X39937229Y-55604335D01*
X39849488Y-55660364D01*
X39749177Y-55724720D01*
X39647773Y-55790056D01*
X39645785Y-55791341D01*
X39557475Y-55847139D01*
X39482293Y-55892291D01*
X39427055Y-55922879D01*
X39398578Y-55934983D01*
X39396436Y-55934658D01*
X39404034Y-55914425D01*
X39431522Y-55864296D01*
X39475614Y-55789800D01*
X39533023Y-55696468D01*
X39600462Y-55589828D01*
X39612694Y-55570765D01*
X39691255Y-55449196D01*
X39751885Y-55357852D01*
X39799245Y-55291159D01*
X39837997Y-55243540D01*
X39872800Y-55209421D01*
X39908315Y-55183224D01*
X39949202Y-55159375D01*
X39962585Y-55152179D01*
X40025117Y-55116911D01*
X40069359Y-55088255D01*
X40085433Y-55072868D01*
X40065331Y-55066966D01*
X40008916Y-55057888D01*
X39922028Y-55046376D01*
X39810507Y-55033176D01*
X39680191Y-55019029D01*
X39593308Y-55010188D01*
X39403196Y-54991270D01*
X39251120Y-54975978D01*
X39132986Y-54963831D01*
X39044695Y-54954347D01*
X38982153Y-54947042D01*
X38941261Y-54941437D01*
X38917925Y-54937047D01*
X38908048Y-54933391D01*
X38907533Y-54929987D01*
X38907957Y-54929520D01*
X38930510Y-54925132D01*
X38989731Y-54917187D01*
X39080165Y-54906317D01*
X39196355Y-54893156D01*
X39332845Y-54878336D01*
X39484177Y-54862488D01*
X39502511Y-54860605D01*
X39655290Y-54844637D01*
X39793924Y-54829552D01*
X39912943Y-54815993D01*
X40006875Y-54804603D01*
X40070251Y-54796026D01*
X40097600Y-54790906D01*
X40098188Y-54790567D01*
X40085980Y-54776792D01*
X40044471Y-54749827D01*
X39982316Y-54715233D01*
X39975110Y-54711470D01*
X39929214Y-54686917D01*
X39891525Y-54663107D01*
X39857358Y-54634525D01*
X39822026Y-54595657D01*
X39780843Y-54540988D01*
X39729122Y-54465004D01*
X39662176Y-54362189D01*
X39612079Y-54284279D01*
X39542766Y-54175185D01*
X39482768Y-54078547D01*
X39435365Y-53999835D01*
X39403838Y-53944520D01*
X39391470Y-53918072D01*
X39391602Y-53916709D01*
X39411416Y-53924728D01*
X39461202Y-53952599D01*
X39535480Y-53997032D01*
X39628775Y-54054736D01*
X39735609Y-54122422D01*
X39757856Y-54136699D01*
X40114650Y-54366150D01*
X40213761Y-54550994D01*
X40257953Y-54631795D01*
X40296296Y-54698952D01*
X40323482Y-54743321D01*
X40332288Y-54755254D01*
X40356581Y-54757284D01*
X40416850Y-54755216D01*
X40506998Y-54749629D01*
X40620926Y-54741103D01*
X40752537Y-54730218D01*
X40895732Y-54717552D01*
X41044415Y-54703686D01*
X41192487Y-54689199D01*
X41333850Y-54674670D01*
X41462406Y-54660680D01*
X41572058Y-54647806D01*
X41656707Y-54636630D01*
X41710257Y-54627731D01*
X41726504Y-54622752D01*
X41714182Y-54608544D01*
X41671403Y-54579593D01*
X41605377Y-54540483D01*
X41544157Y-54506822D01*
X41349716Y-54402988D01*
X40928433Y-53750241D01*
X40832837Y-53601581D01*
X40745277Y-53464373D01*
X40668243Y-53342598D01*
X40604227Y-53240241D01*
X40555717Y-53161284D01*
X40525206Y-53109710D01*
X40515182Y-53089502D01*
X40515236Y-53089408D01*
X40534214Y-53098636D01*
X40584707Y-53128447D01*
X40662737Y-53176355D01*
X40764327Y-53239871D01*
X40885498Y-53316507D01*
X41022272Y-53403775D01*
X41170670Y-53499188D01*
X41177503Y-53503598D01*
X41831683Y-53925873D01*
X42009323Y-54257564D01*
X42186962Y-54589254D01*
X42284489Y-54577360D01*
X42331794Y-54572069D01*
X42414423Y-54563338D01*
X42525570Y-54551864D01*
X42658429Y-54538346D01*
X42806193Y-54523481D01*
X42942933Y-54509860D01*
X43503850Y-54454254D01*
X45694600Y-54677661D01*
X45996007Y-54708413D01*
X46286337Y-54738067D01*
X46562720Y-54766327D01*
X46822285Y-54792898D01*
X47062162Y-54817486D01*
X47279481Y-54839796D01*
X47471370Y-54859532D01*
X47634961Y-54876400D01*
X47767381Y-54890104D01*
X47865762Y-54900351D01*
X47927231Y-54906845D01*
X47948022Y-54909156D01*
X48010695Y-54917245D01*
X47944251Y-54862047D01*
X47918909Y-54841252D01*
X47863019Y-54795572D01*
X47778853Y-54726859D01*
X47668684Y-54636967D01*
X47534784Y-54527747D01*
X47379426Y-54401055D01*
X47204882Y-54258741D01*
X47013423Y-54102660D01*
X46807324Y-53934664D01*
X46588855Y-53756607D01*
X46360289Y-53570340D01*
X46177661Y-53421523D01*
X44477517Y-52036197D01*
X43659641Y-51031515D01*
X43560579Y-51061410D01*
X43501275Y-51079257D01*
X43413346Y-51105657D01*
X43308724Y-51137031D01*
X43200924Y-51169323D01*
X42940332Y-51247342D01*
X42216674Y-51092113D01*
X42046008Y-51055347D01*
X41887288Y-51020853D01*
X41745571Y-50989755D01*
X41625915Y-50963173D01*
X41533378Y-50942231D01*
X41473018Y-50928051D01*
X41451031Y-50922237D01*
X41420910Y-50909981D01*
X41430782Y-50901327D01*
X41451031Y-50895045D01*
X41492163Y-50884561D01*
X41566866Y-50867311D01*
X41669230Y-50844537D01*
X41793350Y-50817480D01*
X41933316Y-50787383D01*
X42083221Y-50755487D01*
X42237157Y-50723033D01*
X42389217Y-50691264D01*
X42533493Y-50661420D01*
X42664076Y-50634745D01*
X42775061Y-50612478D01*
X42860537Y-50595863D01*
X42914599Y-50586141D01*
X42930449Y-50584100D01*
X42970637Y-50590031D01*
X43039884Y-50605988D01*
X43126887Y-50629222D01*
X43184042Y-50645848D01*
X43267147Y-50669090D01*
X43330436Y-50683471D01*
X43366450Y-50687514D01*
X43371088Y-50682890D01*
X43353484Y-50660716D01*
X43313239Y-50610624D01*
X43254291Y-50537485D01*
X43180584Y-50446169D01*
X43096057Y-50341549D01*
X43004652Y-50228495D01*
X42910310Y-50111878D01*
X42816972Y-49996568D01*
X42728579Y-49887438D01*
X42649073Y-49789357D01*
X42582393Y-49707196D01*
X42532483Y-49645828D01*
X42503281Y-49610121D01*
X42497710Y-49603450D01*
X42472371Y-49601981D01*
X42415741Y-49611657D01*
X42336823Y-49630643D01*
X42264972Y-49650917D01*
X42047594Y-49715950D01*
X41627524Y-49626150D01*
X41500646Y-49598471D01*
X41389136Y-49573083D01*
X41299158Y-49551476D01*
X41236877Y-49535142D01*
X41208459Y-49525574D01*
X41207361Y-49524484D01*
X41227030Y-49516690D01*
X41281994Y-49501776D01*
X41366101Y-49481234D01*
X41473197Y-49456554D01*
X41597130Y-49429226D01*
X41628404Y-49422501D01*
X42049542Y-49332383D01*
X42184029Y-49373925D01*
X42253083Y-49394004D01*
X42304086Y-49406480D01*
X42325784Y-49408669D01*
X42314832Y-49391208D01*
X42280291Y-49345286D01*
X42225488Y-49275117D01*
X42153751Y-49184911D01*
X42068409Y-49078884D01*
X41972790Y-48961246D01*
X41958549Y-48943817D01*
X41861824Y-48824740D01*
X41775086Y-48716468D01*
X41701638Y-48623246D01*
X41644784Y-48549320D01*
X41607827Y-48498934D01*
X41594071Y-48476332D01*
X41594188Y-48475623D01*
X41612511Y-48485855D01*
X41659314Y-48519758D01*
X41730408Y-48574074D01*
X41821606Y-48645549D01*
X41928720Y-48730929D01*
X42047561Y-48826957D01*
X42075756Y-48849917D01*
X42195388Y-48946812D01*
X42303103Y-49032782D01*
X42394958Y-49104781D01*
X42467009Y-49159767D01*
X42515313Y-49194693D01*
X42535925Y-49206515D01*
X42536264Y-49205435D01*
X42524779Y-49170466D01*
X42506212Y-49109500D01*
X42489363Y-49052167D01*
X42453382Y-48927817D01*
X42542900Y-48507125D01*
X42570500Y-48380148D01*
X42595868Y-48268552D01*
X42617511Y-48178497D01*
X42633938Y-48116142D01*
X42643655Y-48087645D01*
X42644801Y-48086527D01*
X42652760Y-48106254D01*
X42667801Y-48161252D01*
X42688422Y-48245341D01*
X42713118Y-48352339D01*
X42740386Y-48476065D01*
X42746507Y-48504569D01*
X42835830Y-48922517D01*
X42770509Y-49141554D01*
X42741742Y-49241395D01*
X42725441Y-49308733D01*
X42720480Y-49351159D01*
X42725732Y-49376263D01*
X42734102Y-49386896D01*
X42772957Y-49420529D01*
X42836346Y-49473393D01*
X42919539Y-49541701D01*
X43017807Y-49621667D01*
X43126423Y-49709505D01*
X43240658Y-49801426D01*
X43355782Y-49893646D01*
X43467067Y-49982376D01*
X43569785Y-50063831D01*
X43659206Y-50134222D01*
X43730603Y-50189765D01*
X43779247Y-50226672D01*
X43800408Y-50241156D01*
X43800898Y-50241190D01*
X43798677Y-50218768D01*
X43786085Y-50164899D01*
X43765359Y-50088548D01*
X43747735Y-50028270D01*
X43686294Y-49823627D01*
X43846509Y-49076738D01*
X43883686Y-48904712D01*
X43918555Y-48745826D01*
X43950033Y-48604823D01*
X43977040Y-48486445D01*
X43998493Y-48395437D01*
X44013311Y-48336541D01*
X44020296Y-48314607D01*
X44027612Y-48331036D01*
X44042540Y-48384462D01*
X44064029Y-48470447D01*
X44091030Y-48584551D01*
X44122496Y-48722332D01*
X44157378Y-48879352D01*
X44194625Y-49051170D01*
X44197804Y-49066024D01*
X44361740Y-49832683D01*
X44265770Y-50150183D01*
X44231987Y-50261869D01*
X44201956Y-50361008D01*
X44178071Y-50439702D01*
X44162729Y-50490053D01*
X44158830Y-50502710D01*
X44165188Y-50521263D01*
X44193074Y-50554699D01*
X44244651Y-50604977D01*
X44322083Y-50674053D01*
X44427532Y-50763886D01*
X44563162Y-50876432D01*
X44654596Y-50951327D01*
X45161332Y-51364918D01*
X46586841Y-53114786D01*
X46785903Y-53358772D01*
X46975850Y-53590858D01*
X47155067Y-53809107D01*
X47321939Y-54011582D01*
X47474851Y-54196346D01*
X47612187Y-54361463D01*
X47732333Y-54504995D01*
X47833674Y-54625005D01*
X47914595Y-54719557D01*
X47973480Y-54786714D01*
X48008715Y-54824538D01*
X48018859Y-54832199D01*
X48017631Y-54807105D01*
X48012324Y-54742708D01*
X48003213Y-54641816D01*
X47990573Y-54507234D01*
X47974678Y-54341770D01*
X47955805Y-54148229D01*
X47934227Y-53929418D01*
X47910221Y-53688145D01*
X47884062Y-53427214D01*
X47856024Y-53149433D01*
X47826382Y-52857608D01*
X47799187Y-52591380D01*
X47573006Y-50383017D01*
X47639120Y-49726850D01*
X47654909Y-49565107D01*
X47668352Y-49417436D01*
X47679058Y-49288950D01*
X47686641Y-49184763D01*
X47690710Y-49109989D01*
X47690878Y-49069741D01*
X47689458Y-49064187D01*
X47666522Y-49052331D01*
X47612898Y-49023572D01*
X47535003Y-48981383D01*
X47439257Y-48929237D01*
X47357014Y-48884270D01*
X47040345Y-48710850D01*
X46618992Y-48058927D01*
X46523342Y-47910393D01*
X46435739Y-47773306D01*
X46358676Y-47651648D01*
X46294647Y-47549403D01*
X46246146Y-47470554D01*
X46215666Y-47419083D01*
X46205702Y-47398975D01*
X46205754Y-47398891D01*
X46224749Y-47408094D01*
X46275278Y-47437849D01*
X46353358Y-47485672D01*
X46455007Y-47549078D01*
X46576240Y-47625581D01*
X46713077Y-47712696D01*
X46861534Y-47807939D01*
X46867891Y-47812033D01*
X47521914Y-48233290D01*
X47628618Y-48434195D01*
X47672545Y-48515034D01*
X47709143Y-48578884D01*
X47734092Y-48618431D01*
X47742813Y-48627608D01*
X47747050Y-48605188D01*
X47754650Y-48546646D01*
X47765002Y-48458005D01*
X47777495Y-48345290D01*
X47791518Y-48214526D01*
X47806458Y-48071735D01*
X47821706Y-47922942D01*
X47836649Y-47774171D01*
X47850677Y-47631447D01*
X47863177Y-47500793D01*
X47873539Y-47388233D01*
X47881151Y-47299792D01*
X47885402Y-47241493D01*
X47885718Y-47219410D01*
X47865138Y-47205408D01*
X47815123Y-47176484D01*
X47743806Y-47137232D01*
X47680863Y-47103589D01*
X47483183Y-46999161D01*
X47253180Y-46642147D01*
X47183816Y-46533231D01*
X47123864Y-46436693D01*
X47076605Y-46358016D01*
X47045320Y-46302685D01*
X47033288Y-46276187D01*
X47033482Y-46274829D01*
X47053540Y-46282616D01*
X47103515Y-46310332D01*
X47177922Y-46354690D01*
X47271276Y-46412406D01*
X47378093Y-46480196D01*
X47400422Y-46494566D01*
X47521636Y-46572982D01*
X47612880Y-46633340D01*
X47679781Y-46680495D01*
X47727964Y-46719302D01*
X47763057Y-46754617D01*
X47790686Y-46791293D01*
X47816476Y-46834186D01*
X47836750Y-46871062D01*
X47873538Y-46934871D01*
X47901609Y-46976353D01*
X47916333Y-46988928D01*
X47917470Y-46985767D01*
X47920685Y-46936829D01*
X47927807Y-46857055D01*
X47938093Y-46753014D01*
X47950801Y-46631273D01*
X47965186Y-46498402D01*
X47980505Y-46360970D01*
X47996016Y-46225545D01*
X48010975Y-46098695D01*
X48024638Y-45986990D01*
X48036263Y-45896998D01*
X48045106Y-45835288D01*
X48050424Y-45808428D01*
X48050748Y-45807896D01*
X48061977Y-45814207D01*
G36*
X50256356Y-23617880D02*
G01*
X50440269Y-23699143D01*
X50602434Y-23811083D01*
X50738246Y-23948856D01*
X50843102Y-24107621D01*
X50912396Y-24282532D01*
X50921155Y-24317161D01*
X50925564Y-24358193D01*
X50929527Y-24440292D01*
X50933027Y-24562194D01*
X50936050Y-24722633D01*
X50938578Y-24920346D01*
X50940594Y-25154069D01*
X50942084Y-25422537D01*
X50943030Y-25724485D01*
X50943416Y-26053563D01*
X50943933Y-27695609D01*
X51817058Y-27868585D01*
X52208231Y-27947469D01*
X52564265Y-28022455D01*
X52891969Y-28095321D01*
X53198156Y-28167848D01*
X53489635Y-28241816D01*
X53773217Y-28319004D01*
X54055714Y-28401192D01*
X54343937Y-28490160D01*
X54644695Y-28587688D01*
X54909658Y-28676730D01*
X55785828Y-28997372D01*
X56649070Y-29357818D01*
X57497513Y-29757008D01*
X58329284Y-30193882D01*
X59142512Y-30667378D01*
X59935324Y-31176437D01*
X60705849Y-31719999D01*
X61452214Y-32297004D01*
X61781267Y-32568605D01*
X62232971Y-32961350D01*
X62688226Y-33380739D01*
X63138939Y-33818643D01*
X63577016Y-34266936D01*
X63994361Y-34717490D01*
X64382881Y-35162178D01*
X64482135Y-35280600D01*
X64967677Y-35885860D01*
X65435372Y-36509631D01*
X65879062Y-37143228D01*
X66292590Y-37777967D01*
X66538363Y-38180433D01*
X66690312Y-38442962D01*
X66852871Y-38736180D01*
X67021542Y-39051231D01*
X67191825Y-39379260D01*
X67359218Y-39711411D01*
X67519222Y-40038830D01*
X67667337Y-40352660D01*
X67799063Y-40644046D01*
X67850629Y-40762767D01*
X68217433Y-41670055D01*
X68543001Y-42582432D01*
X68827741Y-43501671D01*
X69072064Y-44429545D01*
X69276380Y-45367829D01*
X69441097Y-46318297D01*
X69566625Y-47282722D01*
X69653374Y-48262878D01*
X69678314Y-48679100D01*
X69684206Y-48827857D01*
X69688546Y-49010581D01*
X69691390Y-49220503D01*
X69692795Y-49450854D01*
X69692818Y-49694865D01*
X69691516Y-49945769D01*
X69688945Y-50196795D01*
X69685162Y-50441176D01*
X69680224Y-50672142D01*
X69674189Y-50882925D01*
X69667113Y-51066756D01*
X69659053Y-51216866D01*
X69656707Y-51250850D01*
X69608003Y-51839415D01*
X69549990Y-52397529D01*
X69481173Y-52936346D01*
X69400059Y-53467020D01*
X69305154Y-54000705D01*
X69252241Y-54271283D01*
X69039662Y-55221805D01*
X68787098Y-56159702D01*
X68495143Y-57083762D01*
X68164391Y-57992772D01*
X67795438Y-58885522D01*
X67388876Y-59760798D01*
X66945302Y-60617389D01*
X66465309Y-61454082D01*
X65949493Y-62269666D01*
X65398447Y-63062928D01*
X64812766Y-63832656D01*
X64201906Y-64567439D01*
X63561705Y-65273122D01*
X62894392Y-65947263D01*
X62201154Y-66589244D01*
X61483177Y-67198448D01*
X60741648Y-67774258D01*
X59977753Y-68316057D01*
X59192678Y-68823228D01*
X58387611Y-69295153D01*
X57563738Y-69731215D01*
X56722244Y-70130798D01*
X55864318Y-70493284D01*
X54991144Y-70818056D01*
X54103909Y-71104497D01*
X53203801Y-71351989D01*
X52292004Y-71559916D01*
X51369707Y-71727661D01*
X50438095Y-71854606D01*
X50129017Y-71887420D01*
X49985628Y-71901291D01*
X49830419Y-71915834D01*
X49680056Y-71929516D01*
X49551209Y-71940802D01*
X49525767Y-71942948D01*
X49436444Y-71948506D01*
X49310374Y-71953616D01*
X49153142Y-71958238D01*
X48970330Y-71962335D01*
X48767524Y-71965865D01*
X48550307Y-71968791D01*
X48324264Y-71971073D01*
X48094979Y-71972673D01*
X47868037Y-71973551D01*
X47649020Y-71973668D01*
X47443514Y-71972985D01*
X47257102Y-71971462D01*
X47095369Y-71969062D01*
X46963900Y-71965744D01*
X46869350Y-71961538D01*
X45932751Y-71884676D01*
X45018388Y-71771916D01*
X44126002Y-71623226D01*
X43842517Y-71567537D01*
X42914970Y-71356987D01*
X42000895Y-71106447D01*
X41101172Y-70816341D01*
X40216677Y-70487096D01*
X39348290Y-70119139D01*
X38496889Y-69712893D01*
X37663352Y-69268787D01*
X36848557Y-68787245D01*
X36053384Y-68268692D01*
X35278709Y-67713556D01*
X34525412Y-67122262D01*
X34317517Y-66949502D01*
X33596138Y-66315002D01*
X32904593Y-65650712D01*
X32243518Y-64957492D01*
X31613547Y-64236202D01*
X31015315Y-63487703D01*
X30449457Y-62712855D01*
X29916608Y-61912520D01*
X29417403Y-61087558D01*
X28952477Y-60238829D01*
X28522465Y-59367194D01*
X28213324Y-58675768D01*
X27852303Y-57777565D01*
X27530671Y-56864927D01*
X27248649Y-55939482D01*
X27006460Y-55002859D01*
X26804324Y-54056687D01*
X26642463Y-53102594D01*
X26521100Y-52142210D01*
X26440455Y-51177163D01*
X26400750Y-50209082D01*
X26401923Y-49428959D01*
X28304834Y-49428959D01*
X28305549Y-49788736D01*
X28311300Y-50158249D01*
X28321940Y-50529443D01*
X28337322Y-50894261D01*
X28357301Y-51244649D01*
X28381729Y-51572550D01*
X28392689Y-51695350D01*
X28500226Y-52621504D01*
X28647569Y-53538887D01*
X28834112Y-54445978D01*
X29059249Y-55341258D01*
X29322372Y-56223205D01*
X29622874Y-57090300D01*
X29960151Y-57941023D01*
X30333593Y-58773853D01*
X30742596Y-59587271D01*
X31186553Y-60379756D01*
X31664855Y-61149789D01*
X32176899Y-61895848D01*
X32722075Y-62616415D01*
X32779879Y-62688866D01*
X33150498Y-63134288D01*
X33553210Y-63587283D01*
X33980558Y-64040341D01*
X34425079Y-64485950D01*
X34879316Y-64916601D01*
X35335807Y-65324780D01*
X35716755Y-65645782D01*
X36432472Y-66204151D01*
X37175885Y-66731556D01*
X37944150Y-67226349D01*
X38734426Y-67686886D01*
X39543869Y-68111521D01*
X40369637Y-68498607D01*
X41208889Y-68846499D01*
X41313100Y-68886575D01*
X42077638Y-69159785D01*
X42848488Y-69398359D01*
X43629589Y-69603139D01*
X44424882Y-69774966D01*
X45238305Y-69914681D01*
X46073797Y-70023127D01*
X46935299Y-70101146D01*
X47028100Y-70107653D01*
X47109751Y-70111202D01*
X47228021Y-70113521D01*
X47377217Y-70114696D01*
X47551644Y-70114809D01*
X47745609Y-70113945D01*
X47953418Y-70112187D01*
X48169377Y-70109619D01*
X48387792Y-70106326D01*
X48602970Y-70102391D01*
X48809216Y-70097898D01*
X49000837Y-70092930D01*
X49172140Y-70087573D01*
X49317429Y-70081909D01*
X49431012Y-70076022D01*
X49494017Y-70071323D01*
X49719365Y-70049879D01*
X49912964Y-70030407D01*
X50085278Y-70011704D01*
X50246770Y-69992567D01*
X50407905Y-69971794D01*
X50579148Y-69948180D01*
X50637017Y-69939939D01*
X51525027Y-69791381D01*
X52407365Y-69601285D01*
X53282316Y-69370258D01*
X54148166Y-69098909D01*
X55003201Y-68787848D01*
X55845707Y-68437682D01*
X56673971Y-68049021D01*
X57486278Y-67622473D01*
X58013600Y-67320034D01*
X58764196Y-66851171D01*
X59493081Y-66348702D01*
X60198316Y-65814427D01*
X60877961Y-65250147D01*
X61530076Y-64657662D01*
X62152722Y-64038772D01*
X62743960Y-63395278D01*
X63301849Y-62728980D01*
X63824451Y-62041678D01*
X64060583Y-61707183D01*
X64555595Y-60960097D01*
X65010368Y-60213911D01*
X65426727Y-59464736D01*
X65806493Y-58708684D01*
X66151491Y-57941868D01*
X66463544Y-57160398D01*
X66744475Y-56360389D01*
X66996107Y-55537950D01*
X67058357Y-55314850D01*
X67249083Y-54558664D01*
X67412607Y-53783127D01*
X67549557Y-52984537D01*
X67660563Y-52159193D01*
X67746255Y-51303393D01*
X67751484Y-51240267D01*
X67759255Y-51120337D01*
X67766225Y-50964306D01*
X67772342Y-50778400D01*
X67777554Y-50568843D01*
X67781808Y-50341861D01*
X67785052Y-50103681D01*
X67787235Y-49860526D01*
X67788302Y-49618623D01*
X67788204Y-49384197D01*
X67786886Y-49163474D01*
X67784297Y-48962679D01*
X67780384Y-48788038D01*
X67775096Y-48645776D01*
X67773530Y-48615600D01*
X67700496Y-47665764D01*
X67588205Y-46731279D01*
X67436699Y-45812306D01*
X67246019Y-44909009D01*
X67016209Y-44021552D01*
X66747311Y-43150096D01*
X66439368Y-42294806D01*
X66092421Y-41455845D01*
X65706514Y-40633375D01*
X65687927Y-40596142D01*
X65404600Y-40052248D01*
X65096865Y-39502463D01*
X64769322Y-38953881D01*
X64426568Y-38413597D01*
X64073204Y-37888707D01*
X63713829Y-37386306D01*
X63353042Y-36913488D01*
X63092957Y-36592933D01*
X62672404Y-36106416D01*
X62223173Y-35619384D01*
X61753634Y-35140150D01*
X61272156Y-34677024D01*
X60787110Y-34238318D01*
X60341933Y-33860983D01*
X59667925Y-33334531D01*
X58962351Y-32832634D01*
X58230008Y-32358165D01*
X57475692Y-31913999D01*
X56704198Y-31503012D01*
X55920323Y-31128077D01*
X55419993Y-30910718D01*
X55101803Y-30777894D01*
X54930011Y-30805230D01*
X54839603Y-30818635D01*
X54722633Y-30834581D01*
X54594621Y-30851013D01*
X54478157Y-30865058D01*
X54374364Y-30877532D01*
X54286905Y-30888862D01*
X54223756Y-30897953D01*
X54192890Y-30903711D01*
X54191201Y-30904443D01*
X54206077Y-30918905D01*
X54251135Y-30959744D01*
X54324685Y-31025475D01*
X54425039Y-31114610D01*
X54550510Y-31225663D01*
X54699408Y-31357146D01*
X54870045Y-31507573D01*
X55060733Y-31675457D01*
X55269783Y-31859312D01*
X55495507Y-32057650D01*
X55736217Y-32268984D01*
X55990224Y-32491828D01*
X56255840Y-32724696D01*
X56531377Y-32966099D01*
X56709902Y-33122426D01*
X56990613Y-33368345D01*
X57262281Y-33606662D01*
X57523231Y-33835894D01*
X57771786Y-34054555D01*
X58006273Y-34261162D01*
X58225016Y-34454230D01*
X58426341Y-34632276D01*
X58608572Y-34793815D01*
X58770034Y-34937363D01*
X58909053Y-35061436D01*
X59023953Y-35164550D01*
X59113059Y-35245221D01*
X59174697Y-35301965D01*
X59207191Y-35333297D01*
X59211922Y-35339327D01*
X59189549Y-35333364D01*
X59129207Y-35314634D01*
X59033059Y-35283853D01*
X58903265Y-35241734D01*
X58741988Y-35188994D01*
X58551388Y-35126346D01*
X58333626Y-35054505D01*
X58090865Y-34974186D01*
X57825266Y-34886104D01*
X57538990Y-34790973D01*
X57234198Y-34689509D01*
X56913052Y-34582424D01*
X56577713Y-34470436D01*
X56230342Y-34354257D01*
X56026904Y-34286139D01*
X55674287Y-34168165D01*
X55332844Y-34054211D01*
X55004706Y-33944974D01*
X54692003Y-33841152D01*
X54396864Y-33743443D01*
X54121419Y-33652546D01*
X53867798Y-33569157D01*
X53638130Y-33493975D01*
X53434546Y-33427698D01*
X53259174Y-33371023D01*
X53114146Y-33324648D01*
X53001590Y-33289271D01*
X52923636Y-33265591D01*
X52882415Y-33254304D01*
X52876188Y-33253745D01*
X52886136Y-33275654D01*
X52912880Y-33333893D01*
X52955452Y-33426367D01*
X53012885Y-33550978D01*
X53084210Y-33705631D01*
X53168461Y-33888230D01*
X53264669Y-34096679D01*
X53371867Y-34328882D01*
X53489087Y-34582742D01*
X53615362Y-34856164D01*
X53749725Y-35147051D01*
X53891207Y-35453308D01*
X54038841Y-35772837D01*
X54191659Y-36103544D01*
X54256422Y-36243683D01*
X54443861Y-36649246D01*
X54614341Y-37018100D01*
X54768650Y-37351973D01*
X54907573Y-37652592D01*
X55031896Y-37921684D01*
X55142405Y-38160976D01*
X55239886Y-38372195D01*
X55325125Y-38557068D01*
X55398908Y-38717322D01*
X55462021Y-38854684D01*
X55515249Y-38970881D01*
X55559380Y-39067640D01*
X55595198Y-39146689D01*
X55623491Y-39209754D01*
X55645043Y-39258562D01*
X55660641Y-39294841D01*
X55671070Y-39320317D01*
X55677118Y-39336718D01*
X55679568Y-39345770D01*
X55679209Y-39349201D01*
X55676825Y-39348737D01*
X55673203Y-39346106D01*
X55669128Y-39343035D01*
X55666209Y-39341467D01*
X55648765Y-39326694D01*
X55601949Y-39284982D01*
X55527591Y-39218004D01*
X55427521Y-39127430D01*
X55303569Y-39014934D01*
X55157564Y-38882186D01*
X54991337Y-38730859D01*
X54806718Y-38562624D01*
X54605535Y-38379153D01*
X54389621Y-38182119D01*
X54160803Y-37973192D01*
X53920912Y-37754045D01*
X53671779Y-37526349D01*
X53415232Y-37291777D01*
X53153103Y-37052000D01*
X52887220Y-36808689D01*
X52619414Y-36563518D01*
X52351515Y-36318157D01*
X52085352Y-36074278D01*
X51822756Y-35833554D01*
X51565556Y-35597656D01*
X51315582Y-35368255D01*
X51074665Y-35147025D01*
X50993954Y-35072874D01*
X50715892Y-34817378D01*
X50724443Y-35170697D01*
X50725822Y-35238172D01*
X50727663Y-35344863D01*
X50729923Y-35487655D01*
X50732559Y-35663433D01*
X50735529Y-35869082D01*
X50738789Y-36101488D01*
X50742297Y-36357536D01*
X50746009Y-36634112D01*
X50749883Y-36928100D01*
X50753876Y-37236387D01*
X50757944Y-37555856D01*
X50762045Y-37883394D01*
X50763886Y-38032267D01*
X50768054Y-38366348D01*
X50772275Y-38696372D01*
X50776501Y-39018968D01*
X50780683Y-39330765D01*
X50784772Y-39628394D01*
X50788721Y-39908482D01*
X50792480Y-40167659D01*
X50796001Y-40402554D01*
X50799237Y-40609798D01*
X50802138Y-40786018D01*
X50804656Y-40927845D01*
X50806743Y-41031907D01*
X50807370Y-41059100D01*
X50810789Y-41231610D01*
X50811876Y-41369466D01*
X50810659Y-41470872D01*
X50807164Y-41534032D01*
X50801421Y-41557149D01*
X50799688Y-41556517D01*
X50789127Y-41535047D01*
X50762644Y-41476828D01*
X50721157Y-41383949D01*
X50665579Y-41258502D01*
X50596827Y-41102578D01*
X50515817Y-40918267D01*
X50423464Y-40707661D01*
X50320683Y-40472851D01*
X50208390Y-40215927D01*
X50087502Y-39938981D01*
X49958932Y-39644104D01*
X49823598Y-39333386D01*
X49682414Y-39008919D01*
X49536296Y-38672793D01*
X49451144Y-38476767D01*
X49302846Y-38135297D01*
X49159165Y-37804486D01*
X49021002Y-37486407D01*
X48889260Y-37183134D01*
X48764838Y-36896742D01*
X48648640Y-36629306D01*
X48541566Y-36382900D01*
X48444519Y-36159598D01*
X48358399Y-35961475D01*
X48284108Y-35790604D01*
X48222547Y-35649061D01*
X48174619Y-35538921D01*
X48141224Y-35462256D01*
X48123264Y-35421142D01*
X48120275Y-35414402D01*
X48111786Y-35433069D01*
X48087524Y-35488535D01*
X48048397Y-35578691D01*
X47995313Y-35701428D01*
X47929179Y-35854637D01*
X47850903Y-36036208D01*
X47761394Y-36244033D01*
X47661560Y-36476002D01*
X47552307Y-36730006D01*
X47434545Y-37003936D01*
X47309181Y-37295683D01*
X47177123Y-37603138D01*
X47039280Y-37924191D01*
X46896558Y-38256734D01*
X46849180Y-38367152D01*
X46670959Y-38782545D01*
X46508685Y-39160769D01*
X46361604Y-39503556D01*
X46228964Y-39812640D01*
X46110012Y-40089751D01*
X46003995Y-40336622D01*
X45910161Y-40554985D01*
X45827757Y-40746572D01*
X45756031Y-40913116D01*
X45694229Y-41056347D01*
X45641599Y-41178000D01*
X45597388Y-41279804D01*
X45560843Y-41363493D01*
X45531212Y-41430799D01*
X45507742Y-41483453D01*
X45489681Y-41523189D01*
X45476275Y-41551737D01*
X45466772Y-41570831D01*
X45460419Y-41582201D01*
X45456463Y-41587581D01*
X45454152Y-41588702D01*
X45452734Y-41587296D01*
X45451454Y-41585096D01*
X45450998Y-41584554D01*
X45450093Y-41562656D01*
X45449590Y-41500694D01*
X45449473Y-41400936D01*
X45449730Y-41265649D01*
X45450347Y-41097101D01*
X45451308Y-40897559D01*
X45452601Y-40669291D01*
X45454211Y-40414565D01*
X45456124Y-40135647D01*
X45458326Y-39834805D01*
X45460803Y-39514308D01*
X45463541Y-39176421D01*
X45466526Y-38823414D01*
X45469743Y-38457553D01*
X45471684Y-38243268D01*
X45475043Y-37871113D01*
X45478205Y-37510540D01*
X45481154Y-37163815D01*
X45483875Y-36833202D01*
X45486352Y-36520967D01*
X45488570Y-36229376D01*
X45490512Y-35960693D01*
X45492164Y-35717185D01*
X45493509Y-35501117D01*
X45494533Y-35314754D01*
X45495219Y-35160361D01*
X45495552Y-35040205D01*
X45495516Y-34956550D01*
X45495097Y-34911662D01*
X45494676Y-34904288D01*
X45478584Y-34917578D01*
X45433105Y-34958124D01*
X45359896Y-35024403D01*
X45260615Y-35114888D01*
X45136919Y-35228056D01*
X44990465Y-35362381D01*
X44822912Y-35516339D01*
X44635916Y-35688405D01*
X44431134Y-35877055D01*
X44210225Y-36080763D01*
X43974845Y-36298005D01*
X43726653Y-36527257D01*
X43467305Y-36766994D01*
X43198458Y-37015690D01*
X43026986Y-37174402D01*
X42753043Y-37427891D01*
X42487530Y-37673333D01*
X42232109Y-37909207D01*
X41988437Y-38133989D01*
X41758174Y-38346158D01*
X41542980Y-38544189D01*
X41344514Y-38726561D01*
X41164436Y-38891751D01*
X41004405Y-39038235D01*
X40866079Y-39164492D01*
X40751120Y-39268998D01*
X40661186Y-39350230D01*
X40597936Y-39406667D01*
X40563030Y-39436785D01*
X40556347Y-39441570D01*
X40564187Y-39421984D01*
X40588422Y-39366373D01*
X40627916Y-39277244D01*
X40681533Y-39157102D01*
X40748138Y-39008455D01*
X40826594Y-38833810D01*
X40915765Y-38635674D01*
X41014515Y-38416554D01*
X41121709Y-38178956D01*
X41236210Y-37925387D01*
X41356882Y-37658355D01*
X41482589Y-37380366D01*
X41612196Y-37093927D01*
X41744566Y-36801546D01*
X41878563Y-36505728D01*
X42013051Y-36208981D01*
X42146895Y-35913812D01*
X42278958Y-35622728D01*
X42408104Y-35338235D01*
X42533197Y-35062841D01*
X42653102Y-34799052D01*
X42766682Y-34549376D01*
X42872801Y-34316318D01*
X42970323Y-34102387D01*
X43058113Y-33910089D01*
X43135034Y-33741930D01*
X43199950Y-33600419D01*
X43251726Y-33488061D01*
X43289224Y-33407364D01*
X43311310Y-33360834D01*
X43316144Y-33351299D01*
X43300899Y-33352082D01*
X43253717Y-33364942D01*
X43182475Y-33387563D01*
X43117474Y-33409721D01*
X43026474Y-33441328D01*
X42903148Y-33483826D01*
X42750118Y-33536328D01*
X42570008Y-33597945D01*
X42365441Y-33667789D01*
X42139040Y-33744970D01*
X41893427Y-33828602D01*
X41631227Y-33917794D01*
X41355061Y-34011660D01*
X41067554Y-34109310D01*
X40771328Y-34209856D01*
X40469006Y-34312410D01*
X40163212Y-34416083D01*
X39856568Y-34519987D01*
X39551698Y-34623233D01*
X39251224Y-34724934D01*
X38957770Y-34824199D01*
X38673959Y-34920142D01*
X38402414Y-35011874D01*
X38145758Y-35098506D01*
X37906613Y-35179150D01*
X37687604Y-35252917D01*
X37491353Y-35318919D01*
X37320483Y-35376268D01*
X37177618Y-35424075D01*
X37065380Y-35461452D01*
X36986392Y-35487510D01*
X36943278Y-35501361D01*
X36935719Y-35503441D01*
X36936027Y-35501285D01*
X36939909Y-35496125D01*
X36948673Y-35486795D01*
X36963630Y-35472132D01*
X36986087Y-35450970D01*
X37017354Y-35422144D01*
X37058740Y-35384490D01*
X37111554Y-35336843D01*
X37177106Y-35278038D01*
X37256704Y-35206911D01*
X37351658Y-35122296D01*
X37463277Y-35023029D01*
X37592869Y-34907945D01*
X37741745Y-34775879D01*
X37911212Y-34625667D01*
X38102581Y-34456143D01*
X38317160Y-34266143D01*
X38556259Y-34054503D01*
X38821186Y-33820057D01*
X39113251Y-33561640D01*
X39433763Y-33278088D01*
X39784030Y-32968237D01*
X39969017Y-32804602D01*
X40216220Y-32585863D01*
X40454540Y-32374849D01*
X40682062Y-32173262D01*
X40896874Y-31982801D01*
X41097063Y-31805167D01*
X41280716Y-31642062D01*
X41445920Y-31495184D01*
X41590763Y-31366236D01*
X41713332Y-31256918D01*
X41811713Y-31168929D01*
X41883994Y-31103972D01*
X41928262Y-31063746D01*
X41942622Y-31050003D01*
X41924693Y-31040669D01*
X41871635Y-31021820D01*
X41789111Y-30995249D01*
X41682786Y-30962752D01*
X41558324Y-30926123D01*
X41487539Y-30905817D01*
X41027350Y-30774952D01*
X40741600Y-30893102D01*
X40070908Y-31185670D01*
X39399593Y-31508258D01*
X38735764Y-31856389D01*
X38087531Y-32225588D01*
X37463003Y-32611377D01*
X36870289Y-33009280D01*
X36737370Y-33103435D01*
X36017046Y-33645001D01*
X35322206Y-34219827D01*
X34653842Y-34826645D01*
X34012949Y-35464184D01*
X33400519Y-36131176D01*
X32817546Y-36826349D01*
X32265023Y-37548436D01*
X31743944Y-38296166D01*
X31255301Y-39068271D01*
X30800088Y-39863479D01*
X30379298Y-40680523D01*
X29993925Y-41518131D01*
X29808959Y-41958683D01*
X29490557Y-42794616D01*
X29210037Y-43642721D01*
X28967007Y-44504733D01*
X28761075Y-45382388D01*
X28591850Y-46277421D01*
X28458938Y-47191566D01*
X28361950Y-48126559D01*
X28334368Y-48488600D01*
X28319097Y-48770835D01*
X28309302Y-49086974D01*
X28304834Y-49428959D01*
X26401923Y-49428959D01*
X26402208Y-49239595D01*
X26445050Y-48270331D01*
X26529496Y-47302920D01*
X26593507Y-46774100D01*
X26695680Y-46077950D01*
X26814207Y-45407114D01*
X26951517Y-44751107D01*
X27110042Y-44099443D01*
X27292212Y-43441636D01*
X27500458Y-42767199D01*
X27574794Y-42540767D01*
X27902044Y-41624257D01*
X28267760Y-40724974D01*
X28671340Y-39843971D01*
X29112181Y-38982299D01*
X29589679Y-38141011D01*
X30103232Y-37321160D01*
X30652237Y-36523799D01*
X31236092Y-35749978D01*
X31854193Y-35000752D01*
X31969685Y-34867850D01*
X32113011Y-34707785D01*
X32281450Y-34525664D01*
X32468744Y-34327854D01*
X32668635Y-34120726D01*
X32874864Y-33910647D01*
X33081175Y-33703986D01*
X33281309Y-33507113D01*
X33469009Y-33326395D01*
X33638016Y-33168203D01*
X33655191Y-33152455D01*
X34362776Y-32533164D01*
X35095826Y-31946033D01*
X35852674Y-31391937D01*
X36631649Y-30871750D01*
X37431085Y-30386347D01*
X38249312Y-29936603D01*
X39084661Y-29523392D01*
X39935464Y-29147590D01*
X40800052Y-28810071D01*
X41676757Y-28511710D01*
X42563910Y-28253382D01*
X43382887Y-28052941D01*
X43531357Y-28020621D01*
X43708750Y-27983201D01*
X43902360Y-27943289D01*
X44099483Y-27903490D01*
X44287416Y-27866411D01*
X44367137Y-27851013D01*
X44521544Y-27821391D01*
X44668072Y-27793203D01*
X44799797Y-27767788D01*
X44909796Y-27746483D01*
X44991143Y-27730627D01*
X45033142Y-27722321D01*
X45144267Y-27699932D01*
X45144267Y-26076046D01*
X45144362Y-25768451D01*
X45144685Y-25500280D01*
X45145288Y-25268624D01*
X45146227Y-25070575D01*
X45147555Y-24903223D01*
X45149326Y-24763660D01*
X45151594Y-24648978D01*
X45154412Y-24556266D01*
X45157836Y-24482617D01*
X45161919Y-24425122D01*
X45166714Y-24380872D01*
X45172277Y-24346958D01*
X45176713Y-24327590D01*
X45246321Y-24139150D01*
X45349780Y-23969598D01*
X45482350Y-23824003D01*
X45639289Y-23707432D01*
X45815857Y-23624951D01*
X45842142Y-23616328D01*
X45864809Y-23609819D01*
X45890201Y-23604061D01*
X45920939Y-23599006D01*
X45959640Y-23594604D01*
X46008924Y-23590804D01*
X46071409Y-23587557D01*
X46149714Y-23584813D01*
X46246458Y-23582523D01*
X46364260Y-23580637D01*
X46505738Y-23579104D01*
X46673512Y-23577876D01*
X46870199Y-23576902D01*
X47098419Y-23576132D01*
X47360790Y-23575518D01*
X47659932Y-23575009D01*
X47998462Y-23574555D01*
X48043432Y-23574500D01*
X50118426Y-23571979D01*
X50256356Y-23617880D01*
G37*
X50256356Y-23617880D02*
X50440269Y-23699143D01*
X50602434Y-23811083D01*
X50738246Y-23948856D01*
X50843102Y-24107621D01*
X50912396Y-24282532D01*
X50921155Y-24317161D01*
X50925564Y-24358193D01*
X50929527Y-24440292D01*
X50933027Y-24562194D01*
X50936050Y-24722633D01*
X50938578Y-24920346D01*
X50940594Y-25154069D01*
X50942084Y-25422537D01*
X50943030Y-25724485D01*
X50943416Y-26053563D01*
X50943933Y-27695609D01*
X51817058Y-27868585D01*
X52208231Y-27947469D01*
X52564265Y-28022455D01*
X52891969Y-28095321D01*
X53198156Y-28167848D01*
X53489635Y-28241816D01*
X53773217Y-28319004D01*
X54055714Y-28401192D01*
X54343937Y-28490160D01*
X54644695Y-28587688D01*
X54909658Y-28676730D01*
X55785828Y-28997372D01*
X56649070Y-29357818D01*
X57497513Y-29757008D01*
X58329284Y-30193882D01*
X59142512Y-30667378D01*
X59935324Y-31176437D01*
X60705849Y-31719999D01*
X61452214Y-32297004D01*
X61781267Y-32568605D01*
X62232971Y-32961350D01*
X62688226Y-33380739D01*
X63138939Y-33818643D01*
X63577016Y-34266936D01*
X63994361Y-34717490D01*
X64382881Y-35162178D01*
X64482135Y-35280600D01*
X64967677Y-35885860D01*
X65435372Y-36509631D01*
X65879062Y-37143228D01*
X66292590Y-37777967D01*
X66538363Y-38180433D01*
X66690312Y-38442962D01*
X66852871Y-38736180D01*
X67021542Y-39051231D01*
X67191825Y-39379260D01*
X67359218Y-39711411D01*
X67519222Y-40038830D01*
X67667337Y-40352660D01*
X67799063Y-40644046D01*
X67850629Y-40762767D01*
X68217433Y-41670055D01*
X68543001Y-42582432D01*
X68827741Y-43501671D01*
X69072064Y-44429545D01*
X69276380Y-45367829D01*
X69441097Y-46318297D01*
X69566625Y-47282722D01*
X69653374Y-48262878D01*
X69678314Y-48679100D01*
X69684206Y-48827857D01*
X69688546Y-49010581D01*
X69691390Y-49220503D01*
X69692795Y-49450854D01*
X69692818Y-49694865D01*
X69691516Y-49945769D01*
X69688945Y-50196795D01*
X69685162Y-50441176D01*
X69680224Y-50672142D01*
X69674189Y-50882925D01*
X69667113Y-51066756D01*
X69659053Y-51216866D01*
X69656707Y-51250850D01*
X69608003Y-51839415D01*
X69549990Y-52397529D01*
X69481173Y-52936346D01*
X69400059Y-53467020D01*
X69305154Y-54000705D01*
X69252241Y-54271283D01*
X69039662Y-55221805D01*
X68787098Y-56159702D01*
X68495143Y-57083762D01*
X68164391Y-57992772D01*
X67795438Y-58885522D01*
X67388876Y-59760798D01*
X66945302Y-60617389D01*
X66465309Y-61454082D01*
X65949493Y-62269666D01*
X65398447Y-63062928D01*
X64812766Y-63832656D01*
X64201906Y-64567439D01*
X63561705Y-65273122D01*
X62894392Y-65947263D01*
X62201154Y-66589244D01*
X61483177Y-67198448D01*
X60741648Y-67774258D01*
X59977753Y-68316057D01*
X59192678Y-68823228D01*
X58387611Y-69295153D01*
X57563738Y-69731215D01*
X56722244Y-70130798D01*
X55864318Y-70493284D01*
X54991144Y-70818056D01*
X54103909Y-71104497D01*
X53203801Y-71351989D01*
X52292004Y-71559916D01*
X51369707Y-71727661D01*
X50438095Y-71854606D01*
X50129017Y-71887420D01*
X49985628Y-71901291D01*
X49830419Y-71915834D01*
X49680056Y-71929516D01*
X49551209Y-71940802D01*
X49525767Y-71942948D01*
X49436444Y-71948506D01*
X49310374Y-71953616D01*
X49153142Y-71958238D01*
X48970330Y-71962335D01*
X48767524Y-71965865D01*
X48550307Y-71968791D01*
X48324264Y-71971073D01*
X48094979Y-71972673D01*
X47868037Y-71973551D01*
X47649020Y-71973668D01*
X47443514Y-71972985D01*
X47257102Y-71971462D01*
X47095369Y-71969062D01*
X46963900Y-71965744D01*
X46869350Y-71961538D01*
X45932751Y-71884676D01*
X45018388Y-71771916D01*
X44126002Y-71623226D01*
X43842517Y-71567537D01*
X42914970Y-71356987D01*
X42000895Y-71106447D01*
X41101172Y-70816341D01*
X40216677Y-70487096D01*
X39348290Y-70119139D01*
X38496889Y-69712893D01*
X37663352Y-69268787D01*
X36848557Y-68787245D01*
X36053384Y-68268692D01*
X35278709Y-67713556D01*
X34525412Y-67122262D01*
X34317517Y-66949502D01*
X33596138Y-66315002D01*
X32904593Y-65650712D01*
X32243518Y-64957492D01*
X31613547Y-64236202D01*
X31015315Y-63487703D01*
X30449457Y-62712855D01*
X29916608Y-61912520D01*
X29417403Y-61087558D01*
X28952477Y-60238829D01*
X28522465Y-59367194D01*
X28213324Y-58675768D01*
X27852303Y-57777565D01*
X27530671Y-56864927D01*
X27248649Y-55939482D01*
X27006460Y-55002859D01*
X26804324Y-54056687D01*
X26642463Y-53102594D01*
X26521100Y-52142210D01*
X26440455Y-51177163D01*
X26400750Y-50209082D01*
X26401923Y-49428959D01*
X28304834Y-49428959D01*
X28305549Y-49788736D01*
X28311300Y-50158249D01*
X28321940Y-50529443D01*
X28337322Y-50894261D01*
X28357301Y-51244649D01*
X28381729Y-51572550D01*
X28392689Y-51695350D01*
X28500226Y-52621504D01*
X28647569Y-53538887D01*
X28834112Y-54445978D01*
X29059249Y-55341258D01*
X29322372Y-56223205D01*
X29622874Y-57090300D01*
X29960151Y-57941023D01*
X30333593Y-58773853D01*
X30742596Y-59587271D01*
X31186553Y-60379756D01*
X31664855Y-61149789D01*
X32176899Y-61895848D01*
X32722075Y-62616415D01*
X32779879Y-62688866D01*
X33150498Y-63134288D01*
X33553210Y-63587283D01*
X33980558Y-64040341D01*
X34425079Y-64485950D01*
X34879316Y-64916601D01*
X35335807Y-65324780D01*
X35716755Y-65645782D01*
X36432472Y-66204151D01*
X37175885Y-66731556D01*
X37944150Y-67226349D01*
X38734426Y-67686886D01*
X39543869Y-68111521D01*
X40369637Y-68498607D01*
X41208889Y-68846499D01*
X41313100Y-68886575D01*
X42077638Y-69159785D01*
X42848488Y-69398359D01*
X43629589Y-69603139D01*
X44424882Y-69774966D01*
X45238305Y-69914681D01*
X46073797Y-70023127D01*
X46935299Y-70101146D01*
X47028100Y-70107653D01*
X47109751Y-70111202D01*
X47228021Y-70113521D01*
X47377217Y-70114696D01*
X47551644Y-70114809D01*
X47745609Y-70113945D01*
X47953418Y-70112187D01*
X48169377Y-70109619D01*
X48387792Y-70106326D01*
X48602970Y-70102391D01*
X48809216Y-70097898D01*
X49000837Y-70092930D01*
X49172140Y-70087573D01*
X49317429Y-70081909D01*
X49431012Y-70076022D01*
X49494017Y-70071323D01*
X49719365Y-70049879D01*
X49912964Y-70030407D01*
X50085278Y-70011704D01*
X50246770Y-69992567D01*
X50407905Y-69971794D01*
X50579148Y-69948180D01*
X50637017Y-69939939D01*
X51525027Y-69791381D01*
X52407365Y-69601285D01*
X53282316Y-69370258D01*
X54148166Y-69098909D01*
X55003201Y-68787848D01*
X55845707Y-68437682D01*
X56673971Y-68049021D01*
X57486278Y-67622473D01*
X58013600Y-67320034D01*
X58764196Y-66851171D01*
X59493081Y-66348702D01*
X60198316Y-65814427D01*
X60877961Y-65250147D01*
X61530076Y-64657662D01*
X62152722Y-64038772D01*
X62743960Y-63395278D01*
X63301849Y-62728980D01*
X63824451Y-62041678D01*
X64060583Y-61707183D01*
X64555595Y-60960097D01*
X65010368Y-60213911D01*
X65426727Y-59464736D01*
X65806493Y-58708684D01*
X66151491Y-57941868D01*
X66463544Y-57160398D01*
X66744475Y-56360389D01*
X66996107Y-55537950D01*
X67058357Y-55314850D01*
X67249083Y-54558664D01*
X67412607Y-53783127D01*
X67549557Y-52984537D01*
X67660563Y-52159193D01*
X67746255Y-51303393D01*
X67751484Y-51240267D01*
X67759255Y-51120337D01*
X67766225Y-50964306D01*
X67772342Y-50778400D01*
X67777554Y-50568843D01*
X67781808Y-50341861D01*
X67785052Y-50103681D01*
X67787235Y-49860526D01*
X67788302Y-49618623D01*
X67788204Y-49384197D01*
X67786886Y-49163474D01*
X67784297Y-48962679D01*
X67780384Y-48788038D01*
X67775096Y-48645776D01*
X67773530Y-48615600D01*
X67700496Y-47665764D01*
X67588205Y-46731279D01*
X67436699Y-45812306D01*
X67246019Y-44909009D01*
X67016209Y-44021552D01*
X66747311Y-43150096D01*
X66439368Y-42294806D01*
X66092421Y-41455845D01*
X65706514Y-40633375D01*
X65687927Y-40596142D01*
X65404600Y-40052248D01*
X65096865Y-39502463D01*
X64769322Y-38953881D01*
X64426568Y-38413597D01*
X64073204Y-37888707D01*
X63713829Y-37386306D01*
X63353042Y-36913488D01*
X63092957Y-36592933D01*
X62672404Y-36106416D01*
X62223173Y-35619384D01*
X61753634Y-35140150D01*
X61272156Y-34677024D01*
X60787110Y-34238318D01*
X60341933Y-33860983D01*
X59667925Y-33334531D01*
X58962351Y-32832634D01*
X58230008Y-32358165D01*
X57475692Y-31913999D01*
X56704198Y-31503012D01*
X55920323Y-31128077D01*
X55419993Y-30910718D01*
X55101803Y-30777894D01*
X54930011Y-30805230D01*
X54839603Y-30818635D01*
X54722633Y-30834581D01*
X54594621Y-30851013D01*
X54478157Y-30865058D01*
X54374364Y-30877532D01*
X54286905Y-30888862D01*
X54223756Y-30897953D01*
X54192890Y-30903711D01*
X54191201Y-30904443D01*
X54206077Y-30918905D01*
X54251135Y-30959744D01*
X54324685Y-31025475D01*
X54425039Y-31114610D01*
X54550510Y-31225663D01*
X54699408Y-31357146D01*
X54870045Y-31507573D01*
X55060733Y-31675457D01*
X55269783Y-31859312D01*
X55495507Y-32057650D01*
X55736217Y-32268984D01*
X55990224Y-32491828D01*
X56255840Y-32724696D01*
X56531377Y-32966099D01*
X56709902Y-33122426D01*
X56990613Y-33368345D01*
X57262281Y-33606662D01*
X57523231Y-33835894D01*
X57771786Y-34054555D01*
X58006273Y-34261162D01*
X58225016Y-34454230D01*
X58426341Y-34632276D01*
X58608572Y-34793815D01*
X58770034Y-34937363D01*
X58909053Y-35061436D01*
X59023953Y-35164550D01*
X59113059Y-35245221D01*
X59174697Y-35301965D01*
X59207191Y-35333297D01*
X59211922Y-35339327D01*
X59189549Y-35333364D01*
X59129207Y-35314634D01*
X59033059Y-35283853D01*
X58903265Y-35241734D01*
X58741988Y-35188994D01*
X58551388Y-35126346D01*
X58333626Y-35054505D01*
X58090865Y-34974186D01*
X57825266Y-34886104D01*
X57538990Y-34790973D01*
X57234198Y-34689509D01*
X56913052Y-34582424D01*
X56577713Y-34470436D01*
X56230342Y-34354257D01*
X56026904Y-34286139D01*
X55674287Y-34168165D01*
X55332844Y-34054211D01*
X55004706Y-33944974D01*
X54692003Y-33841152D01*
X54396864Y-33743443D01*
X54121419Y-33652546D01*
X53867798Y-33569157D01*
X53638130Y-33493975D01*
X53434546Y-33427698D01*
X53259174Y-33371023D01*
X53114146Y-33324648D01*
X53001590Y-33289271D01*
X52923636Y-33265591D01*
X52882415Y-33254304D01*
X52876188Y-33253745D01*
X52886136Y-33275654D01*
X52912880Y-33333893D01*
X52955452Y-33426367D01*
X53012885Y-33550978D01*
X53084210Y-33705631D01*
X53168461Y-33888230D01*
X53264669Y-34096679D01*
X53371867Y-34328882D01*
X53489087Y-34582742D01*
X53615362Y-34856164D01*
X53749725Y-35147051D01*
X53891207Y-35453308D01*
X54038841Y-35772837D01*
X54191659Y-36103544D01*
X54256422Y-36243683D01*
X54443861Y-36649246D01*
X54614341Y-37018100D01*
X54768650Y-37351973D01*
X54907573Y-37652592D01*
X55031896Y-37921684D01*
X55142405Y-38160976D01*
X55239886Y-38372195D01*
X55325125Y-38557068D01*
X55398908Y-38717322D01*
X55462021Y-38854684D01*
X55515249Y-38970881D01*
X55559380Y-39067640D01*
X55595198Y-39146689D01*
X55623491Y-39209754D01*
X55645043Y-39258562D01*
X55660641Y-39294841D01*
X55671070Y-39320317D01*
X55677118Y-39336718D01*
X55679568Y-39345770D01*
X55679209Y-39349201D01*
X55676825Y-39348737D01*
X55673203Y-39346106D01*
X55669128Y-39343035D01*
X55666209Y-39341467D01*
X55648765Y-39326694D01*
X55601949Y-39284982D01*
X55527591Y-39218004D01*
X55427521Y-39127430D01*
X55303569Y-39014934D01*
X55157564Y-38882186D01*
X54991337Y-38730859D01*
X54806718Y-38562624D01*
X54605535Y-38379153D01*
X54389621Y-38182119D01*
X54160803Y-37973192D01*
X53920912Y-37754045D01*
X53671779Y-37526349D01*
X53415232Y-37291777D01*
X53153103Y-37052000D01*
X52887220Y-36808689D01*
X52619414Y-36563518D01*
X52351515Y-36318157D01*
X52085352Y-36074278D01*
X51822756Y-35833554D01*
X51565556Y-35597656D01*
X51315582Y-35368255D01*
X51074665Y-35147025D01*
X50993954Y-35072874D01*
X50715892Y-34817378D01*
X50724443Y-35170697D01*
X50725822Y-35238172D01*
X50727663Y-35344863D01*
X50729923Y-35487655D01*
X50732559Y-35663433D01*
X50735529Y-35869082D01*
X50738789Y-36101488D01*
X50742297Y-36357536D01*
X50746009Y-36634112D01*
X50749883Y-36928100D01*
X50753876Y-37236387D01*
X50757944Y-37555856D01*
X50762045Y-37883394D01*
X50763886Y-38032267D01*
X50768054Y-38366348D01*
X50772275Y-38696372D01*
X50776501Y-39018968D01*
X50780683Y-39330765D01*
X50784772Y-39628394D01*
X50788721Y-39908482D01*
X50792480Y-40167659D01*
X50796001Y-40402554D01*
X50799237Y-40609798D01*
X50802138Y-40786018D01*
X50804656Y-40927845D01*
X50806743Y-41031907D01*
X50807370Y-41059100D01*
X50810789Y-41231610D01*
X50811876Y-41369466D01*
X50810659Y-41470872D01*
X50807164Y-41534032D01*
X50801421Y-41557149D01*
X50799688Y-41556517D01*
X50789127Y-41535047D01*
X50762644Y-41476828D01*
X50721157Y-41383949D01*
X50665579Y-41258502D01*
X50596827Y-41102578D01*
X50515817Y-40918267D01*
X50423464Y-40707661D01*
X50320683Y-40472851D01*
X50208390Y-40215927D01*
X50087502Y-39938981D01*
X49958932Y-39644104D01*
X49823598Y-39333386D01*
X49682414Y-39008919D01*
X49536296Y-38672793D01*
X49451144Y-38476767D01*
X49302846Y-38135297D01*
X49159165Y-37804486D01*
X49021002Y-37486407D01*
X48889260Y-37183134D01*
X48764838Y-36896742D01*
X48648640Y-36629306D01*
X48541566Y-36382900D01*
X48444519Y-36159598D01*
X48358399Y-35961475D01*
X48284108Y-35790604D01*
X48222547Y-35649061D01*
X48174619Y-35538921D01*
X48141224Y-35462256D01*
X48123264Y-35421142D01*
X48120275Y-35414402D01*
X48111786Y-35433069D01*
X48087524Y-35488535D01*
X48048397Y-35578691D01*
X47995313Y-35701428D01*
X47929179Y-35854637D01*
X47850903Y-36036208D01*
X47761394Y-36244033D01*
X47661560Y-36476002D01*
X47552307Y-36730006D01*
X47434545Y-37003936D01*
X47309181Y-37295683D01*
X47177123Y-37603138D01*
X47039280Y-37924191D01*
X46896558Y-38256734D01*
X46849180Y-38367152D01*
X46670959Y-38782545D01*
X46508685Y-39160769D01*
X46361604Y-39503556D01*
X46228964Y-39812640D01*
X46110012Y-40089751D01*
X46003995Y-40336622D01*
X45910161Y-40554985D01*
X45827757Y-40746572D01*
X45756031Y-40913116D01*
X45694229Y-41056347D01*
X45641599Y-41178000D01*
X45597388Y-41279804D01*
X45560843Y-41363493D01*
X45531212Y-41430799D01*
X45507742Y-41483453D01*
X45489681Y-41523189D01*
X45476275Y-41551737D01*
X45466772Y-41570831D01*
X45460419Y-41582201D01*
X45456463Y-41587581D01*
X45454152Y-41588702D01*
X45452734Y-41587296D01*
X45451454Y-41585096D01*
X45450998Y-41584554D01*
X45450093Y-41562656D01*
X45449590Y-41500694D01*
X45449473Y-41400936D01*
X45449730Y-41265649D01*
X45450347Y-41097101D01*
X45451308Y-40897559D01*
X45452601Y-40669291D01*
X45454211Y-40414565D01*
X45456124Y-40135647D01*
X45458326Y-39834805D01*
X45460803Y-39514308D01*
X45463541Y-39176421D01*
X45466526Y-38823414D01*
X45469743Y-38457553D01*
X45471684Y-38243268D01*
X45475043Y-37871113D01*
X45478205Y-37510540D01*
X45481154Y-37163815D01*
X45483875Y-36833202D01*
X45486352Y-36520967D01*
X45488570Y-36229376D01*
X45490512Y-35960693D01*
X45492164Y-35717185D01*
X45493509Y-35501117D01*
X45494533Y-35314754D01*
X45495219Y-35160361D01*
X45495552Y-35040205D01*
X45495516Y-34956550D01*
X45495097Y-34911662D01*
X45494676Y-34904288D01*
X45478584Y-34917578D01*
X45433105Y-34958124D01*
X45359896Y-35024403D01*
X45260615Y-35114888D01*
X45136919Y-35228056D01*
X44990465Y-35362381D01*
X44822912Y-35516339D01*
X44635916Y-35688405D01*
X44431134Y-35877055D01*
X44210225Y-36080763D01*
X43974845Y-36298005D01*
X43726653Y-36527257D01*
X43467305Y-36766994D01*
X43198458Y-37015690D01*
X43026986Y-37174402D01*
X42753043Y-37427891D01*
X42487530Y-37673333D01*
X42232109Y-37909207D01*
X41988437Y-38133989D01*
X41758174Y-38346158D01*
X41542980Y-38544189D01*
X41344514Y-38726561D01*
X41164436Y-38891751D01*
X41004405Y-39038235D01*
X40866079Y-39164492D01*
X40751120Y-39268998D01*
X40661186Y-39350230D01*
X40597936Y-39406667D01*
X40563030Y-39436785D01*
X40556347Y-39441570D01*
X40564187Y-39421984D01*
X40588422Y-39366373D01*
X40627916Y-39277244D01*
X40681533Y-39157102D01*
X40748138Y-39008455D01*
X40826594Y-38833810D01*
X40915765Y-38635674D01*
X41014515Y-38416554D01*
X41121709Y-38178956D01*
X41236210Y-37925387D01*
X41356882Y-37658355D01*
X41482589Y-37380366D01*
X41612196Y-37093927D01*
X41744566Y-36801546D01*
X41878563Y-36505728D01*
X42013051Y-36208981D01*
X42146895Y-35913812D01*
X42278958Y-35622728D01*
X42408104Y-35338235D01*
X42533197Y-35062841D01*
X42653102Y-34799052D01*
X42766682Y-34549376D01*
X42872801Y-34316318D01*
X42970323Y-34102387D01*
X43058113Y-33910089D01*
X43135034Y-33741930D01*
X43199950Y-33600419D01*
X43251726Y-33488061D01*
X43289224Y-33407364D01*
X43311310Y-33360834D01*
X43316144Y-33351299D01*
X43300899Y-33352082D01*
X43253717Y-33364942D01*
X43182475Y-33387563D01*
X43117474Y-33409721D01*
X43026474Y-33441328D01*
X42903148Y-33483826D01*
X42750118Y-33536328D01*
X42570008Y-33597945D01*
X42365441Y-33667789D01*
X42139040Y-33744970D01*
X41893427Y-33828602D01*
X41631227Y-33917794D01*
X41355061Y-34011660D01*
X41067554Y-34109310D01*
X40771328Y-34209856D01*
X40469006Y-34312410D01*
X40163212Y-34416083D01*
X39856568Y-34519987D01*
X39551698Y-34623233D01*
X39251224Y-34724934D01*
X38957770Y-34824199D01*
X38673959Y-34920142D01*
X38402414Y-35011874D01*
X38145758Y-35098506D01*
X37906613Y-35179150D01*
X37687604Y-35252917D01*
X37491353Y-35318919D01*
X37320483Y-35376268D01*
X37177618Y-35424075D01*
X37065380Y-35461452D01*
X36986392Y-35487510D01*
X36943278Y-35501361D01*
X36935719Y-35503441D01*
X36936027Y-35501285D01*
X36939909Y-35496125D01*
X36948673Y-35486795D01*
X36963630Y-35472132D01*
X36986087Y-35450970D01*
X37017354Y-35422144D01*
X37058740Y-35384490D01*
X37111554Y-35336843D01*
X37177106Y-35278038D01*
X37256704Y-35206911D01*
X37351658Y-35122296D01*
X37463277Y-35023029D01*
X37592869Y-34907945D01*
X37741745Y-34775879D01*
X37911212Y-34625667D01*
X38102581Y-34456143D01*
X38317160Y-34266143D01*
X38556259Y-34054503D01*
X38821186Y-33820057D01*
X39113251Y-33561640D01*
X39433763Y-33278088D01*
X39784030Y-32968237D01*
X39969017Y-32804602D01*
X40216220Y-32585863D01*
X40454540Y-32374849D01*
X40682062Y-32173262D01*
X40896874Y-31982801D01*
X41097063Y-31805167D01*
X41280716Y-31642062D01*
X41445920Y-31495184D01*
X41590763Y-31366236D01*
X41713332Y-31256918D01*
X41811713Y-31168929D01*
X41883994Y-31103972D01*
X41928262Y-31063746D01*
X41942622Y-31050003D01*
X41924693Y-31040669D01*
X41871635Y-31021820D01*
X41789111Y-30995249D01*
X41682786Y-30962752D01*
X41558324Y-30926123D01*
X41487539Y-30905817D01*
X41027350Y-30774952D01*
X40741600Y-30893102D01*
X40070908Y-31185670D01*
X39399593Y-31508258D01*
X38735764Y-31856389D01*
X38087531Y-32225588D01*
X37463003Y-32611377D01*
X36870289Y-33009280D01*
X36737370Y-33103435D01*
X36017046Y-33645001D01*
X35322206Y-34219827D01*
X34653842Y-34826645D01*
X34012949Y-35464184D01*
X33400519Y-36131176D01*
X32817546Y-36826349D01*
X32265023Y-37548436D01*
X31743944Y-38296166D01*
X31255301Y-39068271D01*
X30800088Y-39863479D01*
X30379298Y-40680523D01*
X29993925Y-41518131D01*
X29808959Y-41958683D01*
X29490557Y-42794616D01*
X29210037Y-43642721D01*
X28967007Y-44504733D01*
X28761075Y-45382388D01*
X28591850Y-46277421D01*
X28458938Y-47191566D01*
X28361950Y-48126559D01*
X28334368Y-48488600D01*
X28319097Y-48770835D01*
X28309302Y-49086974D01*
X28304834Y-49428959D01*
X26401923Y-49428959D01*
X26402208Y-49239595D01*
X26445050Y-48270331D01*
X26529496Y-47302920D01*
X26593507Y-46774100D01*
X26695680Y-46077950D01*
X26814207Y-45407114D01*
X26951517Y-44751107D01*
X27110042Y-44099443D01*
X27292212Y-43441636D01*
X27500458Y-42767199D01*
X27574794Y-42540767D01*
X27902044Y-41624257D01*
X28267760Y-40724974D01*
X28671340Y-39843971D01*
X29112181Y-38982299D01*
X29589679Y-38141011D01*
X30103232Y-37321160D01*
X30652237Y-36523799D01*
X31236092Y-35749978D01*
X31854193Y-35000752D01*
X31969685Y-34867850D01*
X32113011Y-34707785D01*
X32281450Y-34525664D01*
X32468744Y-34327854D01*
X32668635Y-34120726D01*
X32874864Y-33910647D01*
X33081175Y-33703986D01*
X33281309Y-33507113D01*
X33469009Y-33326395D01*
X33638016Y-33168203D01*
X33655191Y-33152455D01*
X34362776Y-32533164D01*
X35095826Y-31946033D01*
X35852674Y-31391937D01*
X36631649Y-30871750D01*
X37431085Y-30386347D01*
X38249312Y-29936603D01*
X39084661Y-29523392D01*
X39935464Y-29147590D01*
X40800052Y-28810071D01*
X41676757Y-28511710D01*
X42563910Y-28253382D01*
X43382887Y-28052941D01*
X43531357Y-28020621D01*
X43708750Y-27983201D01*
X43902360Y-27943289D01*
X44099483Y-27903490D01*
X44287416Y-27866411D01*
X44367137Y-27851013D01*
X44521544Y-27821391D01*
X44668072Y-27793203D01*
X44799797Y-27767788D01*
X44909796Y-27746483D01*
X44991143Y-27730627D01*
X45033142Y-27722321D01*
X45144267Y-27699932D01*
X45144267Y-26076046D01*
X45144362Y-25768451D01*
X45144685Y-25500280D01*
X45145288Y-25268624D01*
X45146227Y-25070575D01*
X45147555Y-24903223D01*
X45149326Y-24763660D01*
X45151594Y-24648978D01*
X45154412Y-24556266D01*
X45157836Y-24482617D01*
X45161919Y-24425122D01*
X45166714Y-24380872D01*
X45172277Y-24346958D01*
X45176713Y-24327590D01*
X45246321Y-24139150D01*
X45349780Y-23969598D01*
X45482350Y-23824003D01*
X45639289Y-23707432D01*
X45815857Y-23624951D01*
X45842142Y-23616328D01*
X45864809Y-23609819D01*
X45890201Y-23604061D01*
X45920939Y-23599006D01*
X45959640Y-23594604D01*
X46008924Y-23590804D01*
X46071409Y-23587557D01*
X46149714Y-23584813D01*
X46246458Y-23582523D01*
X46364260Y-23580637D01*
X46505738Y-23579104D01*
X46673512Y-23577876D01*
X46870199Y-23576902D01*
X47098419Y-23576132D01*
X47360790Y-23575518D01*
X47659932Y-23575009D01*
X47998462Y-23574555D01*
X48043432Y-23574500D01*
X50118426Y-23571979D01*
X50256356Y-23617880D01*
%TD*%
D11*
%TO.P,D1,1*%
%TO.N,Net-(D1-Pad1)*%
X46634400Y-65633600D03*
D12*
%TO.P,D1,2*%
%TO.N,Net-(D1-Pad2)*%
X49174400Y-65633600D03*
%TD*%
%TO.P,R1,2*%
%TO.N,Net-(R1-Pad2)*%
%TA.AperFunction,ComponentPad*%
G36*
G01*
X34667232Y-38367935D02*
X34667232Y-38367935D01*
G75*
G02*
X33950025Y-36829880I410424J1127631D01*
G01*
X33950025Y-36829880D01*
G75*
G02*
X35488080Y-36112673I1127631J-410424D01*
G01*
X35488080Y-36112673D01*
G75*
G02*
X36205287Y-37650728I-410424J-1127631D01*
G01*
X36205287Y-37650728D01*
G75*
G02*
X34667232Y-38367935I-1127631J410424D01*
G01*
G37*
%TD.AperFunction*%
D13*
%TO.P,R1,1*%
%TO.N,Net-(R1-Pad1)*%
X30734000Y-49174400D03*
%TD*%
%TO.P,R2,2*%
%TO.N,Net-(R1-Pad2)*%
%TA.AperFunction,ComponentPad*%
G36*
G01*
X38603976Y-39786431D02*
X38603976Y-39786431D01*
G75*
G02*
X37886769Y-38248376I410424J1127631D01*
G01*
X37886769Y-38248376D01*
G75*
G02*
X39424824Y-37531169I1127631J-410424D01*
G01*
X39424824Y-37531169D01*
G75*
G02*
X40142031Y-39069224I-410424J-1127631D01*
G01*
X40142031Y-39069224D01*
G75*
G02*
X38603976Y-39786431I-1127631J410424D01*
G01*
G37*
%TD.AperFunction*%
%TO.P,R2,1*%
%TO.N,Net-(D1-Pad1)*%
X34670744Y-50592896D03*
%TD*%
%TO.P,R3,1*%
%TO.N,Net-(D1-Pad1)*%
X37490400Y-64440123D03*
%TO.P,R3,2*%
%TO.N,Net-(R1-Pad1)*%
%TA.AperFunction,ComponentPad*%
G36*
G01*
X31740400Y-54480830D02*
X31740400Y-54480830D01*
G75*
G02*
X30101170Y-54041600I-600000J1039230D01*
G01*
X30101170Y-54041600D01*
G75*
G02*
X30540400Y-52402370I1039230J600000D01*
G01*
X30540400Y-52402370D01*
G75*
G02*
X32179630Y-52841600I600000J-1039230D01*
G01*
X32179630Y-52841600D01*
G75*
G02*
X31740400Y-54480830I-1039230J-600000D01*
G01*
G37*
%TD.AperFunction*%
%TD*%
%TO.P,R4,1*%
%TO.N,Net-(R4-Pad1)*%
X62280800Y-51054000D03*
%TO.P,R4,2*%
%TO.N,Net-(R4-Pad2)*%
%TA.AperFunction,ComponentPad*%
G36*
G01*
X58347568Y-40247535D02*
X58347568Y-40247535D01*
G75*
G02*
X56809513Y-39530328I-410424J1127631D01*
G01*
X56809513Y-39530328D01*
G75*
G02*
X57526720Y-37992273I1127631J410424D01*
G01*
X57526720Y-37992273D01*
G75*
G02*
X59064775Y-38709480I410424J-1127631D01*
G01*
X59064775Y-38709480D01*
G75*
G02*
X58347568Y-40247535I-1127631J-410424D01*
G01*
G37*
%TD.AperFunction*%
%TD*%
%TO.P,R5,2*%
%TO.N,Net-(R4-Pad2)*%
%TA.AperFunction,ComponentPad*%
G36*
G01*
X62259168Y-38875935D02*
X62259168Y-38875935D01*
G75*
G02*
X60721113Y-38158728I-410424J1127631D01*
G01*
X60721113Y-38158728D01*
G75*
G02*
X61438320Y-36620673I1127631J410424D01*
G01*
X61438320Y-36620673D01*
G75*
G02*
X62976375Y-37337880I410424J-1127631D01*
G01*
X62976375Y-37337880D01*
G75*
G02*
X62259168Y-38875935I-1127631J-410424D01*
G01*
G37*
%TD.AperFunction*%
%TO.P,R5,1*%
%TO.N,Net-(R4-Pad1)*%
X66192400Y-49682400D03*
%TD*%
%TO.P,R6,1*%
%TO.N,Net-(D1-Pad2)*%
X54610000Y-64109600D03*
%TO.P,R6,2*%
%TO.N,Net-(R4-Pad1)*%
%TA.AperFunction,ComponentPad*%
G36*
G01*
X62002058Y-55300089D02*
X62002058Y-55300089D01*
G75*
G02*
X61854150Y-53609491I771345J919253D01*
G01*
X61854150Y-53609491D01*
G75*
G02*
X63544748Y-53461583I919253J-771345D01*
G01*
X63544748Y-53461583D01*
G75*
G02*
X63692656Y-55152181I-771345J-919253D01*
G01*
X63692656Y-55152181D01*
G75*
G02*
X62002058Y-55300089I-919253J771345D01*
G01*
G37*
%TD.AperFunction*%
%TD*%
D14*
%TO.P,S1,3*%
%TO.N,Net-(R4-Pad2)*%
X50596800Y-43891200D03*
%TO.P,S1,2*%
X48056800Y-43891200D03*
%TO.P,S1,1*%
%TO.N,Net-(S1-Pad1)*%
X45516800Y-43891200D03*
%TD*%
%TA.AperFunction,ComponentPad*%
D15*
%TO.P, ,1*%
%TO.N,Net-(R1-Pad1)*%
G36*
X35803575Y-56992025D02*
G01*
X34803575Y-55259975D01*
X36535625Y-54259975D01*
X37535625Y-55992025D01*
X35803575Y-56992025D01*
G37*
%TD.AperFunction*%
%TD*%
%TA.AperFunction,ComponentPad*%
%TO.P, ,1*%
%TO.N,Net-(D1-Pad1)*%
G36*
X37073575Y-59176425D02*
G01*
X36073575Y-57444375D01*
X37805625Y-56444375D01*
X38805625Y-58176425D01*
X37073575Y-59176425D01*
G37*
%TD.AperFunction*%
%TD*%
%TA.AperFunction,ComponentPad*%
%TO.P, ,1*%
%TO.N,Net-(R4-Pad2)*%
G36*
X55993528Y-46392113D02*
G01*
X55309487Y-44512728D01*
X57188872Y-43828687D01*
X57872913Y-45708072D01*
X55993528Y-46392113D01*
G37*
%TD.AperFunction*%
%TD*%
%TA.AperFunction,ComponentPad*%
%TO.P, ,1*%
%TO.N,Net-(R4-Pad1)*%
G36*
X56857128Y-48779713D02*
G01*
X56173087Y-46900328D01*
X58052472Y-46216287D01*
X58736513Y-48095672D01*
X56857128Y-48779713D01*
G37*
%TD.AperFunction*%
%TD*%
M02*
