M48
; DRILL file {KiCad 5.1.10} date Sat Oct 23 16:34:32 2021
; FORMAT={-:-/ absolute / inch / decimal}
; #@! TF.CreationDate,2021-10-23T16:34:32+02:00
; #@! TF.GenerationSoftware,Kicad,Pcbnew,5.1.10
; #@! TF.FileFunction,Plated,1,2,PTH
FMAT,2
INCH
T1C0.0354
T2C0.0394
T3C0.0472
%
G90
G05
T1
X1.836Y-2.584
X1.936Y-2.584
T2
X1.424Y-2.19
X1.474Y-2.276
X1.792Y-1.728
X1.892Y-1.728
X1.992Y-1.728
X2.228Y-1.776
X2.262Y-1.87
T3
X1.21Y-1.936
X1.226Y-2.104
X1.365Y-1.9918
X1.381Y-1.4662
X1.476Y-2.537
X1.536Y-1.522
X2.15Y-2.524
X2.281Y-1.5402
X2.435Y-1.4862
X2.452Y-2.01
X2.4714Y-2.141
X2.606Y-1.956
T0
M30
