%TF.GenerationSoftware,KiCad,Pcbnew,5.1.10*%
%TF.CreationDate,2021-10-23T16:34:25+02:00*%
%TF.ProjectId,xmas-badge,786d6173-2d62-4616-9467-652e6b696361,rev?*%
%TF.SameCoordinates,Original*%
%TF.FileFunction,Legend,Top*%
%TF.FilePolarity,Positive*%
%FSLAX46Y46*%
G04 Gerber Fmt 4.6, Leading zero omitted, Abs format (unit mm)*
G04 Created by KiCad (PCBNEW 5.1.10) date 2021-10-23 16:34:25*
%MOMM*%
%LPD*%
G01*
G04 APERTURE LIST*
%ADD10C,0.010000*%
%ADD11C,0.150000*%
G04 APERTURE END LIST*
D10*
%TO.C,G\u002A\u002A\u002A*%
G36*
X41107816Y-30698707D02*
G01*
X41241368Y-30751173D01*
X41362707Y-30799197D01*
X41465950Y-30840423D01*
X41545216Y-30872493D01*
X41594621Y-30893050D01*
X41607770Y-30899031D01*
X41618066Y-30912206D01*
X41604034Y-30929680D01*
X41562196Y-30953195D01*
X41489072Y-30984498D01*
X41381185Y-31025332D01*
X41291933Y-31057398D01*
X41066834Y-31144679D01*
X40867200Y-31237263D01*
X40695629Y-31333287D01*
X40554717Y-31430884D01*
X40447061Y-31528191D01*
X40375258Y-31623341D01*
X40341905Y-31714472D01*
X40339781Y-31741178D01*
X40353902Y-31807528D01*
X40393388Y-31893263D01*
X40452764Y-31988767D01*
X40526560Y-32084421D01*
X40550475Y-32111470D01*
X40657964Y-32229079D01*
X40376990Y-32478991D01*
X40268207Y-32575750D01*
X40153821Y-32677494D01*
X40044396Y-32774829D01*
X39950496Y-32858357D01*
X39910989Y-32893501D01*
X39837062Y-32958105D01*
X39774301Y-33010781D01*
X39729544Y-33045935D01*
X39709905Y-33058008D01*
X39704207Y-33038039D01*
X39699258Y-32983120D01*
X39695461Y-32900633D01*
X39693220Y-32797961D01*
X39692823Y-32745800D01*
X39688818Y-32568349D01*
X39677130Y-32426554D01*
X39656297Y-32314196D01*
X39624860Y-32225058D01*
X39581357Y-32152921D01*
X39543412Y-32109679D01*
X39470460Y-32036727D01*
X39306988Y-32046890D01*
X39131186Y-32074393D01*
X38942877Y-32136421D01*
X38739157Y-32234063D01*
X38614350Y-32306487D01*
X38521657Y-32362901D01*
X38429913Y-32417979D01*
X38352866Y-32463496D01*
X38321815Y-32481433D01*
X38091755Y-32619881D01*
X37892711Y-32755248D01*
X37726273Y-32886032D01*
X37594035Y-33010732D01*
X37497587Y-33127846D01*
X37438523Y-33235874D01*
X37418433Y-33333313D01*
X37418433Y-33333474D01*
X37435557Y-33422347D01*
X37487776Y-33513969D01*
X37576356Y-33609495D01*
X37702568Y-33710080D01*
X37867680Y-33816879D01*
X38072960Y-33931047D01*
X38077387Y-33933363D01*
X38176104Y-33983575D01*
X38272262Y-34030112D01*
X38353377Y-34067057D01*
X38398106Y-34085384D01*
X38454318Y-34109192D01*
X38488309Y-34129608D01*
X38493356Y-34137938D01*
X38474890Y-34159159D01*
X38431083Y-34201009D01*
X38368712Y-34257636D01*
X38294551Y-34323187D01*
X38215378Y-34391809D01*
X38137967Y-34457649D01*
X38069095Y-34514856D01*
X38015538Y-34557575D01*
X37984071Y-34579955D01*
X37979350Y-34581909D01*
X37952986Y-34572138D01*
X37898775Y-34545714D01*
X37825566Y-34507093D01*
X37769498Y-34476167D01*
X37690043Y-34433001D01*
X37625074Y-34400338D01*
X37582772Y-34382137D01*
X37570992Y-34380152D01*
X37569113Y-34404270D01*
X37572927Y-34459436D01*
X37581612Y-34534870D01*
X37584334Y-34554828D01*
X37597450Y-34649676D01*
X37609920Y-34742352D01*
X37619126Y-34813389D01*
X37619396Y-34815564D01*
X37631296Y-34911446D01*
X37329073Y-35073986D01*
X37026850Y-35236527D01*
X37013376Y-34967522D01*
X36990506Y-34679212D01*
X36952754Y-34429936D01*
X36900161Y-34219900D01*
X36832769Y-34049307D01*
X36821447Y-34027246D01*
X36761739Y-33931580D01*
X36699609Y-33871713D01*
X36626308Y-33841584D01*
X36543695Y-33834885D01*
X36446903Y-33848279D01*
X36336613Y-33886692D01*
X36210469Y-33951572D01*
X36066116Y-34044367D01*
X35901201Y-34166526D01*
X35713367Y-34319497D01*
X35605769Y-34411774D01*
X35395956Y-34599506D01*
X35221036Y-34767553D01*
X35079495Y-34917836D01*
X34969822Y-35052275D01*
X34890503Y-35172791D01*
X34840027Y-35281305D01*
X34816879Y-35379737D01*
X34814933Y-35415926D01*
X34819713Y-35480339D01*
X34839326Y-35531237D01*
X34881681Y-35587090D01*
X34894308Y-35601292D01*
X34979537Y-35674938D01*
X35103943Y-35750004D01*
X35268415Y-35826932D01*
X35473841Y-35906164D01*
X35576933Y-35941704D01*
X35688991Y-35978408D01*
X35774609Y-36003301D01*
X35847251Y-36018703D01*
X35920382Y-36026934D01*
X36007467Y-36030317D01*
X36095517Y-36031088D01*
X36203626Y-36031055D01*
X36280374Y-36028655D01*
X36336732Y-36021836D01*
X36383672Y-36008545D01*
X36432164Y-35986729D01*
X36486529Y-35957933D01*
X36592980Y-35890219D01*
X36699765Y-35804789D01*
X36796273Y-35711542D01*
X36871892Y-35620379D01*
X36904100Y-35568338D01*
X36921127Y-35537421D01*
X36940414Y-35512782D01*
X36968385Y-35491052D01*
X37011462Y-35468862D01*
X37076068Y-35442843D01*
X37168625Y-35409627D01*
X37279908Y-35371214D01*
X37390956Y-35333660D01*
X37487226Y-35302175D01*
X37561975Y-35278877D01*
X37608463Y-35265884D01*
X37620692Y-35264136D01*
X37620259Y-35286848D01*
X37612427Y-35340273D01*
X37598809Y-35413761D01*
X37595619Y-35429511D01*
X37524651Y-35673024D01*
X37416962Y-35898233D01*
X37275428Y-36101800D01*
X37102926Y-36280387D01*
X36902334Y-36430658D01*
X36676528Y-36549275D01*
X36605794Y-36577630D01*
X36524558Y-36606101D01*
X36452350Y-36625565D01*
X36376171Y-36638212D01*
X36283024Y-36646230D01*
X36166814Y-36651560D01*
X36005281Y-36653486D01*
X35860987Y-36645209D01*
X35721121Y-36624669D01*
X35572875Y-36589811D01*
X35403439Y-36538575D01*
X35347086Y-36519880D01*
X35250435Y-36488114D01*
X35187497Y-36469920D01*
X35152269Y-36464214D01*
X35138746Y-36469910D01*
X35139677Y-36482432D01*
X35208433Y-36701241D01*
X35261293Y-36888399D01*
X35299577Y-37050928D01*
X35324606Y-37195853D01*
X35337700Y-37330197D01*
X35340177Y-37460984D01*
X35337443Y-37534850D01*
X35303549Y-37785106D01*
X35231605Y-38022773D01*
X35124282Y-38243765D01*
X34984247Y-38443993D01*
X34814170Y-38619370D01*
X34616718Y-38765808D01*
X34486850Y-38837770D01*
X34283683Y-38921677D01*
X34073905Y-38975598D01*
X33850470Y-39000442D01*
X33606338Y-38997119D01*
X33408526Y-38977102D01*
X33310295Y-38964729D01*
X33228626Y-38955651D01*
X33171912Y-38950718D01*
X33148545Y-38950777D01*
X33148469Y-38950842D01*
X33154611Y-38971370D01*
X33176644Y-39022048D01*
X33211135Y-39095363D01*
X33254652Y-39183798D01*
X33256952Y-39188379D01*
X33360250Y-39411786D01*
X33435261Y-39616663D01*
X33485247Y-39812708D01*
X33503316Y-39920720D01*
X33515594Y-40160649D01*
X33488703Y-40399914D01*
X33425357Y-40633186D01*
X33328265Y-40855135D01*
X33200140Y-41060431D01*
X33043693Y-41243745D01*
X32861636Y-41399747D01*
X32699061Y-41501469D01*
X32553124Y-41565310D01*
X32375367Y-41620419D01*
X32175771Y-41664770D01*
X31964316Y-41696333D01*
X31750982Y-41713082D01*
X31646840Y-41715267D01*
X31584226Y-41717252D01*
X31543290Y-41722360D01*
X31534100Y-41726979D01*
X31546425Y-41747732D01*
X31579305Y-41793006D01*
X31626602Y-41854465D01*
X31647163Y-41880437D01*
X31748847Y-42011969D01*
X31829191Y-42126563D01*
X31896630Y-42237370D01*
X31959604Y-42357540D01*
X31979034Y-42397692D01*
X32047172Y-42552538D01*
X32093336Y-42690709D01*
X32121022Y-42827929D01*
X32133728Y-42979923D01*
X32135589Y-43101683D01*
X32130343Y-43268953D01*
X32113656Y-43411375D01*
X32082022Y-43543763D01*
X32031935Y-43680930D01*
X31962706Y-43831933D01*
X31910419Y-43932662D01*
X31858960Y-44014979D01*
X31798473Y-44092374D01*
X31719096Y-44178337D01*
X31682133Y-44215852D01*
X31593440Y-44302100D01*
X31518746Y-44366191D01*
X31444355Y-44417987D01*
X31356571Y-44467347D01*
X31278897Y-44506178D01*
X31100656Y-44582344D01*
X30901441Y-44649969D01*
X30700167Y-44703272D01*
X30532509Y-44734274D01*
X30434162Y-44747754D01*
X30683592Y-44993635D01*
X30872257Y-45193024D01*
X31023194Y-45384015D01*
X31138745Y-45571872D01*
X31221249Y-45761863D01*
X31273048Y-45959254D01*
X31296480Y-46169310D01*
X31295416Y-46370364D01*
X31262498Y-46628175D01*
X31192015Y-46870611D01*
X31085639Y-47094420D01*
X30945045Y-47296350D01*
X30771906Y-47473149D01*
X30696501Y-47534148D01*
X30564083Y-47623928D01*
X30403917Y-47715845D01*
X30229552Y-47802727D01*
X30054539Y-47877400D01*
X30031267Y-47886281D01*
X29955033Y-47915686D01*
X29894644Y-47940408D01*
X29860726Y-47956056D01*
X29857634Y-47958032D01*
X29868421Y-47973128D01*
X29909017Y-48004861D01*
X29972756Y-48048382D01*
X30042159Y-48092252D01*
X30276325Y-48247546D01*
X30471948Y-48403999D01*
X30632741Y-48565297D01*
X30762420Y-48735128D01*
X30857080Y-48901350D01*
X30950726Y-49140122D01*
X31004635Y-49387762D01*
X31019052Y-49639305D01*
X30994218Y-49889786D01*
X30930379Y-50134238D01*
X30827778Y-50367698D01*
X30781201Y-50448417D01*
X30683005Y-50583335D01*
X30552912Y-50724936D01*
X30398892Y-50865667D01*
X30228916Y-50997972D01*
X30130950Y-51064777D01*
X30045975Y-51120084D01*
X29973786Y-51167602D01*
X29921953Y-51202312D01*
X29898047Y-51219194D01*
X29897951Y-51219276D01*
X29907410Y-51233017D01*
X29948331Y-51255237D01*
X30011955Y-51281210D01*
X30014368Y-51282087D01*
X30302937Y-51402935D01*
X30554194Y-51543355D01*
X30768610Y-51703829D01*
X30946658Y-51884841D01*
X31088811Y-52086874D01*
X31195541Y-52310412D01*
X31267321Y-52555938D01*
X31269308Y-52565427D01*
X31302897Y-52825110D01*
X31294892Y-53077760D01*
X31245251Y-53323483D01*
X31153933Y-53562385D01*
X31020895Y-53794571D01*
X30846097Y-54020146D01*
X30629496Y-54239218D01*
X30600850Y-54264935D01*
X30534128Y-54326261D01*
X30482936Y-54377470D01*
X30453329Y-54412234D01*
X30448925Y-54423703D01*
X30478334Y-54434159D01*
X30505753Y-54436461D01*
X30559440Y-54442683D01*
X30643045Y-54459500D01*
X30746296Y-54484199D01*
X30858923Y-54514069D01*
X30970654Y-54546398D01*
X31071218Y-54578475D01*
X31143567Y-54604840D01*
X31377828Y-54720580D01*
X31585611Y-54868586D01*
X31764791Y-55046497D01*
X31913245Y-55251952D01*
X32028849Y-55482591D01*
X32088218Y-55654714D01*
X32117860Y-55797237D01*
X32134531Y-55963247D01*
X32138014Y-56137457D01*
X32128091Y-56304577D01*
X32104547Y-56449318D01*
X32099753Y-56468433D01*
X32050199Y-56614005D01*
X31976137Y-56778106D01*
X31883718Y-56950076D01*
X31779094Y-57119255D01*
X31668417Y-57274981D01*
X31559272Y-57405058D01*
X31505013Y-57463267D01*
X31662431Y-57463633D01*
X31833424Y-57469464D01*
X32012736Y-57485000D01*
X32185156Y-57508434D01*
X32335474Y-57537962D01*
X32376353Y-57548384D01*
X32612938Y-57634250D01*
X32827947Y-57754873D01*
X33018748Y-57907148D01*
X33182710Y-58087975D01*
X33317202Y-58294249D01*
X33419590Y-58522870D01*
X33487244Y-58770734D01*
X33504469Y-58878271D01*
X33516048Y-59086658D01*
X33496793Y-59299550D01*
X33445610Y-59521581D01*
X33361408Y-59757384D01*
X33243096Y-60011590D01*
X33232657Y-60031834D01*
X33108588Y-60270909D01*
X33268552Y-60239667D01*
X33371561Y-60225221D01*
X33508529Y-60214759D01*
X33671226Y-60208800D01*
X33777767Y-60207602D01*
X33910862Y-60207776D01*
X34011061Y-60209695D01*
X34087794Y-60214370D01*
X34150492Y-60222812D01*
X34208587Y-60236032D01*
X34271508Y-60255044D01*
X34296350Y-60263231D01*
X34494299Y-60342977D01*
X34669926Y-60445227D01*
X34835605Y-60577764D01*
X34910183Y-60649332D01*
X35039732Y-60790672D01*
X35140240Y-60928223D01*
X35220906Y-61076360D01*
X35286824Y-61238014D01*
X35340061Y-61441094D01*
X35363484Y-61668232D01*
X35357550Y-61913895D01*
X35322719Y-62172548D01*
X35259451Y-62438661D01*
X35168204Y-62706699D01*
X35164078Y-62717133D01*
X35162690Y-62732530D01*
X35179537Y-62735694D01*
X35220909Y-62725537D01*
X35293095Y-62700969D01*
X35325819Y-62689124D01*
X35512456Y-62625607D01*
X35676534Y-62581141D01*
X35831867Y-62553117D01*
X35992269Y-62538926D01*
X36137850Y-62535782D01*
X36259938Y-62536995D01*
X36352130Y-62541363D01*
X36426835Y-62550459D01*
X36496459Y-62565852D01*
X36573411Y-62589114D01*
X36582350Y-62592053D01*
X36767302Y-62665121D01*
X36932671Y-62757994D01*
X37090343Y-62878195D01*
X37207333Y-62987436D01*
X37368555Y-63171802D01*
X37492263Y-63367632D01*
X37583133Y-63582925D01*
X37612395Y-63680198D01*
X37636377Y-63804524D01*
X37651486Y-63958752D01*
X37657888Y-64131426D01*
X37655753Y-64311090D01*
X37645248Y-64486288D01*
X37626541Y-64645567D01*
X37599799Y-64777469D01*
X37596126Y-64790679D01*
X37605574Y-64798107D01*
X37644607Y-64787365D01*
X37715208Y-64757653D01*
X37819360Y-64708170D01*
X37899039Y-64668529D01*
X38079010Y-64581807D01*
X38233937Y-64516849D01*
X38373331Y-64470960D01*
X38506700Y-64441445D01*
X38643554Y-64425611D01*
X38773100Y-64420864D01*
X39025660Y-64437295D01*
X39260669Y-64491592D01*
X39479920Y-64584540D01*
X39685205Y-64716920D01*
X39878316Y-64889516D01*
X39901624Y-64913889D01*
X40032915Y-65070818D01*
X40137563Y-65236646D01*
X40217711Y-65417384D01*
X40275504Y-65619041D01*
X40313084Y-65847628D01*
X40332594Y-66109155D01*
X40333166Y-66124087D01*
X40345333Y-66455824D01*
X40517008Y-66316056D01*
X40712855Y-66165306D01*
X40893119Y-66046096D01*
X41065317Y-65954492D01*
X41236967Y-65886561D01*
X41415586Y-65838369D01*
X41439299Y-65833431D01*
X41679213Y-65806415D01*
X41921943Y-65821419D01*
X42166517Y-65878300D01*
X42411968Y-65976913D01*
X42413767Y-65977789D01*
X42572946Y-66073224D01*
X42730139Y-66199868D01*
X42874917Y-66347448D01*
X42996854Y-66505689D01*
X43063320Y-66617850D01*
X43165114Y-66850568D01*
X43247767Y-67112517D01*
X43295200Y-67322080D01*
X43312401Y-67406427D01*
X43328418Y-67474518D01*
X43340692Y-67515871D01*
X43344158Y-67522793D01*
X43362410Y-67514043D01*
X43401936Y-67478442D01*
X43456924Y-67421670D01*
X43521561Y-67349412D01*
X43521836Y-67349094D01*
X43726302Y-67137193D01*
X43941194Y-66961775D01*
X44163966Y-66824562D01*
X44392074Y-66727279D01*
X44477517Y-66701696D01*
X44605069Y-66678770D01*
X44758184Y-66668082D01*
X44921956Y-66669448D01*
X45081478Y-66682685D01*
X45221843Y-66707611D01*
X45235293Y-66711011D01*
X45464834Y-66792168D01*
X45679216Y-66909651D01*
X45871756Y-67059008D01*
X46035775Y-67235786D01*
X46049354Y-67253476D01*
X46132597Y-67371722D01*
X46209212Y-67498737D01*
X46283109Y-67642233D01*
X46358199Y-67809923D01*
X46438396Y-68009521D01*
X46455599Y-68054495D01*
X46478698Y-68115306D01*
X46581114Y-67944903D01*
X46734566Y-67707665D01*
X46887059Y-67509427D01*
X47041599Y-67347039D01*
X47201193Y-67217355D01*
X47368849Y-67117225D01*
X47374287Y-67114520D01*
X47524463Y-67046586D01*
X47661868Y-67000342D01*
X47804293Y-66971060D01*
X47969529Y-66954012D01*
X47981033Y-66953244D01*
X48234378Y-66957094D01*
X48477384Y-67001651D01*
X48707940Y-67086096D01*
X48923935Y-67209611D01*
X49123258Y-67371376D01*
X49165249Y-67412612D01*
X49236269Y-67491830D01*
X49318705Y-67594741D01*
X49403885Y-67709421D01*
X49483138Y-67823949D01*
X49547794Y-67926404D01*
X49576326Y-67977808D01*
X49603223Y-68022906D01*
X49624396Y-68045862D01*
X49627041Y-68046600D01*
X49641229Y-68028204D01*
X49664131Y-67979732D01*
X49691043Y-67911260D01*
X49693765Y-67903725D01*
X49812299Y-67621402D01*
X49952585Y-67374975D01*
X50114412Y-67164631D01*
X50297571Y-66990556D01*
X50501852Y-66852936D01*
X50727043Y-66751958D01*
X50972936Y-66687806D01*
X51084153Y-66671684D01*
X51334122Y-66663581D01*
X51576124Y-66696627D01*
X51810436Y-66770947D01*
X52037335Y-66886669D01*
X52257098Y-67043917D01*
X52470001Y-67242820D01*
X52565737Y-67348369D01*
X52630554Y-67420840D01*
X52685783Y-67477863D01*
X52725614Y-67513763D01*
X52744238Y-67522866D01*
X52744305Y-67522793D01*
X52754291Y-67496117D01*
X52769249Y-67438058D01*
X52786647Y-67358896D01*
X52795135Y-67316350D01*
X52853205Y-67061507D01*
X52923495Y-66841474D01*
X53009108Y-66649721D01*
X53113144Y-66479720D01*
X53238707Y-66324940D01*
X53292867Y-66268600D01*
X53470886Y-66109928D01*
X53651836Y-65988859D01*
X53844488Y-65901067D01*
X54057617Y-65842227D01*
X54206729Y-65818029D01*
X54431351Y-65807123D01*
X54653408Y-65832309D01*
X54875601Y-65894562D01*
X55100634Y-65994855D01*
X55331211Y-66134161D01*
X55560272Y-66305489D01*
X55748767Y-66458796D01*
X55748767Y-66353267D01*
X56354886Y-66353267D01*
X56357079Y-66554839D01*
X56368298Y-66718750D01*
X56390347Y-66849052D01*
X56425029Y-66949795D01*
X56474148Y-67025030D01*
X56539510Y-67078810D01*
X56622918Y-67115186D01*
X56702671Y-67134267D01*
X56728326Y-67131876D01*
X56782749Y-67123472D01*
X56840254Y-67113383D01*
X56975494Y-67078251D01*
X57133280Y-67019890D01*
X57303823Y-66942397D01*
X57477336Y-66849866D01*
X57496224Y-66838921D01*
X57604731Y-66776206D01*
X57727088Y-66706530D01*
X57841548Y-66642252D01*
X57872120Y-66625303D01*
X58053401Y-66520496D01*
X58203079Y-66422796D01*
X58329774Y-66326106D01*
X58442105Y-66224332D01*
X58449584Y-66216929D01*
X58552961Y-66103224D01*
X58619481Y-66002647D01*
X58650769Y-65910687D01*
X58648450Y-65822833D01*
X58619671Y-65744889D01*
X58566913Y-65671621D01*
X58480764Y-65586944D01*
X58366998Y-65495509D01*
X58231391Y-65401970D01*
X58083898Y-65313319D01*
X57874720Y-65202303D01*
X57691848Y-65119436D01*
X57531116Y-65063478D01*
X57388359Y-65033194D01*
X57259408Y-65027346D01*
X57162288Y-65039658D01*
X56991583Y-65093046D01*
X56829572Y-65177391D01*
X56684811Y-65286392D01*
X56565859Y-65413747D01*
X56489954Y-65534716D01*
X56443553Y-65641799D01*
X56408379Y-65754666D01*
X56383164Y-65880995D01*
X56366642Y-66028463D01*
X56357545Y-66204751D01*
X56354886Y-66353267D01*
X55748767Y-66353267D01*
X55748767Y-66227646D01*
X55756426Y-65991112D01*
X55780579Y-65781939D01*
X55822984Y-65587804D01*
X55855343Y-65481112D01*
X55925582Y-65297798D01*
X56007423Y-65142431D01*
X56109220Y-65000750D01*
X56190879Y-64908360D01*
X56382870Y-64734326D01*
X56596751Y-64596442D01*
X56833892Y-64493835D01*
X56844626Y-64490202D01*
X56941973Y-64459075D01*
X57020590Y-64439005D01*
X57095842Y-64427652D01*
X57183097Y-64422671D01*
X57293933Y-64421715D01*
X57442779Y-64426142D01*
X57576748Y-64440626D01*
X57705487Y-64467826D01*
X57838640Y-64510402D01*
X57985852Y-64571011D01*
X58156769Y-64652315D01*
X58189161Y-64668529D01*
X58314460Y-64730294D01*
X58405014Y-64771808D01*
X58462807Y-64793871D01*
X58489822Y-64797282D01*
X58492074Y-64790679D01*
X58464396Y-64662758D01*
X58444733Y-64506110D01*
X58433253Y-64332192D01*
X58431370Y-64224052D01*
X59035780Y-64224052D01*
X59037021Y-64247183D01*
X59056984Y-64477520D01*
X59088121Y-64687408D01*
X59129290Y-64873263D01*
X59179348Y-65031504D01*
X59237152Y-65158548D01*
X59301558Y-65250811D01*
X59371424Y-65304711D01*
X59374911Y-65306279D01*
X59440282Y-65328774D01*
X59503312Y-65333963D01*
X59577996Y-65321306D01*
X59663985Y-65295140D01*
X59794068Y-65242703D01*
X59929806Y-65170036D01*
X60076454Y-65073726D01*
X60239265Y-64950365D01*
X60397792Y-64818683D01*
X60493141Y-64737090D01*
X60602964Y-64643424D01*
X60709388Y-64552920D01*
X60753044Y-64515896D01*
X60899788Y-64382179D01*
X61027011Y-64247369D01*
X61131337Y-64116138D01*
X61209392Y-63993155D01*
X61257804Y-63883093D01*
X61273267Y-63795734D01*
X61253543Y-63699292D01*
X61193922Y-63607291D01*
X61093726Y-63519064D01*
X60952276Y-63433943D01*
X60862461Y-63390806D01*
X60733183Y-63337778D01*
X60584029Y-63284567D01*
X60427846Y-63235110D01*
X60277483Y-63193342D01*
X60145784Y-63163202D01*
X60086881Y-63153136D01*
X59895371Y-63143672D01*
X59718003Y-63172500D01*
X59551544Y-63240743D01*
X59392763Y-63349524D01*
X59312497Y-63422152D01*
X59198320Y-63552325D01*
X59115794Y-63690912D01*
X59062685Y-63844602D01*
X59036758Y-64020085D01*
X59035780Y-64224052D01*
X58431370Y-64224052D01*
X58430122Y-64152459D01*
X58435510Y-63978366D01*
X58449584Y-63821369D01*
X58472511Y-63692923D01*
X58475805Y-63680198D01*
X58554083Y-63454743D01*
X58662719Y-63252711D01*
X58806589Y-63065755D01*
X58880656Y-62987767D01*
X59041045Y-62842487D01*
X59200182Y-62730119D01*
X59369752Y-62643267D01*
X59505850Y-62592053D01*
X59584279Y-62567882D01*
X59654088Y-62551742D01*
X59727684Y-62542063D01*
X59817475Y-62537275D01*
X59935870Y-62535807D01*
X59950350Y-62535782D01*
X60125289Y-62540544D01*
X60283788Y-62556993D01*
X60439662Y-62587736D01*
X60606726Y-62635383D01*
X60762381Y-62689124D01*
X60846496Y-62718849D01*
X60897668Y-62733797D01*
X60922200Y-62735059D01*
X60926396Y-62723725D01*
X60924285Y-62717133D01*
X60821352Y-62414597D01*
X60756173Y-62125326D01*
X60727946Y-61845102D01*
X60728100Y-61725594D01*
X61323307Y-61725594D01*
X61334580Y-61897163D01*
X61371944Y-62091282D01*
X61434820Y-62313778D01*
X61434877Y-62313959D01*
X61509241Y-62532146D01*
X61581951Y-62710177D01*
X61654105Y-62850144D01*
X61726795Y-62954136D01*
X61801117Y-63024242D01*
X61810287Y-63030536D01*
X61897794Y-63063322D01*
X62003922Y-63060174D01*
X62125234Y-63021291D01*
X62147416Y-63010999D01*
X62235430Y-62958192D01*
X62340305Y-62879070D01*
X62453464Y-62781154D01*
X62566328Y-62671968D01*
X62670319Y-62559034D01*
X62691986Y-62533433D01*
X62767946Y-62442553D01*
X62857179Y-62336538D01*
X62945373Y-62232364D01*
X62984794Y-62186057D01*
X63151040Y-61981986D01*
X63283006Y-61799143D01*
X63381829Y-61635569D01*
X63448649Y-61489305D01*
X63484604Y-61358394D01*
X63490012Y-61316907D01*
X63494378Y-61245364D01*
X63487874Y-61198144D01*
X63465465Y-61157643D01*
X63433429Y-61119074D01*
X63358627Y-61051710D01*
X63258874Y-60993554D01*
X63130443Y-60943313D01*
X62969607Y-60899692D01*
X62772639Y-60861397D01*
X62627933Y-60839369D01*
X62468685Y-60819756D01*
X62339104Y-60810546D01*
X62227815Y-60811766D01*
X62123441Y-60823445D01*
X62035166Y-60840816D01*
X61865085Y-60900308D01*
X61707825Y-60995871D01*
X61573075Y-61121359D01*
X61550711Y-61148210D01*
X61451827Y-61287881D01*
X61381351Y-61426782D01*
X61338704Y-61570743D01*
X61323307Y-61725594D01*
X60728100Y-61725594D01*
X60728151Y-61686017D01*
X60754262Y-61433841D01*
X60813388Y-61205685D01*
X60907717Y-60996554D01*
X61039437Y-60801453D01*
X61187143Y-60638267D01*
X61370378Y-60479393D01*
X61560954Y-60358744D01*
X61765297Y-60273549D01*
X61989832Y-60221042D01*
X62204600Y-60199888D01*
X62358212Y-60198864D01*
X62532134Y-60207740D01*
X62709813Y-60224992D01*
X62874693Y-60249100D01*
X62982739Y-60271432D01*
X63004363Y-60274394D01*
X63011274Y-60265039D01*
X63001633Y-60236839D01*
X62973601Y-60183267D01*
X62942142Y-60127336D01*
X62815990Y-59885825D01*
X62715600Y-59648200D01*
X62678313Y-59542870D01*
X62641276Y-59395793D01*
X62617437Y-59223401D01*
X62609759Y-59081924D01*
X63205283Y-59081924D01*
X63234642Y-59252336D01*
X63295307Y-59441513D01*
X63387923Y-59652255D01*
X63476712Y-59822473D01*
X63586038Y-60010620D01*
X63685971Y-60159858D01*
X63778786Y-60271974D01*
X63866758Y-60348752D01*
X63952163Y-60391977D01*
X64037277Y-60403434D01*
X64124374Y-60384908D01*
X64168651Y-60365332D01*
X64266469Y-60298463D01*
X64373208Y-60194690D01*
X64485933Y-60057751D01*
X64601710Y-59891380D01*
X64717605Y-59699315D01*
X64776493Y-59591381D01*
X64824918Y-59501104D01*
X64871944Y-59416064D01*
X64910370Y-59349179D01*
X64924233Y-59326383D01*
X65005097Y-59184341D01*
X65085546Y-59018159D01*
X65157467Y-58845325D01*
X65191925Y-58749374D01*
X65224842Y-58643941D01*
X65243453Y-58561690D01*
X65250402Y-58487010D01*
X65248853Y-58413077D01*
X65232897Y-58307914D01*
X65195273Y-58226492D01*
X65131275Y-58164730D01*
X65036198Y-58118548D01*
X64905337Y-58083864D01*
X64859318Y-58075251D01*
X64763164Y-58064773D01*
X64636730Y-58059924D01*
X64491632Y-58060281D01*
X64339488Y-58065420D01*
X64191917Y-58074918D01*
X64060534Y-58088352D01*
X63956959Y-58105298D01*
X63942236Y-58108671D01*
X63751092Y-58173784D01*
X63587297Y-58270055D01*
X63449650Y-58398638D01*
X63336952Y-58560687D01*
X63248003Y-58757357D01*
X63237899Y-58786183D01*
X63206584Y-58927474D01*
X63205283Y-59081924D01*
X62609759Y-59081924D01*
X62607529Y-59040837D01*
X62612288Y-58863244D01*
X62632446Y-58705763D01*
X62636758Y-58685195D01*
X62701841Y-58475696D01*
X62800622Y-58268109D01*
X62926411Y-58073460D01*
X63072517Y-57902771D01*
X63160812Y-57821682D01*
X63359643Y-57683623D01*
X63587013Y-57576468D01*
X63842342Y-57500394D01*
X64125053Y-57455576D01*
X64410243Y-57442100D01*
X64595581Y-57442100D01*
X64415775Y-57204603D01*
X64278133Y-57007528D01*
X64161586Y-56809438D01*
X64070678Y-56618834D01*
X64010782Y-56447267D01*
X63989099Y-56332822D01*
X63976415Y-56191018D01*
X63974439Y-56108173D01*
X64570451Y-56108173D01*
X64600239Y-56271514D01*
X64664285Y-56441625D01*
X64763451Y-56623067D01*
X64898599Y-56820399D01*
X64908715Y-56833972D01*
X65057877Y-57023754D01*
X65192813Y-57175089D01*
X65314835Y-57288905D01*
X65425260Y-57366132D01*
X65525402Y-57407699D01*
X65616575Y-57414536D01*
X65695398Y-57390063D01*
X65768569Y-57336894D01*
X65849092Y-57252661D01*
X65929924Y-57146113D01*
X66004021Y-57025995D01*
X66032443Y-56971567D01*
X66069187Y-56889615D01*
X66115343Y-56775433D01*
X66168012Y-56637292D01*
X66224294Y-56483466D01*
X66281290Y-56322226D01*
X66336099Y-56161846D01*
X66385822Y-56010597D01*
X66427560Y-55876752D01*
X66458411Y-55768584D01*
X66468940Y-55726316D01*
X66493942Y-55585235D01*
X66505553Y-55444638D01*
X66503801Y-55315008D01*
X66488711Y-55206826D01*
X66467436Y-55143538D01*
X66415381Y-55068245D01*
X66341981Y-55014558D01*
X66244099Y-54981951D01*
X66118597Y-54969896D01*
X65962338Y-54977866D01*
X65772183Y-55005334D01*
X65711890Y-55016553D01*
X65475736Y-55067877D01*
X65277461Y-55124125D01*
X65112681Y-55187828D01*
X64977009Y-55261517D01*
X64866061Y-55347722D01*
X64775451Y-55448974D01*
X64700793Y-55567804D01*
X64678019Y-55613174D01*
X64610203Y-55783564D01*
X64574060Y-55947043D01*
X64570451Y-56108173D01*
X63974439Y-56108173D01*
X63972714Y-56035854D01*
X63977980Y-55881332D01*
X63992195Y-55741454D01*
X64011731Y-55642933D01*
X64085743Y-55432583D01*
X64189770Y-55229606D01*
X64317652Y-55043454D01*
X64463228Y-54883574D01*
X64560481Y-54801175D01*
X64767988Y-54669247D01*
X65011793Y-54558991D01*
X65291811Y-54470441D01*
X65490798Y-54425017D01*
X65676079Y-54388278D01*
X65454956Y-54178731D01*
X65305179Y-54030716D01*
X65184739Y-53896915D01*
X65087124Y-53769022D01*
X65005825Y-53638732D01*
X64954306Y-53539944D01*
X64887804Y-53385714D01*
X64843271Y-53236693D01*
X64818320Y-53080191D01*
X64810799Y-52908816D01*
X65403402Y-52908816D01*
X65417297Y-53022926D01*
X65433413Y-53093194D01*
X65471311Y-53207721D01*
X65526552Y-53317841D01*
X65603940Y-53430756D01*
X65708280Y-53553671D01*
X65813804Y-53663459D01*
X66004982Y-53845056D01*
X66177623Y-53988716D01*
X66331850Y-54094501D01*
X66467788Y-54162471D01*
X66585561Y-54192687D01*
X66685293Y-54185212D01*
X66767106Y-54140106D01*
X66771080Y-54136543D01*
X66856282Y-54035158D01*
X66933791Y-53896186D01*
X67001902Y-53723947D01*
X67058911Y-53522761D01*
X67103113Y-53296950D01*
X67103664Y-53293433D01*
X67123421Y-53170156D01*
X67146884Y-53028534D01*
X67170170Y-52891867D01*
X67179528Y-52838350D01*
X67215815Y-52592245D01*
X67233729Y-52371039D01*
X67233532Y-52177039D01*
X67215484Y-52012550D01*
X67179847Y-51879878D01*
X67126882Y-51781330D01*
X67056849Y-51719213D01*
X67052610Y-51716953D01*
X66957702Y-51689334D01*
X66832701Y-51687658D01*
X66680452Y-51711274D01*
X66503799Y-51759528D01*
X66305585Y-51831770D01*
X66088655Y-51927345D01*
X66046212Y-51947769D01*
X65856784Y-52052696D01*
X65705736Y-52165785D01*
X65589282Y-52291389D01*
X65503640Y-52433864D01*
X65445027Y-52597566D01*
X65431252Y-52655659D01*
X65408083Y-52792356D01*
X65403402Y-52908816D01*
X64810799Y-52908816D01*
X64810566Y-52903519D01*
X64812960Y-52788077D01*
X64819825Y-52657222D01*
X64830301Y-52554974D01*
X64846504Y-52467633D01*
X64870552Y-52381497D01*
X64880397Y-52351517D01*
X64961331Y-52151032D01*
X65063339Y-51971260D01*
X65189680Y-51809301D01*
X65343613Y-51662255D01*
X65528397Y-51527223D01*
X65747291Y-51401304D01*
X66003555Y-51281599D01*
X66149996Y-51221887D01*
X66163363Y-51210832D01*
X66154322Y-51192929D01*
X66118453Y-51163977D01*
X66051334Y-51119773D01*
X66025564Y-51103608D01*
X65785479Y-50939009D01*
X65584915Y-50768389D01*
X65421183Y-50588972D01*
X65291596Y-50397982D01*
X65233181Y-50285455D01*
X65145899Y-50051243D01*
X65096357Y-49807610D01*
X65086568Y-49610433D01*
X65707683Y-49610433D01*
X65708399Y-49724062D01*
X65711605Y-49806051D01*
X65718888Y-49867084D01*
X65731837Y-49917847D01*
X65752038Y-49969023D01*
X65765256Y-49997896D01*
X65852215Y-50139873D01*
X65981265Y-50284571D01*
X66152264Y-50431862D01*
X66365065Y-50581616D01*
X66543211Y-50690386D01*
X66717479Y-50782271D01*
X66867230Y-50841433D01*
X66994313Y-50868266D01*
X67100578Y-50863165D01*
X67186232Y-50827613D01*
X67236563Y-50776312D01*
X67288037Y-50691662D01*
X67336682Y-50582337D01*
X67378525Y-50457012D01*
X67404391Y-50351267D01*
X67415415Y-50290082D01*
X67424079Y-50223116D01*
X67430639Y-50144620D01*
X67435349Y-50048846D01*
X67438464Y-49930045D01*
X67440239Y-49782470D01*
X67440927Y-49600371D01*
X67440958Y-49525767D01*
X67440733Y-49340738D01*
X67439934Y-49192331D01*
X67438233Y-49074833D01*
X67435302Y-48982534D01*
X67430811Y-48909720D01*
X67424432Y-48850682D01*
X67415837Y-48799706D01*
X67404696Y-48751082D01*
X67394093Y-48711347D01*
X67343427Y-48560672D01*
X67284384Y-48449564D01*
X67214249Y-48375638D01*
X67130305Y-48336509D01*
X67029837Y-48329790D01*
X66969581Y-48338429D01*
X66840309Y-48377253D01*
X66683821Y-48447327D01*
X66499816Y-48548801D01*
X66318794Y-48661646D01*
X66123193Y-48801017D01*
X65967621Y-48938924D01*
X65849926Y-49077516D01*
X65773860Y-49206187D01*
X65746103Y-49267058D01*
X65727429Y-49318122D01*
X65716045Y-49370336D01*
X65710157Y-49434656D01*
X65707971Y-49522037D01*
X65707683Y-49610433D01*
X65086568Y-49610433D01*
X65084079Y-49560317D01*
X65108588Y-49315125D01*
X65169409Y-49077798D01*
X65266064Y-48854095D01*
X65364687Y-48694645D01*
X65472143Y-48560500D01*
X65601512Y-48430308D01*
X65757514Y-48300121D01*
X65944868Y-48165994D01*
X66162265Y-48027634D01*
X66206674Y-47998600D01*
X66218015Y-47981995D01*
X66200407Y-47970024D01*
X66194015Y-47967589D01*
X65913119Y-47854774D01*
X65671160Y-47735939D01*
X65464879Y-47608454D01*
X65291016Y-47469690D01*
X65146311Y-47317017D01*
X65027505Y-47147806D01*
X64931337Y-46959428D01*
X64924620Y-46943678D01*
X64863146Y-46767262D01*
X64825524Y-46581995D01*
X64809439Y-46375188D01*
X64808644Y-46318972D01*
X65403159Y-46318972D01*
X65415882Y-46442026D01*
X65431252Y-46522874D01*
X65474547Y-46675687D01*
X65537796Y-46810662D01*
X65624586Y-46931122D01*
X65738509Y-47040392D01*
X65883152Y-47141792D01*
X66062106Y-47238647D01*
X66278960Y-47334280D01*
X66329517Y-47354466D01*
X66534351Y-47427908D01*
X66707947Y-47474622D01*
X66851728Y-47494810D01*
X66967118Y-47488673D01*
X67054242Y-47457187D01*
X67124554Y-47391694D01*
X67177898Y-47290000D01*
X67214008Y-47154804D01*
X67232618Y-46988807D01*
X67233463Y-46794705D01*
X67216277Y-46575198D01*
X67180794Y-46332985D01*
X67170461Y-46276683D01*
X67152526Y-46178108D01*
X67131767Y-46057681D01*
X67111599Y-45935421D01*
X67103621Y-45885100D01*
X67061413Y-45665549D01*
X67007941Y-45471254D01*
X66944703Y-45304986D01*
X66873199Y-45169514D01*
X66794928Y-45067607D01*
X66711391Y-45002035D01*
X66624087Y-44975567D01*
X66610934Y-44975140D01*
X66505188Y-44993693D01*
X66380791Y-45048951D01*
X66237491Y-45141085D01*
X66075036Y-45270264D01*
X65893172Y-45436658D01*
X65824506Y-45504100D01*
X65694912Y-45639581D01*
X65595720Y-45758507D01*
X65522187Y-45867924D01*
X65469572Y-45974879D01*
X65433413Y-46085339D01*
X65408973Y-46206039D01*
X65403159Y-46318972D01*
X64808644Y-46318972D01*
X64808467Y-46306527D01*
X64820207Y-46088586D01*
X64857867Y-45886637D01*
X64923991Y-45695480D01*
X65021122Y-45509915D01*
X65151801Y-45324739D01*
X65318571Y-45134752D01*
X65441220Y-45012253D01*
X65675853Y-44787418D01*
X65554185Y-44763293D01*
X65258604Y-44693993D01*
X65000241Y-44609859D01*
X64776015Y-44509035D01*
X64582848Y-44389663D01*
X64417661Y-44249886D01*
X64277376Y-44087848D01*
X64175811Y-43931921D01*
X64094196Y-43760602D01*
X64028690Y-43565734D01*
X63984361Y-43364640D01*
X63968194Y-43222379D01*
X63969028Y-43139151D01*
X64566452Y-43139151D01*
X64583938Y-43279246D01*
X64584037Y-43279721D01*
X64642265Y-43481036D01*
X64727930Y-43652836D01*
X64843090Y-43797187D01*
X64989806Y-43916156D01*
X65170136Y-44011812D01*
X65386139Y-44086222D01*
X65387770Y-44086670D01*
X65625288Y-44144991D01*
X65837780Y-44183264D01*
X66022612Y-44201295D01*
X66177152Y-44198886D01*
X66298765Y-44175842D01*
X66343975Y-44157742D01*
X66417921Y-44106234D01*
X66467955Y-44033918D01*
X66496615Y-43934925D01*
X66506441Y-43803390D01*
X66506461Y-43782433D01*
X66503873Y-43696950D01*
X66496211Y-43612879D01*
X66481990Y-43524052D01*
X66459724Y-43424301D01*
X66427927Y-43307459D01*
X66385115Y-43167359D01*
X66329801Y-42997833D01*
X66286408Y-42868850D01*
X66210861Y-42651122D01*
X66143827Y-42469525D01*
X66083181Y-42319214D01*
X66026796Y-42195344D01*
X65972548Y-42093071D01*
X65918311Y-42007551D01*
X65893632Y-41973624D01*
X65800644Y-41864701D01*
X65713960Y-41794862D01*
X65628387Y-41762447D01*
X65538732Y-41765798D01*
X65439804Y-41803255D01*
X65410409Y-41819242D01*
X65321575Y-41882613D01*
X65219016Y-41976140D01*
X65108763Y-42092542D01*
X64996848Y-42224534D01*
X64889304Y-42364832D01*
X64792162Y-42506155D01*
X64711455Y-42641218D01*
X64681375Y-42699517D01*
X64613409Y-42859779D01*
X64575689Y-43002826D01*
X64566452Y-43139151D01*
X63969028Y-43139151D01*
X63970503Y-42992146D01*
X64006781Y-42766263D01*
X64078370Y-42541237D01*
X64186610Y-42313573D01*
X64332842Y-42079776D01*
X64483430Y-41879308D01*
X64598258Y-41736433D01*
X64433304Y-41736259D01*
X64122117Y-41721093D01*
X63840445Y-41675976D01*
X63587432Y-41600450D01*
X63362225Y-41494058D01*
X63163967Y-41356342D01*
X62991806Y-41186845D01*
X62844886Y-40985109D01*
X62766005Y-40843460D01*
X62695696Y-40687358D01*
X62647921Y-40539055D01*
X62620125Y-40385702D01*
X62609753Y-40214446D01*
X62610526Y-40159517D01*
X63210282Y-40159517D01*
X63212099Y-40257871D01*
X63219470Y-40330372D01*
X63235762Y-40393443D01*
X63264344Y-40463510D01*
X63279176Y-40495487D01*
X63364082Y-40653733D01*
X63458807Y-40784709D01*
X63567645Y-40890568D01*
X63694889Y-40973467D01*
X63844835Y-41035560D01*
X64021774Y-41079003D01*
X64230003Y-41105950D01*
X64473813Y-41118558D01*
X64522350Y-41119479D01*
X64629759Y-41118105D01*
X64741214Y-41111925D01*
X64835618Y-41102194D01*
X64850306Y-41099979D01*
X64998525Y-41067202D01*
X65109163Y-41021276D01*
X65185802Y-40958944D01*
X65232021Y-40876950D01*
X65251402Y-40772036D01*
X65252521Y-40734139D01*
X65240532Y-40618737D01*
X65206402Y-40478179D01*
X65153081Y-40321407D01*
X65083516Y-40157362D01*
X65021165Y-40032517D01*
X64899601Y-39806656D01*
X64794488Y-39614961D01*
X64703374Y-39453713D01*
X64623812Y-39319198D01*
X64553350Y-39207700D01*
X64489540Y-39115503D01*
X64429930Y-39038890D01*
X64372073Y-38974147D01*
X64313517Y-38917557D01*
X64251813Y-38865405D01*
X64251601Y-38865235D01*
X64158339Y-38803436D01*
X64069092Y-38772077D01*
X63981883Y-38772529D01*
X63894733Y-38806163D01*
X63805664Y-38874348D01*
X63712698Y-38978456D01*
X63613857Y-39119857D01*
X63507162Y-39299920D01*
X63437410Y-39429267D01*
X63355208Y-39592238D01*
X63294349Y-39729010D01*
X63252142Y-39848235D01*
X63225897Y-39958564D01*
X63212922Y-40068647D01*
X63210282Y-40159517D01*
X62610526Y-40159517D01*
X62611813Y-40068068D01*
X62621253Y-39918138D01*
X62639561Y-39784142D01*
X62669667Y-39656064D01*
X62714501Y-39523888D01*
X62776991Y-39377601D01*
X62860069Y-39207185D01*
X62868482Y-39190664D01*
X63001743Y-38929669D01*
X62830713Y-38959610D01*
X62704554Y-38976354D01*
X62558121Y-38987225D01*
X62402096Y-38992245D01*
X62247161Y-38991434D01*
X62104000Y-38984811D01*
X61983294Y-38972399D01*
X61908267Y-38957834D01*
X61680963Y-38876758D01*
X61467327Y-38760720D01*
X61277761Y-38615497D01*
X61257140Y-38596398D01*
X61078642Y-38403194D01*
X60938795Y-38197241D01*
X60837413Y-37977513D01*
X60774311Y-37742986D01*
X60753913Y-37538784D01*
X61370109Y-37538784D01*
X61372731Y-37617558D01*
X61379929Y-37676670D01*
X61393543Y-37727451D01*
X61415416Y-37781232D01*
X61433918Y-37821023D01*
X61531256Y-37984004D01*
X61655923Y-38125640D01*
X61801273Y-38240627D01*
X61960657Y-38323663D01*
X62119933Y-38368272D01*
X62210806Y-38381180D01*
X62291250Y-38387229D01*
X62374098Y-38386233D01*
X62472181Y-38378006D01*
X62598332Y-38362363D01*
X62606767Y-38361226D01*
X62839262Y-38325122D01*
X63032008Y-38284697D01*
X63187448Y-38239087D01*
X63308024Y-38187430D01*
X63396179Y-38128862D01*
X63454355Y-38062521D01*
X63454915Y-38061619D01*
X63482683Y-38007036D01*
X63493212Y-37951804D01*
X63489960Y-37876478D01*
X63489193Y-37868858D01*
X63463496Y-37753244D01*
X63410270Y-37616531D01*
X63333517Y-37465864D01*
X63237239Y-37308391D01*
X63125440Y-37151259D01*
X63005737Y-37005683D01*
X62951060Y-36941693D01*
X62881895Y-36857509D01*
X62809299Y-36766694D01*
X62772765Y-36719933D01*
X62639315Y-36558847D01*
X62503826Y-36416521D01*
X62370526Y-36296319D01*
X62243643Y-36201603D01*
X62127406Y-36135737D01*
X62026044Y-36102083D01*
X61991282Y-36098410D01*
X61909227Y-36111952D01*
X61830231Y-36158012D01*
X61753315Y-36238145D01*
X61677502Y-36353901D01*
X61601816Y-36506833D01*
X61525278Y-36698495D01*
X61446912Y-36930437D01*
X61426859Y-36995100D01*
X61400954Y-37088169D01*
X61384271Y-37173176D01*
X61374861Y-37265060D01*
X61370774Y-37378761D01*
X61370222Y-37429017D01*
X61370109Y-37538784D01*
X60753913Y-37538784D01*
X60749302Y-37492633D01*
X60762200Y-37225430D01*
X60812820Y-36940352D01*
X60900975Y-36636373D01*
X60901352Y-36635267D01*
X60926821Y-36558896D01*
X60945889Y-36498561D01*
X60955206Y-36464950D01*
X60955619Y-36462042D01*
X60937065Y-36462463D01*
X60886678Y-36474737D01*
X60812560Y-36496674D01*
X60738808Y-36520656D01*
X60560565Y-36577110D01*
X60407161Y-36616490D01*
X60265679Y-36640862D01*
X60123199Y-36652294D01*
X59966803Y-36652851D01*
X59921386Y-36651438D01*
X59796930Y-36645420D01*
X59702208Y-36636594D01*
X59624625Y-36622950D01*
X59551588Y-36602477D01*
X59499136Y-36584015D01*
X59296946Y-36495127D01*
X59120818Y-36385809D01*
X58955910Y-36246528D01*
X58922401Y-36213668D01*
X58771110Y-36043666D01*
X58654790Y-35869471D01*
X58566572Y-35680421D01*
X58550361Y-35636084D01*
X58525991Y-35555043D01*
X58503292Y-35459551D01*
X58483752Y-35359051D01*
X58468858Y-35262983D01*
X58460098Y-35180787D01*
X58458958Y-35121905D01*
X58465405Y-35096906D01*
X58489933Y-35097753D01*
X58547113Y-35110496D01*
X58629592Y-35133185D01*
X58730018Y-35163868D01*
X58784886Y-35181671D01*
X58901317Y-35220471D01*
X58983742Y-35249461D01*
X59038402Y-35271959D01*
X59071537Y-35291286D01*
X59089387Y-35310759D01*
X59098192Y-35333698D01*
X59101663Y-35350155D01*
X59147641Y-35489552D01*
X59229154Y-35628756D01*
X59340038Y-35760275D01*
X59474128Y-35876615D01*
X59601670Y-35957933D01*
X59661021Y-35989230D01*
X59708893Y-36010145D01*
X59756257Y-36022732D01*
X59814084Y-36029042D01*
X59893347Y-36031128D01*
X59992683Y-36031088D01*
X60098229Y-36029972D01*
X60180049Y-36026015D01*
X60250973Y-36016973D01*
X60323830Y-36000600D01*
X60411449Y-35974651D01*
X60521850Y-35938485D01*
X60744770Y-35858254D01*
X60926314Y-35779783D01*
X61067378Y-35702620D01*
X61168863Y-35626313D01*
X61195061Y-35599875D01*
X61242919Y-35540804D01*
X61266280Y-35489995D01*
X61273160Y-35428596D01*
X61273267Y-35415904D01*
X61254102Y-35299563D01*
X61197696Y-35169058D01*
X61105681Y-35026990D01*
X60979689Y-34875958D01*
X60855092Y-34750012D01*
X60609744Y-34523024D01*
X60388315Y-34329495D01*
X60189678Y-34168755D01*
X60012708Y-34040131D01*
X59856280Y-33942952D01*
X59719269Y-33876545D01*
X59600549Y-33840240D01*
X59498994Y-33833365D01*
X59413479Y-33855248D01*
X59383593Y-33871851D01*
X59323345Y-33932333D01*
X59266207Y-34030014D01*
X59213632Y-34159791D01*
X59167070Y-34316561D01*
X59127973Y-34495221D01*
X59097793Y-34690668D01*
X59077981Y-34897802D01*
X59074412Y-34958733D01*
X59061350Y-35218949D01*
X58770195Y-34963170D01*
X58479040Y-34707390D01*
X58492330Y-34618287D01*
X58505391Y-34534879D01*
X58519616Y-34449643D01*
X58521065Y-34441345D01*
X58536509Y-34353507D01*
X58401709Y-34427602D01*
X58332242Y-34462518D01*
X58275281Y-34485218D01*
X58242246Y-34491221D01*
X58240796Y-34490772D01*
X58215765Y-34473278D01*
X58167201Y-34434058D01*
X58102192Y-34379316D01*
X58027824Y-34315257D01*
X57951183Y-34248088D01*
X57879356Y-34184012D01*
X57819430Y-34129236D01*
X57778491Y-34089964D01*
X57763758Y-34073060D01*
X57778852Y-34057684D01*
X57824687Y-34028837D01*
X57893667Y-33991002D01*
X57958019Y-33958444D01*
X58177048Y-33843067D01*
X58356576Y-33730924D01*
X58496096Y-33622461D01*
X58595099Y-33518123D01*
X58653079Y-33418356D01*
X58669767Y-33333474D01*
X58649945Y-33237462D01*
X58591847Y-33130502D01*
X58497520Y-33014530D01*
X58369013Y-32891479D01*
X58208375Y-32763286D01*
X58017654Y-32631883D01*
X57798899Y-32499207D01*
X57767560Y-32481433D01*
X57703858Y-32444623D01*
X57618012Y-32393733D01*
X57523851Y-32337000D01*
X57473850Y-32306487D01*
X57299315Y-32208851D01*
X57128714Y-32131295D01*
X56968184Y-32075792D01*
X56823863Y-32044316D01*
X56701889Y-32038838D01*
X56659238Y-32044674D01*
X56575449Y-32080591D01*
X56507399Y-32151147D01*
X56454499Y-32257642D01*
X56416160Y-32401376D01*
X56391791Y-32583649D01*
X56387210Y-32644577D01*
X56373183Y-32863672D01*
X56034517Y-32566921D01*
X55927960Y-32473609D01*
X55826885Y-32385200D01*
X55737548Y-32307158D01*
X55666202Y-32244946D01*
X55619102Y-32204027D01*
X55612823Y-32198604D01*
X55529797Y-32127038D01*
X55594036Y-32047100D01*
X55652476Y-31965426D01*
X55701839Y-31880021D01*
X55735983Y-31802844D01*
X55748766Y-31745855D01*
X55748767Y-31745766D01*
X55728536Y-31656661D01*
X55670084Y-31562324D01*
X55576775Y-31465459D01*
X55451970Y-31368771D01*
X55299031Y-31274965D01*
X55121322Y-31186745D01*
X54981971Y-31128989D01*
X54806804Y-31061765D01*
X54667119Y-31007982D01*
X54558836Y-30966016D01*
X54477875Y-30934244D01*
X54420154Y-30911042D01*
X54381595Y-30894787D01*
X54358116Y-30883855D01*
X54345638Y-30876623D01*
X54343413Y-30874919D01*
X54336825Y-30868859D01*
X54336685Y-30863387D01*
X54348049Y-30857212D01*
X54375974Y-30849043D01*
X54425514Y-30837590D01*
X54501728Y-30821563D01*
X54609671Y-30799670D01*
X54743350Y-30772838D01*
X54886738Y-30743676D01*
X55046435Y-30710547D01*
X55203553Y-30677402D01*
X55339206Y-30648195D01*
X55346600Y-30646577D01*
X55632350Y-30583994D01*
X55981600Y-30735453D01*
X56163094Y-30816436D01*
X56372015Y-30913480D01*
X56598882Y-31021908D01*
X56834217Y-31137039D01*
X57068543Y-31254195D01*
X57292380Y-31368697D01*
X57496250Y-31475865D01*
X57643183Y-31555713D01*
X58432953Y-32017529D01*
X59201523Y-32515494D01*
X59947439Y-33048313D01*
X60669245Y-33614688D01*
X61365487Y-34213323D01*
X62034709Y-34842920D01*
X62675457Y-35502183D01*
X63286275Y-36189815D01*
X63865709Y-36904518D01*
X64304189Y-37492821D01*
X64831098Y-38263356D01*
X65321386Y-39054734D01*
X65774584Y-39865771D01*
X66190223Y-40695285D01*
X66567832Y-41542090D01*
X66906944Y-42405003D01*
X67207089Y-43282841D01*
X67467797Y-44174420D01*
X67688599Y-45078555D01*
X67869025Y-45994064D01*
X67992303Y-46795267D01*
X68056564Y-47322947D01*
X68105843Y-47839394D01*
X68140745Y-48355376D01*
X68161879Y-48881661D01*
X68169851Y-49429017D01*
X68167063Y-49896183D01*
X68146121Y-50628608D01*
X68103943Y-51332573D01*
X68039544Y-52016795D01*
X67951939Y-52689989D01*
X67840145Y-53360871D01*
X67703175Y-54038157D01*
X67694707Y-54076600D01*
X67472644Y-54984781D01*
X67212087Y-55877173D01*
X66913807Y-56752744D01*
X66578573Y-57610461D01*
X66207154Y-58449292D01*
X65800321Y-59268203D01*
X65358842Y-60066162D01*
X64883488Y-60842136D01*
X64375027Y-61595093D01*
X63834230Y-62323999D01*
X63261866Y-63027823D01*
X62658705Y-63705532D01*
X62025515Y-64356092D01*
X61363068Y-64978472D01*
X60672132Y-65571638D01*
X59953476Y-66134558D01*
X59207871Y-66666199D01*
X58436086Y-67165529D01*
X57638891Y-67631515D01*
X57561498Y-67674212D01*
X56753817Y-68093832D01*
X55931836Y-68473856D01*
X55095246Y-68814374D01*
X54243737Y-69115481D01*
X53377002Y-69377266D01*
X52494730Y-69599823D01*
X51596612Y-69783242D01*
X50682339Y-69927617D01*
X49751603Y-70033039D01*
X49578683Y-70048188D01*
X49450073Y-70056893D01*
X49285622Y-70064796D01*
X49091818Y-70071826D01*
X48875148Y-70077907D01*
X48642099Y-70082968D01*
X48399158Y-70086933D01*
X48152812Y-70089731D01*
X47909547Y-70091287D01*
X47675852Y-70091529D01*
X47458212Y-70090382D01*
X47263114Y-70087774D01*
X47097047Y-70083630D01*
X46966496Y-70077878D01*
X46964600Y-70077765D01*
X46042226Y-70002720D01*
X45136699Y-69889290D01*
X44246000Y-69736987D01*
X43368110Y-69545322D01*
X42501010Y-69313807D01*
X41642680Y-69041954D01*
X40791101Y-68729275D01*
X40151528Y-68462401D01*
X43535623Y-68462401D01*
X43537562Y-68565323D01*
X43573941Y-68652917D01*
X43583641Y-68666505D01*
X43661504Y-68741075D01*
X43776413Y-68812350D01*
X43923098Y-68878163D01*
X44096286Y-68936346D01*
X44290705Y-68984732D01*
X44414017Y-69007936D01*
X44531779Y-69027802D01*
X44668864Y-69051308D01*
X44802926Y-69074611D01*
X44858517Y-69084397D01*
X44980362Y-69105890D01*
X45070477Y-69121199D01*
X45138828Y-69131452D01*
X45195382Y-69137777D01*
X45250105Y-69141302D01*
X45312965Y-69143156D01*
X45388528Y-69144384D01*
X45505625Y-69141621D01*
X45617615Y-69131087D01*
X45701291Y-69115641D01*
X45824607Y-69073846D01*
X45910903Y-69019269D01*
X45932209Y-68990395D01*
X46817056Y-68990395D01*
X46836646Y-69081465D01*
X46887540Y-69152896D01*
X46975943Y-69217877D01*
X47097230Y-69274036D01*
X47246774Y-69319005D01*
X47336604Y-69337614D01*
X47384240Y-69342144D01*
X47467835Y-69345855D01*
X47581024Y-69348640D01*
X47717439Y-69350394D01*
X47870713Y-69351008D01*
X48034478Y-69350377D01*
X48075850Y-69350017D01*
X48261140Y-69347977D01*
X48409899Y-69345596D01*
X48527928Y-69342503D01*
X48621029Y-69338323D01*
X48695003Y-69332685D01*
X48755652Y-69325215D01*
X48808778Y-69315542D01*
X48860183Y-69303291D01*
X48878359Y-69298456D01*
X49044966Y-69242488D01*
X49171081Y-69175662D01*
X49257246Y-69097526D01*
X49304004Y-69007627D01*
X49313574Y-68935600D01*
X49298611Y-68834100D01*
X49259568Y-68717289D01*
X50095118Y-68717289D01*
X50095486Y-68849126D01*
X50126468Y-68953689D01*
X50189542Y-69032976D01*
X50286183Y-69088982D01*
X50417869Y-69123706D01*
X50586076Y-69139143D01*
X50753433Y-69138774D01*
X50882282Y-69131387D01*
X51021528Y-69118237D01*
X51151819Y-69101385D01*
X51229683Y-69088025D01*
X51350469Y-69064845D01*
X51489128Y-69039544D01*
X51621694Y-69016459D01*
X51663600Y-69009480D01*
X51871579Y-68967907D01*
X52060512Y-68915283D01*
X52225338Y-68853674D01*
X52360999Y-68785141D01*
X52462433Y-68711750D01*
X52504559Y-68666505D01*
X52546940Y-68582096D01*
X52555583Y-68483120D01*
X52529997Y-68368559D01*
X52469689Y-68237396D01*
X52374166Y-68088612D01*
X52341890Y-68047433D01*
X53320978Y-68047433D01*
X53345706Y-68183686D01*
X53395718Y-68286433D01*
X53471062Y-68355859D01*
X53536055Y-68383918D01*
X53636026Y-68400515D01*
X53762754Y-68402646D01*
X53903320Y-68390604D01*
X54006519Y-68373184D01*
X54095448Y-68351497D01*
X54207322Y-68319435D01*
X54325613Y-68281918D01*
X54402502Y-68255361D01*
X54524509Y-68211774D01*
X54659675Y-68163990D01*
X54787414Y-68119269D01*
X54849183Y-68097870D01*
X55057298Y-68018664D01*
X55243291Y-67932815D01*
X55403707Y-67842659D01*
X55535091Y-67750534D01*
X55633989Y-67658776D01*
X55696944Y-67569721D01*
X55717727Y-67510508D01*
X55715191Y-67415942D01*
X55674191Y-67308924D01*
X55594431Y-67189053D01*
X55475612Y-67055931D01*
X55317439Y-66909159D01*
X55194588Y-66807213D01*
X54986477Y-66653162D01*
X54795402Y-66537701D01*
X54621183Y-66460742D01*
X54463642Y-66422198D01*
X54393255Y-66417313D01*
X54229124Y-66434842D01*
X54059785Y-66485861D01*
X53897570Y-66565332D01*
X53754812Y-66668217D01*
X53734867Y-66686266D01*
X53648596Y-66781961D01*
X53573234Y-66899184D01*
X53507167Y-67042052D01*
X53448776Y-67214685D01*
X53396446Y-67421200D01*
X53348557Y-67665715D01*
X53347175Y-67673664D01*
X53321484Y-67877487D01*
X53320978Y-68047433D01*
X52341890Y-68047433D01*
X52242937Y-67921190D01*
X52075509Y-67734112D01*
X52030823Y-67687151D01*
X51882901Y-67543370D01*
X51747148Y-67434506D01*
X51617409Y-67357316D01*
X51487529Y-67308556D01*
X51351354Y-67284980D01*
X51261433Y-67281586D01*
X51083631Y-67294887D01*
X50923991Y-67334090D01*
X50780322Y-67401387D01*
X50650431Y-67498974D01*
X50532127Y-67629044D01*
X50423218Y-67793793D01*
X50321511Y-67995413D01*
X50224814Y-68236101D01*
X50180319Y-68363807D01*
X50123888Y-68556182D01*
X50095118Y-68717289D01*
X49259568Y-68717289D01*
X49255083Y-68703873D01*
X49183749Y-68546730D01*
X49085367Y-68364477D01*
X49046462Y-68298071D01*
X48917144Y-68095149D01*
X48792805Y-67930386D01*
X48669699Y-67800518D01*
X48544081Y-67702278D01*
X48412206Y-67632402D01*
X48270327Y-67587624D01*
X48220178Y-67577714D01*
X48026938Y-67565363D01*
X47838630Y-67593833D01*
X47660396Y-67661614D01*
X47497378Y-67767194D01*
X47456459Y-67802149D01*
X47378642Y-67883712D01*
X47289454Y-67995887D01*
X47194446Y-68130478D01*
X47099169Y-68279294D01*
X47009174Y-68434140D01*
X46943431Y-68559427D01*
X46869148Y-68728353D01*
X46827116Y-68871555D01*
X46817056Y-68990395D01*
X45932209Y-68990395D01*
X45964920Y-68946065D01*
X45991399Y-68848387D01*
X45995997Y-68752265D01*
X45983878Y-68641705D01*
X45952489Y-68504380D01*
X45905288Y-68349238D01*
X45845736Y-68185229D01*
X45777292Y-68021301D01*
X45703415Y-67866402D01*
X45627567Y-67729481D01*
X45563082Y-67632508D01*
X45434943Y-67494360D01*
X45281827Y-67389628D01*
X45106181Y-67319479D01*
X44910454Y-67285078D01*
X44826767Y-67281586D01*
X44683630Y-67291229D01*
X44550589Y-67324053D01*
X44421490Y-67383304D01*
X44290178Y-67472224D01*
X44150497Y-67594059D01*
X44057376Y-67687151D01*
X43880751Y-67879878D01*
X43740687Y-68052889D01*
X43636761Y-68207061D01*
X43568548Y-68343273D01*
X43535623Y-68462401D01*
X40151528Y-68462401D01*
X39969017Y-68386245D01*
X39814528Y-68315975D01*
X39631965Y-68229674D01*
X39430280Y-68131824D01*
X39218429Y-68026910D01*
X39005365Y-67919416D01*
X38800043Y-67813825D01*
X38611418Y-67714621D01*
X38448444Y-67626288D01*
X38421970Y-67611579D01*
X38149112Y-67451007D01*
X40367713Y-67451007D01*
X40370473Y-67510508D01*
X40405989Y-67595060D01*
X40479577Y-67684340D01*
X40587593Y-67775883D01*
X40726390Y-67867222D01*
X40892324Y-67955893D01*
X41081750Y-68039430D01*
X41239017Y-68097912D01*
X41352904Y-68137480D01*
X41486163Y-68184321D01*
X41618382Y-68231241D01*
X41687182Y-68255884D01*
X41932640Y-68335041D01*
X42147859Y-68385007D01*
X42332732Y-68405765D01*
X42487151Y-68397298D01*
X42541970Y-68385282D01*
X42636245Y-68341200D01*
X42705426Y-68267594D01*
X42749837Y-68163305D01*
X42769802Y-68027178D01*
X42765645Y-67858056D01*
X42741024Y-67673664D01*
X42691054Y-67419164D01*
X42635096Y-67203003D01*
X42571149Y-67021373D01*
X42497209Y-66870470D01*
X42411273Y-66746485D01*
X42311339Y-66645613D01*
X42195402Y-66564047D01*
X42141766Y-66534788D01*
X41979961Y-66465854D01*
X41823924Y-66427954D01*
X41669531Y-66421988D01*
X41512662Y-66448856D01*
X41349193Y-66509457D01*
X41175002Y-66604690D01*
X40985967Y-66735457D01*
X40893611Y-66807213D01*
X40709934Y-66962988D01*
X40565802Y-67104856D01*
X40460919Y-67233216D01*
X40394988Y-67348466D01*
X40367713Y-67451007D01*
X38149112Y-67451007D01*
X37624802Y-67142461D01*
X36850562Y-66637991D01*
X36100382Y-66099109D01*
X35774919Y-65842166D01*
X37440825Y-65842166D01*
X37452662Y-65949527D01*
X37505393Y-66063059D01*
X37598602Y-66182270D01*
X37731876Y-66306667D01*
X37904798Y-66435760D01*
X38116955Y-66569056D01*
X38216080Y-66625303D01*
X38324710Y-66685974D01*
X38447387Y-66755556D01*
X38561754Y-66821346D01*
X38588313Y-66836814D01*
X38799375Y-66951108D01*
X38992052Y-67036986D01*
X39164338Y-67093954D01*
X39314229Y-67121518D01*
X39439719Y-67119183D01*
X39538804Y-67086455D01*
X39556267Y-67075538D01*
X39624398Y-67003838D01*
X39677413Y-66894464D01*
X39714872Y-66749451D01*
X39736337Y-66570833D01*
X39741369Y-66360643D01*
X39737208Y-66236850D01*
X39722569Y-66034137D01*
X39700465Y-65865642D01*
X39669374Y-65723667D01*
X39627773Y-65600514D01*
X39598246Y-65534716D01*
X39507981Y-65395354D01*
X39384577Y-65269864D01*
X39236494Y-65164267D01*
X39072190Y-65084579D01*
X38900126Y-65036821D01*
X38897945Y-65036448D01*
X38822652Y-65026131D01*
X38758235Y-65025163D01*
X38688136Y-65034715D01*
X38595794Y-65055955D01*
X38585781Y-65058491D01*
X38444778Y-65102612D01*
X38292433Y-65164528D01*
X38135351Y-65240194D01*
X37980139Y-65325565D01*
X37833404Y-65416595D01*
X37701753Y-65509240D01*
X37591793Y-65599455D01*
X37510130Y-65683194D01*
X37470298Y-65741467D01*
X37440825Y-65842166D01*
X35774919Y-65842166D01*
X35375396Y-65526755D01*
X34676737Y-64921869D01*
X34005538Y-64285391D01*
X33574138Y-63837528D01*
X34822585Y-63837528D01*
X34856215Y-63950204D01*
X34902288Y-64039156D01*
X34959073Y-64120440D01*
X35041765Y-64219974D01*
X35142898Y-64329961D01*
X35255005Y-64442605D01*
X35370621Y-64550109D01*
X35481683Y-64644201D01*
X35563072Y-64709902D01*
X35661708Y-64790607D01*
X35762538Y-64873960D01*
X35818573Y-64920728D01*
X36011793Y-65070921D01*
X36194394Y-65189088D01*
X36362594Y-65272878D01*
X36417975Y-65293858D01*
X36513773Y-65323219D01*
X36585680Y-65334402D01*
X36647705Y-65328087D01*
X36706883Y-65307911D01*
X36779555Y-65260762D01*
X36842806Y-65182563D01*
X36897890Y-65070665D01*
X36946058Y-64922419D01*
X36988562Y-64735178D01*
X36995779Y-64696740D01*
X37035394Y-64442506D01*
X37054328Y-64221309D01*
X37051837Y-64028844D01*
X37027177Y-63860804D01*
X36979605Y-63712883D01*
X36908378Y-63580774D01*
X36812751Y-63460170D01*
X36775703Y-63422152D01*
X36619627Y-63291939D01*
X36457547Y-63202845D01*
X36286232Y-63153748D01*
X36102448Y-63143525D01*
X36001319Y-63153136D01*
X35885064Y-63175350D01*
X35743198Y-63211320D01*
X35588566Y-63257108D01*
X35434017Y-63308779D01*
X35292396Y-63362394D01*
X35225739Y-63390806D01*
X35065079Y-63472323D01*
X34945590Y-63555436D01*
X34866116Y-63642463D01*
X34825499Y-63735721D01*
X34822585Y-63837528D01*
X33574138Y-63837528D01*
X33362932Y-63618262D01*
X32750053Y-62921422D01*
X32708124Y-62871350D01*
X32130581Y-62146554D01*
X31587520Y-61397809D01*
X31506326Y-61274532D01*
X32592433Y-61274532D01*
X32609951Y-61398547D01*
X32661425Y-61542438D01*
X32745237Y-61703133D01*
X32859766Y-61877561D01*
X33003395Y-62062653D01*
X33015901Y-62077600D01*
X33094210Y-62171434D01*
X33178028Y-62273046D01*
X33254224Y-62366473D01*
X33285803Y-62405683D01*
X33355846Y-62488873D01*
X33442119Y-62585095D01*
X33530081Y-62678308D01*
X33564614Y-62713282D01*
X33721275Y-62858238D01*
X33861962Y-62965028D01*
X33987865Y-63034183D01*
X34100174Y-63066233D01*
X34200080Y-63061710D01*
X34275034Y-63030192D01*
X34350218Y-62966072D01*
X34423860Y-62866814D01*
X34496888Y-62730671D01*
X34570226Y-62555894D01*
X34644804Y-62340737D01*
X34651076Y-62321017D01*
X34711320Y-62112766D01*
X34749736Y-61934186D01*
X34766473Y-61778766D01*
X34761681Y-61639995D01*
X34735507Y-61511362D01*
X34688101Y-61386356D01*
X34673150Y-61355309D01*
X34593684Y-61224207D01*
X34493460Y-61100915D01*
X34382170Y-60995547D01*
X34269507Y-60918213D01*
X34239948Y-60903377D01*
X34087814Y-60848125D01*
X33924429Y-60818520D01*
X33740943Y-60813516D01*
X33582206Y-60825565D01*
X33319916Y-60861325D01*
X33098656Y-60905815D01*
X32917991Y-60959232D01*
X32777486Y-61021772D01*
X32676705Y-61093634D01*
X32615215Y-61175014D01*
X32592580Y-61266110D01*
X32592433Y-61274532D01*
X31506326Y-61274532D01*
X31079525Y-60626526D01*
X30607180Y-59834114D01*
X30171070Y-59021985D01*
X29897786Y-58453615D01*
X30832466Y-58453615D01*
X30848244Y-58583294D01*
X30885861Y-58731513D01*
X30943921Y-58893323D01*
X31021028Y-59063774D01*
X31115784Y-59237917D01*
X31170055Y-59325933D01*
X31221010Y-59408757D01*
X31277458Y-59505711D01*
X31318558Y-59579933D01*
X31423121Y-59762437D01*
X31533316Y-59931964D01*
X31642983Y-60079669D01*
X31745961Y-60196709D01*
X31753364Y-60204124D01*
X31870318Y-60308417D01*
X31974438Y-60374817D01*
X32069646Y-60404309D01*
X32159862Y-60397876D01*
X32249009Y-60356503D01*
X32278251Y-60335815D01*
X32339032Y-60280931D01*
X32406490Y-60207268D01*
X32459162Y-60140023D01*
X32513540Y-60055978D01*
X32576476Y-59946752D01*
X32643457Y-59821502D01*
X32709968Y-59689383D01*
X32771495Y-59559553D01*
X32823526Y-59441168D01*
X32861544Y-59343386D01*
X32877646Y-59291128D01*
X32907225Y-59093271D01*
X32895317Y-58902800D01*
X32841614Y-58717492D01*
X32781388Y-58593864D01*
X32690459Y-58455425D01*
X32587065Y-58342615D01*
X32466542Y-58253207D01*
X32324226Y-58184971D01*
X32155451Y-58135682D01*
X31955554Y-58103110D01*
X31719871Y-58085029D01*
X31715548Y-58084835D01*
X31473613Y-58082116D01*
X31269941Y-58097160D01*
X31104576Y-58129958D01*
X30977559Y-58180501D01*
X30888933Y-58248779D01*
X30872015Y-58269669D01*
X30839925Y-58347423D01*
X30832466Y-58453615D01*
X29897786Y-58453615D01*
X29771780Y-58191551D01*
X29409893Y-57344220D01*
X29085996Y-56481405D01*
X28800672Y-55604516D01*
X28744532Y-55401644D01*
X29567901Y-55401644D01*
X29572652Y-55486001D01*
X29587312Y-55583051D01*
X29612859Y-55696932D01*
X29650269Y-55831782D01*
X29700520Y-55991737D01*
X29764588Y-56180936D01*
X29843451Y-56403515D01*
X29878400Y-56500183D01*
X29972721Y-56743430D01*
X30064803Y-56946512D01*
X30155915Y-57111453D01*
X30247328Y-57240278D01*
X30340313Y-57335008D01*
X30436137Y-57397668D01*
X30444017Y-57401380D01*
X30515210Y-57425630D01*
X30581712Y-57425823D01*
X30656874Y-57400287D01*
X30720951Y-57366686D01*
X30799441Y-57309977D01*
X30892848Y-57223269D01*
X30995477Y-57113540D01*
X31101632Y-56987767D01*
X31205618Y-56852928D01*
X31301738Y-56715999D01*
X31384298Y-56583959D01*
X31432663Y-56494800D01*
X31477611Y-56399620D01*
X31505436Y-56323329D01*
X31521034Y-56248660D01*
X31529302Y-56158347D01*
X31529624Y-56152885D01*
X31522177Y-55952929D01*
X31478188Y-55763413D01*
X31400509Y-55589596D01*
X31291993Y-55436735D01*
X31155493Y-55310089D01*
X31030127Y-55232224D01*
X30910823Y-55181315D01*
X30757607Y-55131064D01*
X30578868Y-55083844D01*
X30382993Y-55042026D01*
X30311907Y-55029100D01*
X30187077Y-55008148D01*
X30093634Y-54994994D01*
X30021438Y-54989222D01*
X29960346Y-54990415D01*
X29900218Y-54998160D01*
X29841190Y-55009820D01*
X29730403Y-55046641D01*
X29652846Y-55105329D01*
X29602687Y-55191437D01*
X29584220Y-55254462D01*
X29572083Y-55325844D01*
X29567901Y-55401644D01*
X28744532Y-55401644D01*
X28554507Y-54714964D01*
X28348083Y-53814159D01*
X28181988Y-52903513D01*
X28094826Y-52263580D01*
X28853427Y-52263580D01*
X28860035Y-52436506D01*
X28878003Y-52622351D01*
X28907238Y-52814178D01*
X28915761Y-52859517D01*
X28940294Y-52986085D01*
X28965295Y-53116433D01*
X28987960Y-53235857D01*
X29005483Y-53329656D01*
X29006608Y-53335767D01*
X29030021Y-53444587D01*
X29061986Y-53569249D01*
X29096309Y-53685911D01*
X29102705Y-53705566D01*
X29162933Y-53867522D01*
X29225334Y-53993408D01*
X29293857Y-54089451D01*
X29372449Y-54161877D01*
X29406850Y-54185170D01*
X29459844Y-54213415D01*
X29507403Y-54222679D01*
X29567052Y-54214448D01*
X29612738Y-54202621D01*
X29699205Y-54166216D01*
X29805497Y-54102126D01*
X29925341Y-54016001D01*
X30052466Y-53913488D01*
X30180599Y-53800236D01*
X30303468Y-53681893D01*
X30414801Y-53564107D01*
X30508325Y-53452527D01*
X30577768Y-53352801D01*
X30598847Y-53314600D01*
X30669347Y-53128880D01*
X30697605Y-52941442D01*
X30687380Y-52774516D01*
X30644304Y-52584073D01*
X30578865Y-52424577D01*
X30486897Y-52288755D01*
X30364232Y-52169330D01*
X30321956Y-52136453D01*
X30194859Y-52053316D01*
X30041666Y-51971030D01*
X29872563Y-51893607D01*
X29697738Y-51825064D01*
X29527380Y-51769414D01*
X29371676Y-51730672D01*
X29248100Y-51713280D01*
X29128260Y-51713745D01*
X29038733Y-51735815D01*
X28971197Y-51783787D01*
X28917330Y-51861961D01*
X28902702Y-51891706D01*
X28874667Y-51984241D01*
X28858273Y-52110512D01*
X28853427Y-52263580D01*
X28094826Y-52263580D01*
X28056804Y-51984436D01*
X28011045Y-51536600D01*
X27952418Y-50703832D01*
X27926192Y-49856092D01*
X27927810Y-49632940D01*
X28654982Y-49632940D01*
X28656483Y-49798815D01*
X28659994Y-49952710D01*
X28665558Y-50086872D01*
X28673217Y-50193547D01*
X28678085Y-50235897D01*
X28715783Y-50440311D01*
X28766608Y-50604786D01*
X28830837Y-50729717D01*
X28908746Y-50815501D01*
X29000613Y-50862533D01*
X29106714Y-50871210D01*
X29121100Y-50869603D01*
X29183942Y-50854637D01*
X29269368Y-50825529D01*
X29362369Y-50787598D01*
X29396267Y-50772121D01*
X29528974Y-50703551D01*
X29671100Y-50620018D01*
X29813362Y-50527857D01*
X29946476Y-50433404D01*
X30061160Y-50342996D01*
X30148129Y-50262969D01*
X30158636Y-50251787D01*
X30276337Y-50100333D01*
X30355051Y-49943095D01*
X30398090Y-49772551D01*
X30406785Y-49688102D01*
X30405435Y-49504553D01*
X30375643Y-49338069D01*
X30314995Y-49184613D01*
X30221080Y-49040148D01*
X30091486Y-48900636D01*
X29923801Y-48762041D01*
X29802576Y-48676755D01*
X29612670Y-48556382D01*
X29439339Y-48459853D01*
X29285504Y-48388419D01*
X29154085Y-48343332D01*
X29048005Y-48325844D01*
X28993240Y-48330039D01*
X28900361Y-48371237D01*
X28821671Y-48451159D01*
X28756905Y-48570230D01*
X28705797Y-48728873D01*
X28685818Y-48820352D01*
X28676147Y-48895268D01*
X28668232Y-49004729D01*
X28662116Y-49140981D01*
X28657841Y-49296269D01*
X28655448Y-49462840D01*
X28654982Y-49632940D01*
X27927810Y-49632940D01*
X27932365Y-49005017D01*
X27970935Y-48162245D01*
X28011763Y-47641933D01*
X28096475Y-46901100D01*
X28857334Y-46901100D01*
X28857591Y-47019086D01*
X28859989Y-47104234D01*
X28865792Y-47166033D01*
X28876261Y-47213968D01*
X28892659Y-47257526D01*
X28909433Y-47292683D01*
X28966520Y-47379650D01*
X29038686Y-47437101D01*
X29130474Y-47466233D01*
X29246429Y-47468238D01*
X29391093Y-47444313D01*
X29440506Y-47432325D01*
X29613409Y-47380606D01*
X29794554Y-47313558D01*
X29973023Y-47236120D01*
X30137899Y-47153234D01*
X30278264Y-47069841D01*
X30343618Y-47023592D01*
X30470625Y-46906906D01*
X30567185Y-46773001D01*
X30636858Y-46615386D01*
X30683200Y-46427572D01*
X30688692Y-46394259D01*
X30697834Y-46211434D01*
X30667034Y-46034186D01*
X30595630Y-45860687D01*
X30482958Y-45689112D01*
X30396268Y-45587406D01*
X30241365Y-45428396D01*
X30089016Y-45288290D01*
X29942891Y-45169619D01*
X29806656Y-45074917D01*
X29683980Y-45006717D01*
X29578531Y-44967551D01*
X29493977Y-44959953D01*
X29488705Y-44960706D01*
X29393686Y-44997329D01*
X29304655Y-45074490D01*
X29222444Y-45190710D01*
X29147889Y-45344508D01*
X29081823Y-45534406D01*
X29025081Y-45758922D01*
X29017041Y-45797380D01*
X28974693Y-46007068D01*
X28940481Y-46181267D01*
X28913554Y-46325856D01*
X28893062Y-46446715D01*
X28878152Y-46549722D01*
X28867976Y-46640758D01*
X28861681Y-46725702D01*
X28858418Y-46810434D01*
X28857335Y-46900831D01*
X28857334Y-46901100D01*
X28096475Y-46901100D01*
X28115540Y-46734371D01*
X28259955Y-45829361D01*
X28444138Y-44930585D01*
X28667218Y-44041722D01*
X28760507Y-43729001D01*
X29573846Y-43729001D01*
X29576939Y-43877224D01*
X29605774Y-43995117D01*
X29617182Y-44019852D01*
X29668211Y-44089304D01*
X29741055Y-44138864D01*
X29838732Y-44168927D01*
X29964258Y-44179889D01*
X30120652Y-44172149D01*
X30310931Y-44146102D01*
X30422850Y-44125730D01*
X30667786Y-44070448D01*
X30874579Y-44005876D01*
X31046900Y-43929328D01*
X31188422Y-43838118D01*
X31302817Y-43729558D01*
X31393757Y-43600963D01*
X31464912Y-43449647D01*
X31502961Y-43335546D01*
X31525895Y-43224736D01*
X31532029Y-43099661D01*
X31529931Y-43037530D01*
X31522487Y-42943598D01*
X31508423Y-42867698D01*
X31483017Y-42792386D01*
X31441545Y-42700214D01*
X31434854Y-42686346D01*
X31359948Y-42548842D01*
X31266900Y-42404658D01*
X31161384Y-42260508D01*
X31049072Y-42123104D01*
X30935635Y-41999160D01*
X30826746Y-41895391D01*
X30728079Y-41818508D01*
X30675717Y-41787868D01*
X30591919Y-41753668D01*
X30521455Y-41744285D01*
X30455129Y-41762267D01*
X30383744Y-41810160D01*
X30298107Y-41890512D01*
X30295463Y-41893204D01*
X30186334Y-42025965D01*
X30081517Y-42197596D01*
X29980402Y-42409233D01*
X29884085Y-42657183D01*
X29839741Y-42781917D01*
X29788920Y-42924232D01*
X29739568Y-43061904D01*
X29716341Y-43126448D01*
X29643814Y-43351204D01*
X29596227Y-43552858D01*
X29573846Y-43729001D01*
X28760507Y-43729001D01*
X28928325Y-43166452D01*
X29226587Y-42308458D01*
X29348420Y-41990433D01*
X29705765Y-41137807D01*
X29864191Y-40802601D01*
X30833455Y-40802601D01*
X30856329Y-40881546D01*
X30918288Y-40951188D01*
X31016807Y-41010017D01*
X31149362Y-41056521D01*
X31311850Y-41088966D01*
X31377997Y-41093433D01*
X31475719Y-41093892D01*
X31594502Y-41090891D01*
X31723834Y-41084978D01*
X31853201Y-41076700D01*
X31972091Y-41066606D01*
X32069991Y-41055243D01*
X32120416Y-41046825D01*
X32306811Y-40996106D01*
X32460628Y-40925358D01*
X32588585Y-40830294D01*
X32697400Y-40706626D01*
X32731467Y-40656937D01*
X32823327Y-40493907D01*
X32882094Y-40336134D01*
X32907816Y-40177779D01*
X32900541Y-40013001D01*
X32860318Y-39835962D01*
X32787195Y-39640822D01*
X32740699Y-39539581D01*
X32624857Y-39312106D01*
X32516090Y-39125335D01*
X32413590Y-38978379D01*
X32316547Y-38870350D01*
X32224155Y-38800357D01*
X32135604Y-38767513D01*
X32050085Y-38770928D01*
X32043250Y-38772770D01*
X31928299Y-38825248D01*
X31806934Y-38917834D01*
X31680491Y-39049021D01*
X31550303Y-39217298D01*
X31417707Y-39421157D01*
X31322098Y-39588017D01*
X31270761Y-39680038D01*
X31217264Y-39772638D01*
X31171416Y-39848908D01*
X31162463Y-39863183D01*
X31024580Y-40103195D01*
X30923467Y-40330728D01*
X30859656Y-40544265D01*
X30833677Y-40742287D01*
X30833455Y-40802601D01*
X29864191Y-40802601D01*
X30099209Y-40305339D01*
X30527736Y-39494081D01*
X30990328Y-38705083D01*
X31481256Y-37946679D01*
X32594784Y-37946679D01*
X32604060Y-38002821D01*
X32630294Y-38056730D01*
X32633285Y-38061619D01*
X32699431Y-38131979D01*
X32806383Y-38195964D01*
X32953039Y-38253192D01*
X33138298Y-38303279D01*
X33361058Y-38345844D01*
X33515229Y-38367995D01*
X33636153Y-38381895D01*
X33730850Y-38387935D01*
X33814673Y-38386194D01*
X33902979Y-38376748D01*
X33947100Y-38370189D01*
X34128005Y-38320933D01*
X34295896Y-38234184D01*
X34445445Y-38114082D01*
X34571322Y-37964764D01*
X34654282Y-37821023D01*
X34682195Y-37759698D01*
X34700709Y-37708394D01*
X34711665Y-37655778D01*
X34716905Y-37590522D01*
X34718270Y-37501292D01*
X34717977Y-37429017D01*
X34715577Y-37321953D01*
X34708666Y-37226745D01*
X34695344Y-37134911D01*
X34673714Y-37037973D01*
X34641875Y-36927451D01*
X34597929Y-36794867D01*
X34539976Y-36631741D01*
X34538479Y-36627607D01*
X34483590Y-36496115D01*
X34417974Y-36370651D01*
X34347550Y-36260799D01*
X34278236Y-36176141D01*
X34237106Y-36139547D01*
X34151794Y-36102584D01*
X34051109Y-36104894D01*
X33935266Y-36146395D01*
X33804480Y-36227000D01*
X33658966Y-36346626D01*
X33621735Y-36381267D01*
X33531299Y-36472341D01*
X33433392Y-36579123D01*
X33344457Y-36683435D01*
X33315434Y-36719933D01*
X33245558Y-36808713D01*
X33173176Y-36898143D01*
X33109346Y-36974661D01*
X33082463Y-37005683D01*
X32959416Y-37155639D01*
X32848002Y-37312880D01*
X32752222Y-37470258D01*
X32676080Y-37620628D01*
X32623578Y-37756842D01*
X32599007Y-37868858D01*
X32594784Y-37946679D01*
X31481256Y-37946679D01*
X31485971Y-37939396D01*
X32013647Y-37198071D01*
X32572341Y-36482158D01*
X33161036Y-35792709D01*
X33778716Y-35130774D01*
X34424364Y-34497404D01*
X35096964Y-33893650D01*
X35795501Y-33320563D01*
X36518957Y-32779193D01*
X37266317Y-32270592D01*
X38036564Y-31795810D01*
X38828682Y-31355898D01*
X39641654Y-30951907D01*
X40314066Y-30652018D01*
X40637948Y-30514778D01*
X41107816Y-30698707D01*
G37*
X41107816Y-30698707D02*
X41241368Y-30751173D01*
X41362707Y-30799197D01*
X41465950Y-30840423D01*
X41545216Y-30872493D01*
X41594621Y-30893050D01*
X41607770Y-30899031D01*
X41618066Y-30912206D01*
X41604034Y-30929680D01*
X41562196Y-30953195D01*
X41489072Y-30984498D01*
X41381185Y-31025332D01*
X41291933Y-31057398D01*
X41066834Y-31144679D01*
X40867200Y-31237263D01*
X40695629Y-31333287D01*
X40554717Y-31430884D01*
X40447061Y-31528191D01*
X40375258Y-31623341D01*
X40341905Y-31714472D01*
X40339781Y-31741178D01*
X40353902Y-31807528D01*
X40393388Y-31893263D01*
X40452764Y-31988767D01*
X40526560Y-32084421D01*
X40550475Y-32111470D01*
X40657964Y-32229079D01*
X40376990Y-32478991D01*
X40268207Y-32575750D01*
X40153821Y-32677494D01*
X40044396Y-32774829D01*
X39950496Y-32858357D01*
X39910989Y-32893501D01*
X39837062Y-32958105D01*
X39774301Y-33010781D01*
X39729544Y-33045935D01*
X39709905Y-33058008D01*
X39704207Y-33038039D01*
X39699258Y-32983120D01*
X39695461Y-32900633D01*
X39693220Y-32797961D01*
X39692823Y-32745800D01*
X39688818Y-32568349D01*
X39677130Y-32426554D01*
X39656297Y-32314196D01*
X39624860Y-32225058D01*
X39581357Y-32152921D01*
X39543412Y-32109679D01*
X39470460Y-32036727D01*
X39306988Y-32046890D01*
X39131186Y-32074393D01*
X38942877Y-32136421D01*
X38739157Y-32234063D01*
X38614350Y-32306487D01*
X38521657Y-32362901D01*
X38429913Y-32417979D01*
X38352866Y-32463496D01*
X38321815Y-32481433D01*
X38091755Y-32619881D01*
X37892711Y-32755248D01*
X37726273Y-32886032D01*
X37594035Y-33010732D01*
X37497587Y-33127846D01*
X37438523Y-33235874D01*
X37418433Y-33333313D01*
X37418433Y-33333474D01*
X37435557Y-33422347D01*
X37487776Y-33513969D01*
X37576356Y-33609495D01*
X37702568Y-33710080D01*
X37867680Y-33816879D01*
X38072960Y-33931047D01*
X38077387Y-33933363D01*
X38176104Y-33983575D01*
X38272262Y-34030112D01*
X38353377Y-34067057D01*
X38398106Y-34085384D01*
X38454318Y-34109192D01*
X38488309Y-34129608D01*
X38493356Y-34137938D01*
X38474890Y-34159159D01*
X38431083Y-34201009D01*
X38368712Y-34257636D01*
X38294551Y-34323187D01*
X38215378Y-34391809D01*
X38137967Y-34457649D01*
X38069095Y-34514856D01*
X38015538Y-34557575D01*
X37984071Y-34579955D01*
X37979350Y-34581909D01*
X37952986Y-34572138D01*
X37898775Y-34545714D01*
X37825566Y-34507093D01*
X37769498Y-34476167D01*
X37690043Y-34433001D01*
X37625074Y-34400338D01*
X37582772Y-34382137D01*
X37570992Y-34380152D01*
X37569113Y-34404270D01*
X37572927Y-34459436D01*
X37581612Y-34534870D01*
X37584334Y-34554828D01*
X37597450Y-34649676D01*
X37609920Y-34742352D01*
X37619126Y-34813389D01*
X37619396Y-34815564D01*
X37631296Y-34911446D01*
X37329073Y-35073986D01*
X37026850Y-35236527D01*
X37013376Y-34967522D01*
X36990506Y-34679212D01*
X36952754Y-34429936D01*
X36900161Y-34219900D01*
X36832769Y-34049307D01*
X36821447Y-34027246D01*
X36761739Y-33931580D01*
X36699609Y-33871713D01*
X36626308Y-33841584D01*
X36543695Y-33834885D01*
X36446903Y-33848279D01*
X36336613Y-33886692D01*
X36210469Y-33951572D01*
X36066116Y-34044367D01*
X35901201Y-34166526D01*
X35713367Y-34319497D01*
X35605769Y-34411774D01*
X35395956Y-34599506D01*
X35221036Y-34767553D01*
X35079495Y-34917836D01*
X34969822Y-35052275D01*
X34890503Y-35172791D01*
X34840027Y-35281305D01*
X34816879Y-35379737D01*
X34814933Y-35415926D01*
X34819713Y-35480339D01*
X34839326Y-35531237D01*
X34881681Y-35587090D01*
X34894308Y-35601292D01*
X34979537Y-35674938D01*
X35103943Y-35750004D01*
X35268415Y-35826932D01*
X35473841Y-35906164D01*
X35576933Y-35941704D01*
X35688991Y-35978408D01*
X35774609Y-36003301D01*
X35847251Y-36018703D01*
X35920382Y-36026934D01*
X36007467Y-36030317D01*
X36095517Y-36031088D01*
X36203626Y-36031055D01*
X36280374Y-36028655D01*
X36336732Y-36021836D01*
X36383672Y-36008545D01*
X36432164Y-35986729D01*
X36486529Y-35957933D01*
X36592980Y-35890219D01*
X36699765Y-35804789D01*
X36796273Y-35711542D01*
X36871892Y-35620379D01*
X36904100Y-35568338D01*
X36921127Y-35537421D01*
X36940414Y-35512782D01*
X36968385Y-35491052D01*
X37011462Y-35468862D01*
X37076068Y-35442843D01*
X37168625Y-35409627D01*
X37279908Y-35371214D01*
X37390956Y-35333660D01*
X37487226Y-35302175D01*
X37561975Y-35278877D01*
X37608463Y-35265884D01*
X37620692Y-35264136D01*
X37620259Y-35286848D01*
X37612427Y-35340273D01*
X37598809Y-35413761D01*
X37595619Y-35429511D01*
X37524651Y-35673024D01*
X37416962Y-35898233D01*
X37275428Y-36101800D01*
X37102926Y-36280387D01*
X36902334Y-36430658D01*
X36676528Y-36549275D01*
X36605794Y-36577630D01*
X36524558Y-36606101D01*
X36452350Y-36625565D01*
X36376171Y-36638212D01*
X36283024Y-36646230D01*
X36166814Y-36651560D01*
X36005281Y-36653486D01*
X35860987Y-36645209D01*
X35721121Y-36624669D01*
X35572875Y-36589811D01*
X35403439Y-36538575D01*
X35347086Y-36519880D01*
X35250435Y-36488114D01*
X35187497Y-36469920D01*
X35152269Y-36464214D01*
X35138746Y-36469910D01*
X35139677Y-36482432D01*
X35208433Y-36701241D01*
X35261293Y-36888399D01*
X35299577Y-37050928D01*
X35324606Y-37195853D01*
X35337700Y-37330197D01*
X35340177Y-37460984D01*
X35337443Y-37534850D01*
X35303549Y-37785106D01*
X35231605Y-38022773D01*
X35124282Y-38243765D01*
X34984247Y-38443993D01*
X34814170Y-38619370D01*
X34616718Y-38765808D01*
X34486850Y-38837770D01*
X34283683Y-38921677D01*
X34073905Y-38975598D01*
X33850470Y-39000442D01*
X33606338Y-38997119D01*
X33408526Y-38977102D01*
X33310295Y-38964729D01*
X33228626Y-38955651D01*
X33171912Y-38950718D01*
X33148545Y-38950777D01*
X33148469Y-38950842D01*
X33154611Y-38971370D01*
X33176644Y-39022048D01*
X33211135Y-39095363D01*
X33254652Y-39183798D01*
X33256952Y-39188379D01*
X33360250Y-39411786D01*
X33435261Y-39616663D01*
X33485247Y-39812708D01*
X33503316Y-39920720D01*
X33515594Y-40160649D01*
X33488703Y-40399914D01*
X33425357Y-40633186D01*
X33328265Y-40855135D01*
X33200140Y-41060431D01*
X33043693Y-41243745D01*
X32861636Y-41399747D01*
X32699061Y-41501469D01*
X32553124Y-41565310D01*
X32375367Y-41620419D01*
X32175771Y-41664770D01*
X31964316Y-41696333D01*
X31750982Y-41713082D01*
X31646840Y-41715267D01*
X31584226Y-41717252D01*
X31543290Y-41722360D01*
X31534100Y-41726979D01*
X31546425Y-41747732D01*
X31579305Y-41793006D01*
X31626602Y-41854465D01*
X31647163Y-41880437D01*
X31748847Y-42011969D01*
X31829191Y-42126563D01*
X31896630Y-42237370D01*
X31959604Y-42357540D01*
X31979034Y-42397692D01*
X32047172Y-42552538D01*
X32093336Y-42690709D01*
X32121022Y-42827929D01*
X32133728Y-42979923D01*
X32135589Y-43101683D01*
X32130343Y-43268953D01*
X32113656Y-43411375D01*
X32082022Y-43543763D01*
X32031935Y-43680930D01*
X31962706Y-43831933D01*
X31910419Y-43932662D01*
X31858960Y-44014979D01*
X31798473Y-44092374D01*
X31719096Y-44178337D01*
X31682133Y-44215852D01*
X31593440Y-44302100D01*
X31518746Y-44366191D01*
X31444355Y-44417987D01*
X31356571Y-44467347D01*
X31278897Y-44506178D01*
X31100656Y-44582344D01*
X30901441Y-44649969D01*
X30700167Y-44703272D01*
X30532509Y-44734274D01*
X30434162Y-44747754D01*
X30683592Y-44993635D01*
X30872257Y-45193024D01*
X31023194Y-45384015D01*
X31138745Y-45571872D01*
X31221249Y-45761863D01*
X31273048Y-45959254D01*
X31296480Y-46169310D01*
X31295416Y-46370364D01*
X31262498Y-46628175D01*
X31192015Y-46870611D01*
X31085639Y-47094420D01*
X30945045Y-47296350D01*
X30771906Y-47473149D01*
X30696501Y-47534148D01*
X30564083Y-47623928D01*
X30403917Y-47715845D01*
X30229552Y-47802727D01*
X30054539Y-47877400D01*
X30031267Y-47886281D01*
X29955033Y-47915686D01*
X29894644Y-47940408D01*
X29860726Y-47956056D01*
X29857634Y-47958032D01*
X29868421Y-47973128D01*
X29909017Y-48004861D01*
X29972756Y-48048382D01*
X30042159Y-48092252D01*
X30276325Y-48247546D01*
X30471948Y-48403999D01*
X30632741Y-48565297D01*
X30762420Y-48735128D01*
X30857080Y-48901350D01*
X30950726Y-49140122D01*
X31004635Y-49387762D01*
X31019052Y-49639305D01*
X30994218Y-49889786D01*
X30930379Y-50134238D01*
X30827778Y-50367698D01*
X30781201Y-50448417D01*
X30683005Y-50583335D01*
X30552912Y-50724936D01*
X30398892Y-50865667D01*
X30228916Y-50997972D01*
X30130950Y-51064777D01*
X30045975Y-51120084D01*
X29973786Y-51167602D01*
X29921953Y-51202312D01*
X29898047Y-51219194D01*
X29897951Y-51219276D01*
X29907410Y-51233017D01*
X29948331Y-51255237D01*
X30011955Y-51281210D01*
X30014368Y-51282087D01*
X30302937Y-51402935D01*
X30554194Y-51543355D01*
X30768610Y-51703829D01*
X30946658Y-51884841D01*
X31088811Y-52086874D01*
X31195541Y-52310412D01*
X31267321Y-52555938D01*
X31269308Y-52565427D01*
X31302897Y-52825110D01*
X31294892Y-53077760D01*
X31245251Y-53323483D01*
X31153933Y-53562385D01*
X31020895Y-53794571D01*
X30846097Y-54020146D01*
X30629496Y-54239218D01*
X30600850Y-54264935D01*
X30534128Y-54326261D01*
X30482936Y-54377470D01*
X30453329Y-54412234D01*
X30448925Y-54423703D01*
X30478334Y-54434159D01*
X30505753Y-54436461D01*
X30559440Y-54442683D01*
X30643045Y-54459500D01*
X30746296Y-54484199D01*
X30858923Y-54514069D01*
X30970654Y-54546398D01*
X31071218Y-54578475D01*
X31143567Y-54604840D01*
X31377828Y-54720580D01*
X31585611Y-54868586D01*
X31764791Y-55046497D01*
X31913245Y-55251952D01*
X32028849Y-55482591D01*
X32088218Y-55654714D01*
X32117860Y-55797237D01*
X32134531Y-55963247D01*
X32138014Y-56137457D01*
X32128091Y-56304577D01*
X32104547Y-56449318D01*
X32099753Y-56468433D01*
X32050199Y-56614005D01*
X31976137Y-56778106D01*
X31883718Y-56950076D01*
X31779094Y-57119255D01*
X31668417Y-57274981D01*
X31559272Y-57405058D01*
X31505013Y-57463267D01*
X31662431Y-57463633D01*
X31833424Y-57469464D01*
X32012736Y-57485000D01*
X32185156Y-57508434D01*
X32335474Y-57537962D01*
X32376353Y-57548384D01*
X32612938Y-57634250D01*
X32827947Y-57754873D01*
X33018748Y-57907148D01*
X33182710Y-58087975D01*
X33317202Y-58294249D01*
X33419590Y-58522870D01*
X33487244Y-58770734D01*
X33504469Y-58878271D01*
X33516048Y-59086658D01*
X33496793Y-59299550D01*
X33445610Y-59521581D01*
X33361408Y-59757384D01*
X33243096Y-60011590D01*
X33232657Y-60031834D01*
X33108588Y-60270909D01*
X33268552Y-60239667D01*
X33371561Y-60225221D01*
X33508529Y-60214759D01*
X33671226Y-60208800D01*
X33777767Y-60207602D01*
X33910862Y-60207776D01*
X34011061Y-60209695D01*
X34087794Y-60214370D01*
X34150492Y-60222812D01*
X34208587Y-60236032D01*
X34271508Y-60255044D01*
X34296350Y-60263231D01*
X34494299Y-60342977D01*
X34669926Y-60445227D01*
X34835605Y-60577764D01*
X34910183Y-60649332D01*
X35039732Y-60790672D01*
X35140240Y-60928223D01*
X35220906Y-61076360D01*
X35286824Y-61238014D01*
X35340061Y-61441094D01*
X35363484Y-61668232D01*
X35357550Y-61913895D01*
X35322719Y-62172548D01*
X35259451Y-62438661D01*
X35168204Y-62706699D01*
X35164078Y-62717133D01*
X35162690Y-62732530D01*
X35179537Y-62735694D01*
X35220909Y-62725537D01*
X35293095Y-62700969D01*
X35325819Y-62689124D01*
X35512456Y-62625607D01*
X35676534Y-62581141D01*
X35831867Y-62553117D01*
X35992269Y-62538926D01*
X36137850Y-62535782D01*
X36259938Y-62536995D01*
X36352130Y-62541363D01*
X36426835Y-62550459D01*
X36496459Y-62565852D01*
X36573411Y-62589114D01*
X36582350Y-62592053D01*
X36767302Y-62665121D01*
X36932671Y-62757994D01*
X37090343Y-62878195D01*
X37207333Y-62987436D01*
X37368555Y-63171802D01*
X37492263Y-63367632D01*
X37583133Y-63582925D01*
X37612395Y-63680198D01*
X37636377Y-63804524D01*
X37651486Y-63958752D01*
X37657888Y-64131426D01*
X37655753Y-64311090D01*
X37645248Y-64486288D01*
X37626541Y-64645567D01*
X37599799Y-64777469D01*
X37596126Y-64790679D01*
X37605574Y-64798107D01*
X37644607Y-64787365D01*
X37715208Y-64757653D01*
X37819360Y-64708170D01*
X37899039Y-64668529D01*
X38079010Y-64581807D01*
X38233937Y-64516849D01*
X38373331Y-64470960D01*
X38506700Y-64441445D01*
X38643554Y-64425611D01*
X38773100Y-64420864D01*
X39025660Y-64437295D01*
X39260669Y-64491592D01*
X39479920Y-64584540D01*
X39685205Y-64716920D01*
X39878316Y-64889516D01*
X39901624Y-64913889D01*
X40032915Y-65070818D01*
X40137563Y-65236646D01*
X40217711Y-65417384D01*
X40275504Y-65619041D01*
X40313084Y-65847628D01*
X40332594Y-66109155D01*
X40333166Y-66124087D01*
X40345333Y-66455824D01*
X40517008Y-66316056D01*
X40712855Y-66165306D01*
X40893119Y-66046096D01*
X41065317Y-65954492D01*
X41236967Y-65886561D01*
X41415586Y-65838369D01*
X41439299Y-65833431D01*
X41679213Y-65806415D01*
X41921943Y-65821419D01*
X42166517Y-65878300D01*
X42411968Y-65976913D01*
X42413767Y-65977789D01*
X42572946Y-66073224D01*
X42730139Y-66199868D01*
X42874917Y-66347448D01*
X42996854Y-66505689D01*
X43063320Y-66617850D01*
X43165114Y-66850568D01*
X43247767Y-67112517D01*
X43295200Y-67322080D01*
X43312401Y-67406427D01*
X43328418Y-67474518D01*
X43340692Y-67515871D01*
X43344158Y-67522793D01*
X43362410Y-67514043D01*
X43401936Y-67478442D01*
X43456924Y-67421670D01*
X43521561Y-67349412D01*
X43521836Y-67349094D01*
X43726302Y-67137193D01*
X43941194Y-66961775D01*
X44163966Y-66824562D01*
X44392074Y-66727279D01*
X44477517Y-66701696D01*
X44605069Y-66678770D01*
X44758184Y-66668082D01*
X44921956Y-66669448D01*
X45081478Y-66682685D01*
X45221843Y-66707611D01*
X45235293Y-66711011D01*
X45464834Y-66792168D01*
X45679216Y-66909651D01*
X45871756Y-67059008D01*
X46035775Y-67235786D01*
X46049354Y-67253476D01*
X46132597Y-67371722D01*
X46209212Y-67498737D01*
X46283109Y-67642233D01*
X46358199Y-67809923D01*
X46438396Y-68009521D01*
X46455599Y-68054495D01*
X46478698Y-68115306D01*
X46581114Y-67944903D01*
X46734566Y-67707665D01*
X46887059Y-67509427D01*
X47041599Y-67347039D01*
X47201193Y-67217355D01*
X47368849Y-67117225D01*
X47374287Y-67114520D01*
X47524463Y-67046586D01*
X47661868Y-67000342D01*
X47804293Y-66971060D01*
X47969529Y-66954012D01*
X47981033Y-66953244D01*
X48234378Y-66957094D01*
X48477384Y-67001651D01*
X48707940Y-67086096D01*
X48923935Y-67209611D01*
X49123258Y-67371376D01*
X49165249Y-67412612D01*
X49236269Y-67491830D01*
X49318705Y-67594741D01*
X49403885Y-67709421D01*
X49483138Y-67823949D01*
X49547794Y-67926404D01*
X49576326Y-67977808D01*
X49603223Y-68022906D01*
X49624396Y-68045862D01*
X49627041Y-68046600D01*
X49641229Y-68028204D01*
X49664131Y-67979732D01*
X49691043Y-67911260D01*
X49693765Y-67903725D01*
X49812299Y-67621402D01*
X49952585Y-67374975D01*
X50114412Y-67164631D01*
X50297571Y-66990556D01*
X50501852Y-66852936D01*
X50727043Y-66751958D01*
X50972936Y-66687806D01*
X51084153Y-66671684D01*
X51334122Y-66663581D01*
X51576124Y-66696627D01*
X51810436Y-66770947D01*
X52037335Y-66886669D01*
X52257098Y-67043917D01*
X52470001Y-67242820D01*
X52565737Y-67348369D01*
X52630554Y-67420840D01*
X52685783Y-67477863D01*
X52725614Y-67513763D01*
X52744238Y-67522866D01*
X52744305Y-67522793D01*
X52754291Y-67496117D01*
X52769249Y-67438058D01*
X52786647Y-67358896D01*
X52795135Y-67316350D01*
X52853205Y-67061507D01*
X52923495Y-66841474D01*
X53009108Y-66649721D01*
X53113144Y-66479720D01*
X53238707Y-66324940D01*
X53292867Y-66268600D01*
X53470886Y-66109928D01*
X53651836Y-65988859D01*
X53844488Y-65901067D01*
X54057617Y-65842227D01*
X54206729Y-65818029D01*
X54431351Y-65807123D01*
X54653408Y-65832309D01*
X54875601Y-65894562D01*
X55100634Y-65994855D01*
X55331211Y-66134161D01*
X55560272Y-66305489D01*
X55748767Y-66458796D01*
X55748767Y-66353267D01*
X56354886Y-66353267D01*
X56357079Y-66554839D01*
X56368298Y-66718750D01*
X56390347Y-66849052D01*
X56425029Y-66949795D01*
X56474148Y-67025030D01*
X56539510Y-67078810D01*
X56622918Y-67115186D01*
X56702671Y-67134267D01*
X56728326Y-67131876D01*
X56782749Y-67123472D01*
X56840254Y-67113383D01*
X56975494Y-67078251D01*
X57133280Y-67019890D01*
X57303823Y-66942397D01*
X57477336Y-66849866D01*
X57496224Y-66838921D01*
X57604731Y-66776206D01*
X57727088Y-66706530D01*
X57841548Y-66642252D01*
X57872120Y-66625303D01*
X58053401Y-66520496D01*
X58203079Y-66422796D01*
X58329774Y-66326106D01*
X58442105Y-66224332D01*
X58449584Y-66216929D01*
X58552961Y-66103224D01*
X58619481Y-66002647D01*
X58650769Y-65910687D01*
X58648450Y-65822833D01*
X58619671Y-65744889D01*
X58566913Y-65671621D01*
X58480764Y-65586944D01*
X58366998Y-65495509D01*
X58231391Y-65401970D01*
X58083898Y-65313319D01*
X57874720Y-65202303D01*
X57691848Y-65119436D01*
X57531116Y-65063478D01*
X57388359Y-65033194D01*
X57259408Y-65027346D01*
X57162288Y-65039658D01*
X56991583Y-65093046D01*
X56829572Y-65177391D01*
X56684811Y-65286392D01*
X56565859Y-65413747D01*
X56489954Y-65534716D01*
X56443553Y-65641799D01*
X56408379Y-65754666D01*
X56383164Y-65880995D01*
X56366642Y-66028463D01*
X56357545Y-66204751D01*
X56354886Y-66353267D01*
X55748767Y-66353267D01*
X55748767Y-66227646D01*
X55756426Y-65991112D01*
X55780579Y-65781939D01*
X55822984Y-65587804D01*
X55855343Y-65481112D01*
X55925582Y-65297798D01*
X56007423Y-65142431D01*
X56109220Y-65000750D01*
X56190879Y-64908360D01*
X56382870Y-64734326D01*
X56596751Y-64596442D01*
X56833892Y-64493835D01*
X56844626Y-64490202D01*
X56941973Y-64459075D01*
X57020590Y-64439005D01*
X57095842Y-64427652D01*
X57183097Y-64422671D01*
X57293933Y-64421715D01*
X57442779Y-64426142D01*
X57576748Y-64440626D01*
X57705487Y-64467826D01*
X57838640Y-64510402D01*
X57985852Y-64571011D01*
X58156769Y-64652315D01*
X58189161Y-64668529D01*
X58314460Y-64730294D01*
X58405014Y-64771808D01*
X58462807Y-64793871D01*
X58489822Y-64797282D01*
X58492074Y-64790679D01*
X58464396Y-64662758D01*
X58444733Y-64506110D01*
X58433253Y-64332192D01*
X58431370Y-64224052D01*
X59035780Y-64224052D01*
X59037021Y-64247183D01*
X59056984Y-64477520D01*
X59088121Y-64687408D01*
X59129290Y-64873263D01*
X59179348Y-65031504D01*
X59237152Y-65158548D01*
X59301558Y-65250811D01*
X59371424Y-65304711D01*
X59374911Y-65306279D01*
X59440282Y-65328774D01*
X59503312Y-65333963D01*
X59577996Y-65321306D01*
X59663985Y-65295140D01*
X59794068Y-65242703D01*
X59929806Y-65170036D01*
X60076454Y-65073726D01*
X60239265Y-64950365D01*
X60397792Y-64818683D01*
X60493141Y-64737090D01*
X60602964Y-64643424D01*
X60709388Y-64552920D01*
X60753044Y-64515896D01*
X60899788Y-64382179D01*
X61027011Y-64247369D01*
X61131337Y-64116138D01*
X61209392Y-63993155D01*
X61257804Y-63883093D01*
X61273267Y-63795734D01*
X61253543Y-63699292D01*
X61193922Y-63607291D01*
X61093726Y-63519064D01*
X60952276Y-63433943D01*
X60862461Y-63390806D01*
X60733183Y-63337778D01*
X60584029Y-63284567D01*
X60427846Y-63235110D01*
X60277483Y-63193342D01*
X60145784Y-63163202D01*
X60086881Y-63153136D01*
X59895371Y-63143672D01*
X59718003Y-63172500D01*
X59551544Y-63240743D01*
X59392763Y-63349524D01*
X59312497Y-63422152D01*
X59198320Y-63552325D01*
X59115794Y-63690912D01*
X59062685Y-63844602D01*
X59036758Y-64020085D01*
X59035780Y-64224052D01*
X58431370Y-64224052D01*
X58430122Y-64152459D01*
X58435510Y-63978366D01*
X58449584Y-63821369D01*
X58472511Y-63692923D01*
X58475805Y-63680198D01*
X58554083Y-63454743D01*
X58662719Y-63252711D01*
X58806589Y-63065755D01*
X58880656Y-62987767D01*
X59041045Y-62842487D01*
X59200182Y-62730119D01*
X59369752Y-62643267D01*
X59505850Y-62592053D01*
X59584279Y-62567882D01*
X59654088Y-62551742D01*
X59727684Y-62542063D01*
X59817475Y-62537275D01*
X59935870Y-62535807D01*
X59950350Y-62535782D01*
X60125289Y-62540544D01*
X60283788Y-62556993D01*
X60439662Y-62587736D01*
X60606726Y-62635383D01*
X60762381Y-62689124D01*
X60846496Y-62718849D01*
X60897668Y-62733797D01*
X60922200Y-62735059D01*
X60926396Y-62723725D01*
X60924285Y-62717133D01*
X60821352Y-62414597D01*
X60756173Y-62125326D01*
X60727946Y-61845102D01*
X60728100Y-61725594D01*
X61323307Y-61725594D01*
X61334580Y-61897163D01*
X61371944Y-62091282D01*
X61434820Y-62313778D01*
X61434877Y-62313959D01*
X61509241Y-62532146D01*
X61581951Y-62710177D01*
X61654105Y-62850144D01*
X61726795Y-62954136D01*
X61801117Y-63024242D01*
X61810287Y-63030536D01*
X61897794Y-63063322D01*
X62003922Y-63060174D01*
X62125234Y-63021291D01*
X62147416Y-63010999D01*
X62235430Y-62958192D01*
X62340305Y-62879070D01*
X62453464Y-62781154D01*
X62566328Y-62671968D01*
X62670319Y-62559034D01*
X62691986Y-62533433D01*
X62767946Y-62442553D01*
X62857179Y-62336538D01*
X62945373Y-62232364D01*
X62984794Y-62186057D01*
X63151040Y-61981986D01*
X63283006Y-61799143D01*
X63381829Y-61635569D01*
X63448649Y-61489305D01*
X63484604Y-61358394D01*
X63490012Y-61316907D01*
X63494378Y-61245364D01*
X63487874Y-61198144D01*
X63465465Y-61157643D01*
X63433429Y-61119074D01*
X63358627Y-61051710D01*
X63258874Y-60993554D01*
X63130443Y-60943313D01*
X62969607Y-60899692D01*
X62772639Y-60861397D01*
X62627933Y-60839369D01*
X62468685Y-60819756D01*
X62339104Y-60810546D01*
X62227815Y-60811766D01*
X62123441Y-60823445D01*
X62035166Y-60840816D01*
X61865085Y-60900308D01*
X61707825Y-60995871D01*
X61573075Y-61121359D01*
X61550711Y-61148210D01*
X61451827Y-61287881D01*
X61381351Y-61426782D01*
X61338704Y-61570743D01*
X61323307Y-61725594D01*
X60728100Y-61725594D01*
X60728151Y-61686017D01*
X60754262Y-61433841D01*
X60813388Y-61205685D01*
X60907717Y-60996554D01*
X61039437Y-60801453D01*
X61187143Y-60638267D01*
X61370378Y-60479393D01*
X61560954Y-60358744D01*
X61765297Y-60273549D01*
X61989832Y-60221042D01*
X62204600Y-60199888D01*
X62358212Y-60198864D01*
X62532134Y-60207740D01*
X62709813Y-60224992D01*
X62874693Y-60249100D01*
X62982739Y-60271432D01*
X63004363Y-60274394D01*
X63011274Y-60265039D01*
X63001633Y-60236839D01*
X62973601Y-60183267D01*
X62942142Y-60127336D01*
X62815990Y-59885825D01*
X62715600Y-59648200D01*
X62678313Y-59542870D01*
X62641276Y-59395793D01*
X62617437Y-59223401D01*
X62609759Y-59081924D01*
X63205283Y-59081924D01*
X63234642Y-59252336D01*
X63295307Y-59441513D01*
X63387923Y-59652255D01*
X63476712Y-59822473D01*
X63586038Y-60010620D01*
X63685971Y-60159858D01*
X63778786Y-60271974D01*
X63866758Y-60348752D01*
X63952163Y-60391977D01*
X64037277Y-60403434D01*
X64124374Y-60384908D01*
X64168651Y-60365332D01*
X64266469Y-60298463D01*
X64373208Y-60194690D01*
X64485933Y-60057751D01*
X64601710Y-59891380D01*
X64717605Y-59699315D01*
X64776493Y-59591381D01*
X64824918Y-59501104D01*
X64871944Y-59416064D01*
X64910370Y-59349179D01*
X64924233Y-59326383D01*
X65005097Y-59184341D01*
X65085546Y-59018159D01*
X65157467Y-58845325D01*
X65191925Y-58749374D01*
X65224842Y-58643941D01*
X65243453Y-58561690D01*
X65250402Y-58487010D01*
X65248853Y-58413077D01*
X65232897Y-58307914D01*
X65195273Y-58226492D01*
X65131275Y-58164730D01*
X65036198Y-58118548D01*
X64905337Y-58083864D01*
X64859318Y-58075251D01*
X64763164Y-58064773D01*
X64636730Y-58059924D01*
X64491632Y-58060281D01*
X64339488Y-58065420D01*
X64191917Y-58074918D01*
X64060534Y-58088352D01*
X63956959Y-58105298D01*
X63942236Y-58108671D01*
X63751092Y-58173784D01*
X63587297Y-58270055D01*
X63449650Y-58398638D01*
X63336952Y-58560687D01*
X63248003Y-58757357D01*
X63237899Y-58786183D01*
X63206584Y-58927474D01*
X63205283Y-59081924D01*
X62609759Y-59081924D01*
X62607529Y-59040837D01*
X62612288Y-58863244D01*
X62632446Y-58705763D01*
X62636758Y-58685195D01*
X62701841Y-58475696D01*
X62800622Y-58268109D01*
X62926411Y-58073460D01*
X63072517Y-57902771D01*
X63160812Y-57821682D01*
X63359643Y-57683623D01*
X63587013Y-57576468D01*
X63842342Y-57500394D01*
X64125053Y-57455576D01*
X64410243Y-57442100D01*
X64595581Y-57442100D01*
X64415775Y-57204603D01*
X64278133Y-57007528D01*
X64161586Y-56809438D01*
X64070678Y-56618834D01*
X64010782Y-56447267D01*
X63989099Y-56332822D01*
X63976415Y-56191018D01*
X63974439Y-56108173D01*
X64570451Y-56108173D01*
X64600239Y-56271514D01*
X64664285Y-56441625D01*
X64763451Y-56623067D01*
X64898599Y-56820399D01*
X64908715Y-56833972D01*
X65057877Y-57023754D01*
X65192813Y-57175089D01*
X65314835Y-57288905D01*
X65425260Y-57366132D01*
X65525402Y-57407699D01*
X65616575Y-57414536D01*
X65695398Y-57390063D01*
X65768569Y-57336894D01*
X65849092Y-57252661D01*
X65929924Y-57146113D01*
X66004021Y-57025995D01*
X66032443Y-56971567D01*
X66069187Y-56889615D01*
X66115343Y-56775433D01*
X66168012Y-56637292D01*
X66224294Y-56483466D01*
X66281290Y-56322226D01*
X66336099Y-56161846D01*
X66385822Y-56010597D01*
X66427560Y-55876752D01*
X66458411Y-55768584D01*
X66468940Y-55726316D01*
X66493942Y-55585235D01*
X66505553Y-55444638D01*
X66503801Y-55315008D01*
X66488711Y-55206826D01*
X66467436Y-55143538D01*
X66415381Y-55068245D01*
X66341981Y-55014558D01*
X66244099Y-54981951D01*
X66118597Y-54969896D01*
X65962338Y-54977866D01*
X65772183Y-55005334D01*
X65711890Y-55016553D01*
X65475736Y-55067877D01*
X65277461Y-55124125D01*
X65112681Y-55187828D01*
X64977009Y-55261517D01*
X64866061Y-55347722D01*
X64775451Y-55448974D01*
X64700793Y-55567804D01*
X64678019Y-55613174D01*
X64610203Y-55783564D01*
X64574060Y-55947043D01*
X64570451Y-56108173D01*
X63974439Y-56108173D01*
X63972714Y-56035854D01*
X63977980Y-55881332D01*
X63992195Y-55741454D01*
X64011731Y-55642933D01*
X64085743Y-55432583D01*
X64189770Y-55229606D01*
X64317652Y-55043454D01*
X64463228Y-54883574D01*
X64560481Y-54801175D01*
X64767988Y-54669247D01*
X65011793Y-54558991D01*
X65291811Y-54470441D01*
X65490798Y-54425017D01*
X65676079Y-54388278D01*
X65454956Y-54178731D01*
X65305179Y-54030716D01*
X65184739Y-53896915D01*
X65087124Y-53769022D01*
X65005825Y-53638732D01*
X64954306Y-53539944D01*
X64887804Y-53385714D01*
X64843271Y-53236693D01*
X64818320Y-53080191D01*
X64810799Y-52908816D01*
X65403402Y-52908816D01*
X65417297Y-53022926D01*
X65433413Y-53093194D01*
X65471311Y-53207721D01*
X65526552Y-53317841D01*
X65603940Y-53430756D01*
X65708280Y-53553671D01*
X65813804Y-53663459D01*
X66004982Y-53845056D01*
X66177623Y-53988716D01*
X66331850Y-54094501D01*
X66467788Y-54162471D01*
X66585561Y-54192687D01*
X66685293Y-54185212D01*
X66767106Y-54140106D01*
X66771080Y-54136543D01*
X66856282Y-54035158D01*
X66933791Y-53896186D01*
X67001902Y-53723947D01*
X67058911Y-53522761D01*
X67103113Y-53296950D01*
X67103664Y-53293433D01*
X67123421Y-53170156D01*
X67146884Y-53028534D01*
X67170170Y-52891867D01*
X67179528Y-52838350D01*
X67215815Y-52592245D01*
X67233729Y-52371039D01*
X67233532Y-52177039D01*
X67215484Y-52012550D01*
X67179847Y-51879878D01*
X67126882Y-51781330D01*
X67056849Y-51719213D01*
X67052610Y-51716953D01*
X66957702Y-51689334D01*
X66832701Y-51687658D01*
X66680452Y-51711274D01*
X66503799Y-51759528D01*
X66305585Y-51831770D01*
X66088655Y-51927345D01*
X66046212Y-51947769D01*
X65856784Y-52052696D01*
X65705736Y-52165785D01*
X65589282Y-52291389D01*
X65503640Y-52433864D01*
X65445027Y-52597566D01*
X65431252Y-52655659D01*
X65408083Y-52792356D01*
X65403402Y-52908816D01*
X64810799Y-52908816D01*
X64810566Y-52903519D01*
X64812960Y-52788077D01*
X64819825Y-52657222D01*
X64830301Y-52554974D01*
X64846504Y-52467633D01*
X64870552Y-52381497D01*
X64880397Y-52351517D01*
X64961331Y-52151032D01*
X65063339Y-51971260D01*
X65189680Y-51809301D01*
X65343613Y-51662255D01*
X65528397Y-51527223D01*
X65747291Y-51401304D01*
X66003555Y-51281599D01*
X66149996Y-51221887D01*
X66163363Y-51210832D01*
X66154322Y-51192929D01*
X66118453Y-51163977D01*
X66051334Y-51119773D01*
X66025564Y-51103608D01*
X65785479Y-50939009D01*
X65584915Y-50768389D01*
X65421183Y-50588972D01*
X65291596Y-50397982D01*
X65233181Y-50285455D01*
X65145899Y-50051243D01*
X65096357Y-49807610D01*
X65086568Y-49610433D01*
X65707683Y-49610433D01*
X65708399Y-49724062D01*
X65711605Y-49806051D01*
X65718888Y-49867084D01*
X65731837Y-49917847D01*
X65752038Y-49969023D01*
X65765256Y-49997896D01*
X65852215Y-50139873D01*
X65981265Y-50284571D01*
X66152264Y-50431862D01*
X66365065Y-50581616D01*
X66543211Y-50690386D01*
X66717479Y-50782271D01*
X66867230Y-50841433D01*
X66994313Y-50868266D01*
X67100578Y-50863165D01*
X67186232Y-50827613D01*
X67236563Y-50776312D01*
X67288037Y-50691662D01*
X67336682Y-50582337D01*
X67378525Y-50457012D01*
X67404391Y-50351267D01*
X67415415Y-50290082D01*
X67424079Y-50223116D01*
X67430639Y-50144620D01*
X67435349Y-50048846D01*
X67438464Y-49930045D01*
X67440239Y-49782470D01*
X67440927Y-49600371D01*
X67440958Y-49525767D01*
X67440733Y-49340738D01*
X67439934Y-49192331D01*
X67438233Y-49074833D01*
X67435302Y-48982534D01*
X67430811Y-48909720D01*
X67424432Y-48850682D01*
X67415837Y-48799706D01*
X67404696Y-48751082D01*
X67394093Y-48711347D01*
X67343427Y-48560672D01*
X67284384Y-48449564D01*
X67214249Y-48375638D01*
X67130305Y-48336509D01*
X67029837Y-48329790D01*
X66969581Y-48338429D01*
X66840309Y-48377253D01*
X66683821Y-48447327D01*
X66499816Y-48548801D01*
X66318794Y-48661646D01*
X66123193Y-48801017D01*
X65967621Y-48938924D01*
X65849926Y-49077516D01*
X65773860Y-49206187D01*
X65746103Y-49267058D01*
X65727429Y-49318122D01*
X65716045Y-49370336D01*
X65710157Y-49434656D01*
X65707971Y-49522037D01*
X65707683Y-49610433D01*
X65086568Y-49610433D01*
X65084079Y-49560317D01*
X65108588Y-49315125D01*
X65169409Y-49077798D01*
X65266064Y-48854095D01*
X65364687Y-48694645D01*
X65472143Y-48560500D01*
X65601512Y-48430308D01*
X65757514Y-48300121D01*
X65944868Y-48165994D01*
X66162265Y-48027634D01*
X66206674Y-47998600D01*
X66218015Y-47981995D01*
X66200407Y-47970024D01*
X66194015Y-47967589D01*
X65913119Y-47854774D01*
X65671160Y-47735939D01*
X65464879Y-47608454D01*
X65291016Y-47469690D01*
X65146311Y-47317017D01*
X65027505Y-47147806D01*
X64931337Y-46959428D01*
X64924620Y-46943678D01*
X64863146Y-46767262D01*
X64825524Y-46581995D01*
X64809439Y-46375188D01*
X64808644Y-46318972D01*
X65403159Y-46318972D01*
X65415882Y-46442026D01*
X65431252Y-46522874D01*
X65474547Y-46675687D01*
X65537796Y-46810662D01*
X65624586Y-46931122D01*
X65738509Y-47040392D01*
X65883152Y-47141792D01*
X66062106Y-47238647D01*
X66278960Y-47334280D01*
X66329517Y-47354466D01*
X66534351Y-47427908D01*
X66707947Y-47474622D01*
X66851728Y-47494810D01*
X66967118Y-47488673D01*
X67054242Y-47457187D01*
X67124554Y-47391694D01*
X67177898Y-47290000D01*
X67214008Y-47154804D01*
X67232618Y-46988807D01*
X67233463Y-46794705D01*
X67216277Y-46575198D01*
X67180794Y-46332985D01*
X67170461Y-46276683D01*
X67152526Y-46178108D01*
X67131767Y-46057681D01*
X67111599Y-45935421D01*
X67103621Y-45885100D01*
X67061413Y-45665549D01*
X67007941Y-45471254D01*
X66944703Y-45304986D01*
X66873199Y-45169514D01*
X66794928Y-45067607D01*
X66711391Y-45002035D01*
X66624087Y-44975567D01*
X66610934Y-44975140D01*
X66505188Y-44993693D01*
X66380791Y-45048951D01*
X66237491Y-45141085D01*
X66075036Y-45270264D01*
X65893172Y-45436658D01*
X65824506Y-45504100D01*
X65694912Y-45639581D01*
X65595720Y-45758507D01*
X65522187Y-45867924D01*
X65469572Y-45974879D01*
X65433413Y-46085339D01*
X65408973Y-46206039D01*
X65403159Y-46318972D01*
X64808644Y-46318972D01*
X64808467Y-46306527D01*
X64820207Y-46088586D01*
X64857867Y-45886637D01*
X64923991Y-45695480D01*
X65021122Y-45509915D01*
X65151801Y-45324739D01*
X65318571Y-45134752D01*
X65441220Y-45012253D01*
X65675853Y-44787418D01*
X65554185Y-44763293D01*
X65258604Y-44693993D01*
X65000241Y-44609859D01*
X64776015Y-44509035D01*
X64582848Y-44389663D01*
X64417661Y-44249886D01*
X64277376Y-44087848D01*
X64175811Y-43931921D01*
X64094196Y-43760602D01*
X64028690Y-43565734D01*
X63984361Y-43364640D01*
X63968194Y-43222379D01*
X63969028Y-43139151D01*
X64566452Y-43139151D01*
X64583938Y-43279246D01*
X64584037Y-43279721D01*
X64642265Y-43481036D01*
X64727930Y-43652836D01*
X64843090Y-43797187D01*
X64989806Y-43916156D01*
X65170136Y-44011812D01*
X65386139Y-44086222D01*
X65387770Y-44086670D01*
X65625288Y-44144991D01*
X65837780Y-44183264D01*
X66022612Y-44201295D01*
X66177152Y-44198886D01*
X66298765Y-44175842D01*
X66343975Y-44157742D01*
X66417921Y-44106234D01*
X66467955Y-44033918D01*
X66496615Y-43934925D01*
X66506441Y-43803390D01*
X66506461Y-43782433D01*
X66503873Y-43696950D01*
X66496211Y-43612879D01*
X66481990Y-43524052D01*
X66459724Y-43424301D01*
X66427927Y-43307459D01*
X66385115Y-43167359D01*
X66329801Y-42997833D01*
X66286408Y-42868850D01*
X66210861Y-42651122D01*
X66143827Y-42469525D01*
X66083181Y-42319214D01*
X66026796Y-42195344D01*
X65972548Y-42093071D01*
X65918311Y-42007551D01*
X65893632Y-41973624D01*
X65800644Y-41864701D01*
X65713960Y-41794862D01*
X65628387Y-41762447D01*
X65538732Y-41765798D01*
X65439804Y-41803255D01*
X65410409Y-41819242D01*
X65321575Y-41882613D01*
X65219016Y-41976140D01*
X65108763Y-42092542D01*
X64996848Y-42224534D01*
X64889304Y-42364832D01*
X64792162Y-42506155D01*
X64711455Y-42641218D01*
X64681375Y-42699517D01*
X64613409Y-42859779D01*
X64575689Y-43002826D01*
X64566452Y-43139151D01*
X63969028Y-43139151D01*
X63970503Y-42992146D01*
X64006781Y-42766263D01*
X64078370Y-42541237D01*
X64186610Y-42313573D01*
X64332842Y-42079776D01*
X64483430Y-41879308D01*
X64598258Y-41736433D01*
X64433304Y-41736259D01*
X64122117Y-41721093D01*
X63840445Y-41675976D01*
X63587432Y-41600450D01*
X63362225Y-41494058D01*
X63163967Y-41356342D01*
X62991806Y-41186845D01*
X62844886Y-40985109D01*
X62766005Y-40843460D01*
X62695696Y-40687358D01*
X62647921Y-40539055D01*
X62620125Y-40385702D01*
X62609753Y-40214446D01*
X62610526Y-40159517D01*
X63210282Y-40159517D01*
X63212099Y-40257871D01*
X63219470Y-40330372D01*
X63235762Y-40393443D01*
X63264344Y-40463510D01*
X63279176Y-40495487D01*
X63364082Y-40653733D01*
X63458807Y-40784709D01*
X63567645Y-40890568D01*
X63694889Y-40973467D01*
X63844835Y-41035560D01*
X64021774Y-41079003D01*
X64230003Y-41105950D01*
X64473813Y-41118558D01*
X64522350Y-41119479D01*
X64629759Y-41118105D01*
X64741214Y-41111925D01*
X64835618Y-41102194D01*
X64850306Y-41099979D01*
X64998525Y-41067202D01*
X65109163Y-41021276D01*
X65185802Y-40958944D01*
X65232021Y-40876950D01*
X65251402Y-40772036D01*
X65252521Y-40734139D01*
X65240532Y-40618737D01*
X65206402Y-40478179D01*
X65153081Y-40321407D01*
X65083516Y-40157362D01*
X65021165Y-40032517D01*
X64899601Y-39806656D01*
X64794488Y-39614961D01*
X64703374Y-39453713D01*
X64623812Y-39319198D01*
X64553350Y-39207700D01*
X64489540Y-39115503D01*
X64429930Y-39038890D01*
X64372073Y-38974147D01*
X64313517Y-38917557D01*
X64251813Y-38865405D01*
X64251601Y-38865235D01*
X64158339Y-38803436D01*
X64069092Y-38772077D01*
X63981883Y-38772529D01*
X63894733Y-38806163D01*
X63805664Y-38874348D01*
X63712698Y-38978456D01*
X63613857Y-39119857D01*
X63507162Y-39299920D01*
X63437410Y-39429267D01*
X63355208Y-39592238D01*
X63294349Y-39729010D01*
X63252142Y-39848235D01*
X63225897Y-39958564D01*
X63212922Y-40068647D01*
X63210282Y-40159517D01*
X62610526Y-40159517D01*
X62611813Y-40068068D01*
X62621253Y-39918138D01*
X62639561Y-39784142D01*
X62669667Y-39656064D01*
X62714501Y-39523888D01*
X62776991Y-39377601D01*
X62860069Y-39207185D01*
X62868482Y-39190664D01*
X63001743Y-38929669D01*
X62830713Y-38959610D01*
X62704554Y-38976354D01*
X62558121Y-38987225D01*
X62402096Y-38992245D01*
X62247161Y-38991434D01*
X62104000Y-38984811D01*
X61983294Y-38972399D01*
X61908267Y-38957834D01*
X61680963Y-38876758D01*
X61467327Y-38760720D01*
X61277761Y-38615497D01*
X61257140Y-38596398D01*
X61078642Y-38403194D01*
X60938795Y-38197241D01*
X60837413Y-37977513D01*
X60774311Y-37742986D01*
X60753913Y-37538784D01*
X61370109Y-37538784D01*
X61372731Y-37617558D01*
X61379929Y-37676670D01*
X61393543Y-37727451D01*
X61415416Y-37781232D01*
X61433918Y-37821023D01*
X61531256Y-37984004D01*
X61655923Y-38125640D01*
X61801273Y-38240627D01*
X61960657Y-38323663D01*
X62119933Y-38368272D01*
X62210806Y-38381180D01*
X62291250Y-38387229D01*
X62374098Y-38386233D01*
X62472181Y-38378006D01*
X62598332Y-38362363D01*
X62606767Y-38361226D01*
X62839262Y-38325122D01*
X63032008Y-38284697D01*
X63187448Y-38239087D01*
X63308024Y-38187430D01*
X63396179Y-38128862D01*
X63454355Y-38062521D01*
X63454915Y-38061619D01*
X63482683Y-38007036D01*
X63493212Y-37951804D01*
X63489960Y-37876478D01*
X63489193Y-37868858D01*
X63463496Y-37753244D01*
X63410270Y-37616531D01*
X63333517Y-37465864D01*
X63237239Y-37308391D01*
X63125440Y-37151259D01*
X63005737Y-37005683D01*
X62951060Y-36941693D01*
X62881895Y-36857509D01*
X62809299Y-36766694D01*
X62772765Y-36719933D01*
X62639315Y-36558847D01*
X62503826Y-36416521D01*
X62370526Y-36296319D01*
X62243643Y-36201603D01*
X62127406Y-36135737D01*
X62026044Y-36102083D01*
X61991282Y-36098410D01*
X61909227Y-36111952D01*
X61830231Y-36158012D01*
X61753315Y-36238145D01*
X61677502Y-36353901D01*
X61601816Y-36506833D01*
X61525278Y-36698495D01*
X61446912Y-36930437D01*
X61426859Y-36995100D01*
X61400954Y-37088169D01*
X61384271Y-37173176D01*
X61374861Y-37265060D01*
X61370774Y-37378761D01*
X61370222Y-37429017D01*
X61370109Y-37538784D01*
X60753913Y-37538784D01*
X60749302Y-37492633D01*
X60762200Y-37225430D01*
X60812820Y-36940352D01*
X60900975Y-36636373D01*
X60901352Y-36635267D01*
X60926821Y-36558896D01*
X60945889Y-36498561D01*
X60955206Y-36464950D01*
X60955619Y-36462042D01*
X60937065Y-36462463D01*
X60886678Y-36474737D01*
X60812560Y-36496674D01*
X60738808Y-36520656D01*
X60560565Y-36577110D01*
X60407161Y-36616490D01*
X60265679Y-36640862D01*
X60123199Y-36652294D01*
X59966803Y-36652851D01*
X59921386Y-36651438D01*
X59796930Y-36645420D01*
X59702208Y-36636594D01*
X59624625Y-36622950D01*
X59551588Y-36602477D01*
X59499136Y-36584015D01*
X59296946Y-36495127D01*
X59120818Y-36385809D01*
X58955910Y-36246528D01*
X58922401Y-36213668D01*
X58771110Y-36043666D01*
X58654790Y-35869471D01*
X58566572Y-35680421D01*
X58550361Y-35636084D01*
X58525991Y-35555043D01*
X58503292Y-35459551D01*
X58483752Y-35359051D01*
X58468858Y-35262983D01*
X58460098Y-35180787D01*
X58458958Y-35121905D01*
X58465405Y-35096906D01*
X58489933Y-35097753D01*
X58547113Y-35110496D01*
X58629592Y-35133185D01*
X58730018Y-35163868D01*
X58784886Y-35181671D01*
X58901317Y-35220471D01*
X58983742Y-35249461D01*
X59038402Y-35271959D01*
X59071537Y-35291286D01*
X59089387Y-35310759D01*
X59098192Y-35333698D01*
X59101663Y-35350155D01*
X59147641Y-35489552D01*
X59229154Y-35628756D01*
X59340038Y-35760275D01*
X59474128Y-35876615D01*
X59601670Y-35957933D01*
X59661021Y-35989230D01*
X59708893Y-36010145D01*
X59756257Y-36022732D01*
X59814084Y-36029042D01*
X59893347Y-36031128D01*
X59992683Y-36031088D01*
X60098229Y-36029972D01*
X60180049Y-36026015D01*
X60250973Y-36016973D01*
X60323830Y-36000600D01*
X60411449Y-35974651D01*
X60521850Y-35938485D01*
X60744770Y-35858254D01*
X60926314Y-35779783D01*
X61067378Y-35702620D01*
X61168863Y-35626313D01*
X61195061Y-35599875D01*
X61242919Y-35540804D01*
X61266280Y-35489995D01*
X61273160Y-35428596D01*
X61273267Y-35415904D01*
X61254102Y-35299563D01*
X61197696Y-35169058D01*
X61105681Y-35026990D01*
X60979689Y-34875958D01*
X60855092Y-34750012D01*
X60609744Y-34523024D01*
X60388315Y-34329495D01*
X60189678Y-34168755D01*
X60012708Y-34040131D01*
X59856280Y-33942952D01*
X59719269Y-33876545D01*
X59600549Y-33840240D01*
X59498994Y-33833365D01*
X59413479Y-33855248D01*
X59383593Y-33871851D01*
X59323345Y-33932333D01*
X59266207Y-34030014D01*
X59213632Y-34159791D01*
X59167070Y-34316561D01*
X59127973Y-34495221D01*
X59097793Y-34690668D01*
X59077981Y-34897802D01*
X59074412Y-34958733D01*
X59061350Y-35218949D01*
X58770195Y-34963170D01*
X58479040Y-34707390D01*
X58492330Y-34618287D01*
X58505391Y-34534879D01*
X58519616Y-34449643D01*
X58521065Y-34441345D01*
X58536509Y-34353507D01*
X58401709Y-34427602D01*
X58332242Y-34462518D01*
X58275281Y-34485218D01*
X58242246Y-34491221D01*
X58240796Y-34490772D01*
X58215765Y-34473278D01*
X58167201Y-34434058D01*
X58102192Y-34379316D01*
X58027824Y-34315257D01*
X57951183Y-34248088D01*
X57879356Y-34184012D01*
X57819430Y-34129236D01*
X57778491Y-34089964D01*
X57763758Y-34073060D01*
X57778852Y-34057684D01*
X57824687Y-34028837D01*
X57893667Y-33991002D01*
X57958019Y-33958444D01*
X58177048Y-33843067D01*
X58356576Y-33730924D01*
X58496096Y-33622461D01*
X58595099Y-33518123D01*
X58653079Y-33418356D01*
X58669767Y-33333474D01*
X58649945Y-33237462D01*
X58591847Y-33130502D01*
X58497520Y-33014530D01*
X58369013Y-32891479D01*
X58208375Y-32763286D01*
X58017654Y-32631883D01*
X57798899Y-32499207D01*
X57767560Y-32481433D01*
X57703858Y-32444623D01*
X57618012Y-32393733D01*
X57523851Y-32337000D01*
X57473850Y-32306487D01*
X57299315Y-32208851D01*
X57128714Y-32131295D01*
X56968184Y-32075792D01*
X56823863Y-32044316D01*
X56701889Y-32038838D01*
X56659238Y-32044674D01*
X56575449Y-32080591D01*
X56507399Y-32151147D01*
X56454499Y-32257642D01*
X56416160Y-32401376D01*
X56391791Y-32583649D01*
X56387210Y-32644577D01*
X56373183Y-32863672D01*
X56034517Y-32566921D01*
X55927960Y-32473609D01*
X55826885Y-32385200D01*
X55737548Y-32307158D01*
X55666202Y-32244946D01*
X55619102Y-32204027D01*
X55612823Y-32198604D01*
X55529797Y-32127038D01*
X55594036Y-32047100D01*
X55652476Y-31965426D01*
X55701839Y-31880021D01*
X55735983Y-31802844D01*
X55748766Y-31745855D01*
X55748767Y-31745766D01*
X55728536Y-31656661D01*
X55670084Y-31562324D01*
X55576775Y-31465459D01*
X55451970Y-31368771D01*
X55299031Y-31274965D01*
X55121322Y-31186745D01*
X54981971Y-31128989D01*
X54806804Y-31061765D01*
X54667119Y-31007982D01*
X54558836Y-30966016D01*
X54477875Y-30934244D01*
X54420154Y-30911042D01*
X54381595Y-30894787D01*
X54358116Y-30883855D01*
X54345638Y-30876623D01*
X54343413Y-30874919D01*
X54336825Y-30868859D01*
X54336685Y-30863387D01*
X54348049Y-30857212D01*
X54375974Y-30849043D01*
X54425514Y-30837590D01*
X54501728Y-30821563D01*
X54609671Y-30799670D01*
X54743350Y-30772838D01*
X54886738Y-30743676D01*
X55046435Y-30710547D01*
X55203553Y-30677402D01*
X55339206Y-30648195D01*
X55346600Y-30646577D01*
X55632350Y-30583994D01*
X55981600Y-30735453D01*
X56163094Y-30816436D01*
X56372015Y-30913480D01*
X56598882Y-31021908D01*
X56834217Y-31137039D01*
X57068543Y-31254195D01*
X57292380Y-31368697D01*
X57496250Y-31475865D01*
X57643183Y-31555713D01*
X58432953Y-32017529D01*
X59201523Y-32515494D01*
X59947439Y-33048313D01*
X60669245Y-33614688D01*
X61365487Y-34213323D01*
X62034709Y-34842920D01*
X62675457Y-35502183D01*
X63286275Y-36189815D01*
X63865709Y-36904518D01*
X64304189Y-37492821D01*
X64831098Y-38263356D01*
X65321386Y-39054734D01*
X65774584Y-39865771D01*
X66190223Y-40695285D01*
X66567832Y-41542090D01*
X66906944Y-42405003D01*
X67207089Y-43282841D01*
X67467797Y-44174420D01*
X67688599Y-45078555D01*
X67869025Y-45994064D01*
X67992303Y-46795267D01*
X68056564Y-47322947D01*
X68105843Y-47839394D01*
X68140745Y-48355376D01*
X68161879Y-48881661D01*
X68169851Y-49429017D01*
X68167063Y-49896183D01*
X68146121Y-50628608D01*
X68103943Y-51332573D01*
X68039544Y-52016795D01*
X67951939Y-52689989D01*
X67840145Y-53360871D01*
X67703175Y-54038157D01*
X67694707Y-54076600D01*
X67472644Y-54984781D01*
X67212087Y-55877173D01*
X66913807Y-56752744D01*
X66578573Y-57610461D01*
X66207154Y-58449292D01*
X65800321Y-59268203D01*
X65358842Y-60066162D01*
X64883488Y-60842136D01*
X64375027Y-61595093D01*
X63834230Y-62323999D01*
X63261866Y-63027823D01*
X62658705Y-63705532D01*
X62025515Y-64356092D01*
X61363068Y-64978472D01*
X60672132Y-65571638D01*
X59953476Y-66134558D01*
X59207871Y-66666199D01*
X58436086Y-67165529D01*
X57638891Y-67631515D01*
X57561498Y-67674212D01*
X56753817Y-68093832D01*
X55931836Y-68473856D01*
X55095246Y-68814374D01*
X54243737Y-69115481D01*
X53377002Y-69377266D01*
X52494730Y-69599823D01*
X51596612Y-69783242D01*
X50682339Y-69927617D01*
X49751603Y-70033039D01*
X49578683Y-70048188D01*
X49450073Y-70056893D01*
X49285622Y-70064796D01*
X49091818Y-70071826D01*
X48875148Y-70077907D01*
X48642099Y-70082968D01*
X48399158Y-70086933D01*
X48152812Y-70089731D01*
X47909547Y-70091287D01*
X47675852Y-70091529D01*
X47458212Y-70090382D01*
X47263114Y-70087774D01*
X47097047Y-70083630D01*
X46966496Y-70077878D01*
X46964600Y-70077765D01*
X46042226Y-70002720D01*
X45136699Y-69889290D01*
X44246000Y-69736987D01*
X43368110Y-69545322D01*
X42501010Y-69313807D01*
X41642680Y-69041954D01*
X40791101Y-68729275D01*
X40151528Y-68462401D01*
X43535623Y-68462401D01*
X43537562Y-68565323D01*
X43573941Y-68652917D01*
X43583641Y-68666505D01*
X43661504Y-68741075D01*
X43776413Y-68812350D01*
X43923098Y-68878163D01*
X44096286Y-68936346D01*
X44290705Y-68984732D01*
X44414017Y-69007936D01*
X44531779Y-69027802D01*
X44668864Y-69051308D01*
X44802926Y-69074611D01*
X44858517Y-69084397D01*
X44980362Y-69105890D01*
X45070477Y-69121199D01*
X45138828Y-69131452D01*
X45195382Y-69137777D01*
X45250105Y-69141302D01*
X45312965Y-69143156D01*
X45388528Y-69144384D01*
X45505625Y-69141621D01*
X45617615Y-69131087D01*
X45701291Y-69115641D01*
X45824607Y-69073846D01*
X45910903Y-69019269D01*
X45932209Y-68990395D01*
X46817056Y-68990395D01*
X46836646Y-69081465D01*
X46887540Y-69152896D01*
X46975943Y-69217877D01*
X47097230Y-69274036D01*
X47246774Y-69319005D01*
X47336604Y-69337614D01*
X47384240Y-69342144D01*
X47467835Y-69345855D01*
X47581024Y-69348640D01*
X47717439Y-69350394D01*
X47870713Y-69351008D01*
X48034478Y-69350377D01*
X48075850Y-69350017D01*
X48261140Y-69347977D01*
X48409899Y-69345596D01*
X48527928Y-69342503D01*
X48621029Y-69338323D01*
X48695003Y-69332685D01*
X48755652Y-69325215D01*
X48808778Y-69315542D01*
X48860183Y-69303291D01*
X48878359Y-69298456D01*
X49044966Y-69242488D01*
X49171081Y-69175662D01*
X49257246Y-69097526D01*
X49304004Y-69007627D01*
X49313574Y-68935600D01*
X49298611Y-68834100D01*
X49259568Y-68717289D01*
X50095118Y-68717289D01*
X50095486Y-68849126D01*
X50126468Y-68953689D01*
X50189542Y-69032976D01*
X50286183Y-69088982D01*
X50417869Y-69123706D01*
X50586076Y-69139143D01*
X50753433Y-69138774D01*
X50882282Y-69131387D01*
X51021528Y-69118237D01*
X51151819Y-69101385D01*
X51229683Y-69088025D01*
X51350469Y-69064845D01*
X51489128Y-69039544D01*
X51621694Y-69016459D01*
X51663600Y-69009480D01*
X51871579Y-68967907D01*
X52060512Y-68915283D01*
X52225338Y-68853674D01*
X52360999Y-68785141D01*
X52462433Y-68711750D01*
X52504559Y-68666505D01*
X52546940Y-68582096D01*
X52555583Y-68483120D01*
X52529997Y-68368559D01*
X52469689Y-68237396D01*
X52374166Y-68088612D01*
X52341890Y-68047433D01*
X53320978Y-68047433D01*
X53345706Y-68183686D01*
X53395718Y-68286433D01*
X53471062Y-68355859D01*
X53536055Y-68383918D01*
X53636026Y-68400515D01*
X53762754Y-68402646D01*
X53903320Y-68390604D01*
X54006519Y-68373184D01*
X54095448Y-68351497D01*
X54207322Y-68319435D01*
X54325613Y-68281918D01*
X54402502Y-68255361D01*
X54524509Y-68211774D01*
X54659675Y-68163990D01*
X54787414Y-68119269D01*
X54849183Y-68097870D01*
X55057298Y-68018664D01*
X55243291Y-67932815D01*
X55403707Y-67842659D01*
X55535091Y-67750534D01*
X55633989Y-67658776D01*
X55696944Y-67569721D01*
X55717727Y-67510508D01*
X55715191Y-67415942D01*
X55674191Y-67308924D01*
X55594431Y-67189053D01*
X55475612Y-67055931D01*
X55317439Y-66909159D01*
X55194588Y-66807213D01*
X54986477Y-66653162D01*
X54795402Y-66537701D01*
X54621183Y-66460742D01*
X54463642Y-66422198D01*
X54393255Y-66417313D01*
X54229124Y-66434842D01*
X54059785Y-66485861D01*
X53897570Y-66565332D01*
X53754812Y-66668217D01*
X53734867Y-66686266D01*
X53648596Y-66781961D01*
X53573234Y-66899184D01*
X53507167Y-67042052D01*
X53448776Y-67214685D01*
X53396446Y-67421200D01*
X53348557Y-67665715D01*
X53347175Y-67673664D01*
X53321484Y-67877487D01*
X53320978Y-68047433D01*
X52341890Y-68047433D01*
X52242937Y-67921190D01*
X52075509Y-67734112D01*
X52030823Y-67687151D01*
X51882901Y-67543370D01*
X51747148Y-67434506D01*
X51617409Y-67357316D01*
X51487529Y-67308556D01*
X51351354Y-67284980D01*
X51261433Y-67281586D01*
X51083631Y-67294887D01*
X50923991Y-67334090D01*
X50780322Y-67401387D01*
X50650431Y-67498974D01*
X50532127Y-67629044D01*
X50423218Y-67793793D01*
X50321511Y-67995413D01*
X50224814Y-68236101D01*
X50180319Y-68363807D01*
X50123888Y-68556182D01*
X50095118Y-68717289D01*
X49259568Y-68717289D01*
X49255083Y-68703873D01*
X49183749Y-68546730D01*
X49085367Y-68364477D01*
X49046462Y-68298071D01*
X48917144Y-68095149D01*
X48792805Y-67930386D01*
X48669699Y-67800518D01*
X48544081Y-67702278D01*
X48412206Y-67632402D01*
X48270327Y-67587624D01*
X48220178Y-67577714D01*
X48026938Y-67565363D01*
X47838630Y-67593833D01*
X47660396Y-67661614D01*
X47497378Y-67767194D01*
X47456459Y-67802149D01*
X47378642Y-67883712D01*
X47289454Y-67995887D01*
X47194446Y-68130478D01*
X47099169Y-68279294D01*
X47009174Y-68434140D01*
X46943431Y-68559427D01*
X46869148Y-68728353D01*
X46827116Y-68871555D01*
X46817056Y-68990395D01*
X45932209Y-68990395D01*
X45964920Y-68946065D01*
X45991399Y-68848387D01*
X45995997Y-68752265D01*
X45983878Y-68641705D01*
X45952489Y-68504380D01*
X45905288Y-68349238D01*
X45845736Y-68185229D01*
X45777292Y-68021301D01*
X45703415Y-67866402D01*
X45627567Y-67729481D01*
X45563082Y-67632508D01*
X45434943Y-67494360D01*
X45281827Y-67389628D01*
X45106181Y-67319479D01*
X44910454Y-67285078D01*
X44826767Y-67281586D01*
X44683630Y-67291229D01*
X44550589Y-67324053D01*
X44421490Y-67383304D01*
X44290178Y-67472224D01*
X44150497Y-67594059D01*
X44057376Y-67687151D01*
X43880751Y-67879878D01*
X43740687Y-68052889D01*
X43636761Y-68207061D01*
X43568548Y-68343273D01*
X43535623Y-68462401D01*
X40151528Y-68462401D01*
X39969017Y-68386245D01*
X39814528Y-68315975D01*
X39631965Y-68229674D01*
X39430280Y-68131824D01*
X39218429Y-68026910D01*
X39005365Y-67919416D01*
X38800043Y-67813825D01*
X38611418Y-67714621D01*
X38448444Y-67626288D01*
X38421970Y-67611579D01*
X38149112Y-67451007D01*
X40367713Y-67451007D01*
X40370473Y-67510508D01*
X40405989Y-67595060D01*
X40479577Y-67684340D01*
X40587593Y-67775883D01*
X40726390Y-67867222D01*
X40892324Y-67955893D01*
X41081750Y-68039430D01*
X41239017Y-68097912D01*
X41352904Y-68137480D01*
X41486163Y-68184321D01*
X41618382Y-68231241D01*
X41687182Y-68255884D01*
X41932640Y-68335041D01*
X42147859Y-68385007D01*
X42332732Y-68405765D01*
X42487151Y-68397298D01*
X42541970Y-68385282D01*
X42636245Y-68341200D01*
X42705426Y-68267594D01*
X42749837Y-68163305D01*
X42769802Y-68027178D01*
X42765645Y-67858056D01*
X42741024Y-67673664D01*
X42691054Y-67419164D01*
X42635096Y-67203003D01*
X42571149Y-67021373D01*
X42497209Y-66870470D01*
X42411273Y-66746485D01*
X42311339Y-66645613D01*
X42195402Y-66564047D01*
X42141766Y-66534788D01*
X41979961Y-66465854D01*
X41823924Y-66427954D01*
X41669531Y-66421988D01*
X41512662Y-66448856D01*
X41349193Y-66509457D01*
X41175002Y-66604690D01*
X40985967Y-66735457D01*
X40893611Y-66807213D01*
X40709934Y-66962988D01*
X40565802Y-67104856D01*
X40460919Y-67233216D01*
X40394988Y-67348466D01*
X40367713Y-67451007D01*
X38149112Y-67451007D01*
X37624802Y-67142461D01*
X36850562Y-66637991D01*
X36100382Y-66099109D01*
X35774919Y-65842166D01*
X37440825Y-65842166D01*
X37452662Y-65949527D01*
X37505393Y-66063059D01*
X37598602Y-66182270D01*
X37731876Y-66306667D01*
X37904798Y-66435760D01*
X38116955Y-66569056D01*
X38216080Y-66625303D01*
X38324710Y-66685974D01*
X38447387Y-66755556D01*
X38561754Y-66821346D01*
X38588313Y-66836814D01*
X38799375Y-66951108D01*
X38992052Y-67036986D01*
X39164338Y-67093954D01*
X39314229Y-67121518D01*
X39439719Y-67119183D01*
X39538804Y-67086455D01*
X39556267Y-67075538D01*
X39624398Y-67003838D01*
X39677413Y-66894464D01*
X39714872Y-66749451D01*
X39736337Y-66570833D01*
X39741369Y-66360643D01*
X39737208Y-66236850D01*
X39722569Y-66034137D01*
X39700465Y-65865642D01*
X39669374Y-65723667D01*
X39627773Y-65600514D01*
X39598246Y-65534716D01*
X39507981Y-65395354D01*
X39384577Y-65269864D01*
X39236494Y-65164267D01*
X39072190Y-65084579D01*
X38900126Y-65036821D01*
X38897945Y-65036448D01*
X38822652Y-65026131D01*
X38758235Y-65025163D01*
X38688136Y-65034715D01*
X38595794Y-65055955D01*
X38585781Y-65058491D01*
X38444778Y-65102612D01*
X38292433Y-65164528D01*
X38135351Y-65240194D01*
X37980139Y-65325565D01*
X37833404Y-65416595D01*
X37701753Y-65509240D01*
X37591793Y-65599455D01*
X37510130Y-65683194D01*
X37470298Y-65741467D01*
X37440825Y-65842166D01*
X35774919Y-65842166D01*
X35375396Y-65526755D01*
X34676737Y-64921869D01*
X34005538Y-64285391D01*
X33574138Y-63837528D01*
X34822585Y-63837528D01*
X34856215Y-63950204D01*
X34902288Y-64039156D01*
X34959073Y-64120440D01*
X35041765Y-64219974D01*
X35142898Y-64329961D01*
X35255005Y-64442605D01*
X35370621Y-64550109D01*
X35481683Y-64644201D01*
X35563072Y-64709902D01*
X35661708Y-64790607D01*
X35762538Y-64873960D01*
X35818573Y-64920728D01*
X36011793Y-65070921D01*
X36194394Y-65189088D01*
X36362594Y-65272878D01*
X36417975Y-65293858D01*
X36513773Y-65323219D01*
X36585680Y-65334402D01*
X36647705Y-65328087D01*
X36706883Y-65307911D01*
X36779555Y-65260762D01*
X36842806Y-65182563D01*
X36897890Y-65070665D01*
X36946058Y-64922419D01*
X36988562Y-64735178D01*
X36995779Y-64696740D01*
X37035394Y-64442506D01*
X37054328Y-64221309D01*
X37051837Y-64028844D01*
X37027177Y-63860804D01*
X36979605Y-63712883D01*
X36908378Y-63580774D01*
X36812751Y-63460170D01*
X36775703Y-63422152D01*
X36619627Y-63291939D01*
X36457547Y-63202845D01*
X36286232Y-63153748D01*
X36102448Y-63143525D01*
X36001319Y-63153136D01*
X35885064Y-63175350D01*
X35743198Y-63211320D01*
X35588566Y-63257108D01*
X35434017Y-63308779D01*
X35292396Y-63362394D01*
X35225739Y-63390806D01*
X35065079Y-63472323D01*
X34945590Y-63555436D01*
X34866116Y-63642463D01*
X34825499Y-63735721D01*
X34822585Y-63837528D01*
X33574138Y-63837528D01*
X33362932Y-63618262D01*
X32750053Y-62921422D01*
X32708124Y-62871350D01*
X32130581Y-62146554D01*
X31587520Y-61397809D01*
X31506326Y-61274532D01*
X32592433Y-61274532D01*
X32609951Y-61398547D01*
X32661425Y-61542438D01*
X32745237Y-61703133D01*
X32859766Y-61877561D01*
X33003395Y-62062653D01*
X33015901Y-62077600D01*
X33094210Y-62171434D01*
X33178028Y-62273046D01*
X33254224Y-62366473D01*
X33285803Y-62405683D01*
X33355846Y-62488873D01*
X33442119Y-62585095D01*
X33530081Y-62678308D01*
X33564614Y-62713282D01*
X33721275Y-62858238D01*
X33861962Y-62965028D01*
X33987865Y-63034183D01*
X34100174Y-63066233D01*
X34200080Y-63061710D01*
X34275034Y-63030192D01*
X34350218Y-62966072D01*
X34423860Y-62866814D01*
X34496888Y-62730671D01*
X34570226Y-62555894D01*
X34644804Y-62340737D01*
X34651076Y-62321017D01*
X34711320Y-62112766D01*
X34749736Y-61934186D01*
X34766473Y-61778766D01*
X34761681Y-61639995D01*
X34735507Y-61511362D01*
X34688101Y-61386356D01*
X34673150Y-61355309D01*
X34593684Y-61224207D01*
X34493460Y-61100915D01*
X34382170Y-60995547D01*
X34269507Y-60918213D01*
X34239948Y-60903377D01*
X34087814Y-60848125D01*
X33924429Y-60818520D01*
X33740943Y-60813516D01*
X33582206Y-60825565D01*
X33319916Y-60861325D01*
X33098656Y-60905815D01*
X32917991Y-60959232D01*
X32777486Y-61021772D01*
X32676705Y-61093634D01*
X32615215Y-61175014D01*
X32592580Y-61266110D01*
X32592433Y-61274532D01*
X31506326Y-61274532D01*
X31079525Y-60626526D01*
X30607180Y-59834114D01*
X30171070Y-59021985D01*
X29897786Y-58453615D01*
X30832466Y-58453615D01*
X30848244Y-58583294D01*
X30885861Y-58731513D01*
X30943921Y-58893323D01*
X31021028Y-59063774D01*
X31115784Y-59237917D01*
X31170055Y-59325933D01*
X31221010Y-59408757D01*
X31277458Y-59505711D01*
X31318558Y-59579933D01*
X31423121Y-59762437D01*
X31533316Y-59931964D01*
X31642983Y-60079669D01*
X31745961Y-60196709D01*
X31753364Y-60204124D01*
X31870318Y-60308417D01*
X31974438Y-60374817D01*
X32069646Y-60404309D01*
X32159862Y-60397876D01*
X32249009Y-60356503D01*
X32278251Y-60335815D01*
X32339032Y-60280931D01*
X32406490Y-60207268D01*
X32459162Y-60140023D01*
X32513540Y-60055978D01*
X32576476Y-59946752D01*
X32643457Y-59821502D01*
X32709968Y-59689383D01*
X32771495Y-59559553D01*
X32823526Y-59441168D01*
X32861544Y-59343386D01*
X32877646Y-59291128D01*
X32907225Y-59093271D01*
X32895317Y-58902800D01*
X32841614Y-58717492D01*
X32781388Y-58593864D01*
X32690459Y-58455425D01*
X32587065Y-58342615D01*
X32466542Y-58253207D01*
X32324226Y-58184971D01*
X32155451Y-58135682D01*
X31955554Y-58103110D01*
X31719871Y-58085029D01*
X31715548Y-58084835D01*
X31473613Y-58082116D01*
X31269941Y-58097160D01*
X31104576Y-58129958D01*
X30977559Y-58180501D01*
X30888933Y-58248779D01*
X30872015Y-58269669D01*
X30839925Y-58347423D01*
X30832466Y-58453615D01*
X29897786Y-58453615D01*
X29771780Y-58191551D01*
X29409893Y-57344220D01*
X29085996Y-56481405D01*
X28800672Y-55604516D01*
X28744532Y-55401644D01*
X29567901Y-55401644D01*
X29572652Y-55486001D01*
X29587312Y-55583051D01*
X29612859Y-55696932D01*
X29650269Y-55831782D01*
X29700520Y-55991737D01*
X29764588Y-56180936D01*
X29843451Y-56403515D01*
X29878400Y-56500183D01*
X29972721Y-56743430D01*
X30064803Y-56946512D01*
X30155915Y-57111453D01*
X30247328Y-57240278D01*
X30340313Y-57335008D01*
X30436137Y-57397668D01*
X30444017Y-57401380D01*
X30515210Y-57425630D01*
X30581712Y-57425823D01*
X30656874Y-57400287D01*
X30720951Y-57366686D01*
X30799441Y-57309977D01*
X30892848Y-57223269D01*
X30995477Y-57113540D01*
X31101632Y-56987767D01*
X31205618Y-56852928D01*
X31301738Y-56715999D01*
X31384298Y-56583959D01*
X31432663Y-56494800D01*
X31477611Y-56399620D01*
X31505436Y-56323329D01*
X31521034Y-56248660D01*
X31529302Y-56158347D01*
X31529624Y-56152885D01*
X31522177Y-55952929D01*
X31478188Y-55763413D01*
X31400509Y-55589596D01*
X31291993Y-55436735D01*
X31155493Y-55310089D01*
X31030127Y-55232224D01*
X30910823Y-55181315D01*
X30757607Y-55131064D01*
X30578868Y-55083844D01*
X30382993Y-55042026D01*
X30311907Y-55029100D01*
X30187077Y-55008148D01*
X30093634Y-54994994D01*
X30021438Y-54989222D01*
X29960346Y-54990415D01*
X29900218Y-54998160D01*
X29841190Y-55009820D01*
X29730403Y-55046641D01*
X29652846Y-55105329D01*
X29602687Y-55191437D01*
X29584220Y-55254462D01*
X29572083Y-55325844D01*
X29567901Y-55401644D01*
X28744532Y-55401644D01*
X28554507Y-54714964D01*
X28348083Y-53814159D01*
X28181988Y-52903513D01*
X28094826Y-52263580D01*
X28853427Y-52263580D01*
X28860035Y-52436506D01*
X28878003Y-52622351D01*
X28907238Y-52814178D01*
X28915761Y-52859517D01*
X28940294Y-52986085D01*
X28965295Y-53116433D01*
X28987960Y-53235857D01*
X29005483Y-53329656D01*
X29006608Y-53335767D01*
X29030021Y-53444587D01*
X29061986Y-53569249D01*
X29096309Y-53685911D01*
X29102705Y-53705566D01*
X29162933Y-53867522D01*
X29225334Y-53993408D01*
X29293857Y-54089451D01*
X29372449Y-54161877D01*
X29406850Y-54185170D01*
X29459844Y-54213415D01*
X29507403Y-54222679D01*
X29567052Y-54214448D01*
X29612738Y-54202621D01*
X29699205Y-54166216D01*
X29805497Y-54102126D01*
X29925341Y-54016001D01*
X30052466Y-53913488D01*
X30180599Y-53800236D01*
X30303468Y-53681893D01*
X30414801Y-53564107D01*
X30508325Y-53452527D01*
X30577768Y-53352801D01*
X30598847Y-53314600D01*
X30669347Y-53128880D01*
X30697605Y-52941442D01*
X30687380Y-52774516D01*
X30644304Y-52584073D01*
X30578865Y-52424577D01*
X30486897Y-52288755D01*
X30364232Y-52169330D01*
X30321956Y-52136453D01*
X30194859Y-52053316D01*
X30041666Y-51971030D01*
X29872563Y-51893607D01*
X29697738Y-51825064D01*
X29527380Y-51769414D01*
X29371676Y-51730672D01*
X29248100Y-51713280D01*
X29128260Y-51713745D01*
X29038733Y-51735815D01*
X28971197Y-51783787D01*
X28917330Y-51861961D01*
X28902702Y-51891706D01*
X28874667Y-51984241D01*
X28858273Y-52110512D01*
X28853427Y-52263580D01*
X28094826Y-52263580D01*
X28056804Y-51984436D01*
X28011045Y-51536600D01*
X27952418Y-50703832D01*
X27926192Y-49856092D01*
X27927810Y-49632940D01*
X28654982Y-49632940D01*
X28656483Y-49798815D01*
X28659994Y-49952710D01*
X28665558Y-50086872D01*
X28673217Y-50193547D01*
X28678085Y-50235897D01*
X28715783Y-50440311D01*
X28766608Y-50604786D01*
X28830837Y-50729717D01*
X28908746Y-50815501D01*
X29000613Y-50862533D01*
X29106714Y-50871210D01*
X29121100Y-50869603D01*
X29183942Y-50854637D01*
X29269368Y-50825529D01*
X29362369Y-50787598D01*
X29396267Y-50772121D01*
X29528974Y-50703551D01*
X29671100Y-50620018D01*
X29813362Y-50527857D01*
X29946476Y-50433404D01*
X30061160Y-50342996D01*
X30148129Y-50262969D01*
X30158636Y-50251787D01*
X30276337Y-50100333D01*
X30355051Y-49943095D01*
X30398090Y-49772551D01*
X30406785Y-49688102D01*
X30405435Y-49504553D01*
X30375643Y-49338069D01*
X30314995Y-49184613D01*
X30221080Y-49040148D01*
X30091486Y-48900636D01*
X29923801Y-48762041D01*
X29802576Y-48676755D01*
X29612670Y-48556382D01*
X29439339Y-48459853D01*
X29285504Y-48388419D01*
X29154085Y-48343332D01*
X29048005Y-48325844D01*
X28993240Y-48330039D01*
X28900361Y-48371237D01*
X28821671Y-48451159D01*
X28756905Y-48570230D01*
X28705797Y-48728873D01*
X28685818Y-48820352D01*
X28676147Y-48895268D01*
X28668232Y-49004729D01*
X28662116Y-49140981D01*
X28657841Y-49296269D01*
X28655448Y-49462840D01*
X28654982Y-49632940D01*
X27927810Y-49632940D01*
X27932365Y-49005017D01*
X27970935Y-48162245D01*
X28011763Y-47641933D01*
X28096475Y-46901100D01*
X28857334Y-46901100D01*
X28857591Y-47019086D01*
X28859989Y-47104234D01*
X28865792Y-47166033D01*
X28876261Y-47213968D01*
X28892659Y-47257526D01*
X28909433Y-47292683D01*
X28966520Y-47379650D01*
X29038686Y-47437101D01*
X29130474Y-47466233D01*
X29246429Y-47468238D01*
X29391093Y-47444313D01*
X29440506Y-47432325D01*
X29613409Y-47380606D01*
X29794554Y-47313558D01*
X29973023Y-47236120D01*
X30137899Y-47153234D01*
X30278264Y-47069841D01*
X30343618Y-47023592D01*
X30470625Y-46906906D01*
X30567185Y-46773001D01*
X30636858Y-46615386D01*
X30683200Y-46427572D01*
X30688692Y-46394259D01*
X30697834Y-46211434D01*
X30667034Y-46034186D01*
X30595630Y-45860687D01*
X30482958Y-45689112D01*
X30396268Y-45587406D01*
X30241365Y-45428396D01*
X30089016Y-45288290D01*
X29942891Y-45169619D01*
X29806656Y-45074917D01*
X29683980Y-45006717D01*
X29578531Y-44967551D01*
X29493977Y-44959953D01*
X29488705Y-44960706D01*
X29393686Y-44997329D01*
X29304655Y-45074490D01*
X29222444Y-45190710D01*
X29147889Y-45344508D01*
X29081823Y-45534406D01*
X29025081Y-45758922D01*
X29017041Y-45797380D01*
X28974693Y-46007068D01*
X28940481Y-46181267D01*
X28913554Y-46325856D01*
X28893062Y-46446715D01*
X28878152Y-46549722D01*
X28867976Y-46640758D01*
X28861681Y-46725702D01*
X28858418Y-46810434D01*
X28857335Y-46900831D01*
X28857334Y-46901100D01*
X28096475Y-46901100D01*
X28115540Y-46734371D01*
X28259955Y-45829361D01*
X28444138Y-44930585D01*
X28667218Y-44041722D01*
X28760507Y-43729001D01*
X29573846Y-43729001D01*
X29576939Y-43877224D01*
X29605774Y-43995117D01*
X29617182Y-44019852D01*
X29668211Y-44089304D01*
X29741055Y-44138864D01*
X29838732Y-44168927D01*
X29964258Y-44179889D01*
X30120652Y-44172149D01*
X30310931Y-44146102D01*
X30422850Y-44125730D01*
X30667786Y-44070448D01*
X30874579Y-44005876D01*
X31046900Y-43929328D01*
X31188422Y-43838118D01*
X31302817Y-43729558D01*
X31393757Y-43600963D01*
X31464912Y-43449647D01*
X31502961Y-43335546D01*
X31525895Y-43224736D01*
X31532029Y-43099661D01*
X31529931Y-43037530D01*
X31522487Y-42943598D01*
X31508423Y-42867698D01*
X31483017Y-42792386D01*
X31441545Y-42700214D01*
X31434854Y-42686346D01*
X31359948Y-42548842D01*
X31266900Y-42404658D01*
X31161384Y-42260508D01*
X31049072Y-42123104D01*
X30935635Y-41999160D01*
X30826746Y-41895391D01*
X30728079Y-41818508D01*
X30675717Y-41787868D01*
X30591919Y-41753668D01*
X30521455Y-41744285D01*
X30455129Y-41762267D01*
X30383744Y-41810160D01*
X30298107Y-41890512D01*
X30295463Y-41893204D01*
X30186334Y-42025965D01*
X30081517Y-42197596D01*
X29980402Y-42409233D01*
X29884085Y-42657183D01*
X29839741Y-42781917D01*
X29788920Y-42924232D01*
X29739568Y-43061904D01*
X29716341Y-43126448D01*
X29643814Y-43351204D01*
X29596227Y-43552858D01*
X29573846Y-43729001D01*
X28760507Y-43729001D01*
X28928325Y-43166452D01*
X29226587Y-42308458D01*
X29348420Y-41990433D01*
X29705765Y-41137807D01*
X29864191Y-40802601D01*
X30833455Y-40802601D01*
X30856329Y-40881546D01*
X30918288Y-40951188D01*
X31016807Y-41010017D01*
X31149362Y-41056521D01*
X31311850Y-41088966D01*
X31377997Y-41093433D01*
X31475719Y-41093892D01*
X31594502Y-41090891D01*
X31723834Y-41084978D01*
X31853201Y-41076700D01*
X31972091Y-41066606D01*
X32069991Y-41055243D01*
X32120416Y-41046825D01*
X32306811Y-40996106D01*
X32460628Y-40925358D01*
X32588585Y-40830294D01*
X32697400Y-40706626D01*
X32731467Y-40656937D01*
X32823327Y-40493907D01*
X32882094Y-40336134D01*
X32907816Y-40177779D01*
X32900541Y-40013001D01*
X32860318Y-39835962D01*
X32787195Y-39640822D01*
X32740699Y-39539581D01*
X32624857Y-39312106D01*
X32516090Y-39125335D01*
X32413590Y-38978379D01*
X32316547Y-38870350D01*
X32224155Y-38800357D01*
X32135604Y-38767513D01*
X32050085Y-38770928D01*
X32043250Y-38772770D01*
X31928299Y-38825248D01*
X31806934Y-38917834D01*
X31680491Y-39049021D01*
X31550303Y-39217298D01*
X31417707Y-39421157D01*
X31322098Y-39588017D01*
X31270761Y-39680038D01*
X31217264Y-39772638D01*
X31171416Y-39848908D01*
X31162463Y-39863183D01*
X31024580Y-40103195D01*
X30923467Y-40330728D01*
X30859656Y-40544265D01*
X30833677Y-40742287D01*
X30833455Y-40802601D01*
X29864191Y-40802601D01*
X30099209Y-40305339D01*
X30527736Y-39494081D01*
X30990328Y-38705083D01*
X31481256Y-37946679D01*
X32594784Y-37946679D01*
X32604060Y-38002821D01*
X32630294Y-38056730D01*
X32633285Y-38061619D01*
X32699431Y-38131979D01*
X32806383Y-38195964D01*
X32953039Y-38253192D01*
X33138298Y-38303279D01*
X33361058Y-38345844D01*
X33515229Y-38367995D01*
X33636153Y-38381895D01*
X33730850Y-38387935D01*
X33814673Y-38386194D01*
X33902979Y-38376748D01*
X33947100Y-38370189D01*
X34128005Y-38320933D01*
X34295896Y-38234184D01*
X34445445Y-38114082D01*
X34571322Y-37964764D01*
X34654282Y-37821023D01*
X34682195Y-37759698D01*
X34700709Y-37708394D01*
X34711665Y-37655778D01*
X34716905Y-37590522D01*
X34718270Y-37501292D01*
X34717977Y-37429017D01*
X34715577Y-37321953D01*
X34708666Y-37226745D01*
X34695344Y-37134911D01*
X34673714Y-37037973D01*
X34641875Y-36927451D01*
X34597929Y-36794867D01*
X34539976Y-36631741D01*
X34538479Y-36627607D01*
X34483590Y-36496115D01*
X34417974Y-36370651D01*
X34347550Y-36260799D01*
X34278236Y-36176141D01*
X34237106Y-36139547D01*
X34151794Y-36102584D01*
X34051109Y-36104894D01*
X33935266Y-36146395D01*
X33804480Y-36227000D01*
X33658966Y-36346626D01*
X33621735Y-36381267D01*
X33531299Y-36472341D01*
X33433392Y-36579123D01*
X33344457Y-36683435D01*
X33315434Y-36719933D01*
X33245558Y-36808713D01*
X33173176Y-36898143D01*
X33109346Y-36974661D01*
X33082463Y-37005683D01*
X32959416Y-37155639D01*
X32848002Y-37312880D01*
X32752222Y-37470258D01*
X32676080Y-37620628D01*
X32623578Y-37756842D01*
X32599007Y-37868858D01*
X32594784Y-37946679D01*
X31481256Y-37946679D01*
X31485971Y-37939396D01*
X32013647Y-37198071D01*
X32572341Y-36482158D01*
X33161036Y-35792709D01*
X33778716Y-35130774D01*
X34424364Y-34497404D01*
X35096964Y-33893650D01*
X35795501Y-33320563D01*
X36518957Y-32779193D01*
X37266317Y-32270592D01*
X38036564Y-31795810D01*
X38828682Y-31355898D01*
X39641654Y-30951907D01*
X40314066Y-30652018D01*
X40637948Y-30514778D01*
X41107816Y-30698707D01*
%TO.C, *%
D11*
%TD*%
M02*
