%TF.GenerationSoftware,KiCad,Pcbnew,5.1.10*%
%TF.CreationDate,2021-10-23T16:34:25+02:00*%
%TF.ProjectId,xmas-badge,786d6173-2d62-4616-9467-652e6b696361,rev?*%
%TF.SameCoordinates,Original*%
%TF.FileFunction,Copper,L2,Bot*%
%TF.FilePolarity,Positive*%
%FSLAX46Y46*%
G04 Gerber Fmt 4.6, Leading zero omitted, Abs format (unit mm)*
G04 Created by KiCad (PCBNEW 5.1.10) date 2021-10-23 16:34:25*
%MOMM*%
%LPD*%
G01*
G04 APERTURE LIST*
%TA.AperFunction,ComponentPad*%
%ADD10R,1.800000X1.800000*%
%TD*%
%TA.AperFunction,ComponentPad*%
%ADD11C,1.800000*%
%TD*%
%TA.AperFunction,ComponentPad*%
%ADD12C,2.400000*%
%TD*%
%TA.AperFunction,ComponentPad*%
%ADD13C,2.000000*%
%TD*%
%TA.AperFunction,ComponentPad*%
%ADD14C,0.100000*%
%TD*%
%TA.AperFunction,Conductor*%
%ADD15C,0.250000*%
%TD*%
G04 APERTURE END LIST*
D10*
%TO.P,D1,1*%
%TO.N,Net-(D1-Pad1)*%
X46634400Y-65633600D03*
D11*
%TO.P,D1,2*%
%TO.N,Net-(D1-Pad2)*%
X49174400Y-65633600D03*
%TD*%
%TO.P,R1,2*%
%TO.N,Net-(R1-Pad2)*%
%TA.AperFunction,ComponentPad*%
G36*
G01*
X34667232Y-38367935D02*
X34667232Y-38367935D01*
G75*
G02*
X33950025Y-36829880I410424J1127631D01*
G01*
X33950025Y-36829880D01*
G75*
G02*
X35488080Y-36112673I1127631J-410424D01*
G01*
X35488080Y-36112673D01*
G75*
G02*
X36205287Y-37650728I-410424J-1127631D01*
G01*
X36205287Y-37650728D01*
G75*
G02*
X34667232Y-38367935I-1127631J410424D01*
G01*
G37*
%TD.AperFunction*%
D12*
%TO.P,R1,1*%
%TO.N,Net-(R1-Pad1)*%
X30734000Y-49174400D03*
%TD*%
%TO.P,R2,2*%
%TO.N,Net-(R1-Pad2)*%
%TA.AperFunction,ComponentPad*%
G36*
G01*
X38603976Y-39786431D02*
X38603976Y-39786431D01*
G75*
G02*
X37886769Y-38248376I410424J1127631D01*
G01*
X37886769Y-38248376D01*
G75*
G02*
X39424824Y-37531169I1127631J-410424D01*
G01*
X39424824Y-37531169D01*
G75*
G02*
X40142031Y-39069224I-410424J-1127631D01*
G01*
X40142031Y-39069224D01*
G75*
G02*
X38603976Y-39786431I-1127631J410424D01*
G01*
G37*
%TD.AperFunction*%
%TO.P,R2,1*%
%TO.N,Net-(D1-Pad1)*%
X34670744Y-50592896D03*
%TD*%
%TO.P,R3,1*%
%TO.N,Net-(D1-Pad1)*%
X37490400Y-64440123D03*
%TO.P,R3,2*%
%TO.N,Net-(R1-Pad1)*%
%TA.AperFunction,ComponentPad*%
G36*
G01*
X31740400Y-54480830D02*
X31740400Y-54480830D01*
G75*
G02*
X30101170Y-54041600I-600000J1039230D01*
G01*
X30101170Y-54041600D01*
G75*
G02*
X30540400Y-52402370I1039230J600000D01*
G01*
X30540400Y-52402370D01*
G75*
G02*
X32179630Y-52841600I600000J-1039230D01*
G01*
X32179630Y-52841600D01*
G75*
G02*
X31740400Y-54480830I-1039230J-600000D01*
G01*
G37*
%TD.AperFunction*%
%TD*%
%TO.P,R4,1*%
%TO.N,Net-(R4-Pad1)*%
X62280800Y-51054000D03*
%TO.P,R4,2*%
%TO.N,Net-(R4-Pad2)*%
%TA.AperFunction,ComponentPad*%
G36*
G01*
X58347568Y-40247535D02*
X58347568Y-40247535D01*
G75*
G02*
X56809513Y-39530328I-410424J1127631D01*
G01*
X56809513Y-39530328D01*
G75*
G02*
X57526720Y-37992273I1127631J410424D01*
G01*
X57526720Y-37992273D01*
G75*
G02*
X59064775Y-38709480I410424J-1127631D01*
G01*
X59064775Y-38709480D01*
G75*
G02*
X58347568Y-40247535I-1127631J-410424D01*
G01*
G37*
%TD.AperFunction*%
%TD*%
%TO.P,R5,2*%
%TO.N,Net-(R4-Pad2)*%
%TA.AperFunction,ComponentPad*%
G36*
G01*
X62259168Y-38875935D02*
X62259168Y-38875935D01*
G75*
G02*
X60721113Y-38158728I-410424J1127631D01*
G01*
X60721113Y-38158728D01*
G75*
G02*
X61438320Y-36620673I1127631J410424D01*
G01*
X61438320Y-36620673D01*
G75*
G02*
X62976375Y-37337880I410424J-1127631D01*
G01*
X62976375Y-37337880D01*
G75*
G02*
X62259168Y-38875935I-1127631J-410424D01*
G01*
G37*
%TD.AperFunction*%
%TO.P,R5,1*%
%TO.N,Net-(R4-Pad1)*%
X66192400Y-49682400D03*
%TD*%
%TO.P,R6,1*%
%TO.N,Net-(D1-Pad2)*%
X54610000Y-64109600D03*
%TO.P,R6,2*%
%TO.N,Net-(R4-Pad1)*%
%TA.AperFunction,ComponentPad*%
G36*
G01*
X62002058Y-55300089D02*
X62002058Y-55300089D01*
G75*
G02*
X61854150Y-53609491I771345J919253D01*
G01*
X61854150Y-53609491D01*
G75*
G02*
X63544748Y-53461583I919253J-771345D01*
G01*
X63544748Y-53461583D01*
G75*
G02*
X63692656Y-55152181I-771345J-919253D01*
G01*
X63692656Y-55152181D01*
G75*
G02*
X62002058Y-55300089I-919253J771345D01*
G01*
G37*
%TD.AperFunction*%
%TD*%
D13*
%TO.P,S1,3*%
%TO.N,Net-(R4-Pad2)*%
X50596800Y-43891200D03*
%TO.P,S1,2*%
X48056800Y-43891200D03*
%TO.P,S1,1*%
%TO.N,Net-(S1-Pad1)*%
X45516800Y-43891200D03*
%TD*%
%TO.P,U1,3*%
%TO.N,Net-(S1-Pad1)*%
%TA.AperFunction,SMDPad,CuDef*%
G36*
G01*
X54757600Y-29910400D02*
X56757600Y-29910400D01*
G75*
G02*
X57007600Y-30160400I0J-250000D01*
G01*
X57007600Y-34760400D01*
G75*
G02*
X56757600Y-35010400I-250000J0D01*
G01*
X54757600Y-35010400D01*
G75*
G02*
X54507600Y-34760400I0J250000D01*
G01*
X54507600Y-30160400D01*
G75*
G02*
X54757600Y-29910400I250000J0D01*
G01*
G37*
%TD.AperFunction*%
%TO.P,U1,2*%
%TA.AperFunction,SMDPad,CuDef*%
G36*
G01*
X39457600Y-29910400D02*
X41457600Y-29910400D01*
G75*
G02*
X41707600Y-30160400I0J-250000D01*
G01*
X41707600Y-34760400D01*
G75*
G02*
X41457600Y-35010400I-250000J0D01*
G01*
X39457600Y-35010400D01*
G75*
G02*
X39207600Y-34760400I0J250000D01*
G01*
X39207600Y-30160400D01*
G75*
G02*
X39457600Y-29910400I250000J0D01*
G01*
G37*
%TD.AperFunction*%
%TO.P,U1,1*%
%TO.N,Net-(R1-Pad2)*%
%TA.AperFunction,SMDPad,CuDef*%
G36*
G01*
X43007600Y-32410400D02*
X43007600Y-32410400D01*
G75*
G02*
X48107600Y-27310400I5100000J0D01*
G01*
X48107600Y-27310400D01*
G75*
G02*
X53207600Y-32410400I0J-5100000D01*
G01*
X53207600Y-32410400D01*
G75*
G02*
X48107600Y-37510400I-5100000J0D01*
G01*
X48107600Y-37510400D01*
G75*
G02*
X43007600Y-32410400I0J5100000D01*
G01*
G37*
%TD.AperFunction*%
%TD*%
%TA.AperFunction,ComponentPad*%
D14*
%TO.P, ,1*%
%TO.N,Net-(R1-Pad1)*%
G36*
X35803575Y-56992025D02*
G01*
X34803575Y-55259975D01*
X36535625Y-54259975D01*
X37535625Y-55992025D01*
X35803575Y-56992025D01*
G37*
%TD.AperFunction*%
%TD*%
%TA.AperFunction,ComponentPad*%
%TO.P, ,1*%
%TO.N,Net-(D1-Pad1)*%
G36*
X37073575Y-59176425D02*
G01*
X36073575Y-57444375D01*
X37805625Y-56444375D01*
X38805625Y-58176425D01*
X37073575Y-59176425D01*
G37*
%TD.AperFunction*%
%TD*%
%TA.AperFunction,ComponentPad*%
%TO.P, ,1*%
%TO.N,Net-(R4-Pad2)*%
G36*
X55993528Y-46392113D02*
G01*
X55309487Y-44512728D01*
X57188872Y-43828687D01*
X57872913Y-45708072D01*
X55993528Y-46392113D01*
G37*
%TD.AperFunction*%
%TD*%
%TA.AperFunction,ComponentPad*%
%TO.P, ,1*%
%TO.N,Net-(R4-Pad1)*%
G36*
X56857128Y-48779713D02*
G01*
X56173087Y-46900328D01*
X58052472Y-46216287D01*
X58736513Y-48095672D01*
X56857128Y-48779713D01*
G37*
%TD.AperFunction*%
%TD*%
D15*
%TO.N,Net-(D1-Pad1)*%
X37439600Y-64389323D02*
X37490400Y-64440123D01*
X37439600Y-57810400D02*
X37439600Y-64389323D01*
X45440923Y-64440123D02*
X46634400Y-65633600D01*
X37490400Y-64440123D02*
X45440923Y-64440123D01*
X46634400Y-62556552D02*
X46634400Y-65633600D01*
X34670744Y-50592896D02*
X46634400Y-62556552D01*
%TO.N,Net-(D1-Pad2)*%
X53086000Y-65633600D02*
X54610000Y-64109600D01*
X49174400Y-65633600D02*
X53086000Y-65633600D01*
%TO.N,Net-(R1-Pad2)*%
X41859200Y-38658800D02*
X48107600Y-32410400D01*
X39014400Y-38658800D02*
X41859200Y-38658800D01*
X37595904Y-37240304D02*
X39014400Y-38658800D01*
X35077656Y-37240304D02*
X37595904Y-37240304D01*
%TO.N,Net-(R1-Pad1)*%
X30734000Y-53035200D02*
X31140400Y-53441600D01*
X30734000Y-49174400D02*
X30734000Y-53035200D01*
X33985200Y-53441600D02*
X36169600Y-55626000D01*
X31140400Y-53441600D02*
X33985200Y-53441600D01*
%TO.N,Net-(R4-Pad1)*%
X62773403Y-51546603D02*
X62280800Y-51054000D01*
X62773403Y-54380836D02*
X62773403Y-51546603D01*
X64820800Y-51054000D02*
X66192400Y-49682400D01*
X62280800Y-51054000D02*
X64820800Y-51054000D01*
X62280800Y-51054000D02*
X59029600Y-51054000D01*
X57454800Y-49479200D02*
X57454800Y-47498000D01*
X59029600Y-51054000D02*
X57454800Y-49479200D01*
%TO.N,Net-(R4-Pad2)*%
X53898800Y-42418000D02*
X53898800Y-40944800D01*
X55723696Y-39119904D02*
X57937144Y-39119904D01*
X53898800Y-40944800D02*
X55723696Y-39119904D01*
X60477144Y-39119904D02*
X61848744Y-37748304D01*
X57937144Y-39119904D02*
X60477144Y-39119904D01*
X50596800Y-43891200D02*
X55372000Y-43891200D01*
X55372000Y-43891200D02*
X53898800Y-42418000D01*
X56591200Y-45110400D02*
X55372000Y-43891200D01*
X50596800Y-43891200D02*
X48056800Y-43891200D01*
%TO.N,Net-(S1-Pad1)*%
X55757600Y-32388274D02*
X55757600Y-32460400D01*
X50354715Y-26985389D02*
X55757600Y-32388274D01*
X45860485Y-26985389D02*
X50354715Y-26985389D01*
X40457600Y-32388274D02*
X45860485Y-26985389D01*
X40457600Y-32460400D02*
X40457600Y-32388274D01*
X45516800Y-42701200D02*
X45516800Y-43891200D01*
X55757600Y-32460400D02*
X45516800Y-42701200D01*
%TD*%
M02*
