M48
; DRILL file {KiCad 5.1.10} date Wed Oct 27 07:56:47 2021
; FORMAT={3:3/ absolute / metric / suppress leading zeros}
; #@! TF.CreationDate,2021-10-27T07:56:47+02:00
; #@! TF.GenerationSoftware,Kicad,Pcbnew,5.1.10
FMAT,2
METRIC,TZ
T1C0.900
T2C1.000
T3C1.200
T4C2.100
%
G90
G05
T1
X46634Y-65634
X49174Y-65634
T2
X36170Y-55626
X37440Y-57810
X45517Y-43891
X48057Y-43891
X50597Y-43891
X56591Y-45110
X57455Y-47498
T3
X30734Y-49174
X31140Y-53442
X34671Y-50593
X35078Y-37240
X37490Y-64440
X39014Y-38659
X54610Y-64110
X57937Y-39120
X61849Y-37748
X62281Y-51054
X62773Y-54381
X66192Y-49682
T4
X48057Y-24994
T0
M30
