%TF.GenerationSoftware,KiCad,Pcbnew,5.1.10*%
%TF.CreationDate,2021-10-27T07:56:43+02:00*%
%TF.ProjectId,xmas-badge,786d6173-2d62-4616-9467-652e6b696361,rev?*%
%TF.SameCoordinates,Original*%
%TF.FileFunction,Soldermask,Bot*%
%TF.FilePolarity,Negative*%
%FSLAX46Y46*%
G04 Gerber Fmt 4.6, Leading zero omitted, Abs format (unit mm)*
G04 Created by KiCad (PCBNEW 5.1.10) date 2021-10-27 07:56:43*
%MOMM*%
%LPD*%
G01*
G04 APERTURE LIST*
%ADD10C,2.500000*%
%ADD11C,2.200000*%
%ADD12C,2.800000*%
%ADD13C,2.400000*%
G04 APERTURE END LIST*
D10*
%TO.C, *%
X48056800Y-24993600D03*
%TD*%
%TO.C,D1*%
G36*
G01*
X45534400Y-66533600D02*
X45534400Y-64733600D01*
G75*
G02*
X45734400Y-64533600I200000J0D01*
G01*
X47534400Y-64533600D01*
G75*
G02*
X47734400Y-64733600I0J-200000D01*
G01*
X47734400Y-66533600D01*
G75*
G02*
X47534400Y-66733600I-200000J0D01*
G01*
X45734400Y-66733600D01*
G75*
G02*
X45534400Y-66533600I0J200000D01*
G01*
G37*
D11*
X49174400Y-65633600D03*
%TD*%
%TO.C,R1*%
G36*
G01*
X34598828Y-38555874D02*
X34598828Y-38555874D01*
G75*
G02*
X33762086Y-36761476I478828J1315570D01*
G01*
X33762086Y-36761476D01*
G75*
G02*
X35556484Y-35924734I1315570J-478828D01*
G01*
X35556484Y-35924734D01*
G75*
G02*
X36393226Y-37719132I-478828J-1315570D01*
G01*
X36393226Y-37719132D01*
G75*
G02*
X34598828Y-38555874I-1315570J478828D01*
G01*
G37*
D12*
X30734000Y-49174400D03*
%TD*%
%TO.C,R2*%
G36*
G01*
X38535572Y-39974370D02*
X38535572Y-39974370D01*
G75*
G02*
X37698830Y-38179972I478828J1315570D01*
G01*
X37698830Y-38179972D01*
G75*
G02*
X39493228Y-37343230I1315570J-478828D01*
G01*
X39493228Y-37343230D01*
G75*
G02*
X40329970Y-39137628I-478828J-1315570D01*
G01*
X40329970Y-39137628D01*
G75*
G02*
X38535572Y-39974370I-1315570J478828D01*
G01*
G37*
X34670744Y-50592896D03*
%TD*%
%TO.C,R3*%
X37490400Y-64440123D03*
G36*
G01*
X31840400Y-54654036D02*
X31840400Y-54654036D01*
G75*
G02*
X29927964Y-54141600I-700000J1212436D01*
G01*
X29927964Y-54141600D01*
G75*
G02*
X30440400Y-52229164I1212436J700000D01*
G01*
X30440400Y-52229164D01*
G75*
G02*
X32352836Y-52741600I700000J-1212436D01*
G01*
X32352836Y-52741600D01*
G75*
G02*
X31840400Y-54654036I-1212436J-700000D01*
G01*
G37*
%TD*%
%TO.C,R4*%
X62280800Y-51054000D03*
G36*
G01*
X58415972Y-40435474D02*
X58415972Y-40435474D01*
G75*
G02*
X56621574Y-39598732I-478828J1315570D01*
G01*
X56621574Y-39598732D01*
G75*
G02*
X57458316Y-37804334I1315570J478828D01*
G01*
X57458316Y-37804334D01*
G75*
G02*
X59252714Y-38641076I478828J-1315570D01*
G01*
X59252714Y-38641076D01*
G75*
G02*
X58415972Y-40435474I-1315570J-478828D01*
G01*
G37*
%TD*%
%TO.C,R5*%
G36*
G01*
X62327572Y-39063874D02*
X62327572Y-39063874D01*
G75*
G02*
X60533174Y-38227132I-478828J1315570D01*
G01*
X60533174Y-38227132D01*
G75*
G02*
X61369916Y-36432734I1315570J478828D01*
G01*
X61369916Y-36432734D01*
G75*
G02*
X63164314Y-37269476I478828J-1315570D01*
G01*
X63164314Y-37269476D01*
G75*
G02*
X62327572Y-39063874I-1315570J-478828D01*
G01*
G37*
X66192400Y-49682400D03*
%TD*%
%TO.C,R6*%
X54610000Y-64109600D03*
G36*
G01*
X61873500Y-55453298D02*
X61873500Y-55453298D01*
G75*
G02*
X61700941Y-53480933I899903J1072462D01*
G01*
X61700941Y-53480933D01*
G75*
G02*
X63673306Y-53308374I1072462J-899903D01*
G01*
X63673306Y-53308374D01*
G75*
G02*
X63845865Y-55280739I-899903J-1072462D01*
G01*
X63845865Y-55280739D01*
G75*
G02*
X61873500Y-55453298I-1072462J899903D01*
G01*
G37*
%TD*%
D13*
%TO.C,S1*%
X50596800Y-43891200D03*
X48056800Y-43891200D03*
X45516800Y-43891200D03*
%TD*%
%TO.C,U1*%
G36*
G01*
X54716960Y-29859600D02*
X56798240Y-29859600D01*
G75*
G02*
X57058400Y-30119760I0J-260160D01*
G01*
X57058400Y-34801040D01*
G75*
G02*
X56798240Y-35061200I-260160J0D01*
G01*
X54716960Y-35061200D01*
G75*
G02*
X54456800Y-34801040I0J260160D01*
G01*
X54456800Y-30119760D01*
G75*
G02*
X54716960Y-29859600I260160J0D01*
G01*
G37*
G36*
G01*
X39416960Y-29859600D02*
X41498240Y-29859600D01*
G75*
G02*
X41758400Y-30119760I0J-260160D01*
G01*
X41758400Y-34801040D01*
G75*
G02*
X41498240Y-35061200I-260160J0D01*
G01*
X39416960Y-35061200D01*
G75*
G02*
X39156800Y-34801040I0J260160D01*
G01*
X39156800Y-30119760D01*
G75*
G02*
X39416960Y-29859600I260160J0D01*
G01*
G37*
G36*
G01*
X42956800Y-32410400D02*
X42956800Y-32410400D01*
G75*
G02*
X48107600Y-27259600I5150800J0D01*
G01*
X48107600Y-27259600D01*
G75*
G02*
X53258400Y-32410400I0J-5150800D01*
G01*
X53258400Y-32410400D01*
G75*
G02*
X48107600Y-37561200I-5150800J0D01*
G01*
X48107600Y-37561200D01*
G75*
G02*
X42956800Y-32410400I0J5150800D01*
G01*
G37*
%TD*%
%TO.C, *%
G36*
G01*
X35630370Y-57092025D02*
X34630370Y-55359975D01*
G75*
G02*
X34703575Y-55086770I173205J100000D01*
G01*
X36435625Y-54086770D01*
G75*
G02*
X36708830Y-54159975I100000J-173205D01*
G01*
X37708830Y-55892025D01*
G75*
G02*
X37635625Y-56165230I-173205J-100000D01*
G01*
X35903575Y-57165230D01*
G75*
G02*
X35630370Y-57092025I-100000J173205D01*
G01*
G37*
%TD*%
%TO.C, *%
G36*
G01*
X36900370Y-59276425D02*
X35900370Y-57544375D01*
G75*
G02*
X35973575Y-57271170I173205J100000D01*
G01*
X37705625Y-56271170D01*
G75*
G02*
X37978830Y-56344375I100000J-173205D01*
G01*
X38978830Y-58076425D01*
G75*
G02*
X38905625Y-58349630I-173205J-100000D01*
G01*
X37173575Y-59349630D01*
G75*
G02*
X36900370Y-59276425I-100000J173205D01*
G01*
G37*
%TD*%
%TO.C, *%
G36*
G01*
X55805589Y-46460517D02*
X55121548Y-44581132D01*
G75*
G02*
X55241083Y-44324789I187939J68404D01*
G01*
X57120468Y-43640748D01*
G75*
G02*
X57376811Y-43760283I68404J-187939D01*
G01*
X58060852Y-45639668D01*
G75*
G02*
X57941317Y-45896011I-187939J-68404D01*
G01*
X56061932Y-46580052D01*
G75*
G02*
X55805589Y-46460517I-68404J187939D01*
G01*
G37*
%TD*%
%TO.C, *%
G36*
G01*
X56669189Y-48848117D02*
X55985148Y-46968732D01*
G75*
G02*
X56104683Y-46712389I187939J68404D01*
G01*
X57984068Y-46028348D01*
G75*
G02*
X58240411Y-46147883I68404J-187939D01*
G01*
X58924452Y-48027268D01*
G75*
G02*
X58804917Y-48283611I-187939J-68404D01*
G01*
X56925532Y-48967652D01*
G75*
G02*
X56669189Y-48848117I-68404J187939D01*
G01*
G37*
%TD*%
M02*
