%TF.GenerationSoftware,KiCad,Pcbnew,5.1.10*%
%TF.CreationDate,2021-10-27T07:56:43+02:00*%
%TF.ProjectId,xmas-badge,786d6173-2d62-4616-9467-652e6b696361,rev?*%
%TF.SameCoordinates,Original*%
%TF.FileFunction,Other,Fab,Top*%
%FSLAX46Y46*%
G04 Gerber Fmt 4.6, Leading zero omitted, Abs format (unit mm)*
G04 Created by KiCad (PCBNEW 5.1.10) date 2021-10-27 07:56:43*
%MOMM*%
%LPD*%
G01*
G04 APERTURE LIST*
%ADD10C,0.150000*%
G04 APERTURE END LIST*
%TO.C, *%
D10*
X40366323Y-28645980D02*
X40366323Y-27645980D01*
X40699657Y-28360266D01*
X41032990Y-27645980D01*
X41032990Y-28645980D01*
X41652038Y-28645980D02*
X41556799Y-28598361D01*
X41509180Y-28550742D01*
X41461561Y-28455504D01*
X41461561Y-28169790D01*
X41509180Y-28074552D01*
X41556799Y-28026933D01*
X41652038Y-27979314D01*
X41794895Y-27979314D01*
X41890133Y-28026933D01*
X41937752Y-28074552D01*
X41985371Y-28169790D01*
X41985371Y-28455504D01*
X41937752Y-28550742D01*
X41890133Y-28598361D01*
X41794895Y-28645980D01*
X41652038Y-28645980D01*
X42842514Y-27979314D02*
X42842514Y-28645980D01*
X42413942Y-27979314D02*
X42413942Y-28503123D01*
X42461561Y-28598361D01*
X42556799Y-28645980D01*
X42699657Y-28645980D01*
X42794895Y-28598361D01*
X42842514Y-28550742D01*
X43318704Y-27979314D02*
X43318704Y-28645980D01*
X43318704Y-28074552D02*
X43366323Y-28026933D01*
X43461561Y-27979314D01*
X43604419Y-27979314D01*
X43699657Y-28026933D01*
X43747276Y-28122171D01*
X43747276Y-28645980D01*
X44080609Y-27979314D02*
X44461561Y-27979314D01*
X44223466Y-27645980D02*
X44223466Y-28503123D01*
X44271085Y-28598361D01*
X44366323Y-28645980D01*
X44461561Y-28645980D01*
X44794895Y-28645980D02*
X44794895Y-27979314D01*
X44794895Y-27645980D02*
X44747276Y-27693600D01*
X44794895Y-27741219D01*
X44842514Y-27693600D01*
X44794895Y-27645980D01*
X44794895Y-27741219D01*
X45271085Y-27979314D02*
X45271085Y-28645980D01*
X45271085Y-28074552D02*
X45318704Y-28026933D01*
X45413942Y-27979314D01*
X45556799Y-27979314D01*
X45652038Y-28026933D01*
X45699657Y-28122171D01*
X45699657Y-28645980D01*
X46604419Y-27979314D02*
X46604419Y-28788838D01*
X46556799Y-28884076D01*
X46509180Y-28931695D01*
X46413942Y-28979314D01*
X46271085Y-28979314D01*
X46175847Y-28931695D01*
X46604419Y-28598361D02*
X46509180Y-28645980D01*
X46318704Y-28645980D01*
X46223466Y-28598361D01*
X46175847Y-28550742D01*
X46128228Y-28455504D01*
X46128228Y-28169790D01*
X46175847Y-28074552D01*
X46223466Y-28026933D01*
X46318704Y-27979314D01*
X46509180Y-27979314D01*
X46604419Y-28026933D01*
X47080609Y-28645980D02*
X47080609Y-27645980D01*
X47080609Y-28122171D02*
X47652038Y-28122171D01*
X47652038Y-28645980D02*
X47652038Y-27645980D01*
X48271085Y-28645980D02*
X48175847Y-28598361D01*
X48128228Y-28550742D01*
X48080609Y-28455504D01*
X48080609Y-28169790D01*
X48128228Y-28074552D01*
X48175847Y-28026933D01*
X48271085Y-27979314D01*
X48413942Y-27979314D01*
X48509180Y-28026933D01*
X48556799Y-28074552D01*
X48604419Y-28169790D01*
X48604419Y-28455504D01*
X48556799Y-28550742D01*
X48509180Y-28598361D01*
X48413942Y-28645980D01*
X48271085Y-28645980D01*
X49175847Y-28645980D02*
X49080609Y-28598361D01*
X49032990Y-28503123D01*
X49032990Y-27645980D01*
X49937752Y-28598361D02*
X49842514Y-28645980D01*
X49652038Y-28645980D01*
X49556799Y-28598361D01*
X49509180Y-28503123D01*
X49509180Y-28122171D01*
X49556799Y-28026933D01*
X49652038Y-27979314D01*
X49842514Y-27979314D01*
X49937752Y-28026933D01*
X49985371Y-28122171D01*
X49985371Y-28217409D01*
X49509180Y-28312647D01*
X50175847Y-28741219D02*
X50937752Y-28741219D01*
X51128228Y-27741219D02*
X51175847Y-27693600D01*
X51271085Y-27645980D01*
X51509180Y-27645980D01*
X51604419Y-27693600D01*
X51652038Y-27741219D01*
X51699657Y-27836457D01*
X51699657Y-27931695D01*
X51652038Y-28074552D01*
X51080609Y-28645980D01*
X51699657Y-28645980D01*
X52128228Y-28550742D02*
X52175847Y-28598361D01*
X52128228Y-28645980D01*
X52080609Y-28598361D01*
X52128228Y-28550742D01*
X52128228Y-28645980D01*
X53128228Y-28645980D02*
X52556799Y-28645980D01*
X52842514Y-28645980D02*
X52842514Y-27645980D01*
X52747276Y-27788838D01*
X52652038Y-27884076D01*
X52556799Y-27931695D01*
X53556799Y-28645980D02*
X53556799Y-27979314D01*
X53556799Y-28074552D02*
X53604419Y-28026933D01*
X53699657Y-27979314D01*
X53842514Y-27979314D01*
X53937752Y-28026933D01*
X53985371Y-28122171D01*
X53985371Y-28645980D01*
X53985371Y-28122171D02*
X54032990Y-28026933D01*
X54128228Y-27979314D01*
X54271085Y-27979314D01*
X54366323Y-28026933D01*
X54413942Y-28122171D01*
X54413942Y-28645980D01*
X54890133Y-28645980D02*
X54890133Y-27979314D01*
X54890133Y-28074552D02*
X54937752Y-28026933D01*
X55032990Y-27979314D01*
X55175847Y-27979314D01*
X55271085Y-28026933D01*
X55318704Y-28122171D01*
X55318704Y-28645980D01*
X55318704Y-28122171D02*
X55366323Y-28026933D01*
X55461561Y-27979314D01*
X55604419Y-27979314D01*
X55699657Y-28026933D01*
X55747276Y-28122171D01*
X55747276Y-28645980D01*
X36163385Y-56869883D02*
X35750992Y-57107978D01*
X35250992Y-56241953D01*
X36452060Y-56703216D02*
X35952060Y-55837191D01*
X36281974Y-55646715D01*
X36388262Y-55640335D01*
X36453311Y-55657765D01*
X36542170Y-55716434D01*
X36613598Y-55840152D01*
X36619978Y-55946440D01*
X36602548Y-56011489D01*
X36543879Y-56100347D01*
X36213965Y-56290823D01*
X55497692Y-43962559D02*
X55050219Y-44125426D01*
X54708199Y-43185733D01*
X55810923Y-43848553D02*
X55468903Y-42908860D01*
X55826881Y-42778567D01*
X55932662Y-42790740D01*
X55993696Y-42819201D01*
X56071016Y-42892409D01*
X56119876Y-43026651D01*
X56107703Y-43132432D01*
X56079242Y-43193466D01*
X56006034Y-43270786D01*
X55648056Y-43401080D01*
X56361292Y-46350159D02*
X55913819Y-46513026D01*
X55571799Y-45573333D01*
X56674523Y-46236153D02*
X56332503Y-45296460D01*
X56690481Y-45166167D01*
X56796262Y-45178340D01*
X56857296Y-45206801D01*
X56934616Y-45280009D01*
X56983476Y-45414251D01*
X56971303Y-45520032D01*
X56942842Y-45581066D01*
X56869634Y-45658386D01*
X56511656Y-45788680D01*
%TD*%
M02*
