%TF.GenerationSoftware,KiCad,Pcbnew,5.1.10*%
%TF.CreationDate,2021-10-27T07:56:43+02:00*%
%TF.ProjectId,xmas-badge,786d6173-2d62-4616-9467-652e6b696361,rev?*%
%TF.SameCoordinates,Original*%
%TF.FileFunction,Profile,NP*%
%FSLAX46Y46*%
G04 Gerber Fmt 4.6, Leading zero omitted, Abs format (unit mm)*
G04 Created by KiCad (PCBNEW 5.1.10) date 2021-10-27 07:56:43*
%MOMM*%
%LPD*%
G01*
G04 APERTURE LIST*
%TA.AperFunction,Profile*%
%ADD10C,0.100000*%
%TD*%
G04 APERTURE END LIST*
D10*
X46143800Y-22956699D02*
X45819500Y-22989200D01*
X45819500Y-22989200D02*
X45517900Y-23082466D01*
X45517900Y-23082466D02*
X45245100Y-23230119D01*
X45245100Y-23230119D02*
X45007800Y-23425828D01*
X45007800Y-23425828D02*
X44812100Y-23663210D01*
X44812100Y-23663210D02*
X44664400Y-23935910D01*
X44664400Y-23935910D02*
X44571200Y-24237580D01*
X44571200Y-24237580D02*
X44538700Y-24561840D01*
X44538700Y-24561840D02*
X44538700Y-27203620D01*
X44538700Y-27203620D02*
X44538700Y-27213910D01*
X44538700Y-27213910D02*
X43691800Y-27372020D01*
X43691800Y-27372020D02*
X42856400Y-27562240D01*
X42856400Y-27562240D02*
X42033200Y-27783920D01*
X42033200Y-27783920D02*
X41222700Y-28036460D01*
X41222700Y-28036460D02*
X40425400Y-28319190D01*
X40425400Y-28319190D02*
X39642300Y-28631530D01*
X39642300Y-28631530D02*
X38873900Y-28972820D01*
X38873900Y-28972820D02*
X38120700Y-29342440D01*
X38120700Y-29342440D02*
X37383500Y-29739760D01*
X37383500Y-29739760D02*
X36662900Y-30164140D01*
X36662900Y-30164140D02*
X35959500Y-30614930D01*
X35959500Y-30614930D02*
X35274100Y-31091620D01*
X35274100Y-31091620D02*
X34607100Y-31593480D01*
X34607100Y-31593480D02*
X33959300Y-32119790D01*
X33959300Y-32119790D02*
X33331300Y-32670100D01*
X33331300Y-32670100D02*
X32723720Y-33243700D01*
X32723720Y-33243700D02*
X32137250Y-33840000D01*
X32137250Y-33840000D02*
X31572550Y-34458200D01*
X31572550Y-34458200D02*
X31030200Y-35097900D01*
X31030200Y-35097900D02*
X30510910Y-35758300D01*
X30510910Y-35758300D02*
X30015210Y-36439000D01*
X30015210Y-36439000D02*
X29543850Y-37139100D01*
X29543850Y-37139100D02*
X29097430Y-37858200D01*
X29097430Y-37858200D02*
X28676590Y-38595400D01*
X28676590Y-38595400D02*
X28281970Y-39350400D01*
X28281970Y-39350400D02*
X27914250Y-40122300D01*
X27914250Y-40122300D02*
X27574020Y-40910500D01*
X27574020Y-40910500D02*
X27261940Y-41714600D01*
X27261940Y-41714600D02*
X26978680Y-42533700D01*
X26978680Y-42533700D02*
X26724850Y-43367300D01*
X26724850Y-43367300D02*
X26501100Y-44214800D01*
X26501100Y-44214800D02*
X26308080Y-45075500D01*
X26308080Y-45075500D02*
X25778270Y-45075500D01*
X25778270Y-45075500D02*
X25778270Y-54438500D01*
X25778270Y-54438500D02*
X26308090Y-54438500D01*
X26308090Y-54438500D02*
X26492380Y-55257900D01*
X26492380Y-55257900D02*
X26704630Y-56065600D01*
X26704630Y-56065600D02*
X26944290Y-56860800D01*
X26944290Y-56860800D02*
X27210800Y-57643300D01*
X27210800Y-57643300D02*
X27503640Y-58412300D01*
X27503640Y-58412300D02*
X27822250Y-59167300D01*
X27822250Y-59167300D02*
X28166090Y-59907800D01*
X28166090Y-59907800D02*
X28534610Y-60633000D01*
X28534610Y-60633000D02*
X28927270Y-61342600D01*
X28927270Y-61342600D02*
X29343520Y-62035900D01*
X29343520Y-62035900D02*
X29782830Y-62712400D01*
X29782830Y-62712400D02*
X30244640Y-63371600D01*
X30244640Y-63371600D02*
X30728370Y-64012800D01*
X30728370Y-64012800D02*
X31233610Y-64635400D01*
X31233610Y-64635400D02*
X31759690Y-65239100D01*
X31759690Y-65239100D02*
X32306020Y-65823100D01*
X32306020Y-65823100D02*
X32872240Y-66386900D01*
X32872240Y-66386900D02*
X33457700Y-66929900D01*
X33457700Y-66929900D02*
X34061700Y-67451800D01*
X34061700Y-67451800D02*
X34684000Y-67951700D01*
X34684000Y-67951700D02*
X35323800Y-68429100D01*
X35323800Y-68429100D02*
X35980700Y-68883500D01*
X35980700Y-68883500D02*
X36654200Y-69314400D01*
X36654200Y-69314400D02*
X37343600Y-69721100D01*
X37343600Y-69721100D02*
X38048400Y-70103300D01*
X38048400Y-70103300D02*
X38768100Y-70460100D01*
X38768100Y-70460100D02*
X39502100Y-70791100D01*
X39502100Y-70791100D02*
X40250000Y-71095700D01*
X40250000Y-71095700D02*
X41011100Y-71373500D01*
X41011100Y-71373500D02*
X41784800Y-71623700D01*
X41784800Y-71623700D02*
X42570800Y-71845900D01*
X42570800Y-71845900D02*
X43368300Y-72039400D01*
X43368300Y-72039400D02*
X43368300Y-72609800D01*
X43368300Y-72609800D02*
X48049500Y-72609800D01*
X48049500Y-72609800D02*
X52731300Y-72609800D01*
X52731300Y-72609800D02*
X52731300Y-72039400D01*
X52731300Y-72039400D02*
X53528800Y-71845800D01*
X53528800Y-71845800D02*
X54314700Y-71623700D01*
X54314700Y-71623700D02*
X55088600Y-71373500D01*
X55088600Y-71373500D02*
X55849500Y-71095700D01*
X55849500Y-71095700D02*
X56597400Y-70791000D01*
X56597400Y-70791000D02*
X57331500Y-70460000D01*
X57331500Y-70460000D02*
X58051100Y-70103200D01*
X58051100Y-70103200D02*
X58755900Y-69721000D01*
X58755900Y-69721000D02*
X59445300Y-69314300D01*
X59445300Y-69314300D02*
X60118700Y-68883400D01*
X60118700Y-68883400D02*
X60775600Y-68428900D01*
X60775600Y-68428900D02*
X61415400Y-67951400D01*
X61415400Y-67951400D02*
X62037600Y-67451600D01*
X62037600Y-67451600D02*
X62641800Y-66929800D01*
X62641800Y-66929800D02*
X63227200Y-66386800D01*
X63227200Y-66386800D02*
X63793300Y-65823000D01*
X63793300Y-65823000D02*
X64339600Y-65239000D01*
X64339600Y-65239000D02*
X64865700Y-64635300D01*
X64865700Y-64635300D02*
X65370800Y-64012700D01*
X65370800Y-64012700D02*
X65854600Y-63371500D01*
X65854600Y-63371500D02*
X66316400Y-62712300D01*
X66316400Y-62712300D02*
X66755700Y-62035800D01*
X66755700Y-62035800D02*
X67171900Y-61342500D01*
X67171900Y-61342500D02*
X67564500Y-60632900D01*
X67564500Y-60632900D02*
X67933100Y-59907600D01*
X67933100Y-59907600D02*
X68276800Y-59167300D01*
X68276800Y-59167300D02*
X68595500Y-58412300D01*
X68595500Y-58412300D02*
X68888300Y-57643200D01*
X68888300Y-57643200D02*
X69154800Y-56860800D01*
X69154800Y-56860800D02*
X69394400Y-56065600D01*
X69394400Y-56065600D02*
X69606700Y-55257900D01*
X69606700Y-55257900D02*
X69790900Y-54438500D01*
X69790900Y-54438500D02*
X70320800Y-54438500D01*
X70320800Y-54438500D02*
X70320800Y-45075500D01*
X70320800Y-45075500D02*
X69790900Y-45075500D01*
X69790900Y-45075500D02*
X69597900Y-44214800D01*
X69597900Y-44214800D02*
X69374200Y-43367300D01*
X69374200Y-43367300D02*
X69120400Y-42533700D01*
X69120400Y-42533700D02*
X68837100Y-41714600D01*
X68837100Y-41714600D02*
X68525100Y-40910500D01*
X68525100Y-40910500D02*
X68184800Y-40122300D01*
X68184800Y-40122300D02*
X67817100Y-39350400D01*
X67817100Y-39350400D02*
X67422500Y-38595400D01*
X67422500Y-38595400D02*
X67001600Y-37858200D01*
X67001600Y-37858200D02*
X66555200Y-37139100D01*
X66555200Y-37139100D02*
X66083800Y-36439000D01*
X66083800Y-36439000D02*
X65588100Y-35758300D01*
X65588100Y-35758300D02*
X65068900Y-35097900D01*
X65068900Y-35097900D02*
X64526500Y-34458200D01*
X64526500Y-34458200D02*
X63961800Y-33840000D01*
X63961800Y-33840000D02*
X63375300Y-33243700D01*
X63375300Y-33243700D02*
X62767800Y-32670100D01*
X62767800Y-32670100D02*
X62139800Y-32119790D01*
X62139800Y-32119790D02*
X61492000Y-31593480D01*
X61492000Y-31593480D02*
X60825000Y-31091620D01*
X60825000Y-31091620D02*
X60139500Y-30614930D01*
X60139500Y-30614930D02*
X59436100Y-30164140D01*
X59436100Y-30164140D02*
X58715500Y-29739760D01*
X58715500Y-29739760D02*
X57978300Y-29342430D01*
X57978300Y-29342430D02*
X57225200Y-28972820D01*
X57225200Y-28972820D02*
X56456700Y-28631530D01*
X56456700Y-28631530D02*
X55673600Y-28319190D01*
X55673600Y-28319190D02*
X54876400Y-28036440D01*
X54876400Y-28036440D02*
X54065900Y-27783920D01*
X54065900Y-27783920D02*
X53242700Y-27562220D01*
X53242700Y-27562220D02*
X52407300Y-27372020D01*
X52407300Y-27372020D02*
X51560400Y-27213910D01*
X51560400Y-27213910D02*
X51560400Y-27203620D01*
X51560400Y-27203620D02*
X51560400Y-24561840D01*
X51560400Y-24561840D02*
X51528000Y-24237580D01*
X51528000Y-24237580D02*
X51434700Y-23935910D01*
X51434700Y-23935910D02*
X51287200Y-23663210D01*
X51287200Y-23663210D02*
X51091500Y-23425828D01*
X51091500Y-23425828D02*
X50854300Y-23230120D01*
X50854300Y-23230120D02*
X50581700Y-23082466D01*
X50581700Y-23082466D02*
X50280100Y-22989200D01*
X50280100Y-22989200D02*
X49955800Y-22956699D01*
X49955800Y-22956699D02*
X46143800Y-22956699D01*
X46143800Y-22956699D02*
X46143800Y-22956699D01*
M02*
